<svg width="16" height="16" viewBox="0 0 16 16" fill="none" xmlns="http://www.w3.org/2000/svg">
<path d="M11.9302 2.36867C11.8747 2.25789 11.7895 2.16474 11.6842 2.09963C11.5788 2.03451 11.4574 2.00002 11.3335 2H4.66682C4.41415 2 4.18349 2.14267 4.07015 2.36867L1.40349 7.702C1.35714 7.79462 1.33301 7.89676 1.33301 8.00033C1.33301 8.1039 1.35714 8.20605 1.40349 8.29867L4.07015 13.632C4.18349 13.8573 4.41415 14 4.66682 14H11.3335C11.5862 14 11.8168 13.8573 11.9302 13.6313L14.5968 8.298C14.6432 8.20538 14.6673 8.10324 14.6673 7.99967C14.6673 7.8961 14.6432 7.79395 14.5968 7.70133L11.9302 2.36867ZM12.9215 7.33333H7.74548L5.74548 3.33333H10.9215L12.9215 7.33333ZM2.74549 8L4.66682 4.15733L6.58815 8L4.66682 11.8427L2.74549 8ZM10.9215 12.6667H5.74548L7.74548 8.66667H12.9215L10.9215 12.6667Z" fill="#232528"/>
</svg>
