<svg width="12" height="14" viewBox="0 0 12 14" fill="none" xmlns="http://www.w3.org/2000/svg">
<path d="M11.269 4.72465C11.2374 4.6523 11.1931 4.58615 11.1383 4.52932L7.13833 0.529318C7.08149 0.474506 7.01535 0.430259 6.94299 0.398651C6.92299 0.389318 6.90166 0.383984 6.88032 0.376651C6.82454 0.357668 6.76647 0.346234 6.70766 0.342651C6.69366 0.341318 6.68099 0.333984 6.66699 0.333984H2.00033C1.26499 0.333984 0.666992 0.931984 0.666992 1.66732V12.334C0.666992 13.0693 1.26499 13.6673 2.00033 13.6673H10.0003C10.7357 13.6673 11.3337 13.0693 11.3337 12.334V5.00065C11.3337 4.98665 11.3263 4.97398 11.325 4.95932C11.3217 4.90046 11.3103 4.84235 11.291 4.78665C11.2843 4.76532 11.2783 4.74465 11.269 4.72465ZM9.05766 4.33398H7.33366V2.60998L9.05766 4.33398ZM2.00033 12.334V1.66732H6.00033V5.00065C6.00033 5.17746 6.07056 5.34703 6.19559 5.47205C6.32061 5.59708 6.49018 5.66732 6.66699 5.66732H10.0003L10.0017 12.334H2.00033Z" fill="#232528"/>
</svg>
