<svg width="16" height="16" viewBox="0 0 16 16" fill="none" xmlns="http://www.w3.org/2000/svg">
<path d="M4.91665 11.1881L5.74999 10.1468L3.06732 8.0008L5.74999 5.8548L4.91665 4.81347L1.58332 7.48014C1.50522 7.54259 1.44217 7.62182 1.39884 7.71195C1.35551 7.80208 1.33301 7.9008 1.33301 8.0008C1.33301 8.10081 1.35551 8.19953 1.39884 8.28966C1.44217 8.37979 1.50522 8.45901 1.58332 8.52147L4.91665 11.1881ZM11.0833 4.81347L10.25 5.8548L12.9327 8.0008L10.25 10.1468L11.0833 11.1881L14.4167 8.52147C14.4948 8.45901 14.5578 8.37979 14.6011 8.28966C14.6445 8.19953 14.667 8.10081 14.667 8.0008C14.667 7.9008 14.6445 7.80208 14.6011 7.71195C14.5578 7.62182 14.4948 7.54259 14.4167 7.48014L11.0833 4.81347ZM9.98399 2.1448L7.31732 14.1448L6.01532 13.8555L8.68199 1.85547L9.98399 2.1448Z" fill="#232528"/>
</svg>
