<svg width="16" height="16" viewBox="0 0 16 16" fill="none" xmlns="http://www.w3.org/2000/svg">
<path d="M13.269 5.72465C13.2374 5.6523 13.1931 5.58615 13.1383 5.52932L9.13833 1.52932C9.08149 1.47451 9.01535 1.43026 8.94299 1.39865C8.92299 1.38932 8.90166 1.38398 8.88032 1.37665C8.82454 1.35767 8.76647 1.34623 8.70766 1.34265C8.69366 1.34132 8.68099 1.33398 8.66699 1.33398H4.00033C3.26499 1.33398 2.66699 1.93198 2.66699 2.66732V13.334C2.66699 14.0693 3.26499 14.6673 4.00033 14.6673H12.0003C12.7357 14.6673 13.3337 14.0693 13.3337 13.334V6.00065C13.3337 5.98665 13.3263 5.97398 13.325 5.95932C13.3217 5.90046 13.3103 5.84235 13.291 5.78665C13.2843 5.76532 13.2783 5.74465 13.269 5.72465ZM11.0577 5.33398H9.33366V3.60998L11.0577 5.33398ZM4.00033 13.334V2.66732H8.00033V6.00065C8.00033 6.17746 8.07056 6.34703 8.19559 6.47205C8.32061 6.59708 8.49018 6.66732 8.66699 6.66732H12.0003L12.0017 13.334H4.00033Z" fill="#232528"/>
<path d="M5.33301 8.00065H10.6663V9.33398H5.33301V8.00065ZM5.33301 10.6673H10.6663V12.0007H5.33301V10.6673ZM5.33301 5.33398H6.66634V6.66732H5.33301V5.33398Z" fill="#232528"/>
</svg>
