<svg width="16" height="16" viewBox="0 0 16 16" fill="none" xmlns="http://www.w3.org/2000/svg">
<path d="M13.1223 3.88145L7.12234 1.70011C6.92095 1.62649 6.70475 1.60258 6.49214 1.63041C6.27952 1.65824 6.07676 1.73699 5.9011 1.85996C5.72544 1.98294 5.58206 2.14651 5.48316 2.33677C5.38425 2.52703 5.33274 2.73835 5.33301 2.95278V7.03878C4.92959 6.79842 4.46927 6.67022 3.99967 6.66745C2.52901 6.66745 1.33301 7.86345 1.33301 9.33411C1.33301 10.8048 2.52901 12.0008 3.99967 12.0008C5.47034 12.0008 6.66634 10.8048 6.66634 9.33411V2.95278L12.6663 5.13411V9.70478C12.2627 9.46492 11.8025 9.33697 11.333 9.33411C9.86234 9.33411 8.66634 10.5301 8.66634 12.0008C8.66634 13.4714 9.86234 14.6674 11.333 14.6674C12.8037 14.6674 13.9997 13.4714 13.9997 12.0008V5.13411C13.9997 4.57545 13.647 4.07145 13.1223 3.88145ZM3.99967 10.6674C3.26434 10.6674 2.66634 10.0694 2.66634 9.33411C2.66634 8.59878 3.26434 8.00078 3.99967 8.00078C4.73501 8.00078 5.33301 8.59878 5.33301 9.33411C5.33301 10.0694 4.73501 10.6674 3.99967 10.6674ZM11.333 13.3341C10.5977 13.3341 9.99967 12.7361 9.99967 12.0008C9.99967 11.2654 10.5977 10.6674 11.333 10.6674C12.0683 10.6674 12.6663 11.2654 12.6663 12.0008C12.6663 12.7361 12.0683 13.3341 11.333 13.3341Z" fill="#232528"/>
</svg>
