<svg width="16" height="16" viewBox="0 0 16 16" fill="none" xmlns="http://www.w3.org/2000/svg">
<path d="M14.4703 3.52799L12.471 1.52932C12.4092 1.46729 12.3357 1.4181 12.2549 1.38457C12.174 1.35105 12.0872 1.33386 11.9997 1.33399H3.99968C3.91211 1.33386 3.82539 1.35105 3.7445 1.38457C3.66361 1.4181 3.59015 1.46729 3.52834 1.52932L1.52901 3.52799C1.46672 3.58977 1.41732 3.66331 1.38368 3.74433C1.35003 3.82535 1.33281 3.91225 1.33301 3.99999V12.6673C1.33301 13.4027 1.93101 14.0007 2.66634 14.0007H13.333C14.0683 14.0007 14.6663 13.4027 14.6663 12.6673V3.99999C14.6665 3.91225 14.6493 3.82535 14.6157 3.74433C14.582 3.66331 14.5326 3.58977 14.4703 3.52799ZM4.27568 2.66732H11.7237L12.3897 3.33332H3.60968L4.27568 2.66732ZM2.66634 12.6673V4.66665H13.333L13.3343 12.6673H2.66634Z" fill="#232528"/>
<path d="M10.0003 7.99935H6.00033V6.66602H4.66699V9.33268H11.3337V6.66602H10.0003V7.99935Z" fill="#232528"/>
</svg>
