<svg width="16" height="16" viewBox="0 0 16 16" fill="none" xmlns="http://www.w3.org/2000/svg">
<path d="M13.333 2H2.66634C1.93101 2 1.33301 2.598 1.33301 3.33333V12.6667C1.33301 13.402 1.93101 14 2.66634 14H13.333C14.0683 14 14.6663 13.402 14.6663 12.6667V3.33333C14.6663 2.598 14.0683 2 13.333 2ZM13.3337 6C13.333 6 13.333 6 13.3337 6H13.0237L11.2457 3.33333H13.333L13.3337 6ZM6.35701 6L4.57901 3.33333H6.30967L8.08767 6H6.35701ZM9.69034 6L7.91234 3.33333H9.64301L11.421 6H9.69034ZM2.66634 3.33333H2.97634L4.75434 6H2.66634V3.33333ZM2.66634 12.6667V7.33333H13.333L13.3343 12.6667H2.66634Z" fill="#232528"/>
<path d="M6.66699 12L10.3337 10L6.66699 8V12Z" fill="#232528"/>
</svg>
