<svg width="26" height="40" viewBox="0 0 26 40" fill="none" xmlns="http://www.w3.org/2000/svg">
<path d="M21.7423 17.502C19.7547 15.5098 17.0213 14.245 14.0881 13.9547C14.0597 13.952 14.0326 13.9494 14.0068 13.947L14.0007 13.9464C13.5487 13.9032 13.4841 13.897 13.4336 13.9209C13.4252 13.9249 13.4171 13.9298 13.4078 13.9354C13.4078 13.9354 13.4041 13.9376 13.4023 13.9387L13.3994 13.9404C13.3424 13.9726 13.3352 14.0371 13.3352 14.4492C13.3352 14.7108 13.3459 14.9544 13.3566 14.9938C13.3709 15.0476 13.4458 15.0942 13.6243 15.1515C14.6127 15.4919 15.1622 16.5381 14.8482 17.4805C14.6841 17.9785 14.1524 18.4873 13.6421 18.6378L13.3887 18.713L13.3994 19.6124C13.403 20.1069 13.4137 20.5297 13.4209 20.5512C13.4316 20.5763 13.6742 20.5978 14.1096 20.6157C18.1097 20.7661 22.1241 21.5114 24.5149 22.5505C24.8039 22.6759 25.0465 22.7691 25.0537 22.7548C25.0822 22.7046 24.7004 21.7658 24.4328 21.2284C23.7548 19.8668 22.8449 18.6056 21.7423 17.502Z" fill="#232528"/>
<path d="M21.7423 17.502C19.7547 15.5098 17.0213 14.245 14.0881 13.9547C14.0597 13.952 14.0326 13.9494 14.0068 13.947L14.0007 13.9464C13.5487 13.9032 13.4841 13.897 13.4336 13.9209C13.4252 13.9249 13.4171 13.9298 13.4078 13.9354C13.4078 13.9354 13.4041 13.9376 13.4023 13.9387L13.3994 13.9404C13.3424 13.9726 13.3352 14.0371 13.3352 14.4492C13.3352 14.7108 13.3459 14.9544 13.3566 14.9938C13.3709 15.0476 13.4458 15.0942 13.6243 15.1515C14.6127 15.4919 15.1622 16.5381 14.8482 17.4805C14.6841 17.9785 14.1524 18.4873 13.6421 18.6378L13.3887 18.713L13.3994 19.6124C13.403 20.1069 13.4137 20.5297 13.4209 20.5512C13.4316 20.5763 13.6742 20.5978 14.1096 20.6157C18.1097 20.7661 22.1241 21.5114 24.5149 22.5505C24.8039 22.6759 25.0465 22.7691 25.0537 22.7548C25.0822 22.7046 24.7004 21.7658 24.4328 21.2284C23.7548 19.8668 22.8449 18.6056 21.7423 17.502Z" fill="white" fill-opacity="0.6"/>
<path d="M12.7678 14.9902C12.7792 14.9683 12.8035 14.0371 12.7678 13.9762C12.7215 13.9046 12.4824 13.901 11.9435 13.9583C9.85606 14.1769 7.89704 14.8792 6.145 16.0329C4.36081 17.2082 2.73364 19.1072 1.68455 21.2284C1.43477 21.7372 1.06009 22.6473 1.06009 22.7512C1.06009 22.7655 1.2956 22.6759 1.58464 22.5505C3.97543 21.5114 7.98983 20.7661 11.99 20.6157C12.4253 20.5978 12.6679 20.5763 12.6929 20.5476C12.7108 20.5261 12.7286 20.1319 12.7286 19.616L12.7322 18.7238L12.4538 18.6342C11.9222 18.4587 11.4726 18.0323 11.2941 17.5306C11.2013 17.2763 11.152 16.9207 11.2299 16.5417C11.3054 16.174 11.4761 15.8896 11.6581 15.6818C11.8472 15.4668 12.1398 15.2769 12.4717 15.1551C12.5142 15.1396 12.5503 15.129 12.5814 15.1198C12.6733 15.0928 12.7225 15.0783 12.7678 14.9902Z" fill="#232528"/>
<path d="M12.7678 14.9902C12.7792 14.9683 12.8035 14.0371 12.7678 13.9762C12.7215 13.9046 12.4824 13.901 11.9435 13.9583C9.85606 14.1769 7.89704 14.8792 6.145 16.0329C4.36081 17.2082 2.73364 19.1072 1.68455 21.2284C1.43477 21.7372 1.06009 22.6473 1.06009 22.7512C1.06009 22.7655 1.2956 22.6759 1.58464 22.5505C3.97543 21.5114 7.98983 20.7661 11.99 20.6157C12.4253 20.5978 12.6679 20.5763 12.6929 20.5476C12.7108 20.5261 12.7286 20.1319 12.7286 19.616L12.7322 18.7238L12.4538 18.6342C11.9222 18.4587 11.4726 18.0323 11.2941 17.5306C11.2013 17.2763 11.152 16.9207 11.2299 16.5417C11.3054 16.174 11.4761 15.8896 11.6581 15.6818C11.8472 15.4668 12.1398 15.2769 12.4717 15.1551C12.5142 15.1396 12.5503 15.129 12.5814 15.1198C12.6733 15.0928 12.7225 15.0783 12.7678 14.9902Z" fill="white" fill-opacity="0.6"/>
<path d="M14.3046 16.8225C14.3046 17.4904 13.7253 18.0318 13.0602 18.0318C12.395 18.0318 11.7889 17.4904 11.7889 16.8225C11.7889 16.1547 12.395 15.5595 13.0602 15.5595C13.7253 15.5595 14.3046 16.1547 14.3046 16.8225Z" fill="#232528"/>
<path d="M14.3046 16.8225C14.3046 17.4904 13.7253 18.0318 13.0602 18.0318C12.395 18.0318 11.7889 17.4904 11.7889 16.8225C11.7889 16.1547 12.395 15.5595 13.0602 15.5595C13.7253 15.5595 14.3046 16.1547 14.3046 16.8225Z" fill="white" fill-opacity="0.6"/>
<path d="M5.63471 1.66838C5.36353 1.28499 4.86751 0.783355 4.66055 0.686612C4.34655 0.536123 4.17882 0.600618 4.0111 0.941011C3.88979 1.19541 3.78988 1.56805 3.71136 2.07685C3.62572 2.63581 3.62931 4.41659 3.71495 5.39119C3.93617 7.84919 4.4536 10.6583 5.22436 13.5427C5.41705 14.2665 5.75961 15.4453 5.78814 15.4704C5.79529 15.4775 6.21279 15.2482 6.71592 14.958C7.2155 14.6713 7.76146 14.3704 7.92203 14.2951C8.30027 14.1231 8.9961 13.8723 9.33866 13.7899C9.48497 13.7541 9.67052 13.7039 9.74901 13.6717C9.82754 13.643 9.92032 13.6179 9.956 13.6143C10.0416 13.6143 10.0345 13.557 9.89177 12.9264C8.82841 8.30423 7.10845 3.74656 5.63471 1.66838Z" fill="#232528"/>
<path d="M5.63471 1.66838C5.36353 1.28499 4.86751 0.783355 4.66055 0.686612C4.34655 0.536123 4.17882 0.600618 4.0111 0.941011C3.88979 1.19541 3.78988 1.56805 3.71136 2.07685C3.62572 2.63581 3.62931 4.41659 3.71495 5.39119C3.93617 7.84919 4.4536 10.6583 5.22436 13.5427C5.41705 14.2665 5.75961 15.4453 5.78814 15.4704C5.79529 15.4775 6.21279 15.2482 6.71592 14.958C7.2155 14.6713 7.76146 14.3704 7.92203 14.2951C8.30027 14.1231 8.9961 13.8723 9.33866 13.7899C9.48497 13.7541 9.67052 13.7039 9.74901 13.6717C9.82754 13.643 9.92032 13.6179 9.956 13.6143C10.0416 13.6143 10.0345 13.557 9.89177 12.9264C8.82841 8.30423 7.10845 3.74656 5.63471 1.66838Z" fill="white" fill-opacity="0.6"/>
<path d="M22.4238 2.11268C22.3096 1.36381 22.1348 0.872934 21.9242 0.693779C21.7066 0.511042 21.414 0.622117 20.9893 1.05567C20.3363 1.71854 19.5763 3.03354 18.8019 4.83581C17.8599 7.0394 16.8572 10.1961 16.2434 12.8977C16.1756 13.2023 16.1114 13.4889 16.1007 13.5319C16.0864 13.5928 16.0971 13.6143 16.1435 13.6143C16.1792 13.6179 16.272 13.643 16.3505 13.6717C16.429 13.7039 16.6145 13.7541 16.7609 13.7899C17.1034 13.8723 17.7992 14.1231 18.1775 14.2951C18.3381 14.3704 18.8804 14.6678 19.38 14.9544C19.876 15.2411 20.2971 15.4775 20.3149 15.4775C20.3506 15.4775 20.6682 14.4277 20.9322 13.4352C21.6852 10.601 22.2026 7.78469 22.4202 5.35537C22.5059 4.38434 22.5095 2.67164 22.4238 2.11268Z" fill="#232528"/>
<path d="M22.4238 2.11268C22.3096 1.36381 22.1348 0.872934 21.9242 0.693779C21.7066 0.511042 21.414 0.622117 20.9893 1.05567C20.3363 1.71854 19.5763 3.03354 18.8019 4.83581C17.8599 7.0394 16.8572 10.1961 16.2434 12.8977C16.1756 13.2023 16.1114 13.4889 16.1007 13.5319C16.0864 13.5928 16.0971 13.6143 16.1435 13.6143C16.1792 13.6179 16.272 13.643 16.3505 13.6717C16.429 13.7039 16.6145 13.7541 16.7609 13.7899C17.1034 13.8723 17.7992 14.1231 18.1775 14.2951C18.3381 14.3704 18.8804 14.6678 19.38 14.9544C19.876 15.2411 20.2971 15.4775 20.3149 15.4775C20.3506 15.4775 20.6682 14.4277 20.9322 13.4352C21.6852 10.601 22.2026 7.78469 22.4202 5.35537C22.5059 4.38434 22.5095 2.67164 22.4238 2.11268Z" fill="white" fill-opacity="0.6"/>
<path fill-rule="evenodd" clip-rule="evenodd" d="M21.2498 22.1779C19.3443 21.7228 16.9 21.3968 14.5841 21.2857C13.3852 21.2248 12.9284 21.2212 12.1755 21.2499C9.39575 21.3574 6.71236 21.7121 4.51424 22.2567L3.90405 22.4072L3.76489 22.7082C3.47229 23.346 3.20467 24.2596 3.07976 25.0623C2.81572 26.7463 2.92989 28.6488 3.38309 30.0427C3.54008 30.5229 3.95758 31.4044 4.05392 31.4544C4.14671 31.5046 5.02452 31.6946 5.64542 31.7983C6.34481 31.9131 7.42246 32.0493 8.17896 32.1173C9.72404 32.2536 10.0523 32.2643 13.0498 32.2643C16.0472 32.2643 16.3755 32.2536 17.9206 32.1173C19.5406 31.9741 21.8172 31.6014 22.067 31.4401C22.1776 31.3649 22.5915 30.5049 22.7521 30.007C23.0483 29.0968 23.1874 28.1006 23.1874 26.9255C23.1874 25.9401 23.1125 25.2307 22.9127 24.3636C22.7985 23.8619 22.5344 23.0916 22.3524 22.7154C22.3362 22.6821 22.3227 22.6525 22.3106 22.6261C22.2802 22.5598 22.2587 22.513 22.2263 22.4761C22.1488 22.3878 22.0086 22.3551 21.5335 22.2444C21.4498 22.2249 21.3557 22.203 21.2498 22.1779ZM19.8846 26.6043C19.8846 27.7174 18.986 28.6198 17.8774 28.6198C16.7689 28.6198 15.8702 27.7174 15.8702 26.6043C15.8702 25.4912 16.7689 24.5888 17.8774 24.5888C18.986 24.5888 19.8846 25.4912 19.8846 26.6043ZM8.24289 28.6198C9.35143 28.6198 10.2501 27.7174 10.2501 26.6043C10.2501 25.4912 9.35143 24.5888 8.24289 24.5888C7.13436 24.5888 6.23569 25.4912 6.23569 26.6043C6.23569 27.7174 7.13436 28.6198 8.24289 28.6198Z" fill="#232528"/>
<path fill-rule="evenodd" clip-rule="evenodd" d="M21.2498 22.1779C19.3443 21.7228 16.9 21.3968 14.5841 21.2857C13.3852 21.2248 12.9284 21.2212 12.1755 21.2499C9.39575 21.3574 6.71236 21.7121 4.51424 22.2567L3.90405 22.4072L3.76489 22.7082C3.47229 23.346 3.20467 24.2596 3.07976 25.0623C2.81572 26.7463 2.92989 28.6488 3.38309 30.0427C3.54008 30.5229 3.95758 31.4044 4.05392 31.4544C4.14671 31.5046 5.02452 31.6946 5.64542 31.7983C6.34481 31.9131 7.42246 32.0493 8.17896 32.1173C9.72404 32.2536 10.0523 32.2643 13.0498 32.2643C16.0472 32.2643 16.3755 32.2536 17.9206 32.1173C19.5406 31.9741 21.8172 31.6014 22.067 31.4401C22.1776 31.3649 22.5915 30.5049 22.7521 30.007C23.0483 29.0968 23.1874 28.1006 23.1874 26.9255C23.1874 25.9401 23.1125 25.2307 22.9127 24.3636C22.7985 23.8619 22.5344 23.0916 22.3524 22.7154C22.3362 22.6821 22.3227 22.6525 22.3106 22.6261C22.2802 22.5598 22.2587 22.513 22.2263 22.4761C22.1488 22.3878 22.0086 22.3551 21.5335 22.2444C21.4498 22.2249 21.3557 22.203 21.2498 22.1779ZM19.8846 26.6043C19.8846 27.7174 18.986 28.6198 17.8774 28.6198C16.7689 28.6198 15.8702 27.7174 15.8702 26.6043C15.8702 25.4912 16.7689 24.5888 17.8774 24.5888C18.986 24.5888 19.8846 25.4912 19.8846 26.6043ZM8.24289 28.6198C9.35143 28.6198 10.2501 27.7174 10.2501 26.6043C10.2501 25.4912 9.35143 24.5888 8.24289 24.5888C7.13436 24.5888 6.23569 25.4912 6.23569 26.6043C6.23569 27.7174 7.13436 28.6198 8.24289 28.6198Z" fill="white" fill-opacity="0.6"/>
<path d="M8.01838 32.748C5.9523 32.558 4.26091 32.2391 2.84425 31.7699C2.41963 31.6301 2.01641 31.4689 1.7131 31.3146C1.45261 31.1821 1.23851 31.0781 1.23851 31.0889C1.23851 31.1464 1.59891 31.9668 1.80944 32.3896C3.51511 35.8043 6.8765 38.3484 10.6233 39.0541C11.6295 39.2441 12.6073 39.3335 12.6965 39.2441C12.7215 39.2191 12.7393 38.1154 12.7536 36.073L12.775 32.9378L11.3691 32.9163C9.87747 32.8913 9.30299 32.8625 8.01838 32.748Z" fill="#232528"/>
<path d="M8.01838 32.748C5.9523 32.558 4.26091 32.2391 2.84425 31.7699C2.41963 31.6301 2.01641 31.4689 1.7131 31.3146C1.45261 31.1821 1.23851 31.0781 1.23851 31.0889C1.23851 31.1464 1.59891 31.9668 1.80944 32.3896C3.51511 35.8043 6.8765 38.3484 10.6233 39.0541C11.6295 39.2441 12.6073 39.3335 12.6965 39.2441C12.7215 39.2191 12.7393 38.1154 12.7536 36.073L12.775 32.9378L11.3691 32.9163C9.87747 32.8913 9.30299 32.8625 8.01838 32.748Z" fill="white" fill-opacity="0.6"/>
<path d="M23.8333 33.246C24.1687 32.712 24.5648 31.9058 24.8253 31.2394C24.8646 31.1426 24.8824 31.0674 24.8681 31.0674C24.8539 31.0712 24.6326 31.1821 24.3793 31.3146C23.1018 31.9741 20.7931 32.5008 18.0811 32.748C16.8001 32.8625 16.2256 32.8913 14.7554 32.9163L13.3709 32.9378L13.3745 35.1271C13.3781 36.331 13.3887 37.7572 13.403 38.2981L13.4244 39.2798L13.7456 39.2728C14.4664 39.2583 15.7296 39.0398 16.6181 38.7746C19.6369 37.8754 22.1526 35.9441 23.8333 33.246Z" fill="#232528"/>
<path d="M23.8333 33.246C24.1687 32.712 24.5648 31.9058 24.8253 31.2394C24.8646 31.1426 24.8824 31.0674 24.8681 31.0674C24.8539 31.0712 24.6326 31.1821 24.3793 31.3146C23.1018 31.9741 20.7931 32.5008 18.0811 32.748C16.8001 32.8625 16.2256 32.8913 14.7554 32.9163L13.3709 32.9378L13.3745 35.1271C13.3781 36.331 13.3887 37.7572 13.403 38.2981L13.4244 39.2798L13.7456 39.2728C14.4664 39.2583 15.7296 39.0398 16.6181 38.7746C19.6369 37.8754 22.1526 35.9441 23.8333 33.246Z" fill="white" fill-opacity="0.6"/>
<path d="M25.1821 29.5448C25.0144 29.2688 24.472 28.8138 24.0688 28.6058C23.9368 28.5378 23.8119 28.4841 23.7905 28.4841C23.7441 28.4841 23.7334 28.5128 23.6834 28.8603C23.5907 29.4838 23.323 30.4009 23.0732 30.9529C23.0162 31.0781 22.9769 31.1894 22.984 31.1964C22.9912 31.2036 23.1553 31.1534 23.348 31.0781C24.3757 30.6949 24.993 30.272 25.1821 29.8242C25.222 29.7321 25.2396 29.6914 25.2349 29.6535C25.2312 29.6235 25.2136 29.5953 25.1821 29.5448Z" fill="#232528"/>
<path d="M25.1821 29.5448C25.0144 29.2688 24.472 28.8138 24.0688 28.6058C23.9368 28.5378 23.8119 28.4841 23.7905 28.4841C23.7441 28.4841 23.7334 28.5128 23.6834 28.8603C23.5907 29.4838 23.323 30.4009 23.0732 30.9529C23.0162 31.0781 22.9769 31.1894 22.984 31.1964C22.9912 31.2036 23.1553 31.1534 23.348 31.0781C24.3757 30.6949 24.993 30.272 25.1821 29.8242C25.222 29.7321 25.2396 29.6914 25.2349 29.6535C25.2312 29.6235 25.2136 29.5953 25.1821 29.5448Z" fill="white" fill-opacity="0.6"/>
<path d="M25.3285 23.7079C25.2749 23.5681 24.5006 23.1919 23.5264 22.8372C23.1161 22.6867 23.0411 22.6652 23.0411 22.6939C23.0411 22.701 23.0911 22.8229 23.1518 22.9697C23.2945 23.3209 23.5157 24.0841 23.5978 24.5176L23.6656 24.8724L23.7869 24.8509C24.0795 24.8043 24.679 24.4496 25.1144 24.0698C25.3463 23.8691 25.3713 23.8225 25.3285 23.7079Z" fill="#232528"/>
<path d="M25.3285 23.7079C25.2749 23.5681 24.5006 23.1919 23.5264 22.8372C23.1161 22.6867 23.0411 22.6652 23.0411 22.6939C23.0411 22.701 23.0911 22.8229 23.1518 22.9697C23.2945 23.3209 23.5157 24.0841 23.5978 24.5176L23.6656 24.8724L23.7869 24.8509C24.0795 24.8043 24.679 24.4496 25.1144 24.0698C25.3463 23.8691 25.3713 23.8225 25.3285 23.7079Z" fill="white" fill-opacity="0.6"/>
<path d="M2.54095 24.4531C2.64444 23.9479 2.81928 23.3531 2.96915 22.9733C3.10476 22.6365 3.10117 22.6329 2.7729 22.7584C1.51684 23.2313 0.831716 23.5609 0.792463 23.7079C0.760348 23.844 0.796031 23.9049 1.003 24.0841C1.45618 24.4782 2.08064 24.8365 2.33399 24.8437L2.45888 24.8473L2.54095 24.4531Z" fill="#232528"/>
<path d="M2.54095 24.4531C2.64444 23.9479 2.81928 23.3531 2.96915 22.9733C3.10476 22.6365 3.10117 22.6329 2.7729 22.7584C1.51684 23.2313 0.831716 23.5609 0.792463 23.7079C0.760348 23.844 0.796031 23.9049 1.003 24.0841C1.45618 24.4782 2.08064 24.8365 2.33399 24.8437L2.45888 24.8473L2.54095 24.4531Z" fill="white" fill-opacity="0.6"/>
<path d="M2.4339 28.7886C2.41963 28.6883 2.40179 28.5808 2.39108 28.5451C2.38395 28.5128 2.34826 28.4841 2.31615 28.4841C2.22337 28.4876 1.77733 28.7348 1.53825 28.9213C1.27419 29.1256 0.924491 29.498 0.899514 29.6055C0.867399 29.7237 0.999427 29.9962 1.16714 30.1825C1.34199 30.3725 1.78447 30.6662 2.14487 30.8309C2.49457 30.9887 3.09761 31.2144 3.11902 31.1929C3.12973 31.1856 3.07265 31.0174 2.99412 30.8239C2.74079 30.2005 2.50527 29.344 2.4339 28.7886Z" fill="#232528"/>
<path d="M2.4339 28.7886C2.41963 28.6883 2.40179 28.5808 2.39108 28.5451C2.38395 28.5128 2.34826 28.4841 2.31615 28.4841C2.22337 28.4876 1.77733 28.7348 1.53825 28.9213C1.27419 29.1256 0.924491 29.498 0.899514 29.6055C0.867399 29.7237 0.999427 29.9962 1.16714 30.1825C1.34199 30.3725 1.78447 30.6662 2.14487 30.8309C2.49457 30.9887 3.09761 31.2144 3.11902 31.1929C3.12973 31.1856 3.07265 31.0174 2.99412 30.8239C2.74079 30.2005 2.50527 29.344 2.4339 28.7886Z" fill="white" fill-opacity="0.6"/>
</svg>
