<svg width="120" height="120" viewBox="0 0 120 120" fill="none" xmlns="http://www.w3.org/2000/svg">
<path d="M80.8648 53.9779C76.078 49.1996 69.4948 46.1659 62.4304 45.4698C62.362 45.4633 62.2972 45.4571 62.2348 45.4512L62.2198 45.4497C61.1314 45.3461 60.976 45.3313 60.8542 45.3887C60.8338 45.3983 60.8146 45.4098 60.7924 45.4233L60.7918 45.4234L60.7912 45.4239C60.787 45.4263 60.7834 45.4287 60.7786 45.4313L60.772 45.4354C60.6346 45.5127 60.6172 45.6674 60.6172 46.6558C60.6172 47.2831 60.643 47.8676 60.6688 47.962C60.703 48.0909 60.8836 48.2027 61.3132 48.3402C63.694 49.1567 65.0176 51.666 64.261 53.9263C63.8656 55.1208 62.5852 56.3412 61.3564 56.7021L60.7462 56.8826L60.772 59.0397C60.7804 60.2255 60.8062 61.2401 60.8236 61.2911C60.8494 61.3517 61.4338 61.4033 62.482 61.4459C72.1162 61.8071 81.7846 63.5945 87.5422 66.0869C88.2382 66.3875 88.8226 66.6113 88.84 66.5765C88.909 66.4565 87.9892 64.2047 87.3448 62.9159C85.7116 59.6499 83.5204 56.6248 80.8648 53.9779Z" fill="white"/>
<path d="M59.2507 47.9552C59.2779 47.9025 59.3366 45.6691 59.2507 45.5231C59.1389 45.3512 58.5632 45.3426 57.2654 45.4801C52.2379 46.0043 47.5198 47.6888 43.3002 50.4561C39.0032 53.2749 35.0843 57.8297 32.5576 62.9176C31.9561 64.138 31.0537 66.3208 31.0537 66.5698C31.0537 66.604 31.6209 66.3892 32.317 66.0886C38.075 63.5962 47.7433 61.8088 57.3772 61.4476C58.4257 61.405 59.0101 61.3534 59.0702 61.2844C59.1132 61.2328 59.1562 60.2878 59.1562 59.05L59.1647 56.9101L58.4944 56.6953C57.214 56.2742 56.1311 55.2515 55.7014 54.0483C55.4779 53.4382 55.3592 52.5855 55.5467 51.6763C55.7285 50.7943 56.1397 50.1123 56.578 49.6138C57.0335 49.0981 57.7382 48.6427 58.5374 48.3505C58.6397 48.3135 58.7266 48.288 58.8016 48.266H58.8017C59.0229 48.2011 59.1415 48.1664 59.2507 47.9552Z" fill="white"/>
<path d="M62.9521 52.3497C62.9521 53.9517 61.5571 55.2502 59.9552 55.2502C58.3533 55.2502 56.8936 53.9517 56.8936 52.3497C56.8936 50.7478 58.3533 49.3203 59.9552 49.3203C61.5571 49.3203 62.9521 50.7478 62.9521 52.3497Z" fill="white"/>
<path d="M42.0717 16.0013C41.4186 15.0817 40.224 13.8786 39.7255 13.6465C38.9693 13.2856 38.5654 13.4403 38.1614 14.2567C37.8692 14.8669 37.6286 15.7607 37.4395 16.981C37.2332 18.3217 37.2419 22.5929 37.4482 24.9305C37.981 30.826 39.2271 37.5637 41.0834 44.4819C41.5475 46.2179 42.3725 49.0453 42.4412 49.1055C42.4585 49.1227 43.4639 48.5726 44.6757 47.8765C45.8789 47.189 47.1938 46.4671 47.5805 46.2866C48.4915 45.8741 50.1673 45.2726 50.9923 45.0749C51.3447 44.989 51.7915 44.8686 51.9806 44.7913C52.1697 44.7226 52.3931 44.6624 52.4791 44.6538C52.6853 44.6538 52.6681 44.5163 52.3244 43.0037C49.7634 31.9174 45.6211 20.9858 42.0717 16.0013Z" fill="white"/>
<path d="M82.5064 17.0666C82.231 15.2705 81.8104 14.0931 81.3034 13.6634C80.779 13.2251 80.074 13.4915 79.0516 14.5314C77.479 16.1213 75.6484 19.2753 73.7836 23.5981C71.5144 28.8834 69.0994 36.4547 67.6216 42.9346C67.4584 43.6651 67.3036 44.3526 67.2778 44.4557C67.2436 44.6018 67.2688 44.6534 67.381 44.6534C67.4668 44.662 67.69 44.7222 67.879 44.7909C68.068 44.8682 68.515 44.9886 68.8678 45.0745C69.6928 45.2722 71.3686 45.8738 72.2794 46.2863C72.6664 46.4667 73.9726 47.18 75.1756 47.8676C76.3702 48.5551 77.3842 49.1223 77.4274 49.1223C77.5132 49.1223 78.2782 46.6043 78.9142 44.2237C80.7274 37.4259 81.9736 30.671 82.4974 24.8442C82.7038 22.5152 82.7128 18.4073 82.5064 17.0666Z" fill="white"/>
<path fill-rule="evenodd" clip-rule="evenodd" d="M79.6787 65.193C75.0899 64.1016 69.2027 63.3198 63.6251 63.0534C60.7379 62.907 59.6376 62.8986 57.8244 62.9676C51.1296 63.225 44.6669 64.0758 39.3729 65.382L37.9033 65.7432L37.5682 66.465C36.8635 67.995 36.219 70.1862 35.9181 72.1116C35.2822 76.1508 35.5572 80.7138 36.6487 84.057C37.0268 85.209 38.0323 87.3228 38.2643 87.4428C38.4878 87.5634 40.6019 88.0194 42.0973 88.2678C43.7817 88.5432 46.3771 88.8702 48.199 89.0328C51.9202 89.3598 52.7109 89.3856 59.9299 89.3856C67.1489 89.3856 67.9397 89.3598 71.6609 89.0328C75.5621 88.6896 81.0455 87.7956 81.6467 87.4086C81.9137 87.228 82.9103 85.1658 83.2973 83.9712C84.0101 81.7884 84.3455 79.3986 84.3455 76.5804C84.3455 74.217 84.1649 72.5154 83.6837 70.4358C83.4089 69.2322 82.7729 67.3848 82.3343 66.4824C82.2953 66.4026 82.2629 66.3318 82.2335 66.2688V66.2682C82.1603 66.1092 82.1087 65.997 82.0307 65.9082C81.8441 65.6964 81.5063 65.6184 80.3621 65.3526C80.1605 65.3058 79.9343 65.2536 79.6787 65.193ZM76.3913 75.81C76.3913 78.48 74.2265 80.6442 71.5571 80.6442C68.8871 80.6442 66.7229 78.48 66.7229 75.81C66.7229 73.14 68.8871 70.9758 71.5571 70.9758C74.2265 70.9758 76.3913 73.14 76.3913 75.81ZM48.353 80.6442C51.0228 80.6442 53.1871 78.48 53.1871 75.81C53.1871 73.14 51.0228 70.9758 48.353 70.9758C45.6832 70.9758 43.5189 73.14 43.5189 75.81C43.5189 78.48 45.6832 80.6442 48.353 80.6442Z" fill="white"/>
<path d="M47.8121 90.5461C42.8361 90.0901 38.7625 89.3251 35.3507 88.1995C34.3281 87.8647 33.3569 87.4777 32.6264 87.1081C31.999 86.7901 31.4834 86.5405 31.4834 86.5663C31.4834 86.7043 32.3514 88.6723 32.8585 89.6863C36.9664 97.8763 45.0619 103.978 54.0857 105.671C56.5092 106.127 58.8639 106.341 59.0788 106.127C59.139 106.067 59.182 103.42 59.2163 98.5207L59.2679 91.0009L55.8819 90.9493C52.2895 90.8893 50.9059 90.8203 47.8121 90.5461Z" fill="white"/>
<path d="M85.9013 91.741C86.7089 90.4606 87.6629 88.5268 88.2899 86.9284C88.3847 86.6962 88.4279 86.5156 88.3931 86.5156C88.3589 86.5246 87.8261 86.791 87.2159 87.109C84.1391 88.6906 78.5789 89.9536 72.0473 90.547C68.9621 90.8212 67.5785 90.8902 64.0379 90.9502L60.7031 91.0018L60.7121 96.253C60.7205 99.1408 60.7463 102.561 60.7805 103.859L60.8321 106.213L61.6055 106.196C63.3419 106.161 66.3839 105.638 68.5241 105.002C75.7943 102.845 81.8531 98.2126 85.9013 91.741Z" fill="white"/>
<path d="M89.1494 82.863C88.7456 82.2006 87.4388 81.1098 86.468 80.6106C86.15 80.4474 85.8494 80.3184 85.7978 80.3184C85.6856 80.3184 85.6598 80.3874 85.5398 81.2208C85.3166 82.7166 84.6716 84.9162 84.0704 86.2404C83.9324 86.5404 83.8382 86.8074 83.8556 86.8242C83.8724 86.8416 84.2678 86.721 84.7322 86.5404C87.2072 85.6212 88.694 84.6066 89.1494 83.5332C89.2454 83.3118 89.2874 83.2146 89.2766 83.1234C89.2676 83.0514 89.225 82.9836 89.1494 82.863Z" fill="white"/>
<path d="M89.5018 68.8623C89.3728 68.5275 87.508 67.6251 85.162 66.7743C84.1738 66.4131 83.9932 66.3615 83.9932 66.4305C83.9932 66.4479 84.1132 66.7401 84.2596 67.0923C84.6034 67.9341 85.1362 69.7647 85.3336 70.8045L85.4968 71.6553L85.789 71.6043C86.494 71.4921 87.9376 70.6413 88.9864 69.7305C89.545 69.2493 89.605 69.1377 89.5018 68.8623Z" fill="white"/>
<path d="M34.6207 70.6515C34.8699 69.4395 35.291 68.0127 35.652 67.1019C35.9786 66.2943 35.9699 66.2853 35.1793 66.5865C32.1542 67.7205 30.5042 68.5113 30.4096 68.8635C30.3323 69.1905 30.4182 69.3363 30.9167 69.7659C32.0081 70.7115 33.512 71.5707 34.1222 71.5881L34.423 71.5965L34.6207 70.6515Z" fill="white"/>
<path d="M34.3624 81.0492C34.328 80.8086 34.285 80.5506 34.2592 80.4648C34.242 80.3874 34.1561 80.3184 34.0788 80.3184C33.8553 80.3268 32.7811 80.9202 32.2053 81.3672C31.5693 81.8574 30.7271 82.7508 30.6669 83.0082C30.5896 83.292 30.9076 83.9454 31.3115 84.3924C31.7326 84.8478 32.7982 85.5522 33.6663 85.9476C34.5085 86.3256 35.9608 86.8674 36.0124 86.8158C36.0382 86.7984 35.9007 86.3946 35.7116 85.9308C35.1015 84.4356 34.5342 82.3812 34.3624 81.0492Z" fill="white"/>
</svg>
