<?xml version="1.0" encoding="UTF-8" standalone="no"?>
<!DOCTYPE svg PUBLIC "-//W3C//DTD SVG 1.1//EN" "http://www.w3.org/Graphics/SVG/1.1/DTD/svg11.dtd">
<svg width="100%" height="100%" viewBox="0 0 32 32" version="1.1" xmlns="http://www.w3.org/2000/svg" xmlns:xlink="http://www.w3.org/1999/xlink" xml:space="preserve" xmlns:serif="http://www.serif.com/" style="fill-rule:evenodd;clip-rule:evenodd;stroke-linejoin:round;stroke-miterlimit:2;">
    <path d="M16,26.667C18.829,26.667 21.542,25.543 23.543,23.543C25.543,21.542 26.667,18.829 26.667,16C26.667,13.171 25.543,10.458 23.543,8.458C21.542,6.457 18.829,5.334 16,5.334C13.171,5.334 10.458,6.457 8.458,8.458C6.457,10.458 5.334,13.171 5.334,16C5.334,18.829 6.457,21.542 8.458,23.543C10.458,25.543 13.171,26.667 16,26.667ZM16,29.334C8.636,29.334 2.667,23.364 2.667,16C2.667,8.636 8.636,2.667 16,2.667C23.364,2.667 29.334,8.636 29.334,16C29.334,23.364 23.364,29.334 16,29.334Z" style="fill:white;fill-rule:nonzero;"/>
    <path d="M14.501,14.232L16.667,14.232L16.667,15.311C16.979,14.691 17.78,14.133 18.982,14.133C21.287,14.133 21.834,15.369 21.834,17.635L21.834,21.834L19.5,21.834L19.5,18.152C19.5,16.861 19.188,16.133 18.394,16.133C17.292,16.133 16.834,16.917 16.834,18.151L16.834,21.834L14.501,21.834L14.501,14.232ZM10.5,21.735L12.833,21.735L12.833,14.133L10.5,14.133L10.5,21.735ZM13.167,11.655C13.167,11.85 13.128,12.044 13.053,12.224C12.978,12.405 12.867,12.568 12.728,12.706C12.446,12.986 12.064,13.143 11.666,13.142C11.269,13.142 10.888,12.985 10.606,12.706C10.467,12.568 10.357,12.405 10.282,12.224C10.206,12.044 10.167,11.85 10.167,11.655C10.167,11.26 10.325,10.882 10.606,10.603C10.889,10.323 11.27,10.167 11.667,10.167C12.065,10.167 12.446,10.324 12.728,10.603C13.009,10.882 13.167,11.26 13.167,11.655Z" style="fill:white;"/>
</svg>
