<?xml version="1.0" encoding="UTF-8" standalone="no"?>
<!DOCTYPE svg PUBLIC "-//W3C//DTD SVG 1.1//EN" "http://www.w3.org/Graphics/SVG/1.1/DTD/svg11.dtd">
<svg width="100%" height="100%" viewBox="0 0 32 32" version="1.1" xmlns="http://www.w3.org/2000/svg" xmlns:xlink="http://www.w3.org/1999/xlink" xml:space="preserve" xmlns:serif="http://www.serif.com/" style="fill-rule:evenodd;clip-rule:evenodd;stroke-linejoin:round;stroke-miterlimit:2;">
    <path d="M16,26.667C18.829,26.667 21.542,25.543 23.542,23.543C25.543,21.542 26.667,18.829 26.667,16C26.667,13.171 25.543,10.458 23.542,8.458C21.542,6.457 18.829,5.333 16,5.333C13.171,5.333 10.458,6.457 8.457,8.458C6.457,10.458 5.333,13.171 5.333,16C5.333,18.829 6.457,21.542 8.457,23.543C10.458,25.543 13.171,26.667 16,26.667ZM16,29.333C8.636,29.333 2.667,23.364 2.667,16C2.667,8.636 8.636,2.667 16,2.667C23.364,2.667 29.333,8.636 29.333,16C29.333,23.364 23.364,29.333 16,29.333Z" style="fill:white;fill-rule:nonzero;"/>
    <path d="M17.127,16C17.127,18.812 14.86,21.092 12.063,21.092C9.267,21.092 7,18.812 7,16C7,13.188 9.267,10.908 12.063,10.908C14.86,10.908 17.127,13.188 17.127,16Z" style="fill:white;fill-rule:nonzero;"/>
    <path d="M22.75,16C22.75,18.648 21.619,20.794 20.225,20.794C18.83,20.794 17.699,18.648 17.699,16C17.699,13.352 18.83,11.206 20.225,11.206C21.619,11.206 22.75,13.352 22.75,16Z" style="fill:white;fill-rule:nonzero;"/>
    <path d="M25,16C25,18.36 24.602,20.273 24.111,20.273C23.619,20.273 23.221,18.36 23.221,16C23.221,13.64 23.619,11.727 24.111,11.727C24.602,11.727 25,13.64 25,16Z" style="fill:white;fill-rule:nonzero;"/>
</svg>
