<?xml version="1.0" encoding="UTF-8" standalone="no"?>
<!DOCTYPE svg PUBLIC "-//W3C//DTD SVG 1.1//EN" "http://www.w3.org/Graphics/SVG/1.1/DTD/svg11.dtd">
<svg width="100%" height="100%" viewBox="0 0 32 32" version="1.1" xmlns="http://www.w3.org/2000/svg" xmlns:xlink="http://www.w3.org/1999/xlink" xml:space="preserve" xmlns:serif="http://www.serif.com/" style="fill-rule:evenodd;clip-rule:evenodd;stroke-linejoin:round;stroke-miterlimit:2;">
    <path d="M16,26.667C18.829,26.667 21.542,25.543 23.543,23.543C25.543,21.542 26.667,18.829 26.667,16C26.667,13.171 25.543,10.458 23.543,8.458C21.542,6.457 18.829,5.334 16,5.334C13.171,5.334 10.458,6.457 8.458,8.458C6.457,10.458 5.334,13.171 5.334,16C5.334,18.829 6.457,21.542 8.458,23.543C10.458,25.543 13.171,26.667 16,26.667ZM16,29.334C8.636,29.334 2.667,23.364 2.667,16C2.667,8.636 8.636,2.667 16,2.667C23.364,2.667 29.334,8.636 29.334,16C29.334,23.364 23.364,29.334 16,29.334Z" style="fill:white;fill-rule:nonzero;"/>
    <path d="M19.898,11.368L12.103,11.368C10.574,11.368 9.334,12.595 9.334,14.107L9.334,17.96C9.334,19.474 10.574,20.699 12.103,20.699L19.898,20.699C21.427,20.699 22.667,19.472 22.667,17.96L22.667,14.107C22.667,12.594 21.427,11.368 19.898,11.368ZM18.026,16.221L14.379,17.942C14.357,17.952 14.332,17.957 14.308,17.955C14.283,17.954 14.259,17.946 14.238,17.933C14.217,17.92 14.2,17.902 14.188,17.88C14.176,17.858 14.17,17.834 14.17,17.81L14.17,14.263C14.17,14.238 14.177,14.213 14.189,14.192C14.201,14.17 14.219,14.152 14.241,14.139C14.262,14.126 14.286,14.118 14.311,14.118C14.336,14.117 14.361,14.122 14.383,14.134L18.029,15.96C18.053,15.973 18.073,15.992 18.087,16.015C18.1,16.038 18.108,16.065 18.107,16.092C18.107,16.119 18.099,16.145 18.085,16.168C18.071,16.191 18.05,16.209 18.026,16.221Z" style="fill:white;fill-rule:nonzero;"/>
</svg>
