<svg width="20" height="20" viewBox="0 0 20 20" fill="none" xmlns="http://www.w3.org/2000/svg">
<path fill-rule="evenodd" clip-rule="evenodd" d="M10.7498 1.2502C12.7498 1.3752 14.6248 2.3752 15.9998 3.7502C17.6248 5.5002 18.4998 7.6252 18.4998 10.1252C18.4998 12.1252 17.7498 14.0002 16.4998 15.6252C15.2498 17.1252 13.4998 18.2502 11.4998 18.6252C9.49978 19.0002 7.49978 18.7502 5.74978 17.7502C3.99978 16.7502 2.62478 15.2502 1.87478 13.3752C1.12478 11.5002 0.999783 9.37519 1.62478 7.5002C2.24978 5.5002 3.37478 3.8752 5.12478 2.7502C6.74978 1.6252 8.74978 1.1252 10.7498 1.2502ZM11.3748 17.3752C12.9998 17.0002 14.4998 16.1252 15.6248 14.7502C16.6248 13.3752 17.2498 11.7502 17.1248 10.0002C17.1248 8.0002 16.3748 6.0002 14.9998 4.6252C13.7498 3.3752 12.2498 2.6252 10.4998 2.5002C8.87478 2.3752 7.12478 2.7502 5.74978 3.7502C4.37478 4.7502 3.37478 6.1252 2.87478 7.8752C2.37478 9.5002 2.37478 11.2502 3.12478 12.8752C3.87478 14.5002 4.99978 15.7502 6.49978 16.6252C7.99978 17.5002 9.74978 17.7502 11.3748 17.3752ZM9.87478 9.3752L12.4376 6.70564C12.6776 6.45562 13.0761 6.45155 13.3212 6.69662C13.5593 6.93472 13.5632 7.31952 13.33 7.56242L10.7498 10.2502L13.33 12.938C13.5632 13.1809 13.5593 13.5657 13.3212 13.8038C13.0761 14.0488 12.6776 14.0448 12.4376 13.7948L9.87478 11.1252L7.31201 13.7948C7.07199 14.0448 6.67342 14.0488 6.42836 13.8038C6.19026 13.5657 6.18633 13.1809 6.41952 12.938L8.99978 10.2502L6.41952 7.56242C6.18634 7.31952 6.19026 6.93472 6.42836 6.69662C6.67342 6.45155 7.07199 6.45562 7.31201 6.70564L9.87478 9.3752Z" fill="#59596C"/>
</svg>
