<svg width="147" height="26" viewBox="0 0 147 26" fill="none" xmlns="http://www.w3.org/2000/svg">
<path d="M10.3614 25.608C8.24938 25.608 6.46804 25.2773 5.01738 24.616C3.56671 23.9333 2.46804 23.016 1.72137 21.864C0.974708 20.6907 0.601375 19.3467 0.601375 17.832H5.68938C5.68938 18.4293 5.84938 18.984 6.16938 19.496C6.51071 20.008 7.02271 20.424 7.70538 20.744C8.38804 21.0427 9.27338 21.192 10.3614 21.192C11.3427 21.192 12.164 21.064 12.8254 20.808C13.4867 20.552 13.988 20.2 14.3294 19.752C14.6707 19.2827 14.8414 18.7493 14.8414 18.152C14.8414 17.4053 14.5214 16.8187 13.8814 16.392C13.2414 15.944 12.2067 15.656 10.7774 15.528L9.01737 15.368C6.69204 15.176 4.83604 14.4507 3.44938 13.192C2.06271 11.9333 1.36938 10.2693 1.36938 8.2C1.36938 6.70667 1.72138 5.416 2.42538 4.328C3.15071 3.24 4.15338 2.408 5.43338 1.832C6.71338 1.23467 8.22804 0.935999 9.97738 0.935999C11.812 0.935999 13.38 1.256 14.6814 1.896C16.004 2.51467 17.0174 3.4 17.7214 4.552C18.4254 5.68267 18.7774 7.016 18.7774 8.552H13.6574C13.6574 7.976 13.5187 7.45333 13.2414 6.984C12.964 6.49333 12.548 6.09867 11.9934 5.8C11.46 5.50133 10.788 5.352 9.97738 5.352C9.20938 5.352 8.55871 5.48 8.02538 5.736C7.51338 5.992 7.12938 6.344 6.87338 6.792C6.61738 7.21867 6.48938 7.688 6.48938 8.2C6.48938 8.86133 6.72404 9.43733 7.19338 9.928C7.66271 10.4187 8.43071 10.7067 9.49738 10.792L11.2894 10.952C12.996 11.1013 14.5 11.4747 15.8014 12.072C17.1027 12.648 18.116 13.448 18.8414 14.472C19.588 15.4747 19.9614 16.7013 19.9614 18.152C19.9614 19.6453 19.5667 20.9573 18.7774 22.088C18.0094 23.1973 16.9107 24.0613 15.4814 24.68C14.052 25.2987 12.3454 25.608 10.3614 25.608ZM33.8811 25V19.816H33.0171V14.184C33.0171 13.288 32.8038 12.616 32.3771 12.168C31.9505 11.72 31.2678 11.496 30.3291 11.496C29.8598 11.496 29.2411 11.5067 28.4731 11.528C27.7051 11.5493 26.9158 11.5813 26.1051 11.624C25.2945 11.6667 24.5585 11.7093 23.8971 11.752V7.432C24.3878 7.38933 24.9638 7.34667 25.6251 7.304C26.2865 7.26133 26.9691 7.22933 27.6731 7.208C28.3771 7.18667 29.0385 7.176 29.6571 7.176C31.4491 7.176 32.9531 7.432 34.1691 7.944C35.4065 8.456 36.3451 9.23467 36.9851 10.28C37.6251 11.304 37.9451 12.6267 37.9451 14.248V25H33.8811ZM28.2811 25.448C27.0225 25.448 25.9131 25.224 24.9531 24.776C24.0145 24.328 23.2785 23.688 22.7451 22.856C22.2118 22.0027 21.9451 20.9893 21.9451 19.816C21.9451 18.536 22.2758 17.4907 22.9371 16.68C23.5985 15.848 24.5265 15.24 25.7211 14.856C26.9158 14.4507 28.2918 14.248 29.8491 14.248H33.5931V17.096H29.8171C28.9211 17.096 28.2278 17.32 27.7371 17.768C27.2678 18.1947 27.0331 18.7813 27.0331 19.528C27.0331 20.232 27.2678 20.808 27.7371 21.256C28.2278 21.6827 28.9211 21.896 29.8171 21.896C30.3931 21.896 30.9051 21.8 31.3531 21.608C31.8225 21.3947 32.2065 21.0427 32.5051 20.552C32.8038 20.0613 32.9745 19.3787 33.0171 18.504L34.2331 19.784C34.1265 21 33.8278 22.024 33.3371 22.856C32.8678 23.688 32.2065 24.328 31.3531 24.776C30.5211 25.224 29.4971 25.448 28.2811 25.448ZM42.2891 25V7.464H46.3531V14.984H46.0651C46.0651 13.192 46.2891 11.6987 46.7371 10.504C47.2065 9.30933 47.9105 8.41333 48.8491 7.816C49.7878 7.21867 50.9291 6.92 52.2731 6.92H52.4971C54.5451 6.92 56.1025 7.592 57.1691 8.936C58.2571 10.2587 58.8011 12.2747 58.8011 14.984V25H53.6811V14.696C53.6811 13.7573 53.4038 12.9893 52.8491 12.392C52.2945 11.7947 51.5478 11.496 50.6091 11.496C49.6491 11.496 48.8705 11.8053 48.2731 12.424C47.6971 13.0213 47.4091 13.8107 47.4091 14.792V25H42.2891ZM70.3961 25.576C69.1588 25.576 68.0281 25.352 67.0041 24.904C66.0015 24.456 65.1268 23.8373 64.3801 23.048C63.6335 22.2373 63.0575 21.288 62.6521 20.2C62.2681 19.112 62.0761 17.9387 62.0761 16.68V15.944C62.0761 14.6853 62.2575 13.512 62.6201 12.424C63.0041 11.336 63.5481 10.3867 64.2521 9.576C64.9775 8.744 65.8415 8.104 66.8441 7.656C67.8468 7.18667 68.9668 6.952 70.2041 6.952C71.6121 6.952 72.8281 7.26133 73.8521 7.88C74.8761 8.47733 75.6761 9.37333 76.2521 10.568C76.8281 11.7413 77.1481 13.192 77.2121 14.92L75.8681 13.672V1.64H81.0201V25H76.9561V17.736H77.6601C77.5961 19.4 77.2441 20.8187 76.6041 21.992C75.9855 23.1653 75.1428 24.0613 74.0761 24.68C73.0095 25.2773 71.7828 25.576 70.3961 25.576ZM71.6761 21.288C72.4655 21.288 73.1801 21.1173 73.8201 20.776C74.4815 20.4133 75.0041 19.8907 75.3881 19.208C75.7935 18.5253 75.9961 17.704 75.9961 16.744V15.56C75.9961 14.6213 75.7935 13.832 75.3881 13.192C74.9828 12.552 74.4495 12.0613 73.7881 11.72C73.1268 11.3787 72.4121 11.208 71.6441 11.208C70.7908 11.208 70.0228 11.432 69.3401 11.88C68.6788 12.3067 68.1561 12.904 67.7721 13.672C67.3881 14.4187 67.1961 15.2933 67.1961 16.296C67.1961 17.32 67.3881 18.2053 67.7721 18.952C68.1561 19.6987 68.6895 20.2747 69.3721 20.68C70.0548 21.0853 70.8228 21.288 71.6761 21.288ZM96.4481 25.576C95.0188 25.576 93.7601 25.2773 92.6721 24.68C91.5841 24.0613 90.7308 23.176 90.1121 22.024C89.4935 20.872 89.1628 19.464 89.1201 17.8H89.7281V25H85.6641V1.64H90.7841V13.512L89.5681 15.048C89.6321 13.2773 89.9628 11.7947 90.5601 10.6C91.1788 9.384 92.0215 8.47733 93.0881 7.88C94.1548 7.26133 95.3708 6.952 96.7361 6.952C97.9308 6.952 99.0081 7.176 99.9681 7.624C100.949 8.05067 101.781 8.66933 102.464 9.48C103.147 10.2693 103.669 11.208 104.032 12.296C104.416 13.384 104.608 14.568 104.608 15.848V16.552C104.608 17.832 104.416 19.016 104.032 20.104C103.669 21.192 103.125 22.152 102.4 22.984C101.696 23.7947 100.843 24.4347 99.8401 24.904C98.8375 25.352 97.7068 25.576 96.4481 25.576ZM95.1041 21.288C95.9788 21.288 96.7361 21.0747 97.3761 20.648C98.0375 20.2213 98.5495 19.624 98.9121 18.856C99.2748 18.0667 99.4561 17.1813 99.4561 16.2C99.4561 15.1973 99.2748 14.3227 98.9121 13.576C98.5495 12.8293 98.0375 12.2533 97.3761 11.848C96.7361 11.4213 95.9788 11.208 95.1041 11.208C94.3361 11.208 93.6108 11.3893 92.9281 11.752C92.2455 12.1147 91.6908 12.6373 91.2641 13.32C90.8588 13.9813 90.6561 14.792 90.6561 15.752V16.936C90.6561 17.8533 90.8695 18.6427 91.2961 19.304C91.7441 19.944 92.3095 20.4347 92.9921 20.776C93.6748 21.1173 94.3788 21.288 95.1041 21.288ZM116.708 25.608C115.172 25.608 113.807 25.3733 112.612 24.904C111.417 24.4133 110.404 23.752 109.572 22.92C108.761 22.088 108.143 21.1387 107.716 20.072C107.289 18.984 107.076 17.8427 107.076 16.648V15.912C107.076 14.696 107.289 13.544 107.716 12.456C108.164 11.3467 108.804 10.376 109.636 9.544C110.489 8.712 111.513 8.06133 112.708 7.592C113.903 7.10133 115.236 6.856 116.708 6.856C118.223 6.856 119.567 7.10133 120.74 7.592C121.935 8.06133 122.948 8.712 123.78 9.544C124.612 10.376 125.252 11.3467 125.7 12.456C126.148 13.544 126.372 14.696 126.372 15.912V16.648C126.372 17.8427 126.159 18.984 125.732 20.072C125.305 21.1387 124.676 22.088 123.844 22.92C123.033 23.752 122.031 24.4133 120.836 24.904C119.641 25.3733 118.265 25.608 116.708 25.608ZM116.708 21.288C117.711 21.288 118.543 21.0747 119.204 20.648C119.865 20.2213 120.367 19.624 120.708 18.856C121.071 18.088 121.252 17.2347 121.252 16.296C121.252 15.2933 121.071 14.4187 120.708 13.672C120.345 12.904 119.823 12.296 119.14 11.848C118.479 11.4 117.668 11.176 116.708 11.176C115.769 11.176 114.959 11.4 114.276 11.848C113.593 12.296 113.071 12.904 112.708 13.672C112.367 14.4187 112.196 15.2933 112.196 16.296C112.196 17.2347 112.367 18.088 112.708 18.856C113.049 19.624 113.561 20.2213 114.244 20.648C114.927 21.0747 115.748 21.288 116.708 21.288ZM127.556 25L132.996 15.592L132.868 16.392L127.748 7.464H133.284L136.452 13.416H136.964L139.94 7.464H145.156L140.26 16.456L140.388 15.784L146.148 25H140.58L136.804 18.632H136.292L132.74 25H127.556Z" fill="url(#paint0_linear_849_4484)"/>
<defs>
<linearGradient id="paint0_linear_849_4484" x1="248" y1="13.8584" x2="-102" y2="13.8583" gradientUnits="userSpaceOnUse">
<stop stop-color="#00DCFF"/>
<stop offset="0.856476" stop-color="#E14BEC"/>
</linearGradient>
</defs>
</svg>
