<svg width="46" height="40" viewBox="0 0 46 40" fill="none" xmlns="http://www.w3.org/2000/svg">
<path d="M34.8206 12.2255C33.9921 11.7507 32.9268 11.7507 31.9799 12.2255L25.3515 16.1424L20.8537 18.635L14.3437 22.5519C13.5151 23.0267 12.4499 23.0267 11.5029 22.5519L6.41331 19.4659C5.58476 18.9911 4.99294 18.0415 4.99294 16.9733V11.0386C4.99294 10.089 5.4664 9.13947 6.41331 8.54599L11.5029 5.57864C12.3315 5.10386 13.3968 5.10386 14.3437 5.57864L19.4333 8.66469C20.2619 9.13947 20.8537 10.089 20.8537 11.1573V15.0742L25.3515 12.4629V8.4273C25.3515 7.47774 24.8781 6.52819 23.9311 5.93472L14.462 0.356083C13.6335 -0.118694 12.5682 -0.118694 11.6213 0.356083L1.91548 6.05341C0.968572 6.52819 0.495117 7.47774 0.495117 8.4273V19.5846C0.495117 20.5341 0.968572 21.4837 1.91548 22.0772L11.5029 27.6558C12.3315 28.1306 13.3968 28.1306 14.3437 27.6558L20.8537 23.8576L25.3515 21.2463L31.8615 17.4481C32.6901 16.9733 33.7553 16.9733 34.7023 17.4481L39.7919 20.4154C40.6204 20.8902 41.2123 21.8398 41.2123 22.908V28.8427C41.2123 29.7923 40.7388 30.7418 39.7919 31.3353L34.8206 34.3027C33.9921 34.7774 32.9268 34.7774 31.9799 34.3027L26.8902 31.3353C26.0617 30.8605 25.4699 29.911 25.4699 28.8427V25.0445L20.9721 27.6558V31.5727C20.9721 32.5223 21.4455 33.4718 22.3924 34.0653L31.9799 39.6439C32.8084 40.1187 33.8737 40.1187 34.8206 39.6439L44.4081 34.0653C45.2366 33.5905 45.8284 32.6409 45.8284 31.5727V20.2967C45.8284 19.3472 45.355 18.3976 44.4081 17.8042L34.8206 12.2255Z" fill="#7B3FE4"/>
</svg>
