<svg width="102" height="40" viewBox="0 0 102 40" fill="none" xmlns="http://www.w3.org/2000/svg">
<path d="M43.0453 9.14236H46.6899V30.7139H43.0453V9.14236ZM50.3345 9.14236H57.7671C59.3846 9.14236 60.736 9.32726 61.7802 9.67651C62.8245 10.0258 63.664 10.5188 64.2577 11.1352C64.8469 11.7177 65.2831 12.4377 65.5272 13.2307C65.774 14.036 65.8983 14.874 65.8958 15.7166C65.8997 16.6131 65.7756 17.5056 65.5272 18.3668C65.2851 19.1968 64.85 19.9573 64.2577 20.5856C63.5599 21.2726 62.7114 21.7863 61.7802 22.0853C60.736 22.4551 59.4256 22.64 57.8285 22.64H53.9177V30.7139H50.3345V9.14236ZM57.7466 19.62C58.5131 19.6427 59.2788 19.5527 60.0194 19.3529C60.5376 19.2154 61.0151 18.9547 61.4117 18.5928C61.7488 18.2641 61.9956 17.8536 62.1283 17.4012C62.2634 16.8918 62.3322 16.367 62.3331 15.8398C62.3451 15.3052 62.2761 14.7717 62.1283 14.2579C61.9922 13.8198 61.7369 13.4284 61.3912 13.128C60.9791 12.7908 60.496 12.552 59.9784 12.4295C59.2486 12.2488 58.4981 12.1659 57.7466 12.1829H53.9587V19.62H57.7466ZM82.2965 9.14236V12.2856H72.2226V18.3873H81.7027V21.5511H72.2226V30.7139H68.578V9.14236H82.2965ZM87.661 24.1192C87.8248 25.5368 88.3367 26.564 89.1762 27.2008C90.0157 27.8377 91.3056 28.1664 92.9846 28.1664C93.6836 28.1866 94.3814 28.0965 95.0526 27.8994C95.5431 27.7447 96.0011 27.5009 96.404 27.1803C96.7329 26.8942 96.9802 26.5255 97.1206 26.112C97.263 25.6886 97.3323 25.2439 97.3253 24.7972C97.3294 24.4562 97.2811 24.1166 97.182 23.7905C97.0691 23.4492 96.8879 23.1346 96.6496 22.866C96.3513 22.5554 95.997 22.3044 95.6054 22.1264C95.0679 21.8939 94.5041 21.7283 93.9264 21.6333L91.1827 21.1197C90.2015 20.9453 89.2359 20.6911 88.2957 20.3596C87.5207 20.0931 86.7995 19.6896 86.1663 19.168C85.5948 18.6809 85.1517 18.06 84.8764 17.3601C84.5692 16.5257 84.4233 15.6402 84.4464 14.751C84.4138 13.8503 84.6089 12.9561 85.0134 12.1515C85.418 11.3468 86.0188 10.658 86.7601 10.149C87.539 9.6039 88.4147 9.21338 89.34 8.99855C90.3995 8.74469 91.4858 8.62052 92.5751 8.62875C94.0493 8.62875 95.2983 8.79311 96.3016 9.14236C97.1939 9.42118 98.0221 9.8751 98.7381 10.4777C99.3357 11.0097 99.8167 11.6603 100.151 12.3884C100.471 13.1082 100.691 13.8685 100.806 14.6482L97.3663 15.1824C97.0796 13.9703 96.6087 13.0869 95.9125 12.4911C95.2164 11.8953 94.1312 11.6077 92.616 11.6077C91.8929 11.596 91.1711 11.6718 90.4661 11.8337C89.9654 11.9538 89.4925 12.17 89.0738 12.4705C88.7445 12.7149 88.4835 13.0404 88.3162 13.4156C88.169 13.7669 88.0925 14.1439 88.091 14.525C88.091 15.47 88.3367 16.1685 88.8486 16.6411C89.3604 17.1136 90.2614 17.4628 91.5513 17.7299L94.5202 18.3051C96.793 18.7366 98.4515 19.4556 99.5162 20.4623C100.581 21.469 101.113 22.9482 101.113 24.8588C101.121 25.7257 100.953 26.5852 100.622 27.3857C100.289 28.1717 99.769 28.8632 99.1067 29.3991C98.3556 30.0114 97.4934 30.4719 96.5677 30.755C95.42 31.1042 94.2247 31.2706 93.0255 31.2481C90.2818 31.2481 88.1115 30.6728 86.5553 29.5018C84.9992 28.3308 84.1188 26.5434 83.9754 24.1192H87.661Z" fill="#232528"/>
<path d="M0.313477 29.892L17.5127 39.856L34.712 29.892V9.96401L17.5127 0L0.313477 9.96401V29.892Z" fill="#469EA2"/>
<path d="M15.7519 2.38316L3.26195 9.61477C3.28242 9.84029 3.28242 10.0672 3.26195 10.2927L15.7314 17.5243C16.2441 17.144 16.8649 16.9387 17.5025 16.9387C18.1401 16.9387 18.7609 17.144 19.2736 17.5243L31.7431 10.2927C31.7226 10.0672 31.7226 9.84029 31.7431 9.61477L19.2941 2.38316C18.7814 2.7635 18.1606 2.96876 17.523 2.96876C16.8854 2.96876 16.2646 2.7635 15.7519 2.38316ZM32.9511 12.2855L20.4612 19.5993C20.5289 20.2337 20.395 20.8732 20.0788 21.4267C19.7626 21.9801 19.2801 22.4191 18.7003 22.681L18.7208 37.062C18.9227 37.1514 19.1148 37.2615 19.2941 37.3907L31.7635 30.1591C31.6959 29.5248 31.8297 28.8852 32.1459 28.3318C32.4622 27.7783 32.9446 27.3393 33.5244 27.0775V12.6142C33.3248 12.5203 33.1331 12.4104 32.9511 12.2855ZM2.07438 12.3677C1.89513 12.4969 1.703 12.6071 1.50107 12.6964V27.1596C2.08794 27.4122 2.57705 27.8494 2.89467 28.4053C3.21229 28.9611 3.3412 29.6055 3.26195 30.2413L15.7314 37.4729C15.9106 37.3437 16.1028 37.2336 16.3047 37.1442V22.681C15.7178 22.4284 15.2287 21.9912 14.9111 21.4354C14.5935 20.8795 14.4646 20.2351 14.5438 19.5993L2.07438 12.3677Z" fill="#6ACAD1"/>
<path d="M17.5127 2.1573L32.8897 11.0736V28.8855L17.5127 37.8018L2.13579 28.8855V11.053L17.5127 2.1573ZM17.5127 0.0412341L0.313485 10.0052V29.9333L17.5127 39.8973L34.712 29.9333V10.0052L17.5127 0.0412341Z" fill="#469EA2"/>
<path d="M17.6356 23.318H17.3899C16.9674 23.3191 16.5489 23.2364 16.1584 23.0747C15.7679 22.913 15.4131 22.6754 15.1144 22.3757C14.8157 22.076 14.5789 21.72 14.4178 21.3281C14.2566 20.9363 14.1742 20.5164 14.1753 20.0925V19.846C14.1742 19.4221 14.2566 19.0022 14.4178 18.6104C14.5789 18.2186 14.8157 17.8626 15.1144 17.5628C15.4131 17.2631 15.7679 17.0256 16.1584 16.8638C16.5489 16.7021 16.9674 16.6194 17.3899 16.6205H17.6356C18.058 16.6194 18.4765 16.7021 18.867 16.8638C19.2575 17.0256 19.6123 17.2631 19.9111 17.5628C20.2098 17.8626 20.4465 18.2186 20.6077 18.6104C20.7689 19.0022 20.8513 19.4221 20.8502 19.846V20.0925C20.8513 20.5164 20.7689 20.9363 20.6077 21.3281C20.4465 21.72 20.2098 22.076 19.9111 22.3757C19.6123 22.6754 19.2575 22.913 18.867 23.0747C18.4765 23.2364 18.058 23.3191 17.6356 23.318ZM17.6356 36.5691H17.3899C16.8188 36.5674 16.2576 36.7188 15.7644 37.0078C15.2712 37.2968 14.8639 37.7127 14.5848 38.2126L17.5127 39.8973L20.4407 38.2126C20.1615 37.7127 19.7543 37.2968 19.2611 37.0078C18.7679 36.7188 18.2067 36.5674 17.6356 36.5691ZM34.7324 26.6051H34.6096C34.1871 26.604 33.7686 26.6867 33.3781 26.8484C32.9876 27.0101 32.6328 27.2477 32.3341 27.5474C32.0354 27.8471 31.7986 28.2031 31.6375 28.5949C31.4763 28.9868 31.3939 29.4067 31.395 29.8305V30.0771C31.392 30.6246 31.5333 31.1633 31.8045 31.6384L34.7324 29.9333V26.6051ZM31.8045 8.32061C31.5357 8.79677 31.3946 9.33475 31.395 9.88198V10.1285C31.3939 10.5524 31.4763 10.9723 31.6375 11.3641C31.7986 11.7559 32.0354 12.1119 32.3341 12.4117C32.6328 12.7114 32.9876 12.9489 33.3781 13.1107C33.7686 13.2724 34.1871 13.3551 34.6096 13.354H34.7324V10.0052L31.8045 8.32061ZM17.5127 0.0412341L14.5848 1.72587C14.8626 2.22847 15.269 2.64764 15.7621 2.94015C16.2552 3.23266 16.8171 3.38793 17.3899 3.38996H17.6356C18.2067 3.39169 18.7679 3.24023 19.2611 2.95127C19.7543 2.6623 20.1615 2.24633 20.4407 1.74642L17.5127 0.0412341ZM3.24145 8.30006L0.313485 10.0052V13.354H0.436337C0.85879 13.3551 1.27729 13.2724 1.6678 13.1107C2.0583 12.9489 2.41311 12.7114 2.71183 12.4117C3.01055 12.1119 3.24729 11.7559 3.40846 11.3641C3.56963 10.9723 3.65204 10.5524 3.65096 10.1285V9.88198C3.64402 9.3292 3.5035 8.78636 3.24145 8.30006ZM0.436337 26.6051H0.313485V29.9333L3.24145 31.6384C3.51023 31.1623 3.65133 30.6243 3.65096 30.0771V29.8305C3.65204 29.4067 3.56963 28.9868 3.40846 28.5949C3.24729 28.2031 3.01055 27.8471 2.71183 27.5474C2.41311 27.2477 2.0583 27.0101 1.6678 26.8484C1.27729 26.6867 0.85879 26.604 0.436337 26.6051Z" fill="#469EA2"/>
<path d="M17.5127 40V20.0514L0.313481 10.0874V30.036L17.5127 40Z" fill="#083B54" fill-opacity="0.15"/>
<path d="M34.7324 29.8509V9.92293L17.5332 19.8869V39.8355L34.7324 29.8509Z" fill="#083B54" fill-opacity="0.05"/>
</svg>
