<svg width="68" height="40" viewBox="0 0 68 40" fill="none" xmlns="http://www.w3.org/2000/svg">
<path d="M42.3039 11.9153V27.4427H40.5739V11.9153H42.3039ZM47.4705 11.9153C49.9104 11.9153 50.9524 13.3571 50.9524 15.7083V17.5715C50.9524 20.0337 49.7994 21.3203 47.3377 21.3203H45.8077V27.4422H44.0777V11.9148L47.4705 11.9153ZM47.3377 19.7675C48.624 19.7675 49.2453 19.1685 49.2453 17.6825V15.6193C49.2453 14.1999 48.735 13.4899 47.471 13.4899H45.8077V19.7675H47.3377ZM52.372 27.4422V11.9148H54.102V25.8675H58.5375V27.4422H52.372ZM63.4827 11.9153C65.9001 11.9153 67.0094 13.379 67.0094 15.775V23.6049C67.0094 25.978 65.9001 27.4422 63.4827 27.4422H59.8456V11.9148L63.4827 11.9153ZM63.4608 25.8675C64.7029 25.8675 65.3013 25.0914 65.3013 23.6715V15.6859C65.3013 14.2665 64.7029 13.4899 63.4385 13.4899H61.5756V25.867L63.4608 25.8675Z" fill="#232528"/>
<path d="M23.5107 17.7366H24.1982V18.0839L25.7446 17.1069V15.464C25.6366 15.5001 25.521 15.5197 25.4008 15.5197C25.2807 15.5197 25.1651 15.5001 25.0571 15.464V16.7283L18.5038 20.8688V17.6702L21.7021 15.6495V12.6714C21.5941 12.7076 21.4786 12.7271 21.3584 12.7271C21.2385 12.7271 21.123 12.7076 21.0152 12.6715V15.2704L18.5038 16.8571V8.79525C18.3958 8.83142 18.2802 8.85101 18.1601 8.85101C18.0399 8.85101 17.9244 8.83143 17.8164 8.79527V14.936L15.2149 13.2923V11.5077C15.1069 11.5439 14.9914 11.5635 14.8712 11.5635C14.7511 11.5635 14.6355 11.5439 14.5275 11.5077V13.6709L17.8164 15.749V23.138L15.0502 21.6212L14.3628 21.2442L10.2224 18.9739V16.4211C10.1144 16.4573 9.99878 16.4769 9.8786 16.4769C9.75848 16.4769 9.64293 16.4573 9.53497 16.4211V19.3684L10.7884 20.0576L11.4042 20.3961L17.8164 23.9215V28.7106L18.1115 28.8716L18.5038 28.6237V21.6817L23.5107 18.5182V17.7366Z" fill="white"/>
<path d="M24.1982 17.7366H23.5107V18.5182L24.1982 18.0839V17.7366Z" fill="white"/>
<path d="M24.1982 18.0839L23.5107 18.5182V25.4599L24.1982 25.0255V18.0839Z" fill="white"/>
<path d="M25.7446 15.1651L25.0571 15.1646V15.464C25.1651 15.5001 25.2807 15.5197 25.4008 15.5197C25.521 15.5197 25.6366 15.5001 25.7446 15.464V15.1651Z" fill="white"/>
<path d="M25.0571 15.1646L25.7446 15.1651V15.464C26.1735 15.3203 26.4827 14.9151 26.4827 14.4376C26.4827 13.84 25.9983 13.3555 25.4008 13.3555C24.8033 13.3555 24.3189 13.84 24.3189 14.4376C24.3189 14.9151 24.6281 15.3203 25.0571 15.464V15.1646Z" fill="white"/>
<path d="M24.1982 25.757H23.5107V25.4599L18.5038 28.6237V29.4368L30.0506 22.1417V20.4988C29.9427 20.5349 29.8271 20.5545 29.707 20.5545C29.5866 20.5545 29.4709 20.5349 29.3627 20.4986V21.7621L24.1982 25.0255V25.757Z" fill="white"/>
<path d="M29.3627 20.1999H30.0506V20.4988C30.4797 20.3551 30.7889 19.9499 30.7889 19.4724C30.7889 18.8748 30.3045 18.3903 29.707 18.3903C29.1095 18.3903 28.6251 18.8748 28.6251 19.4724C28.6251 19.9497 28.934 20.3547 29.3627 20.4986V20.1999Z" fill="white"/>
<path d="M30.0506 20.1999H29.3627V20.4986C29.4709 20.5349 29.5866 20.5545 29.707 20.5545C29.8271 20.5545 29.9427 20.5349 30.0506 20.4988V20.1999Z" fill="white"/>
<path d="M23.5107 25.757H24.1982V25.0255L23.5107 25.4599V25.757Z" fill="white"/>
<path d="M18.1115 28.8716L17.8164 28.7106V29.4918L17.9735 29.5779L18.2273 29.1766L18.0566 28.9063L18.1115 28.8716Z" fill="white"/>
<path d="M18.1115 28.8716L18.0566 28.9063L18.2273 29.1766L18.3411 28.9968L18.1115 28.8716Z" fill="white"/>
<path d="M18.5038 28.6237L18.1115 28.8716L18.3411 28.9968L18.2273 29.1766L18.4236 29.4874L18.5038 29.4368V28.6237Z" fill="white"/>
<path d="M18.5038 29.4368L18.4236 29.4874L18.2273 29.1766L17.9735 29.5779L17.8164 29.4918V36.5485C17.9139 36.4808 18.0324 36.4411 18.1601 36.4411C18.2878 36.4411 18.4063 36.4808 18.5038 36.5485V29.4368Z" fill="white"/>
<path d="M11.4042 25.5574H10.7884V24.8777L7.03391 22.8301V21.5665C6.92594 21.6026 6.81037 21.6222 6.69022 21.6222C6.57006 21.6222 6.45448 21.6026 6.34649 21.5665V23.2092L17.8164 29.4918V28.7106L11.4042 25.2136V25.5574Z" fill="white"/>
<path d="M10.7884 25.5574H11.4042V25.2136L10.7884 24.8777V25.5574Z" fill="white"/>
<path d="M11.4042 20.3961L10.7884 20.0576V24.8777L11.4042 25.2136V20.3961Z" fill="white"/>
<path d="M14.3628 21.2442L15.0502 21.6212V18.4116C14.9422 18.4477 14.8267 18.4673 14.7066 18.4673C14.5864 18.4673 14.4708 18.4477 14.3628 18.4115V21.2442Z" fill="white"/>
<path d="M15.0502 17.6441H14.3628V18.4115C14.4708 18.4477 14.5864 18.4673 14.7066 18.4673C14.8267 18.4673 14.9422 18.4477 15.0502 18.4116V17.6441Z" fill="white"/>
<path d="M14.7066 16.3031C14.1091 16.3031 13.6247 16.7876 13.6247 17.3852C13.6247 17.8626 13.9338 18.2678 14.3628 18.4115V17.6441H15.0502V18.4116C15.4792 18.268 15.7884 17.8627 15.7884 17.3852C15.7884 16.7876 15.3041 16.3031 14.7066 16.3031Z" fill="white"/>
<path d="M10.2224 15.7002H9.53497V16.4211C9.64293 16.4573 9.75848 16.4769 9.8786 16.4769C9.99878 16.4769 10.1144 16.4573 10.2224 16.4211V15.7002Z" fill="white"/>
<path d="M9.53497 15.7002H10.2224V16.4211C10.6514 16.2774 10.9605 15.8722 10.9605 15.3948C10.9605 14.7971 10.4761 14.3127 9.8786 14.3127C9.2811 14.3127 8.79673 14.7971 8.79673 15.3948C8.79673 15.8722 9.10592 16.2775 9.53497 16.4211V15.7002Z" fill="white"/>
<path d="M6.34649 21.2669H7.03391V21.5665C7.46293 21.4228 7.77209 21.0176 7.77209 20.5401C7.77209 19.9425 7.28772 19.458 6.69022 19.458C6.09272 19.458 5.60835 19.9425 5.60835 20.5401C5.60835 21.0176 5.9175 21.4228 6.34649 21.5665V21.2669Z" fill="white"/>
<path d="M7.03391 21.2669H6.34649V21.5665C6.45448 21.6026 6.57006 21.6222 6.69022 21.6222C6.81037 21.6222 6.92594 21.6026 7.03391 21.5665V21.2669Z" fill="white"/>
<path d="M3.05368 28.3595L3.05367 27.7571C2.72044 27.7571 2.45031 28.0273 2.45031 28.3606C2.45031 28.6939 2.72044 28.9641 3.05367 28.9641C3.27599 28.9641 3.47022 28.8438 3.57489 28.6648L3.05368 28.3595Z" fill="white"/>
<path d="M3.13924 28.3102L3.61287 28.5876C3.64134 28.5175 3.65703 28.4409 3.65703 28.3606C3.65703 28.0563 3.43194 27.8047 3.13924 27.7631V28.3102Z" fill="white"/>
<path d="M3.05367 27.7571L3.05368 28.3595L3.57489 28.6648C3.5893 28.6401 3.60202 28.6143 3.61287 28.5876L3.13924 28.3102V27.7631C3.11129 27.7591 3.08272 27.7571 3.05367 27.7571Z" fill="white"/>
<path d="M3.05368 12.5033L3.05367 27.7571C3.08272 27.7571 3.11129 27.7591 3.13924 27.7631V12.4973C3.11129 12.5013 3.08272 12.5033 3.05368 12.5033Z" fill="white"/>
<path d="M3.61287 28.5876C3.60202 28.6143 3.5893 28.6401 3.57489 28.6648L17.5825 36.8694C17.591 36.8413 17.6015 36.8141 17.6139 36.7878L3.61287 28.5876Z" fill="white"/>
<path d="M18.5038 36.9064L18.1601 37.1077L17.8164 36.9064V37.0064L18.0745 37.1576H18.2448L18.5038 37.0059V36.9064Z" fill="white"/>
<path d="M18.5038 36.5485C18.4063 36.4808 18.2878 36.4411 18.1601 36.4411C18.0324 36.4411 17.9139 36.4808 17.8164 36.5485V36.9064L18.1601 37.1077L18.5038 36.9064V36.5485Z" fill="white"/>
<path d="M18.5038 36.5485V36.9064L18.7063 36.7878C18.6609 36.6913 18.5906 36.6088 18.5038 36.5485Z" fill="white"/>
<path d="M18.1601 37.2077L18.0745 37.1576H17.8164V37.0064L17.5825 36.8694C17.5657 36.9249 17.5567 36.9837 17.5567 37.0446C17.5567 37.3778 17.8269 37.648 18.1601 37.648C18.4933 37.648 18.7634 37.3778 18.7634 37.0446C18.7634 36.9835 18.7544 36.9246 18.7375 36.869L18.5038 37.0059V37.1576H18.2448L18.1601 37.2077Z" fill="white"/>
<path d="M18.5038 37.0059L18.2448 37.1576H18.5038V37.0059Z" fill="white"/>
<path d="M18.5038 36.9064V37.0059L18.7375 36.869C18.729 36.8411 18.7186 36.8139 18.7063 36.7878L18.5038 36.9064Z" fill="white"/>
<path d="M18.1601 37.2077L18.2448 37.1576H18.0745L18.1601 37.2077Z" fill="white"/>
<path d="M18.0745 37.1576L17.8164 37.0064V37.1576H18.0745Z" fill="white"/>
<path d="M17.6139 36.7878C17.6015 36.8141 17.591 36.8413 17.5825 36.8694L17.8164 37.0064V36.9064L17.6139 36.7878Z" fill="white"/>
<path d="M17.8164 36.5485C17.7295 36.6088 17.6593 36.6913 17.6139 36.7878L17.8164 36.9064V36.5485Z" fill="white"/>
<path d="M18.7063 36.7878C18.7186 36.8139 18.729 36.8411 18.7375 36.869L32.7632 28.6546C32.7474 28.6309 32.7333 28.606 32.721 28.58L18.7063 36.7878Z" fill="white"/>
<path d="M33.2665 27.7182L33.2665 28.36L33.2451 28.3724L32.7632 28.6546C32.8712 28.8177 33.0563 28.9252 33.2665 28.9252C33.5997 28.9252 33.8698 28.655 33.8698 28.3217C33.8698 27.9884 33.5997 27.7182 33.2665 27.7182Z" fill="white"/>
<path d="M32.721 28.58L33.1809 28.3107V27.7242C32.8882 27.7658 32.6631 28.0174 32.6631 28.3217C32.6631 28.4141 32.6839 28.5017 32.721 28.58Z" fill="white"/>
<path d="M33.2665 28.36L33.2665 27.7182C33.2374 27.7182 33.2089 27.7202 33.1809 27.7242V28.3107L32.721 28.58C32.7333 28.606 32.7474 28.6309 32.7632 28.6546L33.2451 28.3724L33.2665 28.36Z" fill="white"/>
<path d="M33.2665 27.7182L33.2665 12.4644C33.2374 12.4644 33.2089 12.4623 33.1809 12.4584V27.7242C33.2089 27.7202 33.2374 27.7182 33.2665 27.7182Z" fill="white"/>
<path d="M33.1809 12.4584V11.4251L32.9971 11.3207C32.7991 11.4197 32.6631 11.6244 32.6631 11.8609C32.6631 12.1651 32.8882 12.4168 33.1809 12.4584Z" fill="white"/>
<path d="M33.2665 11.3754L33.2665 12.4644C33.5997 12.4644 33.8698 12.1942 33.8698 11.8609C33.8698 11.5276 33.5997 11.2574 33.2665 11.2574C33.2087 11.2574 33.1528 11.2655 33.0998 11.2807L33.2665 11.3754Z" fill="white"/>
<path d="M33.2665 12.4644L33.2665 11.3754L33.0998 11.2807C33.0641 11.291 33.0298 11.3044 32.9971 11.3207L33.1809 11.4251V12.4584C33.2089 12.4623 33.2374 12.4644 33.2665 12.4644Z" fill="white"/>
<path d="M32.9971 11.3207C33.0298 11.3044 33.0641 11.291 33.0998 11.2807L18.7397 3.12189C18.7315 3.15029 18.7214 3.17783 18.7094 3.20434L32.9971 11.3207Z" fill="white"/>
<path d="M18.1601 2.7928L18.1815 2.80474L18.7397 3.12189C18.7548 3.06903 18.7629 3.0132 18.7629 2.95548C18.7629 2.62218 18.4928 2.352 18.1595 2.352C17.8263 2.352 17.5562 2.62218 17.5562 2.95548C17.5562 3.01771 17.5656 3.07775 17.5831 3.13423L18.1601 2.7928Z" fill="white"/>
<path d="M18.1815 2.80474L18.1601 2.7928L17.5831 3.13423C17.5917 3.16208 17.6023 3.18907 17.6147 3.21503L18.1601 2.8923L18.7094 3.20434C18.7214 3.17783 18.7315 3.15029 18.7397 3.12189L18.1815 2.80474Z" fill="white"/>
<path d="M18.7094 3.20434L18.1601 2.8923L17.6147 3.21503C17.7117 3.41842 17.9192 3.55896 18.1595 3.55896C18.4041 3.55896 18.6146 3.41348 18.7094 3.20434Z" fill="white"/>
<path d="M17.6147 3.21503C17.6023 3.18907 17.5917 3.16208 17.5831 3.13423L3.48441 11.4772C3.50466 11.4979 3.52345 11.52 3.54059 11.5434L17.6147 3.21503Z" fill="white"/>
<path d="M15.2149 9.66689H14.5275V11.5077C14.6355 11.5439 14.7511 11.5635 14.8712 11.5635C14.9914 11.5635 15.1069 11.5439 15.2149 11.5077V9.66689Z" fill="white"/>
<path d="M14.5275 9.66689H15.2149V11.5077C15.6439 11.364 15.9531 10.9588 15.9531 10.4814C15.9531 9.88375 15.4687 9.39928 14.8712 9.39928C14.2737 9.39928 13.7893 9.88375 13.7893 10.4814C13.7893 10.9588 14.0985 11.3641 14.5275 11.5077V9.66689Z" fill="white"/>
<path d="M18.5038 7.71182H17.8164V8.79527C17.9244 8.83143 18.0399 8.85101 18.1601 8.85101C18.2802 8.85101 18.3958 8.83142 18.5038 8.79525V7.71182Z" fill="white"/>
<path d="M17.8164 7.71182H18.5038V8.79525C18.9328 8.65157 19.2419 8.24636 19.2419 7.76892C19.2419 7.1713 18.7576 6.68683 18.1601 6.68683C17.5626 6.68683 17.0782 7.1713 17.0782 7.76892C17.0782 8.24638 17.3874 8.65161 17.8164 8.79527V7.71182Z" fill="white"/>
<path d="M21.0152 11.645H21.7021V12.6714C22.1311 12.5278 22.4403 12.1225 22.4403 11.645C22.4403 11.0474 21.9559 10.563 21.3584 10.563C20.7609 10.563 20.2766 11.0474 20.2766 11.645C20.2766 12.1227 20.5859 12.528 21.0152 12.6715V11.645Z" fill="white"/>
<path d="M21.7021 11.645H21.0152V12.6715C21.123 12.7076 21.2385 12.7271 21.3584 12.7271C21.4786 12.7271 21.5941 12.7076 21.7021 12.6714V11.645Z" fill="white"/>
<path d="M3.05368 12.5033L3.05368 11.7321L3.48441 11.4772C3.37491 11.3656 3.22238 11.2963 3.05368 11.2963C2.72045 11.2963 2.45032 11.5665 2.45032 11.8998C2.45032 12.2331 2.72045 12.5033 3.05368 12.5033Z" fill="white"/>
<path d="M3.05368 11.7321L3.05368 12.5033C3.08272 12.5033 3.11129 12.5013 3.13924 12.4973V11.7809L3.54059 11.5434C3.52345 11.52 3.50466 11.4979 3.48441 11.4772L3.05368 11.7321Z" fill="white"/>
<path fill-rule="evenodd" clip-rule="evenodd" d="M35.7107 29.1301V10.8704C35.7107 10.2485 35.3789 9.67388 34.8402 9.36293L19.03 0.233079C18.7655 0.0803844 18.4655 0 18.16 0C17.8546 0 17.5546 0.0803844 17.2901 0.233079L1.47985 9.36243C1.2152 9.51514 0.995424 9.73486 0.842619 9.99948C0.689814 10.2641 0.609369 10.5643 0.609375 10.8699V29.1301C0.609375 29.752 0.941149 30.3266 1.47985 30.6376L17.2901 39.7669C17.5546 39.9196 17.8546 40 18.16 40C18.4655 40 18.7655 39.9196 19.03 39.7669L34.8402 30.6376C35.1049 30.4849 35.3247 30.2651 35.4775 30.0005C35.6303 29.7359 35.7107 29.4357 35.7107 29.1301ZM18.5038 21.6817L23.5107 18.5182V25.4599L18.5038 28.6237V21.6817ZM18.5038 29.4368L30.0506 22.1417V20.4988C30.4797 20.3551 30.7889 19.9499 30.7889 19.4724C30.7889 18.8748 30.3045 18.3903 29.707 18.3903C29.1095 18.3903 28.6251 18.8748 28.6251 19.4724C28.6251 19.9497 28.934 20.3547 29.3627 20.4986V21.7621L24.1982 25.0255V18.0839L25.7446 17.1069V15.464C26.1735 15.3203 26.4827 14.9151 26.4827 14.4376C26.4827 13.84 25.9983 13.3555 25.4008 13.3555C24.8033 13.3555 24.3189 13.84 24.3189 14.4376C24.3189 14.9151 24.6281 15.3203 25.0571 15.464V16.7283L18.5038 20.8688V17.6702L21.7021 15.6495V12.6714C22.1311 12.5278 22.4403 12.1225 22.4403 11.645C22.4403 11.0474 21.9559 10.563 21.3584 10.563C20.7609 10.563 20.2766 11.0474 20.2766 11.645C20.2766 12.1227 20.5859 12.528 21.0152 12.6715V15.2704L18.5038 16.8571V8.79525C18.9328 8.65157 19.2419 8.24636 19.2419 7.76892C19.2419 7.1713 18.7576 6.68683 18.1601 6.68683C17.5626 6.68683 17.0782 7.1713 17.0782 7.76892C17.0782 8.24638 17.3874 8.65161 17.8164 8.79527V14.936L15.2149 13.2923V11.5077C15.6439 11.364 15.9531 10.9588 15.9531 10.4814C15.9531 9.88375 15.4687 9.39928 14.8712 9.39928C14.2737 9.39928 13.7893 9.88375 13.7893 10.4814C13.7893 10.9588 14.0985 11.3641 14.5275 11.5077V13.6709L17.8164 15.749V23.138L15.0502 21.6212V18.4116C15.4792 18.268 15.7884 17.8627 15.7884 17.3852C15.7884 16.7876 15.3041 16.3031 14.7066 16.3031C14.1091 16.3031 13.6247 16.7876 13.6247 17.3852C13.6247 17.8626 13.9338 18.2678 14.3628 18.4115V21.2442L10.2224 18.9739V16.4211C10.6514 16.2774 10.9605 15.8722 10.9605 15.3948C10.9605 14.7971 10.4761 14.3127 9.8786 14.3127C9.2811 14.3127 8.79673 14.7971 8.79673 15.3948C8.79673 15.8722 9.10592 16.2775 9.53497 16.4211V19.3684L10.7884 20.0576V24.8777L7.03391 22.8301V21.5665C7.46293 21.4228 7.77209 21.0176 7.77209 20.5401C7.77209 19.9425 7.28772 19.458 6.69022 19.458C6.09272 19.458 5.60835 19.9425 5.60835 20.5401C5.60835 21.0176 5.9175 21.4228 6.34649 21.5665V23.2092L17.8164 29.4918V36.5485C17.7295 36.6088 17.6593 36.6913 17.6139 36.7878L3.61287 28.5876C3.64134 28.5175 3.65703 28.4409 3.65703 28.3606C3.65703 28.0563 3.43194 27.8047 3.13924 27.7631V12.4973C3.43194 12.4557 3.65704 12.2041 3.65704 11.8998C3.65704 11.7665 3.6138 11.6432 3.54059 11.5434L17.6147 3.21503C17.7117 3.41842 17.9192 3.55896 18.1595 3.55896C18.4041 3.55896 18.6146 3.41348 18.7094 3.20434L32.9971 11.3207C32.7991 11.4197 32.6631 11.6244 32.6631 11.8609C32.6631 12.1651 32.8882 12.4168 33.1809 12.4584V27.7242C32.8882 27.7658 32.6631 28.0174 32.6631 28.3217C32.6631 28.4141 32.6839 28.5017 32.721 28.58L18.7063 36.7878C18.6609 36.6913 18.5906 36.6088 18.5038 36.5485V29.4368ZM3.05368 11.2963C3.22238 11.2963 3.37491 11.3656 3.48441 11.4772L17.5831 3.13423C17.5656 3.07775 17.5562 3.01771 17.5562 2.95548C17.5562 2.62218 17.8263 2.352 18.1595 2.352C18.4928 2.352 18.7629 2.62218 18.7629 2.95548C18.7629 3.0132 18.7548 3.06903 18.7397 3.12189L33.0998 11.2807C33.1528 11.2655 33.2087 11.2574 33.2665 11.2574C33.5997 11.2574 33.8698 11.5276 33.8698 11.8609C33.8698 12.1942 33.5997 12.4644 33.2665 12.4644L33.2665 27.7182C33.5997 27.7182 33.8698 27.9884 33.8698 28.3217C33.8698 28.655 33.5997 28.9252 33.2665 28.9252C33.0563 28.9252 32.8712 28.8177 32.7632 28.6546L18.7375 36.869C18.7544 36.9246 18.7634 36.9835 18.7634 37.0446C18.7634 37.3778 18.4933 37.648 18.1601 37.648C17.8269 37.648 17.5567 37.3778 17.5567 37.0446C17.5567 36.9837 17.5657 36.9249 17.5825 36.8694L3.57489 28.6648C3.47022 28.8438 3.27599 28.9641 3.05367 28.9641C2.72044 28.9641 2.45031 28.6939 2.45031 28.3606C2.45031 28.0273 2.72044 27.7571 3.05367 27.7571L3.05368 12.5033C2.72045 12.5033 2.45032 12.2331 2.45032 11.8998C2.45032 11.5665 2.72045 11.2963 3.05368 11.2963ZM11.4042 25.2136L17.8164 28.7106V23.9215L11.4042 20.3961V25.2136Z" fill="#1D74F2"/>
<path d="M3.13924 11.7809V12.4973C3.43194 12.4557 3.65704 12.2041 3.65704 11.8998C3.65704 11.7665 3.6138 11.6432 3.54059 11.5434L3.13924 11.7809Z" fill="white"/>
</svg>
