<svg width="56" height="37" viewBox="0 0 56 37" fill="none" xmlns="http://www.w3.org/2000/svg">
<path fill-rule="evenodd" clip-rule="evenodd" d="M3.86054 29.2258C2.9089 29.2258 2.3766 30.05 2.3766 31.2461C2.3766 32.636 3.05412 33.4278 4.08635 33.4278C4.92513 33.4278 5.5057 32.6845 5.5057 31.5693C5.5057 29.937 4.95736 29.2258 3.86054 29.2258ZM4.15098 34.9633C3.37661 34.9633 2.74768 34.5269 2.40896 33.929V36.9997H1.87667C1.26374 36.9997 0.666992 36.5472 0.666992 35.8038V31.6017C0.666992 29.2905 1.69922 27.7066 4.13475 27.7066C5.97341 27.7066 7.2799 29.3875 7.2799 31.1329C7.2799 33.347 6.16703 34.9633 4.15098 34.9633Z" fill="#232528"/>
<path fill-rule="evenodd" clip-rule="evenodd" d="M11.409 29.2313C10.5688 29.2313 9.98731 29.9351 9.95504 30.7728L9.93881 31.0073H10.7143C12.3462 31.0073 12.7178 30.823 12.7178 30.3204C12.7178 29.5831 12.217 29.2313 11.409 29.2313ZM11.0858 32.264H9.95504C10.0843 33.1687 10.876 33.7383 11.8938 33.7383C12.6208 33.7383 13.461 33.5877 14.0102 33.0515H14.075V33.6043C14.075 34.5259 13.477 35.2296 11.5707 35.2296C9.84187 35.2296 8.16162 33.8221 8.16162 31.6104C8.16162 29.2146 9.58335 27.7066 11.5545 27.7066C12.9925 27.7066 14.3334 28.7789 14.3334 30.4879C14.3497 31.845 13.3802 32.264 11.0858 32.264Z" fill="#232528"/>
<path fill-rule="evenodd" clip-rule="evenodd" d="M18.9038 29.2313C18.0636 29.2313 17.482 29.9351 17.4497 30.7728L17.4335 31.0073H18.209C19.841 31.0073 20.2125 30.823 20.2125 30.3204C20.2125 29.5831 19.6955 29.2313 18.9038 29.2313ZM18.5806 32.264H17.4497C17.579 33.1687 18.3707 33.7383 19.3885 33.7383C20.1155 33.7383 20.9558 33.5877 21.5051 33.0515H21.5699V33.6043C21.5699 34.5259 20.9717 35.2296 19.0655 35.2296C17.3365 35.2296 15.6562 33.8221 15.6562 31.6104C15.6562 29.2146 17.078 27.7066 19.0493 27.7066C20.4872 27.7066 21.8283 28.7789 21.8283 30.4879C21.8283 31.845 20.8751 32.264 18.5806 32.264Z" fill="#232528"/>
<path fill-rule="evenodd" clip-rule="evenodd" d="M26.598 29.4685C26.3418 29.3706 26.0535 29.2565 25.606 29.2565C24.838 29.2565 24.4219 29.6806 24.4219 30.7575V34.787H23.9581C23.1901 34.787 22.71 34.3955 22.71 33.6612V30.4475C22.71 29.0444 23.4299 27.7066 25.2538 27.7066C26.3096 27.7066 26.6777 28.3103 26.6777 28.8486V29.4685H26.598Z" fill="#232528"/>
<path fill-rule="evenodd" clip-rule="evenodd" d="M32.0571 31.9572H31.4452C30.1411 31.9572 29.7713 32.2777 29.7713 32.868C29.7713 33.4248 30.206 33.762 30.9625 33.762C31.7031 33.762 32.0571 33.3909 32.0571 32.6488V31.9572ZM31.1234 35.2296H30.7694C29.1272 35.2296 28.0003 34.2681 28.0003 32.9354C28.0003 31.6534 28.9019 30.6585 31.4293 30.6585H32.0249V30.5572C32.0249 29.5283 31.5581 29.2246 30.5436 29.2246C29.3044 29.2246 28.6122 29.7137 28.3543 30.0511H28.29V29.4775C28.29 28.6679 28.9821 27.7066 30.8016 27.7066C32.3472 27.7066 33.7315 28.4656 33.7315 30.962V32.6319C33.7474 34.1668 32.669 35.2296 31.1234 35.2296Z" fill="#232528"/>
<path fill-rule="evenodd" clip-rule="evenodd" d="M40.3131 34.7709C39.5315 34.7709 39.043 34.2892 39.043 33.647V30.9176C39.043 29.7616 38.5219 29.2479 37.6261 29.2479C36.8766 29.2479 36.3555 29.8098 36.3555 30.7891V34.787H35.8344C35.1017 34.787 34.6132 34.3053 34.6132 33.6631V30.6607C34.6132 29.1997 35.5902 27.7066 37.7724 27.7066C39.4173 27.7066 40.7853 28.7982 40.7853 30.7571V34.7709H40.3131Z" fill="#232528"/>
<path fill-rule="evenodd" clip-rule="evenodd" d="M47.7085 34.7536C46.9736 34.7536 46.5328 34.3354 46.5328 33.5495V30.6225C46.5328 29.4517 45.9125 28.9833 45.1449 28.9833C44.6062 28.9833 43.8876 29.4015 43.8876 30.6727V34.7536H43.2999C42.4835 34.7536 42.1079 34.2852 42.1079 33.5495V24.1663H42.6466C43.4794 24.1663 43.8876 24.6515 43.8876 25.3205V28.3813C44.149 27.9631 44.753 27.4279 45.4059 27.4279C47.2188 27.4279 48.2799 28.5317 48.2799 30.5723V34.787H47.7085V34.7536Z" fill="#232528"/>
<path fill-rule="evenodd" clip-rule="evenodd" d="M53.0478 31.9572C51.7437 31.9572 51.3734 32.2777 51.3734 32.868C51.3734 33.4248 51.8081 33.762 52.5646 33.762C53.3053 33.762 53.6756 33.3909 53.6756 32.6488V31.9572H53.0478ZM52.7255 35.2296H52.3715C50.7293 35.2296 49.6025 34.2681 49.6025 32.9354C49.6025 31.6534 50.504 30.6585 53.0315 30.6585H53.6271V30.5572C53.6271 29.5283 53.1602 29.2246 52.1462 29.2246C50.9065 29.2246 50.2144 29.7137 49.9565 30.0511H49.8921V29.4775C49.8921 28.6679 50.5843 27.7066 52.4037 27.7066C53.9494 27.7066 55.3337 28.4656 55.3337 30.962V32.6319C55.3337 34.1668 54.2549 35.2296 52.7255 35.2296Z" fill="#232528"/>
<path fill-rule="evenodd" clip-rule="evenodd" d="M25.7967 18.5524C25.9263 18.1664 26.03 17.7805 26.0559 17.3704C26.6004 17.3945 27.2745 17.3945 28.0004 17.3945C28.0004 17.8046 28.0004 18.2147 27.9485 18.6007C27.5856 21.23 23.7485 22.8704 23.7485 22.8704C24.2671 22.2914 24.5522 21.5677 24.5782 20.8441C25.0448 20.0962 25.4597 19.3484 25.7967 18.5524Z" fill="#576FED"/>
<path fill-rule="evenodd" clip-rule="evenodd" d="M17.812 24.0926C17.812 24.0926 19.1296 22.2744 19.52 20.9968C20.5204 20.2351 22.5944 17.5569 22.5944 17.5569C22.5944 17.5569 20.496 17.3604 19.9104 15.6895C19.52 14.633 19.52 12.7165 19.52 12.7165C18.7636 13.4782 17.9828 14.1661 17.1288 14.7804C16.0064 15.5175 14.03 16.1564 14.03 16.1564C14.03 16.1564 14.8108 14.0187 15.3964 13.0605C15.982 12.1022 16.7628 10.9966 16.7628 10.9966L15.738 5.09969C15.738 5.09969 17.6412 5.51739 18.4708 6.47561C19.1052 7.2373 19.6664 8.04812 20.1788 8.88351C20.1788 8.88351 20.0324 6.13162 21.5452 3.92031C22.4236 2.61806 23.9852 1.95465 25.5224 2.22493C25.9372 2.37235 26.3764 2.4952 26.8156 2.56892C27.2548 2.64263 27.8404 2.22493 27.2792 1.14383C28.304 1.41411 29.2556 2.54434 29.2556 2.54434C29.2556 2.54434 29.9389 2.17579 29.1825 0.45586C30.9393 0.603278 31.842 3.47805 31.842 3.47805C31.842 2.42149 31.8908 1.38953 32.0129 0.333008C32.9645 1.19297 33.5257 2.42149 33.5501 3.69915C33.5501 3.69915 35.3312 3.72372 36.1121 5.27166C36.8929 6.8196 35.5997 12.348 35.5997 12.348L36.3805 12.9868L37.6737 10.8246L38.9913 12.6183L39.8287 9.92063C39.8287 9.92063 40.6505 10.7754 41.4069 11.6354C41.8949 12.2497 42.2609 12.9376 42.4317 13.6993C42.4317 13.6993 41.6021 15.7141 36.9417 16.7952C32.2813 17.8763 24.2536 17.4832 24.2536 17.4832C24.2536 17.4832 24.766 19.7437 22.5456 21.9796C21.35 23.331 19.6176 24.068 17.812 24.0926Z" fill="#7699FF"/>
<path fill-rule="evenodd" clip-rule="evenodd" d="M39.1622 12.8872C37.5342 13.1376 35.857 13.1604 34.2043 12.9783L35.4129 11.1119L36.4489 12.5914L37.6737 10.8246L38.9649 12.5458L39.8287 9.92063L41.4069 11.6354C41.5795 11.7947 41.7522 12.4548 39.1622 12.8872Z" fill="#F76F60"/>
<path d="M17.6745 12.7387C18.822 12.7387 19.7523 11.8027 19.7523 10.6482C19.7523 9.49358 18.822 8.55762 17.6745 8.55762C16.5269 8.55762 15.5966 9.49358 15.5966 10.6482C15.5966 11.8027 16.5269 12.7387 17.6745 12.7387Z" fill="#DFE6FF"/>
<path d="M17.5615 11.9796C18.3797 11.9796 19.043 11.3123 19.043 10.4891C19.043 9.66591 18.3797 8.9986 17.5615 8.9986C16.7433 8.9986 16.0801 9.66591 16.0801 10.4891C16.0801 11.3123 16.7433 11.9796 17.5615 11.9796Z" fill="#232528"/>
<path fill-rule="evenodd" clip-rule="evenodd" d="M28.3041 6.37038C30.4846 6.37038 32.2522 8.14883 32.2522 10.3426C32.2522 12.5364 30.4846 14.3148 28.3041 14.3148C26.1236 14.3148 24.3559 12.5364 24.3559 10.3426C24.3559 8.14883 26.1236 6.37038 28.3041 6.37038Z" fill="#1D1D1B"/>
<path fill-rule="evenodd" clip-rule="evenodd" d="M30.0699 12.4815C30.578 12.0074 30.9082 11.3676 31.0098 10.6802C31.2384 9.37668 30.2732 8.14419 28.8507 7.93091C28.6983 7.9072 28.5459 7.9072 28.3935 7.9072C26.717 7.95462 25.2946 9.11598 25.066 10.6802C25.0406 10.8224 25.0406 10.9409 25.0406 11.0831C24.9644 10.7513 24.939 10.3958 24.9898 10.064C25.2438 8.33381 26.8187 7.03025 28.6983 6.98283C30.2732 6.93547 31.594 8.12054 31.6448 9.58995C31.6448 9.77958 31.6448 9.92179 31.6194 10.0877C31.467 11.0594 30.9336 11.9127 30.0699 12.4815Z" fill="#60605F"/>
<path fill-rule="evenodd" clip-rule="evenodd" d="M29.685 7.14172C30.4492 7.34986 31.3188 8.04372 30.9499 8.66821C30.6864 9.13076 29.8694 8.36755 29.1053 8.1825C28.341 7.99746 27.2078 7.99746 27.4187 7.51175C27.7612 6.81789 28.9208 6.93358 29.685 7.14172Z" fill="#232528"/>
</svg>
