<svg width="57" height="64" viewBox="0 0 57 64" fill="none" xmlns="http://www.w3.org/2000/svg">
<path d="M37.3944 28.3785H38.4943V28.9343L40.9685 27.371V24.7423C40.7957 24.8002 40.6108 24.8316 40.4185 24.8316C40.2263 24.8316 40.0414 24.8002 39.8687 24.7424V26.7652L29.3833 33.3901V28.2723L34.5006 25.0392V20.2742C34.3279 20.3321 34.143 20.3634 33.9508 20.3634C33.7588 20.3634 33.5741 20.3322 33.4015 20.2745V24.4326L29.3833 26.9714V14.0724C29.2106 14.1303 29.0256 14.1616 28.8334 14.1616C28.6411 14.1616 28.4562 14.1303 28.2835 14.0724V23.8975L24.1212 21.2676V18.4123C23.9484 18.4702 23.7634 18.5015 23.5712 18.5015C23.3789 18.5015 23.194 18.4702 23.0213 18.4124V21.8734L28.2835 25.1984V37.0208L23.8575 34.5939L22.7577 33.9908L16.1331 30.3582V26.2737C15.9603 26.3316 15.7753 26.363 15.583 26.363C15.3908 26.363 15.2059 26.3316 15.0332 26.2738V30.9894L17.0387 32.0921L18.024 32.6338L28.2835 38.2744V45.937L28.7557 46.1946L29.3833 45.798V34.6908L37.3944 29.6292V28.3785Z" fill="white"/>
<path d="M38.4943 28.3785H37.3944V29.6292L38.4943 28.9343V28.3785Z" fill="white"/>
<path d="M38.4943 28.9343L37.3944 29.6292V40.7358L38.4943 40.0408V28.9343Z" fill="white"/>
<path d="M40.9685 24.2641L39.8687 24.2633V24.7424C40.0414 24.8002 40.2263 24.8316 40.4185 24.8316C40.6108 24.8316 40.7957 24.8002 40.9685 24.7423V24.2641Z" fill="white"/>
<path d="M39.8687 24.2633L40.9685 24.2641V24.7423C41.6549 24.5124 42.1495 23.8641 42.1495 23.1002C42.1495 22.144 41.3745 21.3689 40.4185 21.3689C39.4625 21.3689 38.6875 22.144 38.6875 23.1002C38.6875 23.8642 39.1822 24.5125 39.8687 24.7424V24.2633Z" fill="white"/>
<path d="M38.4943 41.2111H37.3944V40.7358L29.3833 45.798V47.0989L47.8583 35.4267V32.7981C47.6855 32.8559 47.5007 32.8872 47.3085 32.8872C47.1159 32.8872 46.9306 32.8558 46.7576 32.7977V34.8193L38.4943 40.0408V41.2111Z" fill="white"/>
<path d="M46.7576 32.3198H47.8583V32.7981C48.5448 32.5682 49.0394 31.9198 49.0394 31.1559C49.0394 30.1997 48.2645 29.4245 47.3085 29.4245C46.3525 29.4245 45.5775 30.1997 45.5775 31.1559C45.5775 31.9195 46.0717 32.5676 46.7576 32.7977V32.3198Z" fill="white"/>
<path d="M47.8583 32.3198H46.7576V32.7977C46.9306 32.8558 47.1159 32.8872 47.3085 32.8872C47.5007 32.8872 47.6855 32.8559 47.8583 32.7981V32.3198Z" fill="white"/>
<path d="M37.3944 41.2111H38.4943V40.0408L37.3944 40.7358V41.2111Z" fill="white"/>
<path d="M28.7557 46.1946L28.2835 45.937V47.1869L28.5348 47.3246L28.9409 46.6826L28.6677 46.2501L28.7557 46.1946Z" fill="white"/>
<path d="M28.7557 46.1946L28.6677 46.2501L28.9409 46.6826L29.123 46.3949L28.7557 46.1946Z" fill="white"/>
<path d="M29.3833 45.798L28.7557 46.1946L29.123 46.3949L28.9409 46.6826L29.2551 47.1799L29.3833 47.0989V45.798Z" fill="white"/>
<path d="M29.3833 47.0989L29.2551 47.1799L28.9409 46.6826L28.5348 47.3246L28.2835 47.1869V58.4776C28.4395 58.3692 28.629 58.3057 28.8334 58.3057C29.0378 58.3057 29.2273 58.3692 29.3833 58.4776V47.0989Z" fill="white"/>
<path d="M18.024 40.8919H17.0387V39.8044L11.0315 36.5282V34.5064C10.8588 34.5642 10.6738 34.5955 10.4816 34.5955C10.2894 34.5955 10.1044 34.5642 9.93164 34.5063V37.1348L28.2835 47.1869V45.937L18.024 40.3417V40.8919Z" fill="white"/>
<path d="M17.0387 40.8919H18.024V40.3417L17.0387 39.8044V40.8919Z" fill="white"/>
<path d="M18.024 32.6338L17.0387 32.0921V39.8044L18.024 40.3417V32.6338Z" fill="white"/>
<path d="M22.7577 33.9908L23.8575 34.5939V29.4586C23.6848 29.5164 23.4999 29.5477 23.3078 29.5477C23.1155 29.5477 22.9305 29.5163 22.7577 29.4585V33.9908Z" fill="white"/>
<path d="M23.8575 28.2306H22.7577V29.4585C22.9305 29.5163 23.1155 29.5477 23.3078 29.5477C23.4999 29.5477 23.6848 29.5164 23.8575 29.4586V28.2306Z" fill="white"/>
<path d="M23.3078 26.085C22.3518 26.085 21.5768 26.8602 21.5768 27.8164C21.5768 28.5802 22.0713 29.2285 22.7577 29.4585V28.2306H23.8575V29.4586C24.544 29.2287 25.0388 28.5803 25.0388 27.8164C25.0388 26.8602 24.2638 26.085 23.3078 26.085Z" fill="white"/>
<path d="M16.1331 25.1204H15.0332V26.2738C15.2059 26.3316 15.3908 26.363 15.583 26.363C15.7753 26.363 15.9603 26.3316 16.1331 26.2737V25.1204Z" fill="white"/>
<path d="M15.0332 25.1204H16.1331V26.2737C16.8194 26.0438 17.314 25.3955 17.314 24.6316C17.314 23.6754 16.539 22.9003 15.583 22.9003C14.627 22.9003 13.852 23.6754 13.852 24.6316C13.852 25.3956 14.3467 26.044 15.0332 26.2738V25.1204Z" fill="white"/>
<path d="M9.93164 34.0271H11.0315V34.5064C11.7179 34.2765 12.2126 33.6281 12.2126 32.8642C12.2126 31.908 11.4376 31.1329 10.4816 31.1329C9.52562 31.1329 8.75062 31.908 8.75062 32.8642C8.75062 33.6281 9.24525 34.2764 9.93164 34.5063V34.0271Z" fill="white"/>
<path d="M11.0315 34.0271H9.93164V34.5063C10.1044 34.5642 10.2894 34.5955 10.4816 34.5955C10.6738 34.5955 10.8588 34.5642 11.0315 34.5064V34.0271Z" fill="white"/>
<path d="M4.66315 45.3752L4.66313 44.4114C4.12997 44.4114 3.69775 44.8437 3.69775 45.3769C3.69775 45.9102 4.12997 46.3425 4.66313 46.3425C5.01884 46.3425 5.32962 46.1501 5.49708 45.8636L4.66315 45.3752Z" fill="white"/>
<path d="M4.80004 45.2964L5.55785 45.7402C5.60341 45.6281 5.62851 45.5054 5.62851 45.3769C5.62851 44.8901 5.26836 44.4875 4.80004 44.421V45.2964Z" fill="white"/>
<path d="M4.66313 44.4114L4.66315 45.3752L5.49708 45.8636C5.52014 45.8242 5.54048 45.7829 5.55785 45.7402L4.80004 45.2964V44.421C4.75531 44.4146 4.70961 44.4114 4.66313 44.4114Z" fill="white"/>
<path d="M4.66314 20.0053L4.66313 44.4114C4.70961 44.4114 4.75531 44.4146 4.80004 44.421V19.9957C4.75532 20.002 4.70962 20.0053 4.66314 20.0053Z" fill="white"/>
<path d="M5.55785 45.7402C5.54048 45.7829 5.52014 45.8242 5.49708 45.8636L27.9093 58.9911C27.9229 58.9461 27.9397 58.9025 27.9595 58.8605L5.55785 45.7402Z" fill="white"/>
<path d="M29.3833 59.0503L28.8334 59.3724L28.2835 59.0503V59.2103L28.6964 59.4522H28.9689L29.3833 59.2095V59.0503Z" fill="white"/>
<path d="M29.3833 58.4776C29.2273 58.3692 29.0378 58.3057 28.8334 58.3057C28.629 58.3057 28.4395 58.3692 28.2835 58.4776V59.0503L28.8334 59.3724L29.3833 59.0503V58.4776Z" fill="white"/>
<path d="M29.3833 58.4776V59.0503L29.7073 58.8605C29.6347 58.7061 29.5223 58.5741 29.3833 58.4776Z" fill="white"/>
<path d="M28.8334 59.5324L28.6964 59.4522H28.2835V59.2103L27.9093 58.9911C27.8825 59.0798 27.868 59.1739 27.868 59.2713C27.868 59.8046 28.3002 60.2369 28.8334 60.2369C29.3666 60.2369 29.7988 59.8046 29.7988 59.2713C29.7988 59.1736 29.7843 59.0793 29.7573 58.9905L29.3833 59.2095V59.4522H28.9689L28.8334 59.5324Z" fill="white"/>
<path d="M29.3833 59.2095L28.9689 59.4522H29.3833V59.2095Z" fill="white"/>
<path d="M29.3833 59.0503V59.2095L29.7573 58.9905C29.7437 58.9457 29.727 58.9023 29.7073 58.8605L29.3833 59.0503Z" fill="white"/>
<path d="M28.8334 59.5324L28.9689 59.4522H28.6964L28.8334 59.5324Z" fill="white"/>
<path d="M28.6964 59.4522L28.2835 59.2103V59.4522H28.6964Z" fill="white"/>
<path d="M27.9595 58.8605C27.9397 58.9025 27.9229 58.9461 27.9093 58.9911L28.2835 59.2103V59.0503L27.9595 58.8605Z" fill="white"/>
<path d="M28.2835 58.4776C28.1445 58.5741 28.0321 58.7061 27.9595 58.8605L28.2835 59.0503V58.4776Z" fill="white"/>
<path d="M29.7073 58.8605C29.727 58.9023 29.7437 58.9457 29.7573 58.9905L52.1983 45.8474C52.1732 45.8094 52.1506 45.7696 52.1309 45.7281L29.7073 58.8605Z" fill="white"/>
<path d="M53.0036 44.3491L53.0036 45.376L52.9694 45.3959L52.1983 45.8474C52.3712 46.1083 52.6673 46.2802 53.0036 46.2802C53.5368 46.2802 53.969 45.8479 53.969 45.3147C53.969 44.7814 53.5368 44.3491 53.0036 44.3491Z" fill="white"/>
<path d="M52.1309 45.7281L52.8667 45.2972V44.3587C52.3984 44.4252 52.0382 44.8279 52.0382 45.3147C52.0382 45.4626 52.0715 45.6027 52.1309 45.7281Z" fill="white"/>
<path d="M53.0036 45.376L53.0036 44.3491C52.9571 44.3491 52.9114 44.3524 52.8667 44.3587V45.2972L52.1309 45.7281C52.1506 45.7696 52.1732 45.8094 52.1983 45.8474L52.9694 45.3959L53.0036 45.376Z" fill="white"/>
<path d="M53.0036 44.3491L53.0036 19.943C52.9571 19.943 52.9114 19.9397 52.8667 19.9334V44.3587C52.9114 44.3524 52.9571 44.3491 53.0036 44.3491Z" fill="white"/>
<path d="M52.8667 19.9334V18.2802L52.5726 18.1132C52.2558 18.2715 52.0382 18.5991 52.0382 18.9774C52.0382 19.4642 52.3984 19.8669 52.8667 19.9334Z" fill="white"/>
<path d="M53.0036 18.2006L53.0036 19.943C53.5368 19.943 53.969 19.5107 53.969 18.9774C53.969 18.4442 53.5368 18.0119 53.0036 18.0119C52.9111 18.0119 52.8217 18.0249 52.737 18.0492L53.0036 18.2006Z" fill="white"/>
<path d="M53.0036 19.943L53.0036 18.2006L52.737 18.0492C52.6799 18.0655 52.6249 18.0871 52.5726 18.1132L52.8667 18.2802V19.9334C52.9114 19.9397 52.9571 19.943 53.0036 19.943Z" fill="white"/>
<path d="M52.5726 18.1132C52.6249 18.0871 52.6799 18.0655 52.737 18.0492L29.7607 4.99503C29.7477 5.04046 29.7315 5.08452 29.7123 5.12695L52.5726 18.1132Z" fill="white"/>
<path d="M28.8334 4.46848L28.8676 4.48758L29.7607 4.99503C29.7849 4.91045 29.7979 4.82112 29.7979 4.72877C29.7979 4.19549 29.3657 3.76319 28.8325 3.76319C28.2994 3.76319 27.8671 4.19549 27.8671 4.72877C27.8671 4.82834 27.8822 4.92439 27.9102 5.01477L28.8334 4.46848Z" fill="white"/>
<path d="M28.8676 4.48758L28.8334 4.46848L27.9102 5.01477C27.924 5.05933 27.9409 5.10251 27.9608 5.14405L28.8334 4.62768L29.7123 5.12695C29.7315 5.08452 29.7477 5.04046 29.7607 4.99503L28.8676 4.48758Z" fill="white"/>
<path d="M29.7123 5.12695L28.8334 4.62768L27.9608 5.14405C28.116 5.46948 28.448 5.69434 28.8325 5.69434C29.2238 5.69434 29.5606 5.46157 29.7123 5.12695Z" fill="white"/>
<path d="M27.9608 5.14405C27.9409 5.10251 27.924 5.05933 27.9102 5.01477L5.35231 18.3636C5.38472 18.3966 5.41477 18.432 5.4422 18.4694L27.9608 5.14405Z" fill="white"/>
<path d="M24.1212 15.467H23.0213V18.4124C23.194 18.4702 23.3789 18.5015 23.5712 18.5015C23.7634 18.5015 23.9484 18.4702 24.1212 18.4123V15.467Z" fill="white"/>
<path d="M23.0213 15.467H24.1212V18.4123C24.8075 18.1824 25.3022 17.5341 25.3022 16.7702C25.3022 15.814 24.5272 15.0389 23.5712 15.0389C22.6152 15.0389 21.8402 15.814 21.8402 16.7702C21.8402 17.5341 22.3348 18.1825 23.0213 18.4124V15.467Z" fill="white"/>
<path d="M29.3833 12.3389H28.2835V14.0724C28.4562 14.1303 28.6411 14.1616 28.8334 14.1616C29.0256 14.1616 29.2106 14.1303 29.3833 14.0724V12.3389Z" fill="white"/>
<path d="M28.2835 12.3389H29.3833V14.0724C30.0697 13.8425 30.5643 13.1942 30.5643 12.4303C30.5643 11.4741 29.7894 10.6989 28.8334 10.6989C27.8774 10.6989 27.1024 11.4741 27.1024 12.4303C27.1024 13.1942 27.597 13.8426 28.2835 14.0724V12.3389Z" fill="white"/>
<path d="M33.4015 18.632H34.5006V20.2742C35.1871 20.0444 35.6818 19.396 35.6818 18.6321C35.6818 17.6759 34.9068 16.9007 33.9508 16.9007C32.9948 16.9007 32.2198 17.6759 32.2198 18.6321C32.2198 19.3963 32.7148 20.0448 33.4015 20.2745V18.632Z" fill="white"/>
<path d="M34.5006 18.632H33.4015V20.2745C33.5741 20.3322 33.7588 20.3634 33.9508 20.3634C34.143 20.3634 34.3279 20.3321 34.5006 20.2742V18.632Z" fill="white"/>
<path d="M4.66314 20.0053L4.66315 18.7714L5.35231 18.3636C5.17712 18.1849 4.93307 18.0741 4.66314 18.0741C4.12998 18.0741 3.69777 18.5064 3.69777 19.0397C3.69777 19.573 4.12998 20.0053 4.66314 20.0053Z" fill="white"/>
<path d="M4.66315 18.7714L4.66314 20.0053C4.70962 20.0053 4.75532 20.002 4.80004 19.9957V18.8494L5.4422 18.4694C5.41477 18.432 5.38472 18.3966 5.35231 18.3636L4.66315 18.7714Z" fill="white"/>
<path fill-rule="evenodd" clip-rule="evenodd" d="M56.9144 46.6082V17.3926C56.9144 16.3976 56.3835 15.4782 55.5216 14.9807L30.2253 0.372926C29.802 0.128615 29.322 0 28.8333 0C28.3447 0 27.8646 0.128615 27.4414 0.372926L2.14501 14.9799C1.72158 15.2242 1.36994 15.5758 1.12545 15.9992C0.880961 16.4226 0.752249 16.9029 0.752258 17.3918V46.6082C0.752258 47.6032 1.2831 48.5226 2.14501 49.0201L27.4414 63.6271C27.8646 63.8714 28.3447 64 28.8333 64C29.322 64 29.802 63.8714 30.2253 63.6271L55.5216 49.0201C55.9451 48.7758 56.2967 48.4242 56.5412 48.0008C56.7857 47.5774 56.9144 47.0971 56.9144 46.6082ZM29.3833 34.6908L37.3944 29.6292V40.7358L29.3833 45.798V34.6908ZM29.3833 47.0989L47.8583 35.4267V32.7981C48.5448 32.5682 49.0394 31.9198 49.0394 31.1559C49.0394 30.1997 48.2645 29.4245 47.3085 29.4245C46.3525 29.4245 45.5775 30.1997 45.5775 31.1559C45.5775 31.9195 46.0717 32.5676 46.7576 32.7977V34.8193L38.4943 40.0408V28.9343L40.9685 27.371V24.7423C41.6549 24.5124 42.1495 23.8641 42.1495 23.1002C42.1495 22.144 41.3745 21.3689 40.4185 21.3689C39.4625 21.3689 38.6875 22.144 38.6875 23.1002C38.6875 23.8642 39.1822 24.5125 39.8687 24.7424V26.7652L29.3833 33.3901V28.2723L34.5006 25.0392V20.2742C35.1871 20.0444 35.6818 19.396 35.6818 18.6321C35.6818 17.6759 34.9068 16.9007 33.9508 16.9007C32.9948 16.9007 32.2198 17.6759 32.2198 18.6321C32.2198 19.3963 32.7148 20.0448 33.4015 20.2745V24.4326L29.3833 26.9714V14.0724C30.0697 13.8425 30.5643 13.1942 30.5643 12.4303C30.5643 11.4741 29.7894 10.6989 28.8334 10.6989C27.8774 10.6989 27.1024 11.4741 27.1024 12.4303C27.1024 13.1942 27.597 13.8426 28.2835 14.0724V23.8975L24.1212 21.2676V18.4123C24.8075 18.1824 25.3022 17.5341 25.3022 16.7702C25.3022 15.814 24.5272 15.0389 23.5712 15.0389C22.6152 15.0389 21.8402 15.814 21.8402 16.7702C21.8402 17.5341 22.3348 18.1825 23.0213 18.4124V21.8734L28.2835 25.1984V37.0208L23.8575 34.5939V29.4586C24.544 29.2287 25.0388 28.5803 25.0388 27.8164C25.0388 26.8602 24.2638 26.085 23.3078 26.085C22.3518 26.085 21.5768 26.8602 21.5768 27.8164C21.5768 28.5802 22.0713 29.2285 22.7577 29.4585V33.9908L16.1331 30.3582V26.2737C16.8194 26.0438 17.314 25.3955 17.314 24.6316C17.314 23.6754 16.539 22.9003 15.583 22.9003C14.627 22.9003 13.852 23.6754 13.852 24.6316C13.852 25.3956 14.3467 26.044 15.0332 26.2738V30.9894L17.0387 32.0921V39.8044L11.0315 36.5282V34.5064C11.7179 34.2765 12.2126 33.6281 12.2126 32.8642C12.2126 31.908 11.4376 31.1329 10.4816 31.1329C9.52562 31.1329 8.75062 31.908 8.75062 32.8642C8.75062 33.6281 9.24525 34.2764 9.93164 34.5063V37.1348L28.2835 47.1869V58.4776C28.1445 58.5741 28.0321 58.7061 27.9595 58.8605L5.55785 45.7402C5.60341 45.6281 5.62851 45.5054 5.62851 45.3769C5.62851 44.8901 5.26836 44.4875 4.80004 44.421V19.9957C5.26837 19.9292 5.62852 19.5265 5.62852 19.0397C5.62852 18.8264 5.55934 18.6292 5.4422 18.4694L27.9608 5.14405C28.116 5.46948 28.448 5.69434 28.8325 5.69434C29.2238 5.69434 29.5606 5.46157 29.7123 5.12695L52.5726 18.1132C52.2558 18.2715 52.0382 18.5991 52.0382 18.9774C52.0382 19.4642 52.3984 19.8669 52.8667 19.9334V44.3587C52.3984 44.4252 52.0382 44.8279 52.0382 45.3147C52.0382 45.4626 52.0715 45.6027 52.1309 45.7281L29.7073 58.8605C29.6347 58.7061 29.5223 58.5741 29.3833 58.4776V47.0989ZM4.66314 18.0741C4.93307 18.0741 5.17712 18.1849 5.35231 18.3636L27.9102 5.01477C27.8822 4.92439 27.8671 4.82834 27.8671 4.72877C27.8671 4.19549 28.2994 3.76319 28.8325 3.76319C29.3657 3.76319 29.7979 4.19549 29.7979 4.72877C29.7979 4.82112 29.7849 4.91045 29.7607 4.99503L52.737 18.0492C52.8217 18.0249 52.9111 18.0119 53.0036 18.0119C53.5368 18.0119 53.969 18.4442 53.969 18.9774C53.969 19.5107 53.5368 19.943 53.0036 19.943L53.0036 44.3491C53.5368 44.3491 53.969 44.7814 53.969 45.3147C53.969 45.8479 53.5368 46.2802 53.0036 46.2802C52.6673 46.2802 52.3712 46.1083 52.1983 45.8474L29.7573 58.9905C29.7843 59.0793 29.7988 59.1736 29.7988 59.2713C29.7988 59.8046 29.3666 60.2369 28.8334 60.2369C28.3002 60.2369 27.868 59.8046 27.868 59.2713C27.868 59.1739 27.8825 59.0798 27.9093 58.9911L5.49708 45.8636C5.32962 46.1501 5.01884 46.3425 4.66313 46.3425C4.12997 46.3425 3.69775 45.9102 3.69775 45.3769C3.69775 44.8437 4.12997 44.4114 4.66313 44.4114L4.66314 20.0053C4.12998 20.0053 3.69777 19.573 3.69777 19.0397C3.69777 18.5064 4.12998 18.0741 4.66314 18.0741ZM18.024 40.3417L28.2835 45.937V38.2744L18.024 32.6338V40.3417Z" fill="#1D74F2"/>
<path d="M4.80004 18.8494V19.9957C5.26837 19.9292 5.62852 19.5265 5.62852 19.0397C5.62852 18.8264 5.55934 18.6292 5.4422 18.4694L4.80004 18.8494Z" fill="white"/>
</svg>
