<svg width="100" height="48" viewBox="0 0 100 48" fill="none" xmlns="http://www.w3.org/2000/svg">
<path d="M29.6611 3.77197L6.22568 16.2193V22.443L29.6611 9.99564V3.77197Z" fill="#4E32A0"/>
<path d="M0.366302 13.108L6.22516 16.2198L29.6606 3.77248L23.8017 0.660645L0.366302 13.108Z" fill="#864AD3"/>
<path d="M6.22517 16.2207L0.366302 13.1089V19.3326L6.22517 22.4444V16.2207Z" fill="#E14BEC"/>
<path d="M29.6611 16.2202L6.22568 28.6676V34.8912L29.6611 22.4439V16.2202Z" fill="#4E32A0"/>
<path d="M0.366302 25.5562L6.22516 28.6681L29.6606 16.2207L23.8017 13.1089L0.366302 25.5562Z" fill="#864AD3"/>
<path d="M6.22517 28.6682L0.366302 25.5564V31.7801L6.22517 34.8919V28.6682Z" fill="#E14BEC"/>
<path d="M29.6611 28.6677L6.22568 41.1151V47.3387L29.6611 34.8914V28.6677Z" fill="#4E32A0"/>
<path d="M0.366302 38.0037L6.22516 41.1156L29.6606 28.6682L23.8017 25.5564L0.366302 38.0037Z" fill="#864AD3"/>
<path d="M6.22517 41.115L0.366302 38.0032V44.2268L6.22517 47.3387V41.115Z" fill="#E14BEC"/>
<path d="M35.5194 44.2268L41.3783 47.3387V41.115L35.5194 38.0032V44.2268Z" fill="#2FEF92"/>
<path d="M41.3788 47.3387L47.2377 44.2268V38.0032L41.3788 41.115V47.3387Z" fill="#10379E"/>
<path d="M35.5194 38.0037L41.3783 41.1155L47.2372 38.0037L41.3783 34.8918L35.5194 38.0037Z" fill="#489AF0"/>
<path d="M58.9554 19.3315L41.3788 28.667V34.8907L58.9554 25.5552V19.3315Z" fill="#10379E"/>
<path d="M35.5194 25.5557L41.3783 28.6676L58.9549 19.332L53.096 16.2202L35.5194 25.5557Z" fill="#489AF0"/>
<path d="M41.3783 28.6682L35.5194 25.5564V31.7801L41.3783 34.8919V28.6682Z" fill="#2FEF92"/>
<path d="M64.8143 3.77197L41.3788 16.2193V22.443L64.8143 9.99564V3.77197Z" fill="#10379E"/>
<path d="M35.5194 13.108L41.3783 16.2198L64.8137 3.77248L58.9549 0.660645L35.5194 13.108Z" fill="#489AF0"/>
<path d="M41.3783 16.2207L35.5194 13.1089V19.3326L41.3783 22.4444V16.2207Z" fill="#2FEF92"/>
<path d="M79.8797 44.8883L85.7385 48.0002V23.1055L79.8797 19.9937V44.8883Z" fill="#00DCFF"/>
<path d="M85.7379 48.0002L91.5968 44.8883V19.9937L85.7379 23.1055V48.0002Z" fill="#4160ED"/>
<path d="M79.8797 19.9942L85.7385 23.106L91.5974 19.9942L85.7385 16.8823L79.8797 19.9942Z" fill="#66A0DB"/>
<path d="M99.9672 3.11133L76.5318 15.5587V21.7823L99.9672 9.335V3.11133Z" fill="#4160ED"/>
<path d="M70.6724 12.4473L76.5313 15.5592L99.9667 3.11184L94.1078 0L70.6724 12.4473Z" fill="#66A0DB"/>
<path d="M76.5313 15.5593L70.6724 12.4475V18.6712L76.5313 21.783V15.5593Z" fill="#00DCFF"/>
</svg>
