<svg width="56" height="64" viewBox="0 0 56 64" fill="none" xmlns="http://www.w3.org/2000/svg">
<path d="M0.631531 47.8272L28.1503 63.7697L55.6691 47.8272V15.9424L28.1503 0L0.631531 15.9424V47.8272Z" fill="#469EA2"/>
<path d="M25.333 3.81305L5.34909 15.3836C5.38184 15.7445 5.38184 16.1075 5.34909 16.4684L25.3002 28.0389C26.1205 27.4304 27.1138 27.102 28.134 27.102C29.1542 27.102 30.1474 27.4304 30.9678 28.0389L50.9189 16.4684C50.8861 16.1075 50.8861 15.7445 50.9189 15.3836L31.0005 3.81305C30.1802 4.4216 29.1869 4.75001 28.1667 4.75001C27.1466 4.75001 26.1533 4.4216 25.333 3.81305ZM52.8517 19.6569L32.8679 31.3589C32.9762 32.3738 32.762 33.3971 32.256 34.2827C31.7501 35.1682 30.9781 35.8706 30.0505 36.2896L30.0832 59.2992C30.4063 59.4422 30.7137 59.6185 31.0005 59.8252L50.9516 48.2546C50.8433 47.2397 51.0575 46.2164 51.5635 45.3309C52.0694 44.4453 52.8414 43.7429 53.769 43.3239V20.1828C53.4497 20.0325 53.1429 19.8567 52.8517 19.6569ZM3.44898 19.7883C3.16218 19.995 2.85477 20.1713 2.53169 20.3143V43.4554C3.47067 43.8596 4.25325 44.5591 4.76144 45.4484C5.26963 46.3378 5.47588 47.3688 5.34909 48.3861L25.3002 59.9567C25.587 59.75 25.8944 59.5737 26.2175 59.4307V36.2896C25.2785 35.8854 24.4959 35.1859 23.9877 34.2966C23.4795 33.4072 23.2733 32.3762 23.4001 31.3589L3.44898 19.7883Z" fill="#6ACAD1"/>
<path d="M28.1503 3.45168L52.7534 17.7177V46.2168L28.1503 60.4828L3.54723 46.2168V17.6848L28.1503 3.45168ZM28.1503 0.0659746L0.631545 16.0084V47.8932L28.1503 63.8356L55.6691 47.8932V16.0084L28.1503 0.0659746Z" fill="#469EA2"/>
<path d="M28.3469 37.3088H27.9538C27.2778 37.3105 26.6082 37.1782 25.9834 36.9195C25.3586 36.6607 24.7909 36.2807 24.313 35.8011C23.835 35.3215 23.4562 34.7519 23.1984 34.125C22.9405 33.4981 22.8086 32.8262 22.8104 32.148V31.7536C22.8086 31.0754 22.9405 30.4035 23.1984 29.7766C23.4562 29.1497 23.835 28.5801 24.313 28.1005C24.7909 27.621 25.3586 27.2409 25.9834 26.9821C26.6082 26.7234 27.2778 26.5911 27.9538 26.5928H28.3469C29.0228 26.5911 29.6924 26.7234 30.3172 26.9821C30.942 27.2409 31.5097 27.621 31.9877 28.1005C32.4656 28.5801 32.8444 29.1497 33.1023 29.7766C33.3601 30.4035 33.492 31.0754 33.4903 31.7536V32.148C33.492 32.8262 33.3601 33.4981 33.1023 34.125C32.8444 34.7519 32.4656 35.3215 31.9877 35.8011C31.5097 36.2807 30.942 36.6607 30.3172 36.9195C29.6924 37.1782 29.0228 37.3105 28.3469 37.3088ZM28.3469 58.5105H27.9538C27.04 58.5078 26.1421 58.7501 25.353 59.2125C24.5639 59.6748 23.9123 60.3404 23.4656 61.1402L28.1503 63.8356L32.8351 61.1402C32.3884 60.3404 31.7368 59.6748 30.9477 59.2125C30.1586 58.7501 29.2607 58.5078 28.3469 58.5105ZM55.7019 42.5681H55.5053C54.8294 42.5664 54.1598 42.6987 53.535 42.9574C52.9102 43.2162 52.3425 43.5962 51.8645 44.0758C51.3866 44.5554 51.0078 45.125 50.7499 45.7519C50.492 46.3788 50.3602 47.0507 50.3619 47.7289V48.1233C50.3572 48.9994 50.5832 49.8612 51.0171 50.6215L55.7019 47.8932V42.5681ZM51.0171 13.313C50.5871 14.0748 50.3613 14.9356 50.3619 15.8112V16.2056C50.3602 16.8838 50.492 17.5557 50.7499 18.1826C51.0078 18.8095 51.3866 19.3791 51.8645 19.8587C52.3425 20.3382 52.9102 20.7183 53.535 20.9771C54.1598 21.2358 54.8294 21.3681 55.5053 21.3664H55.7019V16.0084L51.0171 13.313ZM28.1503 0.0659746L23.4656 2.76139C23.9101 3.56556 24.5604 4.23622 25.3493 4.70423C26.1382 5.17225 27.0373 5.42069 27.9538 5.42394H28.3469C29.2607 5.4267 30.1586 5.18437 30.9477 4.72202C31.7368 4.25968 32.3884 3.59413 32.8351 2.79426L28.1503 0.0659746ZM5.31629 13.2801L0.631545 16.0084V21.3664H0.828108C1.50403 21.3681 2.17364 21.2358 2.79844 20.9771C3.42325 20.7183 3.99094 20.3382 4.46889 19.8587C4.94684 19.3791 5.32564 18.8095 5.5835 18.1826C5.84137 17.5557 5.97323 16.8838 5.9715 16.2056V15.8112C5.9604 14.9267 5.73556 14.0582 5.31629 13.2801ZM0.828108 42.5681H0.631545V47.8932L5.31629 50.6215C5.74634 49.8597 5.9721 48.9989 5.9715 48.1233V47.7289C5.97323 47.0507 5.84137 46.3788 5.5835 45.7519C5.32564 45.125 4.94684 44.5554 4.46889 44.0758C3.99094 43.5962 3.42325 43.2162 2.79844 42.9574C2.17364 42.6987 1.50403 42.5664 0.828108 42.5681Z" fill="#469EA2"/>
<path d="M28.1503 64V32.0823L0.631538 16.1399V48.0576L28.1503 64Z" fill="#083B54" fill-opacity="0.15"/>
<path d="M55.7018 47.7615V15.8767L28.183 31.8191V63.7368L55.7018 47.7615Z" fill="#083B54" fill-opacity="0.05"/>
</svg>
