<svg width="65" height="64" viewBox="0 0 65 64" fill="none" xmlns="http://www.w3.org/2000/svg">
<path fill-rule="evenodd" clip-rule="evenodd" d="M32.833 64C15.233 64 0.833008 49.6002 0.833008 31.8406C0.991177 14.4424 15.3581 0.169834 32.8338 0C50.4235 0.171865 64.833 14.4085 64.833 32.3206C64.673 49.7602 50.4331 64 32.833 64Z" fill="#0090FF"/>
<path fill-rule="evenodd" clip-rule="evenodd" d="M35.8726 28.1609L34.9126 33.2808L44.0327 34.5608L43.3927 36.9608L34.4326 35.6808C33.7926 37.7608 33.4726 40.0006 32.6726 41.9206C31.8727 44.1607 31.0727 46.4007 30.1127 48.4805C28.8326 51.2005 26.5926 53.1205 23.5526 53.6004C21.7926 53.9204 19.8726 53.7604 18.4327 52.6405C17.9527 52.3205 17.4727 51.6805 17.4727 51.2005C17.4727 50.5605 17.7927 49.7605 18.2727 49.4405C18.5927 49.2805 19.3925 49.4405 19.8726 49.6005C20.3526 50.0805 20.8326 50.7205 21.1526 51.3605C22.1126 52.6405 23.3926 52.8005 24.6727 51.8405C26.1126 50.5605 26.9126 48.8005 27.3926 47.0405C28.3526 43.2006 29.3126 39.5208 30.1127 35.6808V35.0408L21.6326 33.7608L21.9526 31.3609L30.7527 32.6409L31.8727 27.6809L22.7526 26.241L23.0726 23.681L32.5125 24.961C32.8326 24.001 32.9926 23.201 33.3126 22.401C34.1126 19.5212 34.9126 16.6412 36.8327 14.0812C38.7527 11.5213 40.9926 9.9213 44.3527 10.0813C45.7926 10.0813 47.2326 10.5613 48.1926 11.6813C48.3526 11.8413 48.6726 12.1613 48.6726 12.4812C48.6726 13.1212 48.6726 13.9212 48.1926 14.4012C47.5526 14.8812 46.7526 14.7212 46.1126 14.0812C45.6326 13.6012 45.3127 13.1212 44.8327 12.6412C43.8727 11.3613 42.4326 11.2013 41.3126 12.3212C40.5126 13.1212 39.7126 14.2412 39.2326 15.3612C38.1127 18.7212 37.3127 22.241 36.1926 25.761L44.9927 27.0409L44.3527 29.4409L35.8726 28.1609Z" fill="white"/>
</svg>
