<svg width="32" height="32" viewBox="0 0 32 32" fill="none" xmlns="http://www.w3.org/2000/svg">
<path d="M2.66699 13.332C2.66699 9.5608 2.66699 7.67518 3.83856 6.5036C5.01014 5.33203 6.89576 5.33203 10.667 5.33203H17.3337C21.1049 5.33203 22.9905 5.33203 24.1621 6.5036C25.3337 7.67518 25.3337 9.5608 25.3337 13.332C25.3337 17.1033 25.3337 18.9889 24.1621 20.1605C22.9905 21.332 21.1049 21.332 17.3337 21.332H10.667C6.89576 21.332 5.01014 21.332 3.83856 20.1605C2.66699 18.9889 2.66699 17.1033 2.66699 13.332Z" stroke="#232528" stroke-width="1.5"/>
<path d="M2.66699 13.332C2.66699 9.5608 2.66699 7.67518 3.83856 6.5036C5.01014 5.33203 6.89576 5.33203 10.667 5.33203H17.3337C21.1049 5.33203 22.9905 5.33203 24.1621 6.5036C25.3337 7.67518 25.3337 9.5608 25.3337 13.332C25.3337 17.1033 25.3337 18.9889 24.1621 20.1605C22.9905 21.332 21.1049 21.332 17.3337 21.332H10.667C6.89576 21.332 5.01014 21.332 3.83856 20.1605C2.66699 18.9889 2.66699 17.1033 2.66699 13.332Z" stroke="white" stroke-opacity="0.3" stroke-width="1.5"/>
<g opacity="0.5">
<path d="M25.3337 9.43359C26.6338 9.56148 27.509 9.85049 28.1622 10.5037C29.3337 11.6752 29.3337 13.5609 29.3337 17.3321C29.3337 21.1033 29.3337 22.989 28.1622 24.1605C26.9906 25.3321 25.105 25.3321 21.3337 25.3321H14.6671C10.8958 25.3321 9.01021 25.3321 7.83864 24.1605C7.18545 23.5073 6.89643 22.6322 6.76855 21.332" stroke="#232528" stroke-width="1.5"/>
<path d="M25.3337 9.43359C26.6338 9.56148 27.509 9.85049 28.1622 10.5037C29.3337 11.6752 29.3337 13.5609 29.3337 17.3321C29.3337 21.1033 29.3337 22.989 28.1622 24.1605C26.9906 25.3321 25.105 25.3321 21.3337 25.3321H14.6671C10.8958 25.3321 9.01021 25.3321 7.83864 24.1605C7.18545 23.5073 6.89643 22.6322 6.76855 21.332" stroke="white" stroke-opacity="0.3" stroke-width="1.5"/>
</g>
<path d="M17.3337 13.3333C17.3337 15.1743 15.8413 16.6667 14.0003 16.6667C12.1594 16.6667 10.667 15.1743 10.667 13.3333C10.667 11.4924 12.1594 10 14.0003 10C15.8413 10 17.3337 11.4924 17.3337 13.3333Z" stroke="#232528" stroke-width="1.5"/>
<path d="M17.3337 13.3333C17.3337 15.1743 15.8413 16.6667 14.0003 16.6667C12.1594 16.6667 10.667 15.1743 10.667 13.3333C10.667 11.4924 12.1594 10 14.0003 10C15.8413 10 17.3337 11.4924 17.3337 13.3333Z" stroke="white" stroke-opacity="0.3" stroke-width="1.5"/>
<g opacity="0.5">
<path d="M21.333 16L21.333 10.6667" stroke="#232528" stroke-width="1.5" stroke-linecap="round"/>
<path d="M21.333 16L21.333 10.6667" stroke="white" stroke-opacity="0.3" stroke-width="1.5" stroke-linecap="round"/>
</g>
<g opacity="0.5">
<path d="M6.66699 16L6.66699 10.6667" stroke="#232528" stroke-width="1.5" stroke-linecap="round"/>
<path d="M6.66699 16L6.66699 10.6667" stroke="white" stroke-opacity="0.3" stroke-width="1.5" stroke-linecap="round"/>
</g>
</svg>
