<svg width="32" height="32" viewBox="0 0 32 32" fill="none" xmlns="http://www.w3.org/2000/svg">
<g opacity="0.5">
<path d="M10.4574 5.07079C13.1624 3.46891 14.5149 2.66797 16 2.66797C17.4851 2.66797 18.8376 3.46891 21.5426 5.07079L22.4574 5.61258C25.1624 7.21446 26.5149 8.0154 27.2574 9.33464C28 10.6539 28 12.2558 28 15.4595V16.5431C28 19.7468 28 21.3487 27.2574 22.668C26.5149 23.9872 25.1624 24.7881 22.4574 26.39L21.5426 26.9318C18.8376 28.5337 17.4851 29.3346 16 29.3346C14.5149 29.3346 13.1624 28.5337 10.4574 26.9318L9.54256 26.39C6.8376 24.7881 5.48512 23.9872 4.74256 22.668C4 21.3487 4 19.7468 4 16.5431V15.4595C4 12.2558 4 10.6539 4.74256 9.33464C5.48512 8.0154 6.8376 7.21446 9.54256 5.61258L10.4574 5.07079Z" stroke="#232528" stroke-width="1.5"/>
<path d="M10.4574 5.07079C13.1624 3.46891 14.5149 2.66797 16 2.66797C17.4851 2.66797 18.8376 3.46891 21.5426 5.07079L22.4574 5.61258C25.1624 7.21446 26.5149 8.0154 27.2574 9.33464C28 10.6539 28 12.2558 28 15.4595V16.5431C28 19.7468 28 21.3487 27.2574 22.668C26.5149 23.9872 25.1624 24.7881 22.4574 26.39L21.5426 26.9318C18.8376 28.5337 17.4851 29.3346 16 29.3346C14.5149 29.3346 13.1624 28.5337 10.4574 26.9318L9.54256 26.39C6.8376 24.7881 5.48512 23.9872 4.74256 22.668C4 21.3487 4 19.7468 4 16.5431V15.4595C4 12.2558 4 10.6539 4.74256 9.33464C5.48512 8.0154 6.8376 7.21446 9.54256 5.61258L10.4574 5.07079Z" stroke="white" stroke-opacity="0.3" stroke-width="1.5"/>
</g>
<path d="M20 16L16 16M16 16L12 16M16 16L16 12M16 16L16 20" stroke="#232528" stroke-width="1.5" stroke-linecap="round"/>
<path d="M20 16L16 16M16 16L12 16M16 16L16 12M16 16L16 20" stroke="white" stroke-opacity="0.3" stroke-width="1.5" stroke-linecap="round"/>
</svg>
