<svg width="32" height="32" viewBox="0 0 32 32" fill="none" xmlns="http://www.w3.org/2000/svg">
<g opacity="0.5">
<path d="M13.333 4H21.9997C22.6189 4 22.9285 4 23.1884 4.03422C24.9834 4.27053 26.3958 5.68296 26.6321 7.4779C26.6663 7.73783 26.6663 8.04744 26.6663 8.66667" stroke="#232528" stroke-width="1.5"/>
<path d="M13.333 4H21.9997C22.6189 4 22.9285 4 23.1884 4.03422C24.9834 4.27053 26.3958 5.68296 26.6321 7.4779C26.6663 7.73783 26.6663 8.04744 26.6663 8.66667" stroke="white" stroke-opacity="0.3" stroke-width="1.5"/>
</g>
<path d="M2.66699 9.26763C2.66699 8.09092 2.66699 7.50257 2.75946 7.01248C3.16651 4.85505 4.85407 3.16749 7.01151 2.76044C7.50159 2.66797 8.08995 2.66797 9.26666 2.66797C9.78223 2.66797 10.04 2.66797 10.2878 2.69114C11.3559 2.79102 12.369 3.21068 13.1949 3.89532C13.3865 4.05412 13.5688 4.2364 13.9333 4.60097L14.667 5.33464C15.7547 6.42234 16.2986 6.96619 16.9498 7.32854C17.3076 7.52758 17.6871 7.68477 18.0808 7.797C18.7975 8.0013 19.5666 8.0013 21.1049 8.0013H21.6031C25.1129 8.0013 26.8679 8.0013 28.0085 9.02725C28.1135 9.12163 28.2133 9.22148 28.3077 9.32641C29.3337 10.4671 29.3337 12.222 29.3337 15.7318V18.668C29.3337 23.6963 29.3337 26.2104 27.7716 27.7725C26.2095 29.3346 23.6953 29.3346 18.667 29.3346H13.3337C8.30534 29.3346 5.79119 29.3346 4.22909 27.7725C2.66699 26.2104 2.66699 23.6963 2.66699 18.668V9.26763Z" stroke="#232528" stroke-width="1.5"/>
<path d="M2.66699 9.26763C2.66699 8.09092 2.66699 7.50257 2.75946 7.01248C3.16651 4.85505 4.85407 3.16749 7.01151 2.76044C7.50159 2.66797 8.08995 2.66797 9.26666 2.66797C9.78223 2.66797 10.04 2.66797 10.2878 2.69114C11.3559 2.79102 12.369 3.21068 13.1949 3.89532C13.3865 4.05412 13.5688 4.2364 13.9333 4.60097L14.667 5.33464C15.7547 6.42234 16.2986 6.96619 16.9498 7.32854C17.3076 7.52758 17.6871 7.68477 18.0808 7.797C18.7975 8.0013 19.5666 8.0013 21.1049 8.0013H21.6031C25.1129 8.0013 26.8679 8.0013 28.0085 9.02725C28.1135 9.12163 28.2133 9.22148 28.3077 9.32641C29.3337 10.4671 29.3337 12.222 29.3337 15.7318V18.668C29.3337 23.6963 29.3337 26.2104 27.7716 27.7725C26.2095 29.3346 23.6953 29.3346 18.667 29.3346H13.3337C8.30534 29.3346 5.79119 29.3346 4.22909 27.7725C2.66699 26.2104 2.66699 23.6963 2.66699 18.668V9.26763Z" stroke="white" stroke-opacity="0.3" stroke-width="1.5"/>
<path d="M8 10.668H13.3333" stroke="#232528" stroke-width="1.5" stroke-linecap="round" stroke-linejoin="round"/>
<path d="M8 10.668H13.3333" stroke="white" stroke-opacity="0.3" stroke-width="1.5" stroke-linecap="round" stroke-linejoin="round"/>
<path d="M27.7778 12H24.3077C21.9286 12 20 13.7909 20 16C20 18.2091 21.9286 20 24.3077 20H27.7778C27.8889 20 27.9444 20 27.9913 19.9971C28.7104 19.9534 29.2831 19.4215 29.3303 18.7539C29.3333 18.7103 29.3333 18.6587 29.3333 18.5556V13.4444C29.3333 13.3413 29.3333 13.2897 29.3303 13.2461C29.2831 12.5785 28.7104 12.0466 27.9913 12.0029C27.9444 12 27.8889 12 27.7778 12Z" stroke="#232528" stroke-width="1.5"/>
<path d="M27.7778 12H24.3077C21.9286 12 20 13.7909 20 16C20 18.2091 21.9286 20 24.3077 20H27.7778C27.8889 20 27.9444 20 27.9913 19.9971C28.7104 19.9534 29.2831 19.4215 29.3303 18.7539C29.3333 18.7103 29.3333 18.6587 29.3333 18.5556V13.4444C29.3333 13.3413 29.3333 13.2897 29.3303 13.2461C29.2831 12.5785 28.7104 12.0466 27.9913 12.0029C27.9444 12 27.8889 12 27.7778 12Z" stroke="white" stroke-opacity="0.3" stroke-width="1.5"/>
<g opacity="0.5">
<path d="M23.9883 16H24.0003" stroke="#232528" stroke-width="2" stroke-linecap="round" stroke-linejoin="round"/>
<path d="M23.9883 16H24.0003" stroke="white" stroke-opacity="0.3" stroke-width="2" stroke-linecap="round" stroke-linejoin="round"/>
</g>
</svg>
