<svg width="32" height="32" viewBox="0 0 32 32" fill="none" xmlns="http://www.w3.org/2000/svg">
<g opacity="0.5">
<path d="M3.33301 8.66536C3.33301 6.15121 3.33301 4.89413 4.11406 4.11308C4.89511 3.33203 6.15218 3.33203 8.66634 3.33203C11.1805 3.33203 12.4376 3.33203 13.2186 4.11308C13.9997 4.89413 13.9997 6.15121 13.9997 8.66536C13.9997 11.1795 13.9997 12.4366 13.2186 13.2176C12.4376 13.9987 11.1805 13.9987 8.66634 13.9987C6.15218 13.9987 4.89511 13.9987 4.11406 13.2176C3.33301 12.4366 3.33301 11.1795 3.33301 8.66536Z" stroke="#232528" stroke-width="1.5"/>
<path d="M3.33301 8.66536C3.33301 6.15121 3.33301 4.89413 4.11406 4.11308C4.89511 3.33203 6.15218 3.33203 8.66634 3.33203C11.1805 3.33203 12.4376 3.33203 13.2186 4.11308C13.9997 4.89413 13.9997 6.15121 13.9997 8.66536C13.9997 11.1795 13.9997 12.4366 13.2186 13.2176C12.4376 13.9987 11.1805 13.9987 8.66634 13.9987C6.15218 13.9987 4.89511 13.9987 4.11406 13.2176C3.33301 12.4366 3.33301 11.1795 3.33301 8.66536Z" stroke="white" stroke-opacity="0.3" stroke-width="1.5"/>
</g>
<g opacity="0.5">
<path d="M18 23.3333C18 20.8192 18 19.5621 18.781 18.781C19.5621 18 20.8192 18 23.3333 18C25.8475 18 27.1046 18 27.8856 18.781C28.6667 19.5621 28.6667 20.8192 28.6667 23.3333C28.6667 25.8475 28.6667 27.1046 27.8856 27.8856C27.1046 28.6667 25.8475 28.6667 23.3333 28.6667C20.8192 28.6667 19.5621 28.6667 18.781 27.8856C18 27.1046 18 25.8475 18 23.3333Z" stroke="#232528" stroke-width="1.5"/>
<path d="M18 23.3333C18 20.8192 18 19.5621 18.781 18.781C19.5621 18 20.8192 18 23.3333 18C25.8475 18 27.1046 18 27.8856 18.781C28.6667 19.5621 28.6667 20.8192 28.6667 23.3333C28.6667 25.8475 28.6667 27.1046 27.8856 27.8856C27.1046 28.6667 25.8475 28.6667 23.3333 28.6667C20.8192 28.6667 19.5621 28.6667 18.781 27.8856C18 27.1046 18 25.8475 18 23.3333Z" stroke="white" stroke-opacity="0.3" stroke-width="1.5"/>
</g>
<path d="M3.33301 23.3333C3.33301 20.8192 3.33301 19.5621 4.11406 18.781C4.89511 18 6.15218 18 8.66634 18C11.1805 18 12.4376 18 13.2186 18.781C13.9997 19.5621 13.9997 20.8192 13.9997 23.3333C13.9997 25.8475 13.9997 27.1046 13.2186 27.8856C12.4376 28.6667 11.1805 28.6667 8.66634 28.6667C6.15218 28.6667 4.89511 28.6667 4.11406 27.8856C3.33301 27.1046 3.33301 25.8475 3.33301 23.3333Z" stroke="#232528" stroke-width="1.5"/>
<path d="M3.33301 23.3333C3.33301 20.8192 3.33301 19.5621 4.11406 18.781C4.89511 18 6.15218 18 8.66634 18C11.1805 18 12.4376 18 13.2186 18.781C13.9997 19.5621 13.9997 20.8192 13.9997 23.3333C13.9997 25.8475 13.9997 27.1046 13.2186 27.8856C12.4376 28.6667 11.1805 28.6667 8.66634 28.6667C6.15218 28.6667 4.89511 28.6667 4.11406 27.8856C3.33301 27.1046 3.33301 25.8475 3.33301 23.3333Z" stroke="white" stroke-opacity="0.3" stroke-width="1.5"/>
<path d="M18 8.66536C18 6.15121 18 4.89413 18.781 4.11308C19.5621 3.33203 20.8192 3.33203 23.3333 3.33203C25.8475 3.33203 27.1046 3.33203 27.8856 4.11308C28.6667 4.89413 28.6667 6.15121 28.6667 8.66536C28.6667 11.1795 28.6667 12.4366 27.8856 13.2176C27.1046 13.9987 25.8475 13.9987 23.3333 13.9987C20.8192 13.9987 19.5621 13.9987 18.781 13.2176C18 12.4366 18 11.1795 18 8.66536Z" stroke="#232528" stroke-width="1.5"/>
<path d="M18 8.66536C18 6.15121 18 4.89413 18.781 4.11308C19.5621 3.33203 20.8192 3.33203 23.3333 3.33203C25.8475 3.33203 27.1046 3.33203 27.8856 4.11308C28.6667 4.89413 28.6667 6.15121 28.6667 8.66536C28.6667 11.1795 28.6667 12.4366 27.8856 13.2176C27.1046 13.9987 25.8475 13.9987 23.3333 13.9987C20.8192 13.9987 19.5621 13.9987 18.781 13.2176C18 12.4366 18 11.1795 18 8.66536Z" stroke="white" stroke-opacity="0.3" stroke-width="1.5"/>
</svg>
