<svg width="32" height="32" viewBox="0 0 32 32" fill="none" xmlns="http://www.w3.org/2000/svg">
<path d="M23.0138 15.2548C26.5038 15.2548 29.333 12.4372 29.333 8.9614C29.333 5.48564 26.5038 2.66797 23.0138 2.66797C19.5237 2.66797 16.6945 5.48564 16.6945 8.9614C16.6945 10.5714 17.4293 11.7422 17.4293 11.7422L9.78741 19.3529C9.44451 19.6944 8.96444 20.5823 9.78741 21.4019L10.6692 22.2801C11.0121 22.5728 11.8742 22.9826 12.5796 22.2801L13.6083 21.2556C14.637 22.2801 15.8127 21.6946 16.2536 21.1092C16.9884 20.0847 16.1066 19.0602 16.1066 19.0602L16.4005 18.7675C17.8114 20.1725 19.0458 19.3529 19.4867 18.7675C20.2215 17.7429 19.4867 16.7184 19.4867 16.7184C19.1928 16.133 18.605 16.133 19.3397 15.4012L20.2215 14.523C20.9269 15.1085 22.3769 15.2548 23.0138 15.2548Z" stroke="#232528" stroke-width="1.5" stroke-linejoin="round"/>
<path d="M23.0138 15.2548C26.5038 15.2548 29.333 12.4372 29.333 8.9614C29.333 5.48564 26.5038 2.66797 23.0138 2.66797C19.5237 2.66797 16.6945 5.48564 16.6945 8.9614C16.6945 10.5714 17.4293 11.7422 17.4293 11.7422L9.78741 19.3529C9.44451 19.6944 8.96444 20.5823 9.78741 21.4019L10.6692 22.2801C11.0121 22.5728 11.8742 22.9826 12.5796 22.2801L13.6083 21.2556C14.637 22.2801 15.8127 21.6946 16.2536 21.1092C16.9884 20.0847 16.1066 19.0602 16.1066 19.0602L16.4005 18.7675C17.8114 20.1725 19.0458 19.3529 19.4867 18.7675C20.2215 17.7429 19.4867 16.7184 19.4867 16.7184C19.1928 16.133 18.605 16.133 19.3397 15.4012L20.2215 14.523C20.9269 15.1085 22.3769 15.2548 23.0138 15.2548Z" stroke="white" stroke-opacity="0.3" stroke-width="1.5" stroke-linejoin="round"/>
<g opacity="0.5">
<path d="M23.014 11.1564C24.2314 11.1564 25.2184 10.1735 25.2184 8.96101C25.2184 7.74853 24.2314 6.76562 23.014 6.76562C21.7965 6.76562 20.8096 7.74853 20.8096 8.96101C20.8096 10.1735 21.7965 11.1564 23.014 11.1564Z" stroke="#232528" stroke-width="1.5"/>
<path d="M23.014 11.1564C24.2314 11.1564 25.2184 10.1735 25.2184 8.96101C25.2184 7.74853 24.2314 6.76562 23.014 6.76562C21.7965 6.76562 20.8096 7.74853 20.8096 8.96101C20.8096 10.1735 21.7965 11.1564 23.014 11.1564Z" stroke="white" stroke-opacity="0.3" stroke-width="1.5"/>
</g>
<g opacity="0.5">
<path d="M29.3337 19.9919C29.2485 23.7173 28.8926 25.8933 27.4059 27.3801C25.4513 29.3346 22.3054 29.3346 16.0137 29.3346C9.72202 29.3346 6.57616 29.3346 4.62158 27.3801C2.66699 25.4255 2.66699 22.2796 2.66699 15.9879C2.66699 9.69619 2.66699 6.55033 4.62158 4.59575C6.10831 3.10901 8.28429 2.75315 12.0097 2.66797" stroke="#232528" stroke-width="1.5" stroke-linecap="round"/>
<path d="M29.3337 19.9919C29.2485 23.7173 28.8926 25.8933 27.4059 27.3801C25.4513 29.3346 22.3054 29.3346 16.0137 29.3346C9.72202 29.3346 6.57616 29.3346 4.62158 27.3801C2.66699 25.4255 2.66699 22.2796 2.66699 15.9879C2.66699 9.69619 2.66699 6.55033 4.62158 4.59575C6.10831 3.10901 8.28429 2.75315 12.0097 2.66797" stroke="white" stroke-opacity="0.3" stroke-width="1.5" stroke-linecap="round"/>
</g>
</svg>
