<svg width="32" height="32" viewBox="0 0 32 32" fill="none" xmlns="http://www.w3.org/2000/svg">
<path d="M20.9711 5.17683C22.8835 3.25698 25.6809 3.21666 27.2295 4.77128C28.7811 6.32885 28.7393 9.14384 26.8256 11.065L23.5938 14.3093C23.204 14.7006 23.2052 15.3338 23.5965 15.7235C23.9878 16.1133 24.621 16.1121 25.0107 15.7208L28.2425 12.4765C30.7909 9.91818 31.1108 5.83375 28.6465 3.35981C26.1792 0.882944 22.1038 1.20576 19.5541 3.76536L13.0906 10.254C10.5422 12.8123 10.2222 16.8967 12.6866 19.3707C13.0764 19.7619 13.7095 19.7632 14.1008 19.3734C14.4921 18.9836 14.4933 18.3505 14.1035 17.9592C12.552 16.4016 12.5938 13.5866 14.5075 11.6654L20.9711 5.17683Z" fill="#232528"/>
<path d="M20.9711 5.17683C22.8835 3.25698 25.6809 3.21666 27.2295 4.77128C28.7811 6.32885 28.7393 9.14384 26.8256 11.065L23.5938 14.3093C23.204 14.7006 23.2052 15.3338 23.5965 15.7235C23.9878 16.1133 24.621 16.1121 25.0107 15.7208L28.2425 12.4765C30.7909 9.91818 31.1108 5.83375 28.6465 3.35981C26.1792 0.882944 22.1038 1.20576 19.5541 3.76536L13.0906 10.254C10.5422 12.8123 10.2222 16.8967 12.6866 19.3707C13.0764 19.7619 13.7095 19.7632 14.1008 19.3734C14.4921 18.9836 14.4933 18.3505 14.1035 17.9592C12.552 16.4016 12.5938 13.5866 14.5075 11.6654L20.9711 5.17683Z" fill="white" fill-opacity="0.3"/>
<g opacity="0.5">
<path d="M19.3125 12.6263C18.9227 12.235 18.2896 12.2338 17.8983 12.6236C17.507 13.0133 17.5058 13.6465 17.8955 14.0378C19.4471 15.5953 19.4053 18.4103 17.4916 20.3315L11.0281 26.8201C9.11563 28.74 6.31819 28.7803 4.76956 27.2257C3.21802 25.6681 3.2598 22.8531 5.17354 20.9319L8.40533 17.6876C8.7951 17.2963 8.79387 16.6631 8.40259 16.2733C8.01131 15.8836 7.37815 15.8848 6.98838 16.2761L3.75659 19.5204C1.20819 22.0787 0.888245 26.1632 3.35261 28.6371C5.81991 31.114 9.89531 30.7912 12.445 28.2316L18.9085 21.7429C21.4569 19.1846 21.7769 15.1002 19.3125 12.6263Z" fill="#232528"/>
<path d="M19.3125 12.6263C18.9227 12.235 18.2896 12.2338 17.8983 12.6236C17.507 13.0133 17.5058 13.6465 17.8955 14.0378C19.4471 15.5953 19.4053 18.4103 17.4916 20.3315L11.0281 26.8201C9.11563 28.74 6.31819 28.7803 4.76956 27.2257C3.21802 25.6681 3.2598 22.8531 5.17354 20.9319L8.40533 17.6876C8.7951 17.2963 8.79387 16.6631 8.40259 16.2733C8.01131 15.8836 7.37815 15.8848 6.98838 16.2761L3.75659 19.5204C1.20819 22.0787 0.888245 26.1632 3.35261 28.6371C5.81991 31.114 9.89531 30.7912 12.445 28.2316L18.9085 21.7429C21.4569 19.1846 21.7769 15.1002 19.3125 12.6263Z" fill="white" fill-opacity="0.3"/>
</g>
</svg>
