<svg width="32" height="32" viewBox="0 0 32 32" fill="none" xmlns="http://www.w3.org/2000/svg">
<path d="M6.30497 21.5171C4.24426 19.4564 3.2139 18.4261 2.83051 17.0893C2.44712 15.7525 2.77477 14.3326 3.43008 11.493L3.80798 9.8554C4.35929 7.46638 4.63495 6.27187 5.45292 5.45389C6.27089 4.63592 7.4654 4.36027 9.85442 3.80896L11.492 3.43105C14.3317 2.77575 15.7515 2.44809 17.0883 2.83149C18.4251 3.21488 19.4555 4.24524 21.5162 6.30595L23.9557 8.74546C27.541 12.3308 29.3337 14.1234 29.3337 16.3511C29.3337 18.5787 27.541 20.3713 23.9557 23.9567C20.3704 27.542 18.5777 29.3346 16.3501 29.3346C14.1225 29.3346 12.3298 27.542 8.74449 23.9567L6.30497 21.5171Z" stroke="#232528" stroke-width="1.5"/>
<path d="M6.30497 21.5171C4.24426 19.4564 3.2139 18.4261 2.83051 17.0893C2.44712 15.7525 2.77477 14.3326 3.43008 11.493L3.80798 9.8554C4.35929 7.46638 4.63495 6.27187 5.45292 5.45389C6.27089 4.63592 7.4654 4.36027 9.85442 3.80896L11.492 3.43105C14.3317 2.77575 15.7515 2.44809 17.0883 2.83149C18.4251 3.21488 19.4555 4.24524 21.5162 6.30595L23.9557 8.74546C27.541 12.3308 29.3337 14.1234 29.3337 16.3511C29.3337 18.5787 27.541 20.3713 23.9557 23.9567C20.3704 27.542 18.5777 29.3346 16.3501 29.3346C14.1225 29.3346 12.3298 27.542 8.74449 23.9567L6.30497 21.5171Z" stroke="white" stroke-opacity="0.3" stroke-width="1.5"/>
<g opacity="0.5">
<circle cx="11.4763" cy="11.8398" r="2.66667" transform="rotate(-45 11.4763 11.8398)" stroke="#232528" stroke-width="1.5"/>
<circle cx="11.4763" cy="11.8398" r="2.66667" transform="rotate(-45 11.4763 11.8398)" stroke="white" stroke-opacity="0.3" stroke-width="1.5"/>
</g>
<g opacity="0.5">
<path d="M15.389 24.668L24.6943 15.3623" stroke="#232528" stroke-width="1.5" stroke-linecap="round"/>
<path d="M15.389 24.668L24.6943 15.3623" stroke="white" stroke-opacity="0.3" stroke-width="1.5" stroke-linecap="round"/>
</g>
</svg>
