<svg width="24" height="24" viewBox="0 0 24 24" fill="none" xmlns="http://www.w3.org/2000/svg">
<circle cx="12" cy="6" r="4" stroke="#232528" stroke-width="1.5"/>
<circle cx="12" cy="6" r="4" stroke="white" stroke-opacity="0.3" stroke-width="1.5"/>
<circle cx="17" cy="18" r="4" stroke="#232528" stroke-width="1.5"/>
<circle cx="17" cy="18" r="4" stroke="white" stroke-opacity="0.3" stroke-width="1.5"/>
<path d="M15.666 17.9983L16.4995 18.9983L18.3327 17.1094" stroke="#232528" stroke-width="1.5" stroke-linecap="round" stroke-linejoin="round"/>
<path d="M15.666 17.9983L16.4995 18.9983L18.3327 17.1094" stroke="white" stroke-opacity="0.3" stroke-width="1.5" stroke-linecap="round" stroke-linejoin="round"/>
<g opacity="0.5">
<path d="M14 20.8344C13.3663 20.9421 12.695 21 12 21C8.13401 21 5 19.2091 5 17C5 14.7909 8.13401 13 12 13C13.7135 13 15.2832 13.3518 16.5 13.9359" stroke="#232528" stroke-width="1.5"/>
<path d="M14 20.8344C13.3663 20.9421 12.695 21 12 21C8.13401 21 5 19.2091 5 17C5 14.7909 8.13401 13 12 13C13.7135 13 15.2832 13.3518 16.5 13.9359" stroke="white" stroke-opacity="0.3" stroke-width="1.5"/>
</g>
</svg>
