<svg width="32" height="32" viewBox="0 0 32 32" fill="none" xmlns="http://www.w3.org/2000/svg">
<g opacity="0.5">
<path d="M13.0418 5.18573C13.7936 4.54502 14.1695 4.22467 14.5626 4.03681C15.4716 3.60231 16.5284 3.60231 17.4375 4.03681C17.8305 4.22467 18.2064 4.54502 18.9583 5.18573C19.2575 5.44073 19.4071 5.56823 19.5669 5.67533C19.9332 5.92083 20.3445 6.09122 20.7771 6.17662C20.9658 6.21388 21.1618 6.22952 21.5537 6.26079C22.5384 6.33937 23.0307 6.37866 23.4415 6.52374C24.3915 6.85931 25.1388 7.60658 25.4743 8.55662C25.6194 8.96737 25.6587 9.45971 25.7373 10.4444C25.7686 10.8363 25.7842 11.0322 25.8215 11.221C25.9069 11.6535 26.0772 12.0649 26.3228 12.4312C26.4298 12.591 26.5573 12.7406 26.8124 13.0398C27.4531 13.7916 27.7734 14.1676 27.9613 14.5606C28.3958 15.4697 28.3958 16.5265 27.9613 17.4355C27.7734 17.8286 27.4531 18.2045 26.8124 18.9563C26.5573 19.2555 26.4298 19.4052 26.3228 19.5649C26.0772 19.9312 25.9069 20.3426 25.8215 20.7752C25.7842 20.9639 25.7686 21.1598 25.7373 21.5517C25.6587 22.5364 25.6194 23.0288 25.4743 23.4395C25.1388 24.3895 24.3915 25.1368 23.4415 25.4724C23.0307 25.6175 22.5384 25.6568 21.5537 25.7353C21.1618 25.7666 20.9658 25.7822 20.7771 25.8195C20.3445 25.9049 19.9332 26.0753 19.5669 26.3208C19.4071 26.4279 19.2575 26.5554 18.9583 26.8104C18.2064 27.4511 17.8305 27.7715 17.4375 27.9593C16.5284 28.3938 15.4716 28.3938 14.5626 27.9593C14.1695 27.7715 13.7936 27.4511 13.0418 26.8104C12.7425 26.5554 12.5929 26.4279 12.4331 26.3208C12.0669 26.0753 11.6555 25.9049 11.2229 25.8195C11.0342 25.7822 10.8382 25.7666 10.4463 25.7353C9.46166 25.6568 8.96933 25.6175 8.55857 25.4724C7.60853 25.1368 6.86126 24.3895 6.52569 23.4395C6.38061 23.0288 6.34132 22.5364 6.26275 21.5517C6.23147 21.1598 6.21583 20.9639 6.17858 20.7752C6.09317 20.3426 5.92278 19.9312 5.67728 19.5649C5.57018 19.4052 5.44268 19.2555 5.18768 18.9563C4.54697 18.2045 4.22662 17.8286 4.03876 17.4355C3.60427 16.5265 3.60427 15.4697 4.03876 14.5606C4.22662 14.1676 4.54697 13.7916 5.18768 13.0398C5.44268 12.7406 5.57018 12.591 5.67728 12.4312C5.92278 12.0649 6.09317 11.6535 6.17858 11.221C6.21583 11.0322 6.23147 10.8363 6.26275 10.4444C6.34132 9.45971 6.38061 8.96737 6.52569 8.55662C6.86126 7.60658 7.60854 6.85931 8.55857 6.52374C8.96933 6.37866 9.46166 6.33937 10.4463 6.26079C10.8382 6.22952 11.0342 6.21388 11.2229 6.17662C11.6555 6.09122 12.0669 5.92083 12.4331 5.67533C12.5929 5.56823 12.7425 5.44073 13.0418 5.18573Z" stroke="#232528" stroke-width="1.5"/>
<path d="M13.0418 5.18573C13.7936 4.54502 14.1695 4.22467 14.5626 4.03681C15.4716 3.60231 16.5284 3.60231 17.4375 4.03681C17.8305 4.22467 18.2064 4.54502 18.9583 5.18573C19.2575 5.44073 19.4071 5.56823 19.5669 5.67533C19.9332 5.92083 20.3445 6.09122 20.7771 6.17662C20.9658 6.21388 21.1618 6.22952 21.5537 6.26079C22.5384 6.33937 23.0307 6.37866 23.4415 6.52374C24.3915 6.85931 25.1388 7.60658 25.4743 8.55662C25.6194 8.96737 25.6587 9.45971 25.7373 10.4444C25.7686 10.8363 25.7842 11.0322 25.8215 11.221C25.9069 11.6535 26.0772 12.0649 26.3228 12.4312C26.4298 12.591 26.5573 12.7406 26.8124 13.0398C27.4531 13.7916 27.7734 14.1676 27.9613 14.5606C28.3958 15.4697 28.3958 16.5265 27.9613 17.4355C27.7734 17.8286 27.4531 18.2045 26.8124 18.9563C26.5573 19.2555 26.4298 19.4052 26.3228 19.5649C26.0772 19.9312 25.9069 20.3426 25.8215 20.7752C25.7842 20.9639 25.7686 21.1598 25.7373 21.5517C25.6587 22.5364 25.6194 23.0288 25.4743 23.4395C25.1388 24.3895 24.3915 25.1368 23.4415 25.4724C23.0307 25.6175 22.5384 25.6568 21.5537 25.7353C21.1618 25.7666 20.9658 25.7822 20.7771 25.8195C20.3445 25.9049 19.9332 26.0753 19.5669 26.3208C19.4071 26.4279 19.2575 26.5554 18.9583 26.8104C18.2064 27.4511 17.8305 27.7715 17.4375 27.9593C16.5284 28.3938 15.4716 28.3938 14.5626 27.9593C14.1695 27.7715 13.7936 27.4511 13.0418 26.8104C12.7425 26.5554 12.5929 26.4279 12.4331 26.3208C12.0669 26.0753 11.6555 25.9049 11.2229 25.8195C11.0342 25.7822 10.8382 25.7666 10.4463 25.7353C9.46166 25.6568 8.96933 25.6175 8.55857 25.4724C7.60853 25.1368 6.86126 24.3895 6.52569 23.4395C6.38061 23.0288 6.34132 22.5364 6.26275 21.5517C6.23147 21.1598 6.21583 20.9639 6.17858 20.7752C6.09317 20.3426 5.92278 19.9312 5.67728 19.5649C5.57018 19.4052 5.44268 19.2555 5.18768 18.9563C4.54697 18.2045 4.22662 17.8286 4.03876 17.4355C3.60427 16.5265 3.60427 15.4697 4.03876 14.5606C4.22662 14.1676 4.54697 13.7916 5.18768 13.0398C5.44268 12.7406 5.57018 12.591 5.67728 12.4312C5.92278 12.0649 6.09317 11.6535 6.17858 11.221C6.21583 11.0322 6.23147 10.8363 6.26275 10.4444C6.34132 9.45971 6.38061 8.96737 6.52569 8.55662C6.86126 7.60658 7.60854 6.85931 8.55857 6.52374C8.96933 6.37866 9.46166 6.33937 10.4463 6.26079C10.8382 6.22952 11.0342 6.21388 11.2229 6.17662C11.6555 6.09122 12.0669 5.92083 12.4331 5.67533C12.5929 5.56823 12.7425 5.44073 13.0418 5.18573Z" stroke="white" stroke-opacity="0.3" stroke-width="1.5"/>
</g>
<path d="M11.333 16.668L13.9997 19.3346L20.6663 12.668" stroke="#232528" stroke-width="1.5" stroke-linecap="round" stroke-linejoin="round"/>
<path d="M11.333 16.668L13.9997 19.3346L20.6663 12.668" stroke="white" stroke-opacity="0.3" stroke-width="1.5" stroke-linecap="round" stroke-linejoin="round"/>
</svg>
