<svg width="32" height="32" viewBox="0 0 32 32" fill="none" xmlns="http://www.w3.org/2000/svg">
<path d="M8 10.668H13.3333" stroke="#232528" stroke-width="1.5" stroke-linecap="round" stroke-linejoin="round"/>
<path d="M8 10.668H13.3333" stroke="white" stroke-opacity="0.3" stroke-width="1.5" stroke-linecap="round" stroke-linejoin="round"/>
<path d="M27.7778 12H24.3077C21.9286 12 20 13.7909 20 16C20 18.2091 21.9286 20 24.3077 20H27.7778C27.8889 20 27.9444 20 27.9913 19.9971C28.7104 19.9534 29.2831 19.4215 29.3303 18.7539C29.3333 18.7103 29.3333 18.6587 29.3333 18.5556V13.4444C29.3333 13.3413 29.3333 13.2897 29.3303 13.2461C29.2831 12.5785 28.7104 12.0466 27.9913 12.0029C27.9444 12 27.8889 12 27.7778 12Z" stroke="#232528" stroke-width="1.5"/>
<path d="M27.7778 12H24.3077C21.9286 12 20 13.7909 20 16C20 18.2091 21.9286 20 24.3077 20H27.7778C27.8889 20 27.9444 20 27.9913 19.9971C28.7104 19.9534 29.2831 19.4215 29.3303 18.7539C29.3333 18.7103 29.3333 18.6587 29.3333 18.5556V13.4444C29.3333 13.3413 29.3333 13.2897 29.3303 13.2461C29.2831 12.5785 28.7104 12.0466 27.9913 12.0029C27.9444 12 27.8889 12 27.7778 12Z" stroke="white" stroke-opacity="0.3" stroke-width="1.5"/>
<g opacity="0.4">
<path d="M27.9537 11.9987C27.85 9.5023 27.5158 7.97169 26.4382 6.89413C24.8761 5.33203 22.362 5.33203 17.3337 5.33203L13.3337 5.33203C8.30534 5.33203 5.79119 5.33203 4.22909 6.89413C2.66699 8.45623 2.66699 10.9704 2.66699 15.9987C2.66699 21.027 2.66699 23.5412 4.22909 25.1033C5.79119 26.6654 8.30534 26.6654 13.3337 26.6654H17.3337C22.362 26.6654 24.8761 26.6654 26.4382 25.1033C27.5158 24.0257 27.85 22.4951 27.9537 19.9987" stroke="#232528" stroke-width="1.5"/>
<path d="M27.9537 11.9987C27.85 9.5023 27.5158 7.97169 26.4382 6.89413C24.8761 5.33203 22.362 5.33203 17.3337 5.33203L13.3337 5.33203C8.30534 5.33203 5.79119 5.33203 4.22909 6.89413C2.66699 8.45623 2.66699 10.9704 2.66699 15.9987C2.66699 21.027 2.66699 23.5412 4.22909 25.1033C5.79119 26.6654 8.30534 26.6654 13.3337 26.6654H17.3337C22.362 26.6654 24.8761 26.6654 26.4382 25.1033C27.5158 24.0257 27.85 22.4951 27.9537 19.9987" stroke="white" stroke-opacity="0.3" stroke-width="1.5"/>
</g>
<g opacity="0.5">
<path d="M23.9883 16H24.0003" stroke="#232528" stroke-width="2" stroke-linecap="round" stroke-linejoin="round"/>
<path d="M23.9883 16H24.0003" stroke="white" stroke-opacity="0.3" stroke-width="2" stroke-linecap="round" stroke-linejoin="round"/>
</g>
</svg>
