<svg width="32" height="32" viewBox="0 0 32 32" fill="none" xmlns="http://www.w3.org/2000/svg">
<g opacity="0.5">
<path d="M6.66699 16.0013C6.66699 12.2561 6.66699 10.3835 7.56582 9.03826C7.95493 8.45591 8.45494 7.95591 9.03728 7.5668C10.3825 6.66797 12.2551 6.66797 16.0003 6.66797C19.7456 6.66797 21.6182 6.66797 22.9634 7.5668C23.5457 7.95591 24.0457 8.45591 24.4348 9.03826C25.3337 10.3835 25.3337 12.2561 25.3337 16.0013C25.3337 19.7465 25.3337 21.6191 24.4348 22.9643C24.0457 23.5467 23.5457 24.0467 22.9634 24.4358C21.6182 25.3346 19.7456 25.3346 16.0003 25.3346C12.2551 25.3346 10.3825 25.3346 9.03728 24.4358C8.45494 24.0467 7.95493 23.5467 7.56582 22.9643C6.66699 21.6191 6.66699 19.7465 6.66699 16.0013Z" stroke="#232528" stroke-width="1.5"/>
<path d="M6.66699 16.0013C6.66699 12.2561 6.66699 10.3835 7.56582 9.03826C7.95493 8.45591 8.45494 7.95591 9.03728 7.5668C10.3825 6.66797 12.2551 6.66797 16.0003 6.66797C19.7456 6.66797 21.6182 6.66797 22.9634 7.5668C23.5457 7.95591 24.0457 8.45591 24.4348 9.03826C25.3337 10.3835 25.3337 12.2561 25.3337 16.0013C25.3337 19.7465 25.3337 21.6191 24.4348 22.9643C24.0457 23.5467 23.5457 24.0467 22.9634 24.4358C21.6182 25.3346 19.7456 25.3346 16.0003 25.3346C12.2551 25.3346 10.3825 25.3346 9.03728 24.4358C8.45494 24.0467 7.95493 23.5467 7.56582 22.9643C6.66699 21.6191 6.66699 19.7465 6.66699 16.0013Z" stroke="white" stroke-opacity="0.3" stroke-width="1.5"/>
</g>
<path d="M16 12V16.1026L18.6667 18.6667" stroke="#232528" stroke-width="1.5" stroke-linecap="round" stroke-linejoin="round"/>
<path d="M16 12V16.1026L18.6667 18.6667" stroke="white" stroke-opacity="0.3" stroke-width="1.5" stroke-linecap="round" stroke-linejoin="round"/>
<path d="M9.33301 2.66797H22.6663" stroke="#232528" stroke-width="1.5" stroke-linecap="round"/>
<path d="M9.33301 2.66797H22.6663" stroke="white" stroke-opacity="0.3" stroke-width="1.5" stroke-linecap="round"/>
<path d="M9.33301 29.332H22.6663" stroke="#232528" stroke-width="1.5" stroke-linecap="round"/>
<path d="M9.33301 29.332H22.6663" stroke="white" stroke-opacity="0.3" stroke-width="1.5" stroke-linecap="round"/>
</svg>
