<svg width="656" height="299" viewBox="0 0 656 299" fill="none" xmlns="http://www.w3.org/2000/svg">
<path d="M642.876 0.898744C643.726 0.883815 644.602 0.951906 645.467 1.11557C652.143 2.38145 656.491 8.63664 655.176 15.0986C634.956 114.696 614.91 188.416 595.58 234.209C576.926 278.405 558.234 298.789 536.789 298.474C499.358 297.856 484.424 234.707 467.133 161.584C459.187 127.967 450.962 93.2099 440.906 67.8576C431.752 44.8026 421.932 32.2046 413.236 32.3574C413.211 32.3578 413.187 32.3582 413.15 32.3589C409.381 32.4609 401.548 32.67 397.239 53.8748C393.768 70.9511 394.163 94.8396 394.532 117.93C394.921 141.472 395.324 165.814 391.647 184.48C385.368 216.355 367.797 223.329 354.161 223.569C336.177 223.885 323.838 210.938 317.469 185.091C312.852 166.333 311.261 141.726 309.722 117.941C308.317 96.1806 306.862 73.67 303.14 57.4355C300.245 44.8589 296.166 37.1443 292.229 36.7842C292.18 36.7612 286.759 36.8207 275.467 54.0105C266.49 67.678 257.121 87.04 248.048 105.765C225.398 152.558 205.826 192.978 177.207 188.962C154.59 185.782 147.158 157.593 139.29 127.743C132.768 102.996 124.649 72.1846 109.547 68.205C101.228 66.014 76.1939 68.9936 23.3434 143.874C19.5083 149.307 11.8321 150.718 6.22203 147C0.599938 143.295 -0.836634 135.868 2.99853 130.435C49.7178 64.2598 85.6402 37.1817 116.043 45.197C144.973 52.8329 154.623 89.4843 163.151 121.815C166.505 134.562 169.686 146.597 173.559 155.293C177.818 164.841 180.722 165.351 180.759 165.35C180.809 165.349 186.259 165.611 197.736 148.346C206.931 134.508 216.491 114.761 225.741 95.6636C247.061 51.6359 265.574 13.3928 291.601 12.9356C292.562 12.9187 293.536 12.9493 294.511 13.0395C318.662 15.2027 325.078 43.0634 327.186 52.2316C331.335 70.295 332.856 93.7463 334.314 116.424C335.787 139.208 337.309 162.767 341.436 179.531C343.306 187.117 347.386 199.828 353.742 199.717C356.945 199.66 363.596 199.543 367.443 180.028C370.644 163.767 370.263 140.666 369.896 118.327C369.493 93.9852 369.088 68.821 373.057 49.2796C379.772 16.2756 398.21 8.88086 412.497 8.49876C412.62 8.4966 412.731 8.49465 412.854 8.49249C456.04 7.7339 473.103 79.8598 491.153 156.213C498.846 188.749 506.113 219.481 514.922 242.554C526.223 272.141 534.854 274.565 537.233 274.607C539.624 274.636 552.819 272.461 572.775 225.19C591.501 180.826 611.092 108.593 631.006 10.5032C632.152 4.89083 637.184 0.962945 642.875 0.862983L642.876 0.898744Z" fill="#81FFA1"/>
</svg>
