<svg width="46" height="46" viewBox="0 0 46 46" fill="none" xmlns="http://www.w3.org/2000/svg">
<path d="M13.8333 31.25C13.8333 30.7437 14.2437 30.3333 14.75 30.3333H31.25C31.7563 30.3333 32.1667 30.7437 32.1667 31.25C32.1667 31.7563 31.7563 32.1667 31.25 32.1667H14.75C14.2437 32.1667 13.8333 31.7563 13.8333 31.25Z" fill="#0090FF"/>
<path d="M23.6506 27.8451C23.2921 28.2061 22.7083 28.2061 22.3498 27.8451L17.2058 22.6657C16.8584 22.3159 16.7125 21.9007 17.0493 21.5406C17.4116 21.1531 18.174 20.995 18.5363 21.3825L22.0925 25.1862V12.9075C22.0925 12.4063 22.4988 12 23 12C23.5012 12 23.9075 12.4063 23.9075 12.9075V25.1862L27.4637 21.3825C27.826 20.995 28.4461 21.0009 28.8084 21.3884C29.1452 21.7485 29.1417 22.3158 28.7942 22.6657L23.6506 27.8451Z" fill="#0090FF"/>
<path fill-rule="evenodd" clip-rule="evenodd" d="M23 45C35.1503 45 45 35.1503 45 23C45 10.8497 35.1503 1 23 1C10.8497 1 1 10.8497 1 23C1 35.1503 10.8497 45 23 45ZM23 43.1667C34.1377 43.1667 43.1667 34.1377 43.1667 23C43.1667 11.8623 34.1377 2.83333 23 2.83333C11.8623 2.83333 2.83333 11.8623 2.83333 23C2.83333 34.1377 11.8623 43.1667 23 43.1667Z" fill="#0090FF"/>
<path d="M13.8333 31.25C13.8333 30.7437 14.2437 30.3333 14.75 30.3333H31.25C31.7563 30.3333 32.1667 30.7437 32.1667 31.25C32.1667 31.7563 31.7563 32.1667 31.25 32.1667H14.75C14.2437 32.1667 13.8333 31.7563 13.8333 31.25Z" stroke="#0090FF"/>
<path d="M23.6506 27.8451C23.2921 28.2061 22.7083 28.2061 22.3498 27.8451L17.2058 22.6657C16.8584 22.3159 16.7125 21.9007 17.0493 21.5406C17.4116 21.1531 18.174 20.995 18.5363 21.3825L22.0925 25.1862V12.9075C22.0925 12.4063 22.4988 12 23 12C23.5012 12 23.9075 12.4063 23.9075 12.9075V25.1862L27.4637 21.3825C27.826 20.995 28.4461 21.0009 28.8084 21.3884C29.1452 21.7485 29.1417 22.3158 28.7942 22.6657L23.6506 27.8451Z" stroke="#0090FF"/>
<path fill-rule="evenodd" clip-rule="evenodd" d="M23 45C35.1503 45 45 35.1503 45 23C45 10.8497 35.1503 1 23 1C10.8497 1 1 10.8497 1 23C1 35.1503 10.8497 45 23 45ZM23 43.1667C34.1377 43.1667 43.1667 34.1377 43.1667 23C43.1667 11.8623 34.1377 2.83333 23 2.83333C11.8623 2.83333 2.83333 11.8623 2.83333 23C2.83333 34.1377 11.8623 43.1667 23 43.1667Z" stroke="#0090FF"/>
</svg>
