<svg width="48" height="48" viewBox="0 0 48 48" fill="none" xmlns="http://www.w3.org/2000/svg">
<path d="M14 33C14 32.4477 14.4477 32 15 32H33C33.5523 32 34 32.4477 34 33C34 33.5523 33.5523 34 33 34H15C14.4477 34 14 33.5523 14 33Z" fill="#232528"/>
<path d="M14 33C14 32.4477 14.4477 32 15 32H33C33.5523 32 34 32.4477 34 33C34 33.5523 33.5523 34 33 34H15C14.4477 34 14 33.5523 14 33Z" fill="white" fill-opacity="0.6"/>
<path d="M24.7097 29.2855C24.3187 29.6793 23.6817 29.6793 23.2907 29.2856L17.679 23.6353C17.3 23.2537 17.1409 22.8008 17.5083 22.4079C17.9035 21.9852 18.7352 21.8127 19.1305 22.2355L23.01 26.385V12.99C23.01 12.4432 23.4533 12 24 12C24.5467 12 24.99 12.4432 24.99 12.99V26.385L28.8695 22.2355C29.2648 21.8127 29.9412 21.8192 30.3365 22.2419C30.7038 22.6348 30.7 23.2537 30.321 23.6353L24.7097 29.2855Z" fill="#232528"/>
<path d="M24.7097 29.2855C24.3187 29.6793 23.6817 29.6793 23.2907 29.2856L17.679 23.6353C17.3 23.2537 17.1409 22.8008 17.5083 22.4079C17.9035 21.9852 18.7352 21.8127 19.1305 22.2355L23.01 26.385V12.99C23.01 12.4432 23.4533 12 24 12C24.5467 12 24.99 12.4432 24.99 12.99V26.385L28.8695 22.2355C29.2648 21.8127 29.9412 21.8192 30.3365 22.2419C30.7038 22.6348 30.7 23.2537 30.321 23.6353L24.7097 29.2855Z" fill="white" fill-opacity="0.6"/>
<path fill-rule="evenodd" clip-rule="evenodd" d="M24 48C37.2548 48 48 37.2548 48 24C48 10.7452 37.2548 0 24 0C10.7452 0 0 10.7452 0 24C0 37.2548 10.7452 48 24 48ZM24 46C36.1503 46 46 36.1503 46 24C46 11.8497 36.1503 2 24 2C11.8497 2 2 11.8497 2 24C2 36.1503 11.8497 46 24 46Z" fill="#232528"/>
<path fill-rule="evenodd" clip-rule="evenodd" d="M24 48C37.2548 48 48 37.2548 48 24C48 10.7452 37.2548 0 24 0C10.7452 0 0 10.7452 0 24C0 37.2548 10.7452 48 24 48ZM24 46C36.1503 46 46 36.1503 46 24C46 11.8497 36.1503 2 24 2C11.8497 2 2 11.8497 2 24C2 36.1503 11.8497 46 24 46Z" fill="white" fill-opacity="0.6"/>
</svg>
