<svg width="89" height="104" viewBox="0 0 89 104" fill="none" xmlns="http://www.w3.org/2000/svg">
<g filter="url(#filter0_d_2601_22980)">
<path fill-rule="evenodd" clip-rule="evenodd" d="M71.7759 17.7207C72.5201 18.0218 73 18.7492 73 19.552V53.2658C73 61.7077 69.1152 69.6187 62.5925 74.4601L44.6871 86.4962C43.3349 87.4052 41.5665 87.4031 40.2164 86.4911L22.4075 74.4601C15.8848 69.6187 12 61.7077 12 53.2658V19.552C12 18.7492 12.4799 18.0218 13.2241 17.7207C32.0774 10.0931 52.9226 10.0931 71.7759 17.7207Z" fill="url(#paint0_linear_2601_22980)" fill-opacity="0.15" stroke="url(#paint1_linear_2601_22980)" stroke-width="4"/>
<path d="M33.4112 42.9648L21.8818 49.4478V52.6893L33.4112 46.2063V42.9648Z" fill="#4E32A0"/>
<path d="M19 47.8272L21.8823 49.4479L33.4117 42.965L30.5294 41.3442L19 47.8272Z" fill="#864AD3"/>
<path d="M21.8823 49.4479L19 47.8271V51.0686L21.8823 52.6894V49.4479Z" fill="#E14BEC"/>
<path d="M33.4112 49.4478L21.8818 55.9307V59.1722L33.4112 52.6892V49.4478Z" fill="#4E32A0"/>
<path d="M19 54.3101L21.8823 55.9308L33.4117 49.4479L30.5294 47.8271L19 54.3101Z" fill="#864AD3"/>
<path d="M21.8823 55.9308L19 54.3101V57.5515L21.8823 59.1723V55.9308Z" fill="#E14BEC"/>
<path d="M33.4112 55.9307L21.8818 62.4136V65.6551L33.4112 59.1721V55.9307Z" fill="#4E32A0"/>
<path d="M19 60.793L21.8823 62.4137L33.4117 55.9308L30.5294 54.3101L19 60.793Z" fill="#864AD3"/>
<path d="M21.8823 62.4137L19 60.793V64.0344L21.8823 65.6552V62.4137Z" fill="#E14BEC"/>
<path d="M36.2939 64.0344L39.1763 65.6552V62.4137L36.2939 60.793V64.0344Z" fill="#2FEF92"/>
<path d="M39.1768 65.6552L42.0591 64.0344V60.793L39.1768 62.4137V65.6552Z" fill="#10379E"/>
<path d="M36.2939 60.7931L39.1763 62.4138L42.0586 60.7931L39.1763 59.1724L36.2939 60.7931Z" fill="#489AF0"/>
<path d="M47.8238 51.0684L39.1768 55.9306V59.172L47.8238 54.3098V51.0684Z" fill="#10379E"/>
<path d="M36.2939 54.31L39.1763 55.9307L47.8233 51.0685L44.941 49.4478L36.2939 54.31Z" fill="#489AF0"/>
<path d="M39.1763 55.9308L36.2939 54.3101V57.5515L39.1763 59.1723V55.9308Z" fill="#2FEF92"/>
<path d="M50.7062 42.9648L39.1768 49.4478V52.6893L50.7062 46.2063V42.9648Z" fill="#10379E"/>
<path d="M36.2939 47.8272L39.1763 49.4479L50.7057 42.965L47.8233 41.3442L36.2939 47.8272Z" fill="#489AF0"/>
<path d="M39.1763 49.4479L36.2939 47.8271V51.0686L39.1763 52.6894V49.4479Z" fill="#2FEF92"/>
<path d="M58.1172 64.379L60.9995 65.9997V53.0338L58.1172 51.4131V64.379Z" fill="#00DCFF"/>
<path d="M61 65.9997L63.8823 64.379V51.4131L61 53.0338V65.9997Z" fill="#4160ED"/>
<path d="M58.1172 51.4132L60.9995 53.034L63.8819 51.4132L60.9995 49.7925L58.1172 51.4132Z" fill="#66A0DB"/>
<path d="M68.0001 42.6211L56.4707 49.104V52.3455L68.0001 45.8626V42.6211Z" fill="#4160ED"/>
<path d="M53.5879 47.483L56.4702 49.1037L67.9996 42.6207L65.1173 41L53.5879 47.483Z" fill="#66A0DB"/>
<path d="M56.4702 49.1036L53.5879 47.4829V50.7244L56.4702 52.3451V49.1036Z" fill="#00DCFF"/>
<g filter="url(#filter1_d_2601_22980)">
<path d="M18 28.6353V21H20.9908C21.5658 21 22.0556 21.1106 22.4604 21.3318C22.8651 21.5505 23.1735 21.855 23.3857 22.2452C23.6004 22.6329 23.7078 23.0803 23.7078 23.5873C23.7078 24.0944 23.5992 24.5418 23.382 24.9295C23.1649 25.3172 22.8502 25.6192 22.4381 25.8354C22.0285 26.0517 21.5325 26.1598 20.9501 26.1598H19.0438V24.8661H20.691C20.9995 24.8661 21.2536 24.8127 21.4535 24.7058C21.6559 24.5964 21.8064 24.4461 21.9051 24.2547C22.0063 24.0608 22.0569 23.8384 22.0569 23.5873C22.0569 23.3338 22.0063 23.1126 21.9051 22.9237C21.8064 22.7324 21.6559 22.5845 21.4535 22.4801C21.2512 22.3732 20.9945 22.3198 20.6836 22.3198H19.6028V28.6353H18Z" fill="url(#paint2_linear_2601_22980)"/>
<path d="M24.7192 28.6353V22.9088H26.2479V23.908H26.3072C26.4108 23.5525 26.5848 23.2841 26.8291 23.1027C27.0734 22.9188 27.3547 22.8268 27.673 22.8268C27.752 22.8268 27.8371 22.8318 27.9284 22.8417C28.0197 22.8517 28.0999 22.8653 28.169 22.8827V24.292C28.095 24.2696 27.9926 24.2497 27.8618 24.2323C27.731 24.2149 27.6113 24.2062 27.5028 24.2062C27.2708 24.2062 27.0635 24.2572 26.8809 24.3591C26.7008 24.4585 26.5576 24.5977 26.4515 24.7766C26.3479 24.9556 26.2961 25.1619 26.2961 25.3955V28.6353H24.7192Z" fill="url(#paint3_linear_2601_22980)"/>
<path d="M31.2885 28.7471C30.7135 28.7471 30.2163 28.6241 29.7968 28.378C29.3798 28.1295 29.0577 27.784 28.8307 27.3416C28.6037 26.8967 28.4902 26.381 28.4902 25.7944C28.4902 25.2029 28.6037 24.6859 28.8307 24.2435C29.0577 23.7986 29.3798 23.4531 29.7968 23.2071C30.2163 22.9585 30.7135 22.8343 31.2885 22.8343C31.8635 22.8343 32.3595 22.9585 32.7765 23.2071C33.196 23.4531 33.5193 23.7986 33.7463 24.2435C33.9734 24.6859 34.0869 25.2029 34.0869 25.7944C34.0869 26.381 33.9734 26.8967 33.7463 27.3416C33.5193 27.784 33.196 28.1295 32.7765 28.378C32.3595 28.6241 31.8635 28.7471 31.2885 28.7471ZM31.2959 27.5168C31.5575 27.5168 31.7759 27.4423 31.9511 27.2931C32.1263 27.1415 32.2583 26.9352 32.3472 26.6743C32.4385 26.4133 32.4841 26.1163 32.4841 25.7832C32.4841 25.4502 32.4385 25.1532 32.3472 24.8922C32.2583 24.6312 32.1263 24.4249 31.9511 24.2733C31.7759 24.1217 31.5575 24.0459 31.2959 24.0459C31.0319 24.0459 30.8098 24.1217 30.6296 24.2733C30.452 24.4249 30.3175 24.6312 30.2262 24.8922C30.1373 25.1532 30.0929 25.4502 30.0929 25.7832C30.0929 26.1163 30.1373 26.4133 30.2262 26.6743C30.3175 26.9352 30.452 27.1415 30.6296 27.2931C30.8098 27.4423 31.0319 27.5168 31.2959 27.5168Z" fill="url(#paint4_linear_2601_22980)"/>
<path d="M38.1364 22.9088V24.1018H34.7124V22.9088H38.1364ZM35.4898 21.5369H37.0666V26.8756C37.0666 27.0222 37.0888 27.1366 37.1332 27.2186C37.1777 27.2981 37.2393 27.354 37.3183 27.3863C37.3997 27.4187 37.4935 27.4348 37.5996 27.4348C37.6737 27.4348 37.7477 27.4286 37.8217 27.4162C37.8958 27.4013 37.9525 27.3901 37.992 27.3826L38.24 28.5644C38.161 28.5893 38.05 28.6179 37.9069 28.6502C37.7637 28.685 37.5898 28.7061 37.3849 28.7136C37.0049 28.7285 36.6718 28.6775 36.3855 28.5607C36.1017 28.4439 35.8809 28.2625 35.723 28.0164C35.565 27.7703 35.4873 27.4597 35.4898 27.0844V21.5369Z" fill="url(#paint5_linear_2601_22980)"/>
<path d="M41.6935 28.7471C41.1087 28.7471 40.6053 28.6278 40.1833 28.3892C39.7638 28.1481 39.4405 27.8076 39.2135 27.3677C38.9865 26.9253 38.873 26.4021 38.873 25.7981C38.873 25.2091 38.9865 24.6921 39.2135 24.2472C39.4405 23.8023 39.7601 23.4556 40.1722 23.2071C40.5868 22.9585 41.0729 22.8343 41.6306 22.8343C42.0057 22.8343 42.3549 22.8951 42.6781 23.0169C43.0039 23.1362 43.2877 23.3164 43.5295 23.5575C43.7738 23.7986 43.9638 24.1018 44.0995 24.4672C44.2352 24.8301 44.3031 25.2551 44.3031 25.7422V26.1784H39.5022V25.1942H42.8188C42.8188 24.9655 42.7694 24.763 42.6707 24.5865C42.572 24.41 42.4351 24.2721 42.2599 24.1727C42.0871 24.0708 41.886 24.0198 41.6565 24.0198C41.4171 24.0198 41.2049 24.0757 41.0198 24.1876C40.8372 24.2969 40.6941 24.4448 40.5905 24.6312C40.4868 24.8152 40.4338 25.0202 40.4313 25.2464V26.1821C40.4313 26.4655 40.4831 26.7103 40.5868 26.9166C40.6929 27.1229 40.8422 27.282 41.0347 27.3938C41.2271 27.5056 41.4554 27.5616 41.7194 27.5616C41.8946 27.5616 42.055 27.5367 42.2006 27.487C42.3462 27.4373 42.4709 27.3627 42.5745 27.2633C42.6781 27.1639 42.7571 27.0421 42.8114 26.898L44.2698 26.9949C44.1958 27.3478 44.044 27.656 43.8145 27.9195C43.5875 28.1804 43.2938 28.3842 42.9335 28.5309C42.5757 28.675 42.1624 28.7471 41.6935 28.7471Z" fill="url(#paint6_linear_2601_22980)"/>
<path d="M47.901 28.7471C47.3186 28.7471 46.8177 28.6229 46.3982 28.3743C45.9811 28.1233 45.6603 27.7753 45.4358 27.3304C45.2137 26.8855 45.1026 26.3735 45.1026 25.7944C45.1026 25.2079 45.2149 24.6934 45.4395 24.251C45.6665 23.8061 45.9885 23.4593 46.4056 23.2108C46.8226 22.9598 47.3186 22.8343 47.8936 22.8343C48.3896 22.8343 48.8239 22.925 49.1965 23.1064C49.5692 23.2878 49.8641 23.5426 50.0812 23.8707C50.2984 24.1988 50.418 24.584 50.4403 25.0264H48.9522C48.9103 24.7406 48.7992 24.5107 48.6191 24.3367C48.4414 24.1602 48.2082 24.072 47.9195 24.072C47.6752 24.072 47.4618 24.1391 47.2791 24.2733C47.099 24.4051 46.9583 24.5977 46.8572 24.8512C46.756 25.1047 46.7054 25.4117 46.7054 25.772C46.7054 26.1374 46.7548 26.4481 46.8535 26.7041C46.9546 26.9601 47.0965 27.1552 47.2791 27.2894C47.4618 27.4236 47.6752 27.4907 47.9195 27.4907C48.0997 27.4907 48.2613 27.4535 48.4044 27.3789C48.55 27.3043 48.6697 27.1962 48.7635 27.0545C48.8597 26.9104 48.9226 26.7376 48.9522 26.5363H50.4403C50.4156 26.9738 50.2971 27.359 50.0849 27.6921C49.8752 28.0226 49.5852 28.2811 49.215 28.4675C48.8449 28.6539 48.4069 28.7471 47.901 28.7471Z" fill="url(#paint7_linear_2601_22980)"/>
<path d="M54.474 22.9088V24.1018H51.0501V22.9088H54.474ZM51.8274 21.5369H53.4043V26.8756C53.4043 27.0222 53.4265 27.1366 53.4709 27.2186C53.5153 27.2981 53.577 27.354 53.656 27.3863C53.7374 27.4187 53.8312 27.4348 53.9373 27.4348C54.0113 27.4348 54.0853 27.4286 54.1594 27.4162C54.2334 27.4013 54.2902 27.3901 54.3296 27.3826L54.5776 28.5644C54.4987 28.5893 54.3876 28.6179 54.2445 28.6502C54.1014 28.685 53.9274 28.7061 53.7226 28.7136C53.3426 28.7285 53.0094 28.6775 52.7232 28.5607C52.4394 28.4439 52.2185 28.2625 52.0606 28.0164C51.9027 27.7703 51.8249 27.4597 51.8274 27.0844V21.5369Z" fill="url(#paint8_linear_2601_22980)"/>
<path d="M58.0312 28.7471C57.4463 28.7471 56.9429 28.6278 56.521 28.3892C56.1014 28.1481 55.7782 27.8076 55.5512 27.3677C55.3241 26.9253 55.2106 26.4021 55.2106 25.7981C55.2106 25.2091 55.3241 24.6921 55.5512 24.2472C55.7782 23.8023 56.0977 23.4556 56.5098 23.2071C56.9244 22.9585 57.4106 22.8343 57.9683 22.8343C58.3433 22.8343 58.6925 22.8951 59.0158 23.0169C59.3415 23.1362 59.6253 23.3164 59.8671 23.5575C60.1114 23.7986 60.3015 24.1018 60.4372 24.4672C60.5729 24.8301 60.6408 25.2551 60.6408 25.7422V26.1784H55.8399V25.1942H59.1564C59.1564 24.9655 59.1071 24.763 59.0084 24.5865C58.9097 24.41 58.7727 24.2721 58.5975 24.1727C58.4248 24.0708 58.2237 24.0198 57.9942 24.0198C57.7548 24.0198 57.5426 24.0757 57.3575 24.1876C57.1749 24.2969 57.0318 24.4448 56.9281 24.6312C56.8245 24.8152 56.7714 25.0202 56.769 25.2464V26.1821C56.769 26.4655 56.8208 26.7103 56.9244 26.9166C57.0305 27.1229 57.1798 27.282 57.3723 27.3938C57.5648 27.5056 57.793 27.5616 58.0571 27.5616C58.2323 27.5616 58.3927 27.5367 58.5383 27.487C58.6839 27.4373 58.8085 27.3627 58.9121 27.2633C59.0158 27.1639 59.0948 27.0421 59.149 26.898L60.6074 26.9949C60.5334 27.3478 60.3817 27.656 60.1522 27.9195C59.9251 28.1804 59.6315 28.3842 59.2712 28.5309C58.9134 28.675 58.5 28.7471 58.0312 28.7471Z" fill="url(#paint9_linear_2601_22980)"/>
<path d="M63.7649 28.7285C63.333 28.7285 62.9419 28.6166 62.5915 28.3929C62.2435 28.1668 61.9671 27.835 61.7623 27.3975C61.56 26.9576 61.4588 26.4183 61.4588 25.7795C61.4588 25.1233 61.5637 24.5778 61.7734 24.1428C61.9832 23.7054 62.262 23.3786 62.61 23.1623C62.9604 22.9436 63.3441 22.8343 63.7612 22.8343C64.0795 22.8343 64.3448 22.8889 64.557 22.9983C64.7717 23.1052 64.9444 23.2394 65.0752 23.4009C65.2085 23.56 65.3096 23.7166 65.3787 23.8707H65.4268V21H67V28.6353H65.4454V27.7182H65.3787C65.3047 27.8772 65.1998 28.035 65.0641 28.1916C64.9308 28.3457 64.7569 28.4737 64.5422 28.5756C64.33 28.6775 64.0709 28.7285 63.7649 28.7285ZM64.2646 27.4646C64.5187 27.4646 64.7334 27.395 64.9086 27.2559C65.0863 27.1142 65.222 26.9166 65.3158 26.6631C65.412 26.4096 65.4602 26.1126 65.4602 25.772C65.4602 25.4315 65.4133 25.1358 65.3195 24.8847C65.2257 24.6337 65.09 24.4399 64.9123 24.3032C64.7347 24.1665 64.5187 24.0981 64.2646 24.0981C64.0055 24.0981 63.7871 24.1689 63.6094 24.3106C63.4317 24.4523 63.2972 24.6486 63.2059 24.8997C63.1146 25.1507 63.069 25.4415 63.069 25.772C63.069 26.1051 63.1146 26.3996 63.2059 26.6556C63.2997 26.9091 63.4342 27.108 63.6094 27.2521C63.7871 27.3938 64.0055 27.4646 64.2646 27.4646Z" fill="url(#paint10_linear_2601_22980)"/>
</g>
<g filter="url(#filter2_d_2601_22980)">
<path d="M37 37.2439V31H38.4807V33.3476H38.5259C38.5908 33.2215 38.6846 33.0935 38.8074 32.9634C38.9325 32.8313 39.0947 32.7215 39.294 32.6341C39.4956 32.5447 39.7459 32.5 40.0448 32.5C40.4341 32.5 40.7932 32.5894 41.1223 32.7683C41.4513 32.9451 41.7143 33.2124 41.9113 33.5701C42.1083 33.9258 42.2067 34.372 42.2067 34.9085C42.2067 35.4309 42.1106 35.872 41.9182 36.2317C41.7282 36.5894 41.4687 36.8608 41.1397 37.0457C40.8129 37.2287 40.4468 37.3201 40.0413 37.3201C39.754 37.3201 39.5095 37.2785 39.3079 37.1951C39.1086 37.1118 38.9453 37.0071 38.8178 36.8811C38.6904 36.753 38.5931 36.624 38.5259 36.4939H38.4598V37.2439H37ZM38.4494 34.9024C38.4494 35.1809 38.4934 35.4238 38.5815 35.6311C38.6695 35.8384 38.797 36 38.9638 36.1159C39.1307 36.2297 39.3334 36.2866 39.5721 36.2866C39.8131 36.2866 40.017 36.2287 40.1838 36.1128C40.3507 35.9949 40.4769 35.8323 40.5627 35.625C40.6507 35.4156 40.6948 35.1748 40.6948 34.9024C40.6948 34.6321 40.6519 34.3943 40.5662 34.189C40.4804 33.9837 40.3541 33.8232 40.1873 33.7073C40.0205 33.5915 39.8154 33.5335 39.5721 33.5335C39.3311 33.5335 39.1272 33.5894 38.9603 33.7012C38.7958 33.813 38.6695 33.9715 38.5815 34.1768C38.4934 34.3821 38.4494 34.624 38.4494 34.9024Z" fill="url(#paint11_linear_2601_22980)"/>
<path d="M43.9368 39C43.7491 39 43.573 38.9868 43.4085 38.9604C43.2463 38.936 43.1119 38.9045 43.0053 38.8659L43.339 37.8963C43.5128 37.9431 43.6692 37.9685 43.8082 37.9726C43.9495 37.9766 44.0712 37.9482 44.1732 37.8872C44.2774 37.8262 44.362 37.7226 44.4269 37.5762L44.5138 37.378L42.5986 32.561H44.1558L45.2611 36H45.3167L46.4324 32.561H48L45.925 37.75C45.8253 38.002 45.6898 38.2215 45.5183 38.4085C45.3491 38.5976 45.1348 38.7429 44.8753 38.8445C44.6157 38.9482 44.3029 39 43.9368 39Z" fill="url(#paint12_linear_2601_22980)"/>
</g>
</g>
<defs>
<filter id="filter0_d_2601_22980" x="0" y="0" width="89" height="104" filterUnits="userSpaceOnUse" color-interpolation-filters="sRGB">
<feFlood flood-opacity="0" result="BackgroundImageFix"/>
<feColorMatrix in="SourceAlpha" type="matrix" values="0 0 0 0 0 0 0 0 0 0 0 0 0 0 0 0 0 0 127 0" result="hardAlpha"/>
<feOffset dx="2" dy="2"/>
<feGaussianBlur stdDeviation="6"/>
<feComposite in2="hardAlpha" operator="out"/>
<feColorMatrix type="matrix" values="0 0 0 0 0.0745098 0 0 0 0 0.0745098 0 0 0 0 0.176471 0 0 0 0.1 0"/>
<feBlend mode="normal" in2="BackgroundImageFix" result="effect1_dropShadow_2601_22980"/>
<feBlend mode="normal" in="SourceGraphic" in2="effect1_dropShadow_2601_22980" result="shape"/>
</filter>
<filter id="filter1_d_2601_22980" x="17" y="20" width="51" height="9.74707" filterUnits="userSpaceOnUse" color-interpolation-filters="sRGB">
<feFlood flood-opacity="0" result="BackgroundImageFix"/>
<feColorMatrix in="SourceAlpha" type="matrix" values="0 0 0 0 0 0 0 0 0 0 0 0 0 0 0 0 0 0 127 0" result="hardAlpha"/>
<feOffset/>
<feGaussianBlur stdDeviation="0.5"/>
<feComposite in2="hardAlpha" operator="out"/>
<feColorMatrix type="matrix" values="0 0 0 0 1 0 0 0 0 1 0 0 0 0 1 0 0 0 0.25 0"/>
<feBlend mode="normal" in2="BackgroundImageFix" result="effect1_dropShadow_2601_22980"/>
<feBlend mode="normal" in="SourceGraphic" in2="effect1_dropShadow_2601_22980" result="shape"/>
</filter>
<filter id="filter2_d_2601_22980" x="36" y="30" width="13" height="10" filterUnits="userSpaceOnUse" color-interpolation-filters="sRGB">
<feFlood flood-opacity="0" result="BackgroundImageFix"/>
<feColorMatrix in="SourceAlpha" type="matrix" values="0 0 0 0 0 0 0 0 0 0 0 0 0 0 0 0 0 0 127 0" result="hardAlpha"/>
<feOffset/>
<feGaussianBlur stdDeviation="0.5"/>
<feComposite in2="hardAlpha" operator="out"/>
<feColorMatrix type="matrix" values="0 0 0 0 1 0 0 0 0 1 0 0 0 0 1 0 0 0 0.25 0"/>
<feBlend mode="normal" in2="BackgroundImageFix" result="effect1_dropShadow_2601_22980"/>
<feBlend mode="normal" in="SourceGraphic" in2="effect1_dropShadow_2601_22980" result="shape"/>
</filter>
<linearGradient id="paint0_linear_2601_22980" x1="12" y1="50" x2="73" y2="50" gradientUnits="userSpaceOnUse">
<stop stop-color="#38BCC9"/>
<stop offset="1" stop-color="#088DFA"/>
</linearGradient>
<linearGradient id="paint1_linear_2601_22980" x1="12" y1="50" x2="73" y2="50" gradientUnits="userSpaceOnUse">
<stop stop-color="#38BCC9"/>
<stop offset="1" stop-color="#088DFA"/>
</linearGradient>
<linearGradient id="paint2_linear_2601_22980" x1="18" y1="24.8736" x2="67" y2="24.8736" gradientUnits="userSpaceOnUse">
<stop stop-color="#38BCC9"/>
<stop offset="1" stop-color="#088DFA"/>
</linearGradient>
<linearGradient id="paint3_linear_2601_22980" x1="18" y1="24.8736" x2="67" y2="24.8736" gradientUnits="userSpaceOnUse">
<stop stop-color="#38BCC9"/>
<stop offset="1" stop-color="#088DFA"/>
</linearGradient>
<linearGradient id="paint4_linear_2601_22980" x1="18" y1="24.8736" x2="67" y2="24.8736" gradientUnits="userSpaceOnUse">
<stop stop-color="#38BCC9"/>
<stop offset="1" stop-color="#088DFA"/>
</linearGradient>
<linearGradient id="paint5_linear_2601_22980" x1="18" y1="24.8736" x2="67" y2="24.8736" gradientUnits="userSpaceOnUse">
<stop stop-color="#38BCC9"/>
<stop offset="1" stop-color="#088DFA"/>
</linearGradient>
<linearGradient id="paint6_linear_2601_22980" x1="18" y1="24.8736" x2="67" y2="24.8736" gradientUnits="userSpaceOnUse">
<stop stop-color="#38BCC9"/>
<stop offset="1" stop-color="#088DFA"/>
</linearGradient>
<linearGradient id="paint7_linear_2601_22980" x1="18" y1="24.8736" x2="67" y2="24.8736" gradientUnits="userSpaceOnUse">
<stop stop-color="#38BCC9"/>
<stop offset="1" stop-color="#088DFA"/>
</linearGradient>
<linearGradient id="paint8_linear_2601_22980" x1="18" y1="24.8736" x2="67" y2="24.8736" gradientUnits="userSpaceOnUse">
<stop stop-color="#38BCC9"/>
<stop offset="1" stop-color="#088DFA"/>
</linearGradient>
<linearGradient id="paint9_linear_2601_22980" x1="18" y1="24.8736" x2="67" y2="24.8736" gradientUnits="userSpaceOnUse">
<stop stop-color="#38BCC9"/>
<stop offset="1" stop-color="#088DFA"/>
</linearGradient>
<linearGradient id="paint10_linear_2601_22980" x1="18" y1="24.8736" x2="67" y2="24.8736" gradientUnits="userSpaceOnUse">
<stop stop-color="#38BCC9"/>
<stop offset="1" stop-color="#088DFA"/>
</linearGradient>
<linearGradient id="paint11_linear_2601_22980" x1="37" y1="35" x2="48" y2="35" gradientUnits="userSpaceOnUse">
<stop stop-color="#38BCC9"/>
<stop offset="1" stop-color="#088DFA"/>
</linearGradient>
<linearGradient id="paint12_linear_2601_22980" x1="37" y1="35" x2="48" y2="35" gradientUnits="userSpaceOnUse">
<stop stop-color="#38BCC9"/>
<stop offset="1" stop-color="#088DFA"/>
</linearGradient>
</defs>
</svg>
