<svg width="65" height="64" viewBox="0 0 65 64" fill="none" xmlns="http://www.w3.org/2000/svg">
<g filter="url(#filter0_i_1_3)">
<mask id="mask0_1_3" style="mask-type:alpha" maskUnits="userSpaceOnUse" x="0" y="0" width="65" height="64">
<path fill-rule="evenodd" clip-rule="evenodd" d="M32.5 64C50.4493 64 65 49.6731 65 32C65 14.3269 50.4493 0 32.5 0C14.5507 0 0 14.3269 0 32C0 49.6731 14.5507 64 32.5 64ZM22.8284 34.7991C21.2663 33.237 21.2663 30.7044 22.8284 29.1423L34.8492 17.1215C36.0208 15.9499 37.9203 15.9499 39.0919 17.1215C40.2635 18.293 40.2635 20.1925 39.0919 21.3641L29.8995 30.5565C29.1184 31.3375 29.1184 32.6039 29.8995 33.3849L39.0919 42.5773C40.2635 43.7489 40.2635 45.6484 39.0919 46.8199C37.9203 47.9915 36.0208 47.9915 34.8492 46.8199L22.8284 34.7991Z" fill="white"/>
</mask>
<g mask="url(#mask0_1_3)">
<path fill-rule="evenodd" clip-rule="evenodd" d="M32.5 64C50.4493 64 65 49.6731 65 32C65 14.3269 50.4493 0 32.5 0C14.5507 0 0 14.3269 0 32C0 49.6731 14.5507 64 32.5 64ZM22.8284 34.7991C21.2663 33.237 21.2663 30.7044 22.8284 29.1423L34.8492 17.1215C36.0208 15.9499 37.9203 15.9499 39.0919 17.1215C40.2635 18.293 40.2635 20.1925 39.0919 21.3641L29.8995 30.5565C29.1184 31.3375 29.1184 32.6039 29.8995 33.3849L39.0919 42.5773C40.2635 43.7489 40.2635 45.6484 39.0919 46.8199C37.9203 47.9915 36.0208 47.9915 34.8492 46.8199L22.8284 34.7991Z" fill="white" fill-opacity="0.5"/>
<path d="M22.8284 29.1423L21.4142 27.7281L22.8284 29.1423ZM22.8284 34.7991L24.2426 33.3849L22.8284 34.7991ZM34.8492 17.1215L36.2635 18.5357L34.8492 17.1215ZM39.0919 17.1215L37.6777 18.5357L39.0919 17.1215ZM39.0919 21.3641L37.6777 19.9499L39.0919 21.3641ZM29.8995 30.5565L31.3137 31.9707L29.8995 30.5565ZM29.8995 33.3849L28.4853 34.7991L29.8995 33.3849ZM39.0919 46.8199L40.5061 48.2342L39.0919 46.8199ZM34.8492 46.8199L33.435 48.2342L34.8492 46.8199ZM63 32C63 48.5394 49.374 62 32.5 62V66C51.5245 66 67 50.8068 67 32H63ZM32.5 2C49.374 2 63 15.4606 63 32H67C67 13.1932 51.5245 -2 32.5 -2V2ZM2 32C2 15.4606 15.626 2 32.5 2V-2C13.4755 -2 -2 13.1932 -2 32H2ZM32.5 62C15.626 62 2 48.5394 2 32H-2C-2 50.8068 13.4755 66 32.5 66V62ZM21.4142 27.7281C19.0711 30.0712 19.0711 33.8702 21.4142 36.2133L24.2426 33.3849C23.4616 32.6039 23.4616 31.3375 24.2426 30.5565L21.4142 27.7281ZM33.435 15.7072L21.4142 27.7281L24.2426 30.5565L36.2635 18.5357L33.435 15.7072ZM40.5061 15.7072C38.5535 13.7546 35.3876 13.7546 33.435 15.7073L36.2635 18.5357C36.654 18.1452 37.2871 18.1452 37.6777 18.5357L40.5061 15.7072ZM40.5061 22.7783C42.4587 20.8257 42.4587 17.6599 40.5061 15.7072L37.6777 18.5357C38.0682 18.9262 38.0682 19.5594 37.6777 19.9499L40.5061 22.7783ZM31.3137 31.9707L40.5061 22.7783L37.6777 19.9499L28.4853 29.1423L31.3137 31.9707ZM31.3137 31.9707L28.4853 29.1423C26.9232 30.7044 26.9232 33.237 28.4853 34.7991L31.3137 31.9707ZM40.5061 41.1631L31.3137 31.9707L28.4853 34.7991L37.6777 43.9915L40.5061 41.1631ZM40.5061 48.2342C42.4587 46.2815 42.4587 43.1157 40.5061 41.1631L37.6777 43.9915C38.0682 44.382 38.0682 45.0152 37.6777 45.4057L40.5061 48.2342ZM33.435 48.2342C35.3877 50.1868 38.5535 50.1868 40.5061 48.2342L37.6777 45.4057C37.2871 45.7963 36.654 45.7963 36.2635 45.4057L33.435 48.2342ZM21.4142 36.2133L33.435 48.2342L36.2635 45.4057L24.2426 33.3849L21.4142 36.2133Z" fill="white" fill-opacity="0.5"/>
</g>
</g>
<defs>
<filter id="filter0_i_1_3" x="0" y="0" width="65" height="64" filterUnits="userSpaceOnUse" color-interpolation-filters="sRGB">
<feFlood flood-opacity="0" result="BackgroundImageFix"/>
<feBlend mode="normal" in="SourceGraphic" in2="BackgroundImageFix" result="shape"/>
<feColorMatrix in="SourceAlpha" type="matrix" values="0 0 0 0 0 0 0 0 0 0 0 0 0 0 0 0 0 0 127 0" result="hardAlpha"/>
<feOffset/>
<feGaussianBlur stdDeviation="7.5"/>
<feComposite in2="hardAlpha" operator="arithmetic" k2="-1" k3="1"/>
<feColorMatrix type="matrix" values="0 0 0 0 0.0745098 0 0 0 0 0.0745098 0 0 0 0 0.176471 0 0 0 0.05 0"/>
<feBlend mode="normal" in2="shape" result="effect1_innerShadow_1_3"/>
</filter>
</defs>
</svg>
