<svg width="415" height="442" viewBox="0 0 415 442" fill="none" xmlns="http://www.w3.org/2000/svg">
<path d="M173.262 -42V197.879M173.262 197.879V198.09M173.262 197.879H173.473M173.262 197.879H172.602M173.262 198.09V198.539M173.262 198.09L173.473 197.879M173.262 198.09L173.038 198.315M173.262 198.539V442M173.262 198.539L173.038 198.315M173.262 198.539L345.657 370.934M415 197.879H173.473M173.473 197.879L343.972 27.3805M172.602 197.879H-69M172.602 197.879L3.41748 28.6948M172.602 197.879L173.038 198.315M173.038 198.315L1.73245 369.62M80.9376 -23.8047L172.433 197.94M172.433 197.94L172.514 198.135M172.433 197.94L172.629 197.859M172.433 197.94L171.823 198.191M172.514 198.135L172.685 198.55M172.514 198.135L172.629 197.859M172.514 198.135L172.392 198.428M172.685 198.55L265.547 423.605M172.685 198.55L172.392 198.428M172.685 198.55L397.803 292.156M395.896 105.735L172.629 197.859M172.629 197.859L265.205 -24.7823M171.823 198.191L-51.5138 290.344M171.823 198.191L-49.1021 106.329M171.823 198.191L172.392 198.428M172.392 198.428L79.3775 422.123" stroke="#81FFA1" stroke-width="15"/>
</svg>
