<svg width="482" height="643" viewBox="0 0 482 643" fill="none" xmlns="http://www.w3.org/2000/svg">
<g opacity="0.3">
<path d="M547 179.085C547 276.886 424.998 356.17 274.5 356.17C124.002 356.17 2 276.886 2 179.085C2 81.2836 124.002 2 274.5 2C424.998 2 547 81.2836 547 179.085Z" stroke="#81FFA1" stroke-width="4"/>
<path d="M547 321.5C547 419.301 424.998 498.585 274.5 498.585C124.002 498.585 2 419.301 2 321.5C2 223.699 124.002 144.415 274.5 144.415C424.998 144.415 547 223.699 547 321.5Z" stroke="#81FFA1" stroke-width="4"/>
<path d="M547 463.915C547 561.716 424.998 641 274.5 641C124.002 641 2 561.716 2 463.915C2 366.114 124.002 286.83 274.5 286.83C424.998 286.83 547 366.114 547 463.915Z" stroke="#81FFA1" stroke-width="4"/>
</g>
</svg>
