<svg width="172" height="30" viewBox="0 0 172 30" fill="none" xmlns="http://www.w3.org/2000/svg">
<path fill-rule="evenodd" clip-rule="evenodd" d="M20 1.21872e-10C22.2091 1.21872e-10 24 1.79086 24 4V18L12 30H4C1.79086 30 0 28.2091 0 26V4C0 1.79086 1.79086 1.21872e-10 4 1.21872e-10H20ZM12 26L12 18L20 18V4L4 4V26L12 26Z" fill="white"/>
<path d="M32 17.809V0.889043H44.072V4.24904H35.84V9.12104L43.52 8.64104V12.049L35.84 12.529V17.809H32Z" fill="white"/>
<path d="M51.1992 3.98504C50.7992 4.32104 50.2393 4.48904 49.5192 4.48904C48.7992 4.48904 48.2393 4.32904 47.8392 4.00904C47.4552 3.67304 47.2633 3.19304 47.2633 2.56904C47.2633 1.96104 47.4632 1.48904 47.8633 1.15304C48.2633 0.817044 48.8153 0.649044 49.5192 0.649044C50.2393 0.649044 50.7992 0.817044 51.1992 1.15304C51.6152 1.48904 51.8232 1.96104 51.8232 2.56904C51.8232 3.17704 51.6152 3.64904 51.1992 3.98504ZM44.5513 17.809V14.449H47.9832V8.90504L45.0312 9.04904V5.68904L49.5912 5.44904C50.2632 5.41704 50.7752 5.57704 51.1273 5.92904C51.4953 6.28104 51.6793 6.79304 51.6793 7.46504V14.449H55.1113V17.809H44.5513Z" fill="white"/>
<path d="M56.3112 17.809V14.449H59.6712V3.38504L56.7913 3.52904V0.169044L61.4232 0.00104345C62.0952 -0.0149563 62.6073 0.153044 62.9593 0.505044C63.3273 0.841044 63.5112 1.34504 63.5112 2.01704V14.449H66.8712V17.809H56.3112Z" fill="white"/>
<path d="M67.5903 11.593C67.5903 9.70504 68.1743 8.20904 69.3423 7.10504C70.5263 6.00104 72.0703 5.44904 73.9743 5.44904C75.8783 5.44904 77.4223 5.98504 78.6063 7.05704C79.7903 8.11304 80.3823 9.54504 80.3823 11.353V12.553H71.1903C71.1903 13.273 71.4543 13.849 71.9823 14.281C72.5263 14.713 73.3263 14.929 74.3823 14.929C75.0703 14.929 75.6463 14.809 76.1103 14.569C76.5743 14.329 76.8623 13.985 76.9743 13.537H80.8143C80.7503 14.001 80.5743 14.489 80.2863 15.001C79.9983 15.497 79.5983 15.977 79.0863 16.441C78.5903 16.905 77.9263 17.289 77.0943 17.593C76.2783 17.897 75.3743 18.049 74.3823 18.049C72.1743 18.049 70.4863 17.433 69.3183 16.201C68.1663 14.969 67.5903 13.433 67.5903 11.593ZM71.1903 10.393H76.7823C76.7823 9.88104 76.5583 9.44904 76.1103 9.09704C75.6783 8.74504 74.9663 8.56904 73.9743 8.56904C72.9823 8.56904 72.2703 8.74504 71.8383 9.09704C71.4063 9.43304 71.1903 9.86504 71.1903 10.393Z" fill="white"/>
<path d="M82.4844 17.809V0.889043H90.0444L92.5 15H93.46L95.9484 0.889043H103.508V17.809H99.6684V4H99.4284L96.7164 17.809H89.2764L86.5644 4H86.3244V17.809H82.4844Z" fill="white"/>
<path d="M105.184 14.497C105.184 13.425 105.552 12.585 106.288 11.977C107.024 11.353 108.272 10.921 110.032 10.681L113.848 10.153C113.848 9.09704 113.04 8.56904 111.424 8.56904C110.656 8.56904 110.064 8.72104 109.648 9.02504C109.232 9.32904 109.024 9.76104 109.024 10.321H105.424C105.424 8.81704 105.984 7.63304 107.104 6.76904C108.24 5.88904 109.68 5.44904 111.424 5.44904C113.232 5.44904 114.728 5.91304 115.912 6.84104C117.096 7.76904 117.688 9.16904 117.688 11.041V14.449H119.44V17.809H116.776C116.2 17.809 115.752 17.657 115.432 17.353C115.128 17.033 114.976 16.585 114.976 16.009V15.769L115.576 14.329H114.616C114.36 15.481 113.848 16.393 113.08 17.065C112.328 17.721 111.168 18.049 109.6 18.049C108.72 18.049 107.968 17.929 107.344 17.689C106.72 17.449 106.264 17.129 105.976 16.729C105.688 16.329 105.48 15.953 105.352 15.601C105.24 15.233 105.184 14.865 105.184 14.497ZM109.024 13.777C109.024 14.385 109.464 14.689 110.344 14.689C111.416 14.689 112.264 14.481 112.888 14.065C113.528 13.633 113.848 13.049 113.848 12.313L110.752 12.745C110.112 12.841 109.664 12.961 109.408 13.105C109.152 13.233 109.024 13.457 109.024 13.777Z" fill="white"/>
<path d="M120.875 17.809V7.51304C120.875 6.85704 121.051 6.35304 121.403 6.00104C121.771 5.64904 122.283 5.48104 122.939 5.49704L130.883 5.68904V9.04904L124.715 8.90504V17.809H120.875Z" fill="white"/>
<path d="M142.098 17.809L139.074 13.129L136.41 14.377V17.809H132.57V0.169044H136.41V10.417L141.954 7.87304L141.906 5.68904H145.746V8.32904C145.746 9.44904 145.242 10.249 144.234 10.729L142.362 11.593L146.466 17.809H142.098Z" fill="white"/>
<path d="M146.715 11.593C146.715 9.70504 147.299 8.20904 148.467 7.10504C149.651 6.00104 151.195 5.44904 153.099 5.44904C155.003 5.44904 156.547 5.98504 157.731 7.05704C158.915 8.11304 159.507 9.54504 159.507 11.353V12.553H150.315C150.315 13.273 150.579 13.849 151.107 14.281C151.651 14.713 152.451 14.929 153.507 14.929C154.195 14.929 154.771 14.809 155.235 14.569C155.699 14.329 155.987 13.985 156.099 13.537H159.939C159.875 14.001 159.699 14.489 159.411 15.001C159.123 15.497 158.723 15.977 158.211 16.441C157.715 16.905 157.051 17.289 156.219 17.593C155.403 17.897 154.499 18.049 153.507 18.049C151.299 18.049 149.611 17.433 148.443 16.201C147.291 14.969 146.715 13.433 146.715 11.593ZM150.315 10.393H155.907C155.907 9.88104 155.683 9.44904 155.235 9.09704C154.803 8.74504 154.091 8.56904 153.099 8.56904C152.107 8.56904 151.395 8.74504 150.963 9.09704C150.531 9.43304 150.315 9.86504 150.315 10.393Z" fill="white"/>
<path d="M167.129 14.689L171.593 14.449V17.809L165.329 18.049C164.673 18.065 164.169 17.897 163.817 17.545C163.465 17.193 163.289 16.681 163.289 16.009V9.04904H160.409V5.68904H163.289V3.40904L167.129 2.20904V5.68904H171.113V9.04904H167.129V14.689Z" fill="white"/>
</svg>
