<svg width="92" height="18" viewBox="0 0 92 18" fill="none" xmlns="http://www.w3.org/2000/svg">
<path d="M0 17.5434V4.37383H3.0534V10.0454H2.83702C2.83702 8.6996 3.00531 7.5781 3.34191 6.68091C3.6785 5.78371 4.1834 5.11081 4.85659 4.66222C5.52978 4.1976 6.35524 3.96529 7.33297 3.96529H7.50127C8.49502 3.96529 9.32048 4.1976 9.97764 4.66222C10.6508 5.11081 11.1557 5.78371 11.4923 6.68091C11.8449 7.5781 12.0213 8.6996 12.0213 10.0454H11.0836C11.0836 8.6996 11.2519 7.5781 11.5885 6.68091C11.9411 5.78371 12.454 5.11081 13.1272 4.66222C13.8004 4.1976 14.6259 3.96529 15.6036 3.96529H15.7719C16.7656 3.96529 17.5991 4.1976 18.2723 4.66222C18.9615 5.11081 19.4825 5.78371 19.8351 6.68091C20.1877 7.5781 20.364 8.6996 20.364 10.0454V17.5434H16.5172V9.82911C16.5172 9.10814 16.3249 8.52337 15.9402 8.07477C15.5715 7.62617 15.0426 7.40187 14.3534 7.40187C13.6642 7.40187 13.1192 7.63418 12.7185 8.0988C12.3178 8.5474 12.1174 9.1482 12.1174 9.9012V17.5434H8.24658V9.82911C8.24658 9.10814 8.05424 8.52337 7.66956 8.07477C7.30091 7.62617 6.77999 7.40187 6.1068 7.40187C5.40155 7.40187 4.84857 7.63418 4.44787 8.0988C4.04716 8.5474 3.8468 9.1482 3.8468 9.9012V17.5434H0Z" fill="#13132D"/>
<path d="M31.6014 17.5434V13.6502H30.9523V9.42056C30.9523 8.74766 30.792 8.24299 30.4714 7.90654C30.1509 7.57009 29.638 7.40187 28.9327 7.40187C28.5801 7.40187 28.1153 7.40988 27.5383 7.4259C26.9612 7.44192 26.3682 7.46595 25.7591 7.498C25.15 7.53004 24.5971 7.56208 24.1002 7.59413V4.3498C24.4688 4.31776 24.9016 4.28571 25.3985 4.25367C25.8954 4.22163 26.4083 4.1976 26.9372 4.18157C27.4661 4.16555 27.963 4.15754 28.4278 4.15754C29.7742 4.15754 30.9042 4.3498 31.8178 4.73431C32.7475 5.11883 33.4527 5.70361 33.9336 6.48865C34.4144 7.25768 34.6548 8.251 34.6548 9.46862V17.5434H31.6014ZM27.394 17.8798C26.4483 17.8798 25.6149 17.7116 24.8936 17.3752C24.1883 17.0387 23.6354 16.5581 23.2346 15.9332C22.8339 15.2924 22.6336 14.5314 22.6336 13.6502C22.6336 12.6889 22.882 11.9039 23.3789 11.2951C23.8758 10.6702 24.573 10.2136 25.4706 9.92523C26.3682 9.62083 27.402 9.46862 28.5721 9.46862H31.3851V11.6075H28.548C27.8749 11.6075 27.3539 11.7757 26.9853 12.1122C26.6327 12.4326 26.4563 12.8732 26.4563 13.4339C26.4563 13.9626 26.6327 14.3952 26.9853 14.7316C27.3539 15.0521 27.8749 15.2123 28.548 15.2123C28.9808 15.2123 29.3655 15.1402 29.7021 14.996C30.0547 14.8358 30.3432 14.5714 30.5676 14.2029C30.792 13.8344 30.9202 13.3218 30.9523 12.6649L31.8659 13.6262C31.7858 14.5394 31.5614 15.3084 31.1927 15.9332C30.8401 16.5581 30.3432 17.0387 29.7021 17.3752C29.077 17.7116 28.3076 17.8798 27.394 17.8798Z" fill="#13132D"/>
<path d="M37.9186 17.5434V4.37383H40.972V10.0214H40.8999C40.8999 8.16288 41.2926 6.72897 42.078 5.71963C42.8794 4.71028 44.0334 4.20561 45.5401 4.20561H46.045V7.52203H45.0833C44.0254 7.52203 43.208 7.81041 42.6309 8.38718C42.0539 8.94793 41.7654 9.76502 41.7654 10.8385V17.5434H37.9186Z" fill="#13132D"/>
<path d="M57.3185 17.5434L53.1591 11.3912H51.3079L56.6693 4.37383H60.7085L55.6595 10.9105L55.7076 9.03605L61.6461 17.5434H57.3185ZM48.0381 17.5434V0H51.8849V17.5434H48.0381Z" fill="#13132D"/>
<path d="M69.0914 18C67.729 18 66.5429 17.7517 65.5331 17.255C64.5394 16.7423 63.778 16.0534 63.2491 15.1883C62.7202 14.3231 62.4557 13.3458 62.4557 12.2563H66.2544C66.2544 12.9933 66.5028 13.5941 66.9997 14.0587C67.4966 14.5073 68.1938 14.7316 69.0914 14.7316C69.6845 14.7316 70.1894 14.6195 70.6061 14.3952C71.0228 14.1709 71.3434 13.8665 71.5678 13.482C71.7922 13.0814 71.9044 12.6328 71.9044 12.1362C71.9044 11.3672 71.656 10.7343 71.1591 10.2377C70.6782 9.74099 69.989 9.49266 69.0914 9.49266C68.6106 9.49266 68.1858 9.56475 67.8172 9.70895C67.4645 9.85314 67.16 10.0294 66.9036 10.2377L65.1244 7.23364L70.4378 3.77303L70.2214 3.36449H63.177V0H75.0059V3.65287L68.875 7.54606L66.9516 7.01736C67.2722 6.92123 67.6088 6.84913 67.9614 6.80107C68.3301 6.73698 68.7228 6.70494 69.1395 6.70494C70.5019 6.70494 71.672 6.92924 72.6497 7.37784C73.6274 7.82644 74.3808 8.45928 74.9097 9.27637C75.4547 10.0774 75.7272 11.0147 75.7272 12.0881V12.3765C75.7272 13.4499 75.4547 14.4112 74.9097 15.2603C74.3808 16.1095 73.6194 16.7824 72.6257 17.279C71.6479 17.7597 70.4699 18 69.0914 18Z" fill="#13132D"/>
<path d="M84.0179 17.976C83.0882 17.976 82.2387 17.8077 81.4694 17.4713C80.716 17.1348 80.0589 16.6702 79.4979 16.0774C78.9369 15.4686 78.5041 14.7557 78.1996 13.9386C77.9111 13.1215 77.7668 12.2403 77.7668 11.2951V10.7423C77.7668 9.79706 77.9031 8.91589 78.1756 8.0988C78.4641 7.28171 78.8728 6.56876 79.4017 5.95995C79.9467 5.33511 80.5958 4.85447 81.3492 4.51802C82.1025 4.16555 82.944 3.98932 83.8736 3.98932C84.9315 3.98932 85.8451 4.22163 86.6145 4.68625C87.3838 5.13485 87.9849 5.80774 88.4177 6.70494C88.8504 7.58611 89.0909 8.67557 89.1389 9.9733L88.1292 9.03605V0H92V17.5434H88.9466V12.0881H89.4755C89.4275 13.3378 89.163 14.4032 88.6821 15.2844C88.2173 16.1656 87.5842 16.8385 86.7828 17.3031C85.9814 17.7517 85.0597 17.976 84.0179 17.976ZM84.9796 14.7557C85.5726 14.7557 86.1096 14.6275 86.5904 14.3712C87.0873 14.0988 87.48 13.7063 87.7685 13.1936C88.0731 12.6809 88.2253 12.0641 88.2253 11.3431V10.4539C88.2253 9.749 88.0731 9.15621 87.7685 8.67557C87.464 8.19493 87.0633 7.82644 86.5664 7.57009C86.0695 7.31375 85.5326 7.18558 84.9555 7.18558C84.3144 7.18558 83.7374 7.35381 83.2245 7.69025C82.7276 8.01068 82.3349 8.45928 82.0464 9.03605C81.7579 9.5968 81.6136 10.2537 81.6136 11.0067C81.6136 11.7757 81.7579 12.4406 82.0464 13.0013C82.3349 13.5621 82.7356 13.9947 83.2485 14.2991C83.7614 14.6035 84.3385 14.7557 84.9796 14.7557Z" fill="#13132D"/>
</svg>
