<svg width="14" height="12" viewBox="0 0 14 12" fill="none" xmlns="http://www.w3.org/2000/svg">
<path d="M11.8519 1.61991C10.9594 1.21741 10.0027 0.919911 9.00228 0.750744C8.99337 0.749034 8.98415 0.750136 8.97589 0.753899C8.96764 0.757661 8.96075 0.763898 8.9562 0.771744C8.8337 0.986994 8.6972 1.26758 8.60153 1.48924C7.5405 1.33072 6.46181 1.33072 5.40078 1.48924C5.29423 1.24358 5.17407 1.00404 5.04086 0.771744C5.03635 0.763801 5.02952 0.757423 5.02128 0.753463C5.01305 0.749502 5.00381 0.748147 4.99478 0.749578C3.99495 0.918744 3.03828 1.21624 2.1452 1.61933C2.13751 1.62255 2.131 1.62805 2.12653 1.63508C0.311197 4.30383 -0.186386 6.90666 0.0580304 9.47683C0.0587105 9.48312 0.0606644 9.48921 0.0637732 9.49473C0.0668821 9.50025 0.0710807 9.50507 0.0761137 9.50891C1.13568 10.2803 2.31748 10.868 3.57203 11.2472C3.58078 11.2499 3.59013 11.2499 3.59887 11.2472C3.60761 11.2445 3.61534 11.2392 3.62103 11.2321C3.89099 10.871 4.13022 10.488 4.3362 10.087C4.33906 10.0815 4.3407 10.0755 4.34103 10.0693C4.34135 10.0631 4.34035 10.057 4.33808 10.0512C4.33581 10.0455 4.33234 10.0403 4.32788 10.036C4.32343 10.0317 4.31811 10.0284 4.31228 10.0263C3.93545 9.88442 3.57033 9.71317 3.22028 9.51416C3.21399 9.51057 3.20869 9.50548 3.20486 9.49933C3.20102 9.49319 3.19877 9.48619 3.19831 9.47896C3.19785 9.47173 3.19918 9.4645 3.20221 9.45792C3.20523 9.45134 3.20983 9.44561 3.21561 9.44124C3.28911 9.38699 3.36261 9.33041 3.43261 9.27383C3.43891 9.26874 3.4465 9.2655 3.45454 9.26447C3.46257 9.26344 3.47073 9.26466 3.47811 9.26799C5.76886 10.297 8.24978 10.297 10.5137 9.26799C10.5211 9.26446 10.5293 9.26308 10.5375 9.26401C10.5456 9.26494 10.5534 9.26814 10.5598 9.27324C10.6298 9.33041 10.7027 9.38699 10.7768 9.44124C10.7826 9.44552 10.7873 9.45117 10.7904 9.4577C10.7935 9.46422 10.795 9.47142 10.7946 9.47864C10.7943 9.48587 10.7922 9.49289 10.7884 9.49909C10.7847 9.50529 10.7795 9.51047 10.7733 9.51416C10.4244 9.71483 10.0616 9.88458 9.6807 10.0257C9.67485 10.0279 9.66952 10.0312 9.66506 10.0356C9.66061 10.0399 9.65714 10.0452 9.65487 10.051C9.65261 10.0568 9.65161 10.063 9.65194 10.0692C9.65227 10.0754 9.65392 10.0815 9.65678 10.087C9.86678 10.4877 10.1071 10.8692 10.3714 11.2315C10.3769 11.2389 10.3845 11.2445 10.3933 11.2474C10.4021 11.2503 10.4115 11.2505 10.4204 11.2478C11.6771 10.8696 12.8608 10.2817 13.9215 9.50891C13.9267 9.50529 13.931 9.50061 13.9343 9.49518C13.9375 9.48975 13.9395 9.48369 13.9402 9.47741C14.2319 6.50591 13.4514 3.92408 11.8699 1.63624C11.8661 1.62881 11.8597 1.62301 11.8519 1.61991ZM4.67861 7.91174C3.98911 7.91174 3.42036 7.28816 3.42036 6.52341C3.42036 5.75808 3.97803 5.13508 4.67861 5.13508C5.38445 5.13508 5.94795 5.76333 5.93686 6.52341C5.93686 7.28874 5.3792 7.91174 4.67861 7.91174ZM9.3307 7.91174C8.64061 7.91174 8.07245 7.28816 8.07245 6.52341C8.07245 5.75808 8.62953 5.13508 9.3307 5.13508C10.0365 5.13508 10.6 5.76333 10.5889 6.52341C10.5889 7.28874 10.0371 7.91174 9.3307 7.91174Z" fill="white"/>
</svg>
