<svg width="15" height="12" viewBox="0 0 15 12" fill="none" xmlns="http://www.w3.org/2000/svg">
<path d="M12.1849 1.62089C11.2924 1.21839 10.3357 0.920888 9.33529 0.751721C9.32638 0.750011 9.31716 0.751113 9.3089 0.754875C9.30064 0.758638 9.29376 0.764874 9.28921 0.772721C9.16671 0.987971 9.03021 1.26855 8.93454 1.49022C7.87351 1.33169 6.79482 1.33169 5.73379 1.49022C5.62723 1.24456 5.50707 1.00502 5.37387 0.772721C5.36936 0.764778 5.36253 0.7584 5.35429 0.754439C5.34606 0.750479 5.33681 0.749123 5.32779 0.750554C4.32796 0.919721 3.37129 1.21722 2.4782 1.6203C2.47052 1.62353 2.46401 1.62902 2.45954 1.63605C0.644205 4.3048 0.146621 6.90764 0.391038 9.47781C0.391718 9.4841 0.393672 9.49019 0.396781 9.49571C0.39989 9.50122 0.404089 9.50605 0.409122 9.50989C1.46868 10.2813 2.65048 10.8689 3.90504 11.2482C3.91378 11.2509 3.92314 11.2509 3.93188 11.2482C3.94062 11.2455 3.94834 11.2402 3.95404 11.2331C4.224 10.872 4.46323 10.489 4.66921 10.088C4.67206 10.0825 4.67371 10.0765 4.67404 10.0703C4.67436 10.0641 4.67336 10.0579 4.67109 10.0522C4.66882 10.0464 4.66534 10.0412 4.66089 10.0369C4.65644 10.0326 4.65112 10.0294 4.64529 10.0273C4.26846 9.8854 3.90334 9.71415 3.55329 9.51514C3.547 9.51155 3.5417 9.50645 3.53786 9.50031C3.53403 9.49416 3.53178 9.48716 3.53132 9.47994C3.53085 9.47271 3.53219 9.46548 3.53521 9.4589C3.53823 9.45231 3.54284 9.44658 3.54862 9.44222C3.62212 9.38797 3.69562 9.33139 3.76562 9.27481C3.77192 9.26972 3.77951 9.26648 3.78755 9.26545C3.79558 9.26442 3.80374 9.26564 3.81112 9.26897C6.10187 10.298 8.58279 10.298 10.8467 9.26897C10.8541 9.26544 10.8624 9.26406 10.8705 9.26499C10.8786 9.26592 10.8864 9.26911 10.8928 9.27422C10.9628 9.33139 11.0357 9.38797 11.1098 9.44222C11.1156 9.44649 11.1203 9.45215 11.1234 9.45867C11.1265 9.4652 11.128 9.4724 11.1276 9.47962C11.1273 9.48685 11.1252 9.49387 11.1214 9.50007C11.1177 9.50627 11.1125 9.51144 11.1063 9.51514C10.7575 9.7158 10.3946 9.88556 10.0137 10.0267C10.0079 10.0288 10.0025 10.0322 9.99807 10.0365C9.99362 10.0409 9.99014 10.0461 9.98788 10.0519C9.98562 10.0577 9.98462 10.0639 9.98495 10.0702C9.98528 10.0764 9.98693 10.0824 9.98979 10.088C10.1998 10.4887 10.4401 10.8702 10.7044 11.2325C10.7099 11.2399 10.7175 11.2455 10.7263 11.2484C10.7351 11.2513 10.7445 11.2515 10.7534 11.2488C12.0101 10.8706 13.1938 10.2827 14.2545 9.50989C14.2597 9.50627 14.2641 9.50159 14.2673 9.49616C14.2705 9.49072 14.2725 9.48466 14.2732 9.47839C14.5649 6.50689 13.7844 3.92505 12.203 1.63722C12.1991 1.62979 12.1927 1.62399 12.1849 1.62089ZM5.01162 7.91272C4.32212 7.91272 3.75337 7.28914 3.75337 6.52439C3.75337 5.75905 4.31104 5.13605 5.01162 5.13605C5.71746 5.13605 6.28096 5.7643 6.26987 6.52439C6.26987 7.28972 5.71221 7.91272 5.01162 7.91272ZM9.66371 7.91272C8.97362 7.91272 8.40546 7.28914 8.40546 6.52439C8.40546 5.75905 8.96254 5.13605 9.66371 5.13605C10.3695 5.13605 10.933 5.7643 10.922 6.52439C10.922 7.28972 10.3701 7.91272 9.66371 7.91272Z" fill="#232528"/>
</svg>
