<svg width="16" height="12" viewBox="0 0 16 12" fill="none" xmlns="http://www.w3.org/2000/svg">
<path d="M0.274414 0.987305L6.4248 5.59961C7.3584 6.2998 8.6416 6.2998 9.5752 5.59961L15.7246 0.987305C15.8994 1.28418 16 1.63086 16 2V10C16 10.5732 15.7588 11.0908 15.3721 11.4551C15.0137 11.793 14.5312 12 14 12H2C0.895508 12 0 11.1045 0 10V2C0 1.63086 0.0996094 1.28418 0.274414 0.987305Z" fill="white"/>
<path d="M1.24023 0.149414C1.47461 0.0527344 1.73145 0 2 0H14C14.2686 0 14.5254 0.0537109 14.7598 0.149414L8.8252 4.59961C8.33594 4.9668 7.66406 4.9668 7.1748 4.59961L1.24023 0.149414Z" fill="white"/>
</svg>
