<svg width="48" height="40" viewBox="0 0 48 40" fill="none" xmlns="http://www.w3.org/2000/svg">
<path fill-rule="evenodd" clip-rule="evenodd" d="M47.999 6.66667C47.999 2.98477 45.135 1.61177e-06 41.602 1.45154e-06L11.5662 0L-0.000976562 12L0.0216138 20L0.0216132 33.3333C0.0216131 37.0152 2.88564 40 6.4186 40H41.602C45.135 40 47.999 37.0152 47.999 33.3333V6.66667ZM6.4186 15H14.4577V6.69629L19.2126 6.66666L41.602 6.66666V33.3333H6.4186L6.4186 15Z" fill="#0090FF"/>
<path d="M29.1293 20C29.1293 18.0363 30.6636 16.4444 32.5563 16.4444H42.4088C44.3014 16.4444 45.8357 18.0363 45.8357 20C45.8357 21.9637 44.3014 23.5556 42.4088 23.5556H32.5563C30.6636 23.5556 29.1293 21.9637 29.1293 20Z" fill="#0090FF"/>
</svg>
