<svg width="14" height="14" viewBox="0 0 14 14" fill="none" xmlns="http://www.w3.org/2000/svg">
<path fill-rule="evenodd" clip-rule="evenodd" d="M6.99967 0.583008C5.25667 0.583008 5.03851 0.590008 4.35426 0.621508C3.67176 0.653008 3.20451 0.761508 2.79617 0.919591C2.36828 1.08085 1.9807 1.33347 1.66042 1.65984C1.33383 1.98027 1.08101 2.36806 0.919591 2.79617C0.761508 3.20451 0.652424 3.67117 0.621508 4.35484C0.590591 5.03851 0.583008 5.25667 0.583008 6.99967C0.583008 8.74209 0.590008 8.96026 0.621508 9.64567C0.653008 10.3282 0.761508 10.7948 0.919591 11.2032C1.08077 11.6313 1.3334 12.0191 1.65984 12.3395C1.98057 12.6657 2.36854 12.9182 2.79676 13.0792C3.20509 13.2378 3.67176 13.3469 4.35426 13.3778C5.03851 13.4088 5.25667 13.4163 6.99967 13.4163C8.74267 13.4163 8.96084 13.4093 9.64567 13.3778C10.3282 13.3463 10.7948 13.2378 11.2032 13.0792C11.6308 12.9182 12.0187 12.6662 12.3395 12.3395C12.6658 12.0188 12.9182 11.6308 13.0792 11.2026C13.2378 10.7943 13.3469 10.3276 13.3778 9.64509C13.4088 8.96084 13.4163 8.74267 13.4163 6.99967C13.4163 5.25726 13.4093 5.03909 13.3778 4.35367C13.3463 3.67118 13.2378 3.20451 13.0792 2.79617C12.9182 2.36801 12.6662 1.98067 12.3395 1.66042C12.0187 1.33376 11.6308 1.08117 11.2032 0.919591C10.7948 0.761508 10.3282 0.652424 9.64451 0.621508C8.96084 0.590591 8.74267 0.583008 6.99967 0.583008ZM6.99967 1.73917C8.71292 1.73917 8.91593 1.74559 9.59259 1.77651C10.2185 1.80509 10.558 1.90951 10.7843 1.99759C11.063 2.10038 11.3151 2.26422 11.5223 2.47709C11.7468 2.70167 11.8851 2.91576 12.0018 3.21501C12.0898 3.44134 12.1943 3.78084 12.2228 4.40676C12.2538 5.08342 12.2602 5.28642 12.2602 6.99967C12.2602 8.71292 12.2538 8.91593 12.2228 9.59259C12.1943 10.2185 12.0898 10.558 12.0018 10.7843C11.8991 11.0626 11.7352 11.3152 11.5223 11.5223C11.2977 11.7468 11.0836 11.8851 10.7843 12.0018C10.558 12.0898 10.2185 12.1943 9.59259 12.2228C8.91593 12.2538 8.71351 12.2602 6.99967 12.2602C5.28584 12.2602 5.08342 12.2538 4.40676 12.2228C3.78084 12.1943 3.44134 12.0898 3.21501 12.0018C2.93676 11.8991 2.68417 11.7352 2.47709 11.5223C2.26417 11.3152 2.10026 11.0626 1.99759 10.7843C1.90951 10.558 1.80509 10.2185 1.77651 9.59259C1.74559 8.91593 1.73917 8.71292 1.73917 6.99967C1.73917 5.28642 1.74559 5.08342 1.77651 4.40676C1.80509 3.78084 1.90951 3.44134 1.99759 3.21501C2.10036 2.93634 2.2642 2.6842 2.47709 2.47709C2.70167 2.25251 2.91576 2.11426 3.21501 1.99759C3.44134 1.90951 3.78084 1.80509 4.40676 1.77651C5.08342 1.74559 5.28642 1.73917 6.99967 1.73917ZM7.62205 9.05051C7.14748 9.19401 6.63781 9.16829 6.18009 8.97776C5.88774 8.85653 5.6259 8.67199 5.41343 8.43743C5.20096 8.20286 5.04313 7.92411 4.95132 7.62123C4.85951 7.31835 4.836 6.99888 4.88248 6.68582C4.92895 6.37276 5.04426 6.0739 5.2201 5.81075C5.39594 5.54761 5.62794 5.32672 5.89939 5.164C6.17085 5.00128 6.475 4.90077 6.78996 4.8697C7.10493 4.83863 7.42286 4.87779 7.72087 4.98434C8.01888 5.0909 8.28956 5.2622 8.51342 5.48592C8.86459 5.83591 9.08336 6.29696 9.13237 6.79032C9.18137 7.28368 9.05757 7.77876 8.78211 8.19098C8.50665 8.60321 8.09662 8.90702 7.62205 9.05051ZM5.73751 3.95255C5.33736 4.1183 4.97377 4.36124 4.66751 4.66751C4.04898 5.28604 3.70149 6.12494 3.70149 6.99967C3.70149 7.87441 4.04898 8.71331 4.66751 9.33184C5.28604 9.95037 6.12494 10.2979 6.99967 10.2979C7.87441 10.2979 8.71331 9.95037 9.33184 9.33184C9.63811 9.02558 9.88105 8.66199 10.0468 8.26183C10.2125 7.86168 10.2979 7.4328 10.2979 6.99967C10.2979 6.56655 10.2125 6.13767 10.0468 5.73751C9.88105 5.33736 9.63811 4.97377 9.33184 4.66751C9.02558 4.36124 8.66199 4.1183 8.26183 3.95255C7.86168 3.7868 7.4328 3.70149 6.99967 3.70149C6.56655 3.70149 6.13767 3.7868 5.73751 3.95255Z" fill="white"/>
<path fill-rule="evenodd" clip-rule="evenodd" d="M9.59259 1.77651C8.91593 1.74559 8.71292 1.73917 6.99967 1.73917C5.28642 1.73917 5.08342 1.74559 4.40676 1.77651C3.78084 1.80509 3.44134 1.90951 3.21501 1.99759C2.91576 2.11426 2.70167 2.25251 2.47709 2.47709C2.2642 2.6842 2.10036 2.93634 1.99759 3.21501C1.90951 3.44134 1.80509 3.78084 1.77651 4.40676C1.74559 5.08342 1.73917 5.28642 1.73917 6.99967C1.73917 8.71292 1.74559 8.91593 1.77651 9.59259C1.80509 10.2185 1.90951 10.558 1.99759 10.7843C2.10026 11.0626 2.26417 11.3152 2.47709 11.5223C2.68417 11.7352 2.93676 11.8991 3.21501 12.0018C3.44134 12.0898 3.78084 12.1943 4.40676 12.2228C5.08342 12.2538 5.28584 12.2602 6.99967 12.2602C8.71351 12.2602 8.91593 12.2538 9.59259 12.2228C10.2185 12.1943 10.558 12.0898 10.7843 12.0018C11.0836 11.8851 11.2977 11.7468 11.5223 11.5223C11.7352 11.3152 11.8991 11.0626 12.0018 10.7843C12.0898 10.558 12.1943 10.2185 12.2228 9.59259C12.2538 8.91593 12.2602 8.71292 12.2602 6.99967C12.2602 5.28642 12.2538 5.08342 12.2228 4.40676C12.1943 3.78084 12.0898 3.44134 12.0018 3.21501C11.8851 2.91576 11.7468 2.70167 11.5223 2.47709C11.3151 2.26422 11.063 2.10038 10.7843 1.99759C10.558 1.90951 10.2185 1.80509 9.59259 1.77651ZM5.73751 3.95255C5.33736 4.1183 4.97377 4.36124 4.66751 4.66751C4.04898 5.28604 3.70149 6.12494 3.70149 6.99967C3.70149 7.87441 4.04898 8.71331 4.66751 9.33184C5.28604 9.95037 6.12494 10.2979 6.99967 10.2979C7.87441 10.2979 8.71331 9.95037 9.33184 9.33184C9.63811 9.02558 9.88105 8.66199 10.0468 8.26183C10.2125 7.86168 10.2979 7.4328 10.2979 6.99967C10.2979 6.56655 10.2125 6.13767 10.0468 5.73751C9.88105 5.33736 9.63811 4.97377 9.33184 4.66751C9.02558 4.36124 8.66199 4.1183 8.26183 3.95255C7.86168 3.7868 7.4328 3.70149 6.99967 3.70149C6.56655 3.70149 6.13767 3.7868 5.73751 3.95255ZM11.208 3.93949C11.166 4.03499 11.1052 4.12108 11.0293 4.19267C10.8817 4.33191 10.6857 4.40814 10.4828 4.40518C10.2799 4.40222 10.0862 4.32031 9.94268 4.17683C9.7992 4.03335 9.71729 3.83961 9.71433 3.63672C9.71138 3.43383 9.78761 3.23777 9.92684 3.09017C9.99844 3.01428 10.0845 2.95352 10.18 2.9115C10.2755 2.86947 10.3785 2.84704 10.4828 2.84551C10.5871 2.84399 10.6907 2.86342 10.7874 2.90264C10.8841 2.94187 10.9719 3.00009 11.0457 3.07386C11.1194 3.14764 11.1777 3.23547 11.2169 3.33215C11.2561 3.42883 11.2755 3.53239 11.274 3.63672C11.2725 3.74104 11.25 3.844 11.208 3.93949Z" fill="white"/>
</svg>
