<svg width="12" height="12" viewBox="0 0 12 12" fill="none" xmlns="http://www.w3.org/2000/svg">
<path fill-rule="evenodd" clip-rule="evenodd" d="M4.50058 4.23224H6.66708V5.31141C6.97916 4.69074 7.77949 4.13308 8.98174 4.13308C11.2865 4.13308 11.8337 5.36858 11.8337 7.63541V11.8337H9.50033V8.15166C9.50033 6.86074 9.18824 6.13274 8.39374 6.13274C7.29183 6.13274 6.83391 6.91733 6.83391 8.15108V11.8337H4.50058V4.23224ZM0.499492 11.7345H2.83283V4.13308H0.499492V11.7345ZM3.16708 1.65449C3.16716 1.85007 3.12837 2.04371 3.05297 2.22417C2.97756 2.40462 2.86704 2.56829 2.72783 2.70566C2.44573 2.98602 2.06388 3.14296 1.66616 3.14199C1.26914 3.14173 0.888174 2.98519 0.605659 2.70624C0.466949 2.56841 0.356801 2.40456 0.281526 2.22408C0.206251 2.0436 0.16733 1.85004 0.166992 1.65449C0.166992 1.25958 0.324492 0.881576 0.606242 0.602742C0.888508 0.323418 1.26963 0.166818 1.66674 0.166992C2.06458 0.166992 2.44608 0.323909 2.72783 0.602742C3.00899 0.881576 3.16708 1.25958 3.16708 1.65449Z" fill="white"/>
</svg>
