<svg width="13" height="12" viewBox="0 0 13 12" fill="none" xmlns="http://www.w3.org/2000/svg">
<path fill-rule="evenodd" clip-rule="evenodd" d="M4.83358 4.23322H7.00008V5.31239C7.31217 4.69172 8.1125 4.13405 9.31475 4.13405C11.6195 4.13405 12.1667 5.36955 12.1667 7.63639V11.8346H9.83333V8.15264C9.83333 6.86172 9.52125 6.13372 8.72675 6.13372C7.62483 6.13372 7.16692 6.9183 7.16692 8.15205V11.8346H4.83358V4.23322ZM0.8325 11.7355H3.16583V4.13405H0.8325V11.7355ZM3.50008 1.65547C3.50017 1.85105 3.46138 2.04469 3.38598 2.22514C3.31057 2.4056 3.20005 2.56927 3.06083 2.70664C2.77873 2.987 2.39689 3.14393 1.99917 3.14297C1.60214 3.1427 1.22118 2.98617 0.938667 2.70722C0.799957 2.56938 0.689808 2.40553 0.614534 2.22505C0.539259 2.04457 0.500338 1.85102 0.5 1.65547C0.5 1.26055 0.6575 0.882552 0.93925 0.603719C1.22152 0.324394 1.60264 0.167794 1.99975 0.167969C2.39758 0.167969 2.77908 0.324886 3.06083 0.603719C3.342 0.882552 3.50008 1.26055 3.50008 1.65547Z" fill="#232528"/>
</svg>
