<svg width="16" height="10" viewBox="0 0 16 10" fill="none" xmlns="http://www.w3.org/2000/svg">
<path d="M9.00131 5.00004C9.00131 7.49991 6.9863 9.52645 4.50065 9.52645C2.01501 9.52645 0 7.49991 0 5.00004C0 2.50017 2.01501 0.473633 4.50065 0.473633C6.9863 0.473633 9.00131 2.50017 9.00131 5.00004Z" fill="white"/>
<path d="M14 5.00008C14 7.35372 12.995 9.26172 11.7552 9.26172C10.5155 9.26172 9.51047 7.35372 9.51047 5.00008C9.51047 2.64644 10.5155 0.738444 11.7552 0.738444C12.995 0.738444 14 2.64644 14 5.00008Z" fill="white"/>
<path d="M16 5C16 7.09776 15.646 8.79834 15.2094 8.79834C14.7727 8.79834 14.4188 7.09776 14.4188 5C14.4188 2.90223 14.7727 1.20166 15.2094 1.20166C15.646 1.20166 16 2.90223 16 5Z" fill="white"/>
</svg>
