<svg width="16" height="10" viewBox="0 0 16 10" fill="none" xmlns="http://www.w3.org/2000/svg">
<path d="M9.00131 4.99906C9.00131 7.49893 6.9863 9.52547 4.50065 9.52547C2.01501 9.52547 0 7.49893 0 4.99906C0 2.4992 2.01501 0.472656 4.50065 0.472656C6.9863 0.472656 9.00131 2.4992 9.00131 4.99906Z" fill="#232528"/>
<path d="M14 4.9991C14 7.35274 12.995 9.26074 11.7552 9.26074C10.5155 9.26074 9.51047 7.35274 9.51047 4.9991C9.51047 2.64547 10.5155 0.737467 11.7552 0.737467C12.995 0.737467 14 2.64547 14 4.9991Z" fill="#232528"/>
<path d="M16 4.99902C16 7.09679 15.646 8.79736 15.2094 8.79736C14.7727 8.79736 14.4188 7.09679 14.4188 4.99902C14.4188 2.90126 14.7727 1.20068 15.2094 1.20068C15.646 1.20068 16 2.90126 16 4.99902Z" fill="#232528"/>
</svg>
