<svg width="78" height="40" viewBox="0 0 78 40" fill="none" xmlns="http://www.w3.org/2000/svg">
<path d="M22.7037 3.14453L4.54102 13.517V18.7032L22.7037 8.33075V3.14453Z" fill="#4E32A0"/>
<path d="M0 10.9232L4.54068 13.5163L22.7034 3.14389L18.1627 0.550781L0 10.9232Z" fill="#864AD3"/>
<path d="M4.54068 13.5169L0 10.9238V16.11L4.54068 18.7031V13.5169Z" fill="#E14BEC"/>
<path d="M22.7037 13.5176L4.54102 23.89V29.0762L22.7037 18.7038V13.5176Z" fill="#4E32A0"/>
<path d="M0 21.2963L4.54068 23.8894L22.7034 13.5169L18.1627 10.9238L0 21.2963Z" fill="#864AD3"/>
<path d="M4.54068 23.8841L0 21.291V26.4772L4.54068 29.0703V23.8841Z" fill="#E14BEC"/>
<path d="M22.7037 23.8867L4.54102 34.2591V39.4454L22.7037 29.0729V23.8867Z" fill="#4E32A0"/>
<path d="M0 31.6634L4.54068 34.2566L22.7034 23.8841L18.1627 21.291L0 31.6634Z" fill="#864AD3"/>
<path d="M4.54068 34.263L0 31.6699V36.8561L4.54068 39.4492V34.263Z" fill="#E14BEC"/>
<path d="M27.2441 36.8561L31.7848 39.4492V34.263L27.2441 31.6699V36.8561Z" fill="#2FEF92"/>
<path d="M31.7852 39.4492L36.3258 36.8561V31.6699L31.7852 34.263V39.4492Z" fill="#10379E"/>
<path d="M27.2441 31.6673L31.7848 34.2604L36.3255 31.6673L31.7848 29.0742L27.2441 31.6673Z" fill="#489AF0"/>
<path d="M45.4072 16.1133L31.7852 23.8926V29.0788L45.4072 21.2995V16.1133Z" fill="#10379E"/>
<path d="M27.2441 21.2969L31.7848 23.89L45.4069 16.1107L40.8662 13.5176L27.2441 21.2969Z" fill="#489AF0"/>
<path d="M31.7848 23.8841L27.2441 21.291V26.4772L31.7848 29.0703V23.8841Z" fill="#2FEF92"/>
<path d="M49.9479 3.14453L31.7852 13.517V18.7032L49.9479 8.33075V3.14453Z" fill="#10379E"/>
<path d="M27.2441 10.9232L31.7848 13.5163L49.9475 3.14389L45.4069 0.550781L27.2441 10.9232Z" fill="#489AF0"/>
<path d="M31.7848 13.5169L27.2441 10.9238V16.11L31.7848 18.7031V13.5169Z" fill="#2FEF92"/>
<path d="M61.623 37.407L66.1637 40.0001V19.2552L61.623 16.6621V37.407Z" fill="#00DCFF"/>
<path d="M66.1631 40.0001L70.7038 37.407V16.6621L66.1631 19.2552V40.0001Z" fill="#4160ED"/>
<path d="M61.623 16.6615L66.1637 19.2546L70.7044 16.6615L66.1637 14.0684L61.623 16.6615Z" fill="#66A0DB"/>
<path d="M77.193 2.59375L59.0303 12.9662V18.1524L77.193 7.77996V2.59375Z" fill="#4160ED"/>
<path d="M54.4873 10.3724L59.028 12.9655L77.1907 2.59311L72.65 0L54.4873 10.3724Z" fill="#66A0DB"/>
<path d="M59.028 12.9681L54.4873 10.375V15.5612L59.028 18.1543V12.9681Z" fill="#00DCFF"/>
</svg>
