<svg width="21" height="20" viewBox="0 0 21 20" fill="none" xmlns="http://www.w3.org/2000/svg">
<path d="M10.1924 5C9.32327 5.0011 8.49005 5.34685 7.87548 5.96142C7.26091 6.57599 6.91517 7.4092 6.91406 8.27833H8.58073C8.58073 7.38917 9.30406 6.66667 10.1924 6.66667C11.0807 6.66667 11.8041 7.38917 11.8041 8.27833C11.8041 8.77667 11.4032 9.13833 10.7907 9.63333C10.5906 9.79008 10.3985 9.95668 10.2149 10.1325C9.38323 10.9633 9.35906 11.8458 9.35906 11.9442V12.5H11.0257L11.0249 11.9725C11.0257 11.9592 11.0524 11.6508 11.3924 11.3117C11.5174 11.1867 11.6749 11.0617 11.8382 10.93C12.4874 10.4042 13.4699 9.61 13.4699 8.27833C13.4692 7.40921 13.1237 6.57587 12.5093 5.96123C11.8948 5.34659 11.0615 5.00088 10.1924 5ZM9.35906 13.3333H11.0257V15H9.35906V13.3333Z" fill="#405FEB"/>
<path d="M10.1927 1.66602C5.59771 1.66602 1.85938 5.40435 1.85938 9.99935C1.85938 14.5943 5.59771 18.3327 10.1927 18.3327C14.7877 18.3327 18.526 14.5943 18.526 9.99935C18.526 5.40435 14.7877 1.66602 10.1927 1.66602ZM10.1927 16.666C6.51688 16.666 3.52604 13.6752 3.52604 9.99935C3.52604 6.32352 6.51688 3.33268 10.1927 3.33268C13.8685 3.33268 16.8594 6.32352 16.8594 9.99935C16.8594 13.6752 13.8685 16.666 10.1927 16.666Z" fill="#405FEB"/>
</svg>
