<svg width="128" height="84" viewBox="0 0 128 84" fill="none" xmlns="http://www.w3.org/2000/svg">
<path fill-rule="evenodd" clip-rule="evenodd" d="M2.7094 37.6251L46.8241 82L109.252 19.2043L92.1483 2L54.9483 39.4194L48.2425 46.1647C47.4605 46.9513 46.1878 46.9513 45.4058 46.1647L18.6034 19.2043L2.7094 35.1921C2.04147 35.8639 2.04147 36.9533 2.7094 37.6251Z" fill="#028FFF" fill-opacity="0.25"/>
<path d="M109.252 19.2043L46.8241 82H62.364C62.8176 82 63.2526 81.8187 63.5734 81.4961L125.5 19.2043H109.252Z" fill="#028FFF" fill-opacity="0.5"/>
<path d="M92.1483 2L109.252 19.2043H125.5L108.897 2.5039C108.577 2.18126 108.142 2 107.688 2H92.1483Z" fill="#028FFF" fill-opacity="0.5"/>
<path d="M18.6034 19.2043L45.4058 46.1647C46.1878 46.9513 47.4605 46.9513 48.2425 46.1647L54.9483 39.4194L35.3527 19.7082C35.0319 19.3856 34.5969 19.2043 34.1433 19.2043H18.6034Z" fill="#028FFF" fill-opacity="0.5"/>
<path d="M46.8241 82L109.252 19.2043M46.8241 82L2.7094 37.6251M46.8241 82H62.364M18.6034 19.2043L45.4058 46.1647C46.1878 46.9513 47.4605 46.9513 48.2425 46.1647L54.9483 39.4194M18.6034 19.2043L2.7094 35.1921M18.6034 19.2043H34.1433M92.1483 2L109.252 19.2043M92.1483 2L54.9483 39.4194M92.1483 2H107.688M109.252 19.2043H125.5M54.9483 39.4194L35.3527 19.7082M125.5 19.2043L108.897 2.5039M125.5 19.2043L63.5734 81.4961M2.7094 37.6251C2.04147 36.9533 2.04147 35.8639 2.7094 35.1921M2.7094 37.6251V37.6251C2.04032 36.9521 2.04032 35.8651 2.7094 35.1921V35.1921M34.1433 19.2043C34.5969 19.2043 35.0319 19.3856 35.3527 19.7082M34.1433 19.2043V19.2043C34.5967 19.2043 35.033 19.3866 35.3527 19.7082V19.7082M107.688 2C108.142 2 108.577 2.18126 108.897 2.5039M107.688 2V2C108.142 2 108.578 2.18231 108.897 2.5039V2.5039M63.5734 81.4961C63.2526 81.8187 62.8176 82 62.364 82M63.5734 81.4961V81.4961C63.2537 81.8177 62.8174 82 62.364 82V82" stroke="#028FFF" stroke-width="4" stroke-linejoin="round"/>
</svg>
