<svg width="13" height="11" viewBox="0 0 13 11" fill="none" xmlns="http://www.w3.org/2000/svg">
<path fill-rule="evenodd" clip-rule="evenodd" d="M11.2032 0.584146C11.3474 0.523474 11.5051 0.502549 11.6601 0.523548C11.8151 0.544547 11.9616 0.606703 12.0844 0.703546C12.2073 0.800389 12.3019 0.928379 12.3584 1.07419C12.415 1.22001 12.4314 1.37832 12.406 1.53265L11.083 9.55756C10.9547 10.3316 10.1054 10.7756 9.39546 10.39C8.80163 10.0674 7.91963 9.5704 7.12629 9.05181C6.72963 8.79223 5.51454 7.96098 5.66388 7.36948C5.79221 6.86373 7.83388 4.96323 9.00054 3.83331C9.45846 3.3894 9.24963 3.13331 8.70888 3.54165C7.36546 4.55548 5.21004 6.09723 4.49721 6.53123C3.86838 6.9139 3.54054 6.97923 3.14854 6.9139C2.43338 6.7949 1.77013 6.61056 1.22879 6.38598C0.497294 6.08265 0.532877 5.07698 1.22821 4.78415L11.2032 0.584146Z" fill="#232528"/>
</svg>
