<svg width="12" height="11" viewBox="0 0 12 11" fill="none" xmlns="http://www.w3.org/2000/svg">
<path fill-rule="evenodd" clip-rule="evenodd" d="M10.5362 0.584146C10.6804 0.523474 10.8382 0.502549 10.9931 0.523548C11.1481 0.544547 11.2946 0.606703 11.4175 0.703546C11.5403 0.800389 11.6349 0.928379 11.6914 1.07419C11.748 1.22001 11.7644 1.37832 11.7391 1.53265L10.4161 9.55756C10.2877 10.3316 9.43839 10.7756 8.72847 10.39C8.13463 10.0674 7.25264 9.5704 6.4593 9.05181C6.06263 8.79223 4.84755 7.96098 4.99689 7.36948C5.12522 6.86373 7.16688 4.96323 8.33355 3.83331C8.79147 3.3894 8.58263 3.13331 8.04189 3.54165C6.69847 4.55548 4.54305 6.09723 3.83022 6.53123C3.20139 6.9139 2.87355 6.97923 2.48155 6.9139C1.76638 6.7949 1.10314 6.61056 0.561802 6.38598C-0.169698 6.08265 -0.134115 5.07698 0.561218 4.78415L10.5362 0.584146Z" fill="white"/>
</svg>
