<svg width="14" height="12" viewBox="0 0 14 12" fill="none" xmlns="http://www.w3.org/2000/svg">
<path d="M13.6663 1.92967C13.1757 2.14301 12.649 2.28967 12.0957 2.35367C12.661 2.02034 13.093 1.49234 13.2983 0.864339C12.7596 1.17829 12.1718 1.39917 11.5597 1.51767C11.3022 1.24777 10.9924 1.03315 10.6492 0.886896C10.3061 0.740644 9.9367 0.665826 9.56367 0.667006C8.05301 0.667006 6.82901 1.87367 6.82901 3.36034C6.82901 3.57101 6.85301 3.77634 6.89968 3.97367C5.81611 3.92222 4.75517 3.64546 3.78454 3.16107C2.81391 2.67667 1.95491 1.99527 1.26234 1.16034C1.01909 1.56981 0.891021 2.0374 0.891675 2.51367C0.891675 3.44701 1.37567 4.27367 2.10901 4.75501C1.67493 4.74139 1.25015 4.62583 0.869008 4.41767V4.45101C0.873127 5.07695 1.09407 5.68212 1.49423 6.16348C1.89439 6.64483 2.44901 6.97261 3.06367 7.09101C2.66015 7.1977 2.23793 7.21319 1.82767 7.13634C2.00651 7.67483 2.34857 8.14428 2.80637 8.4795C3.26417 8.81473 3.81499 8.99909 4.38234 9.00701C3.40896 9.75708 2.21386 10.1623 0.985008 10.159C0.765008 10.159 0.547674 10.1457 0.333008 10.1217C1.58697 10.9154 3.04096 11.3358 4.52501 11.3337C9.55701 11.3337 12.3077 7.22967 12.3077 3.66967L12.2983 3.32034C12.8347 2.94338 13.2982 2.47219 13.6663 1.92967Z" fill="#232528"/>
<path d="M13.6663 1.92967C13.1757 2.14301 12.649 2.28967 12.0957 2.35367C12.661 2.02034 13.093 1.49234 13.2983 0.864339C12.7596 1.17829 12.1718 1.39917 11.5597 1.51767C11.3022 1.24777 10.9924 1.03315 10.6492 0.886896C10.3061 0.740644 9.9367 0.665826 9.56367 0.667006C8.05301 0.667006 6.82901 1.87367 6.82901 3.36034C6.82901 3.57101 6.85301 3.77634 6.89968 3.97367C5.81611 3.92222 4.75517 3.64546 3.78454 3.16107C2.81391 2.67667 1.95491 1.99527 1.26234 1.16034C1.01909 1.56981 0.891021 2.0374 0.891675 2.51367C0.891675 3.44701 1.37567 4.27367 2.10901 4.75501C1.67493 4.74139 1.25015 4.62583 0.869008 4.41767V4.45101C0.873127 5.07695 1.09407 5.68212 1.49423 6.16348C1.89439 6.64483 2.44901 6.97261 3.06367 7.09101C2.66015 7.1977 2.23793 7.21319 1.82767 7.13634C2.00651 7.67483 2.34857 8.14428 2.80637 8.4795C3.26417 8.81473 3.81499 8.99909 4.38234 9.00701C3.40896 9.75708 2.21386 10.1623 0.985008 10.159C0.765008 10.159 0.547674 10.1457 0.333008 10.1217C1.58697 10.9154 3.04096 11.3358 4.52501 11.3337C9.55701 11.3337 12.3077 7.22967 12.3077 3.66967L12.2983 3.32034C12.8347 2.94338 13.2982 2.47219 13.6663 1.92967Z" fill="white" fill-opacity="0.9"/>
</svg>
