<svg width="14" height="12" viewBox="0 0 14 12" fill="none" xmlns="http://www.w3.org/2000/svg">
<path d="M13.6663 1.93065C13.1757 2.14398 12.649 2.29065 12.0957 2.35465C12.661 2.02132 13.093 1.49332 13.2983 0.865315C12.7596 1.17927 12.1718 1.40014 11.5597 1.51865C11.3022 1.24875 10.9924 1.03413 10.6492 0.887873C10.3061 0.741621 9.9367 0.666803 9.56367 0.667982C8.05301 0.667982 6.82901 1.87465 6.82901 3.36132C6.82901 3.57198 6.85301 3.77731 6.89968 3.97465C5.81611 3.92319 4.75517 3.64644 3.78454 3.16204C2.81391 2.67765 1.95491 1.99625 1.26234 1.16132C1.01909 1.57078 0.891021 2.03838 0.891675 2.51465C0.891675 3.44798 1.37567 4.27465 2.10901 4.75598C1.67493 4.74237 1.25015 4.62681 0.869008 4.41865V4.45198C0.873127 5.07793 1.09407 5.6831 1.49423 6.16445C1.89439 6.64581 2.44901 6.97359 3.06367 7.09198C2.66015 7.19868 2.23793 7.21417 1.82767 7.13732C2.00651 7.67581 2.34857 8.14526 2.80637 8.48048C3.26417 8.8157 3.81499 9.00007 4.38234 9.00798C3.40896 9.75806 2.21386 10.1633 0.985008 10.16C0.765008 10.16 0.547674 10.1466 0.333008 10.1226C1.58697 10.9164 3.04096 11.3367 4.52501 11.3346C9.55701 11.3346 12.3077 7.23065 12.3077 3.67065L12.2983 3.32132C12.8347 2.94436 13.2982 2.47316 13.6663 1.93065Z" fill="#232528"/>
</svg>
