<svg width="14" height="10" viewBox="0 0 14 10" fill="none" xmlns="http://www.w3.org/2000/svg">
<path d="M10.564 0.335938H2.76933C1.24 0.335938 0 1.5626 0 3.0746V6.92794C0 8.44127 1.24 9.6666 2.76933 9.6666H10.564C12.0933 9.6666 13.3333 8.43994 13.3333 6.92794V3.0746C13.3333 1.56127 12.0933 0.335938 10.564 0.335938ZM8.692 5.18927L5.04533 6.90927C5.02303 6.91981 4.99842 6.92456 4.97379 6.92306C4.94916 6.92157 4.92531 6.91389 4.90444 6.90073C4.88356 6.88757 4.86635 6.86935 4.85439 6.84777C4.84243 6.82619 4.8361 6.80194 4.836 6.77727V3.2306C4.83622 3.20561 4.84283 3.18109 4.85519 3.15937C4.86755 3.13765 4.88525 3.11945 4.90663 3.10649C4.928 3.09353 4.95233 3.08625 4.9773 3.08534C5.00228 3.08443 5.02707 3.08991 5.04933 3.10127L8.69467 4.92794C8.71864 4.94046 8.73868 4.95937 8.75257 4.98258C8.76646 5.00578 8.77367 5.03238 8.77339 5.05942C8.77312 5.08647 8.76537 5.11291 8.75101 5.13582C8.73664 5.15874 8.71622 5.17724 8.692 5.18927Z" fill="#232528"/>
</svg>
