<svg width="14" height="10" viewBox="0 0 14 10" fill="none" xmlns="http://www.w3.org/2000/svg">
<path d="M10.897 0.334961H3.10234C1.57301 0.334961 0.333008 1.56163 0.333008 3.07363V6.92696C0.333008 8.44029 1.57301 9.66563 3.10234 9.66563H10.897C12.4263 9.66563 13.6663 8.43896 13.6663 6.92696V3.07363C13.6663 1.56029 12.4263 0.334961 10.897 0.334961ZM9.02501 5.18829L5.37834 6.90829C5.35603 6.91884 5.33143 6.92358 5.3068 6.92209C5.28217 6.92059 5.25831 6.91291 5.23744 6.89975C5.21657 6.88659 5.19936 6.86838 5.1874 6.8468C5.17543 6.82522 5.16911 6.80097 5.16901 6.77629V3.22963C5.16923 3.20464 5.17583 3.18012 5.1882 3.15839C5.20056 3.13667 5.21826 3.11847 5.23963 3.10551C5.26101 3.09256 5.28533 3.08528 5.31031 3.08436C5.33528 3.08345 5.36008 3.08893 5.38234 3.10029L9.02767 4.92696C9.05164 4.93949 9.07168 4.9584 9.08558 4.9816C9.09947 5.00481 9.10668 5.0314 9.1064 5.05844C9.10613 5.08549 9.09838 5.11193 9.08401 5.13485C9.06965 5.15776 9.04923 5.17626 9.02501 5.18829Z" fill="white"/>
</svg>
