<svg width="100" height="96" viewBox="0 0 100 96" fill="none" xmlns="http://www.w3.org/2000/svg">
<path d="M58.6927 69.5284L41.8464 76.8734V76.1322C38.6119 76.9408 34.973 77.4125 31.6038 77.6147C15.7008 77.4799 3.16712 69.1241 2.96496 59.2858V55.647C8.15364 63.1942 18.8005 68.3155 31.6038 68.1133C35.9164 68.3155 40.3639 67.6416 44.0701 66.6309L45.5526 62.992C41.1725 64.3397 36.3208 65.2158 31.6038 65.2158C15.7008 65.2158 3.16712 56.9273 2.96496 46.8869V43.922C8.15364 50.93 18.8005 55.984 31.6038 55.647C37.3989 55.984 42.9919 54.771 47.7763 52.6821L48.5175 49.0433C43.8679 51.4691 37.8706 52.8842 31.6712 52.6821C15.7682 52.8842 3.2345 44.5958 3.03235 34.3532V31.3883C8.22102 38.5311 18.8679 43.6524 31.6712 43.8546C38.9488 43.6524 45.8221 41.6982 51.4825 38.7333L52.2237 34.3532C47.1024 38.1268 39.6226 40.6201 31.6712 40.957C15.7682 40.6201 3.2345 32.2643 3.03235 21.8869C3.16712 11.9813 15.7682 3.69285 31.6712 3.55808C41.1051 3.69285 49.9326 6.99475 55.1213 12.3856L55.6604 13.2616H59.3666L58.8275 12.3856C53.6388 5.31011 43.1941 0.660508 31.6712 0.660508C14.0162 0.593122 0 10.2292 0 21.8195V22.5608V59.9597C0.606469 71.2804 14.2857 80.5123 31.5364 80.5123C42.9245 80.5796 53.2345 76.0648 58.6927 69.5284Z" fill="#2F3134"/>
<path d="M51.8192 95.3382L57.7491 70.136L40.7006 77.5484L51.0779 33.8827H31.1318L36.3205 12.3867H99.9998L94.8111 33.8827H74.0564L69.6089 45.7425L92.5874 36.1064L51.8192 95.3382ZM62.1965 65.0147L59.2316 79.8395L83.6925 42.8449L63.679 51.7398L72.5739 30.9851H92.5874L96.2936 15.4191H38.4769L34.7707 30.9851H54.7841L45.148 72.4271L62.1965 65.0147Z" fill="#2F3134"/>
</svg>
