<svg width="68" height="100" viewBox="0 0 68 100" fill="none" xmlns="http://www.w3.org/2000/svg">
<path d="M66.3667 75.5605L43.2337 62.2618L65.9832 49.1776C66.235 49.0537 66.4435 48.8566 66.5812 48.6121C66.7181 48.3687 66.7835 48.0915 66.7697 47.8126V33.3309C66.764 33.0551 66.6903 32.785 66.5552 32.5444C66.4167 32.3062 66.2198 32.1072 65.9832 31.966L59.6004 28.326L65.9637 24.6601L66.3147 24.4131C66.5904 24.106 66.7432 23.7079 66.7437 23.2951V8.78095C66.7404 8.5059 66.6671 8.23623 66.5306 7.9974C66.3941 7.75857 66.199 7.55847 65.9637 7.41598L53.3605 0.188135C53.1237 0.0645422 52.8606 0 52.5935 0C52.3264 0 52.0633 0.0645422 51.8265 0.188135L1.62159 29.0345C1.38691 29.1707 1.19313 29.3674 1.06049 29.6041C0.927853 29.8408 0.861237 30.1087 0.867605 30.38V44.9072C0.8664 45.1819 0.940592 45.4517 1.0821 45.6872C1.21873 45.9212 1.41352 46.116 1.64759 46.2526L8.00445 49.9186L1.62159 53.669C1.38661 53.8022 1.19313 53.998 1.0626 54.2345C0.929945 54.4704 0.862632 54.7374 0.867605 55.008V69.5416C0.86905 69.8136 0.94185 70.0804 1.07873 70.3153C1.2156 70.5503 1.41176 70.7452 1.64759 70.8806L52.2295 99.8375C52.4321 99.9373 52.6537 99.9927 52.8795 100H53.1265C53.3534 99.9801 53.5742 99.9161 53.7765 99.8115L66.3537 92.5837C66.5925 92.451 66.7903 92.2554 66.9257 92.0182C67.0623 91.7833 67.1341 91.5164 67.1337 91.2447V76.711C67.1114 76.4791 67.0334 76.2561 66.9062 76.061C66.7802 75.8613 66.6087 75.6942 66.4057 75.5735L66.3667 75.5605ZM62.3823 76.7955L52.9055 82.2684L30.6045 69.5091L40.0293 64.0363L62.3823 76.7955ZM4.20853 57.8094L13.3668 63.0093V73.955L4.20853 68.6447V57.8094ZM16.5583 49.1321V38.2058L28.3425 31.42L34.8424 27.6695L40.8743 24.1921L41.3357 23.9451L53.3735 16.9643L63.2858 11.2444L63.5783 11.0559V22.0017L16.5583 49.1321ZM52.6715 3.07407L62.1418 8.56646L15.1413 35.5799L5.6645 30.1005L52.6715 3.07407ZM3.96804 33.0319L13.5033 38.5048V49.4506L3.96804 43.9777V33.0319ZM11.1569 51.667L14.2833 53.448C14.4419 53.5259 14.6141 53.5722 14.7903 53.5845H15.0373C15.2631 53.5772 15.4847 53.5218 15.6873 53.422L56.4349 30.0745L62.0638 33.2789L14.9528 60.2598L5.47601 54.8455L11.1569 51.667ZM16.5713 75.7815V63.1068L63.7278 36.0414V46.9871L26.8866 67.9817C26.6501 68.113 26.4561 68.3092 26.3276 68.5472C26.1918 68.7818 26.1243 69.0497 26.1326 69.3207C26.1307 69.5958 26.2001 69.8668 26.3341 70.1071C26.4631 70.3476 26.6538 70.5495 26.8866 70.6921L26.958 70.7376L51.5015 84.6473V95.5931L16.5713 75.7815ZM64.0918 90.5557L54.602 96.0286V85.1088L64.0918 79.6099V90.5557Z" fill="#2F3134"/>
</svg>
