<svg width="100" height="100" viewBox="0 0 100 100" fill="none" xmlns="http://www.w3.org/2000/svg">
<path fill-rule="evenodd" clip-rule="evenodd" d="M97.105 4.00035C97.3079 3.15658 96.6565 2.50239 95.8117 2.70627C88.7741 4.40444 72.623 9.13401 56.7247 19.6476C61.092 22.7651 65.4013 26.3296 69.4638 30.4C73.5262 34.4705 77.0838 38.7883 80.1952 43.1642C90.6898 27.2347 95.4102 11.0518 97.105 4.00035ZM95.1884 0.113528C97.9644 -0.556443 100.362 1.84072 99.6927 4.62486C97.9022 12.074 92.8206 29.4658 81.3137 46.2757C81.0655 46.6383 80.655 46.8549 80.2162 46.8549C79.7775 46.855 79.3669 46.6383 79.1187 46.2758C75.8294 41.471 72.0097 36.7225 67.5817 32.2858C63.1536 27.8491 58.4145 24.0219 53.6191 20.7261C53.2573 20.4774 53.0411 20.066 53.0411 19.6264C53.0411 19.1868 53.2574 18.7754 53.6193 18.5268C70.3963 6.99902 87.7539 1.90746 95.1884 0.113528Z" fill="#2F3134"/>
<path fill-rule="evenodd" clip-rule="evenodd" d="M19.5897 53.1433C20.0285 53.1432 20.4391 53.3599 20.6872 53.7224C23.9765 58.5272 27.7962 63.2757 32.2243 67.7124C36.6524 72.1493 41.3915 75.9782 46.1882 79.2718C46.5502 79.5204 46.7666 79.9318 46.7667 80.3716C46.7667 80.8113 46.5504 81.2228 46.1885 81.4715C29.4079 93.001 12.0503 98.0926 4.61756 99.8865C1.84019 100.557 -0.555695 98.1562 0.11328 95.3734C1.9037 87.9261 6.98529 70.5343 18.4922 53.7225C18.7404 53.36 19.151 53.1433 19.5897 53.1433ZM19.6108 56.8341C9.11612 72.7653 4.39579 88.9481 2.70094 95.9979C2.49778 96.843 3.15082 97.4973 3.99424 97.2938C11.0301 95.5956 27.181 90.8661 43.0824 80.3511C38.7136 77.2343 34.4044 73.6684 30.3422 69.5982C26.2797 65.5278 22.7222 61.21 19.6108 56.8341Z" fill="#2F3134"/>
<path fill-rule="evenodd" clip-rule="evenodd" d="M80.4103 53.1433C79.9715 53.1432 79.5609 53.3599 79.3128 53.7224C76.0235 58.5272 72.2038 63.2757 67.7757 67.7124C63.3476 72.1493 58.6085 75.9782 53.8118 79.2718C53.4498 79.5204 53.2334 79.9318 53.2333 80.3716C53.2333 80.8113 53.4496 81.2228 53.8115 81.4715C70.5921 93.001 87.9497 98.0926 95.3824 99.8865C98.1598 100.557 100.556 98.1562 99.8867 95.3734C98.0963 87.9261 93.0147 70.5343 81.5078 53.7225C81.2596 53.36 80.849 53.1433 80.4103 53.1433ZM80.3892 56.8341C90.8839 72.7653 95.6042 88.9481 97.2991 95.9979C97.5022 96.843 96.8492 97.4973 96.0058 97.2938C88.9699 95.5956 72.819 90.8661 56.9176 80.3511C61.2864 77.2343 65.5956 73.6684 69.6578 69.5982C73.7203 65.5278 77.2778 61.21 80.3892 56.8341Z" fill="#2F3134"/>
<path fill-rule="evenodd" clip-rule="evenodd" d="M3.9943 2.70627C3.14952 2.50239 2.49814 3.15657 2.70098 4.00035C4.39579 11.05 9.11766 27.2341 19.6105 43.1652C22.7211 38.7879 26.2801 34.4702 30.3422 30.4C34.4047 26.3296 38.714 22.765 43.0826 19.6475C27.1811 9.13382 11.0298 4.40263 3.9943 2.70627ZM4.61731 0.113461C1.84139 -0.556285 -0.555955 1.84082 0.11332 4.62486C1.90375 12.0722 6.98712 29.4657 18.4922 46.2774C18.7404 46.6401 19.1511 46.8568 19.59 46.8567C20.0289 46.8567 20.4395 46.6398 20.6876 46.2771C23.9748 41.4711 27.7961 36.7227 32.2243 32.2858C36.6523 27.8491 41.3915 24.0219 46.1885 20.7262C46.5504 20.4776 46.7667 20.0661 46.7667 19.6265C46.7667 19.1868 46.5504 18.7753 46.1884 18.5267C29.4082 6.99921 12.0506 1.90575 4.61731 0.113461Z" fill="#2F3134"/>
<path fill-rule="evenodd" clip-rule="evenodd" d="M49.1511 23.0035C49.6047 22.6918 50.203 22.6919 50.6565 23.0036C55.5691 26.3799 60.4377 30.3099 64.9956 34.8767C69.5534 39.4435 73.4758 44.3217 76.8455 49.2439C77.1566 49.6984 77.1566 50.2978 76.8456 50.7523C73.4758 55.6764 69.5535 60.5547 64.9956 65.1215C60.4379 69.6882 55.5692 73.6201 50.6562 76.9949C50.2028 77.3063 49.6049 77.3064 49.1514 76.995C44.2365 73.6201 39.3678 69.6882 34.8101 65.1215C30.2522 60.5547 26.3299 55.6765 22.9602 50.7543C22.6492 50.2999 22.649 49.7007 22.9599 49.2462C26.3281 44.3217 30.2524 39.4434 34.8101 34.8767C39.368 30.3099 44.2366 26.3798 49.1511 23.0035ZM49.9036 25.7248C45.3641 28.9009 40.8884 32.558 36.6922 36.7625C32.4958 40.9672 28.8443 45.4516 25.676 49.9997C28.846 54.5467 32.4959 59.0312 36.6922 63.2357C40.8886 67.4404 45.3643 71.0991 49.9036 74.2737C54.4414 71.0991 58.9171 67.4404 63.1135 63.2357C67.3098 59.0312 70.9597 54.5468 74.1295 49.9984C70.9596 45.4514 67.3097 40.967 63.1135 36.7625C58.9173 32.5581 54.4417 28.901 49.9036 25.7248Z" fill="#2F3134"/>
<path fill-rule="evenodd" clip-rule="evenodd" d="M89.181 7.13835C91.2756 6.63284 93.096 8.45683 92.5914 10.5556C91.4677 15.2252 88.284 26.1243 81.0699 36.6651C80.8217 37.0277 80.4111 37.2444 79.9722 37.2444C79.5334 37.2444 79.1228 37.0276 78.8747 36.6649C76.8419 33.6941 74.4824 30.7614 71.7485 28.0222C69.0147 25.283 66.0878 22.9188 63.1227 20.8821C62.7608 20.6334 62.5444 20.222 62.5444 19.7823V19.7805C62.5444 19.3408 62.7608 18.9293 63.1227 18.6807C73.6445 11.4525 84.5219 8.2626 89.181 7.13835ZM89.9284 9.7273C89.909 9.72182 89.8696 9.71532 89.8042 9.7311C85.5418 10.7596 75.8643 13.5896 66.227 19.815C68.7639 21.6671 71.2632 23.7643 73.6306 26.1364C75.9977 28.5081 78.0905 31.0119 79.9388 33.5534C86.1512 23.8994 88.9755 14.2039 90.0038 9.93104C90.0195 9.86553 90.013 9.82609 90.0076 9.80658C90.0015 9.78482 89.9911 9.76845 89.9788 9.75612C89.9665 9.74379 89.9502 9.73342 89.9284 9.7273Z" fill="#2F3134"/>
<path fill-rule="evenodd" clip-rule="evenodd" d="M10.81 7.47169C8.71538 6.96618 6.89499 8.79017 7.39957 10.8889C8.52331 15.5585 11.7069 26.4576 18.9211 36.9984C19.1693 37.361 19.5799 37.5777 20.0188 37.5777C20.4576 37.5777 20.8682 37.3609 21.1163 36.9983C23.1491 34.0274 25.5086 31.0947 28.2424 28.3555C30.9763 25.6163 33.9032 23.2522 36.8683 21.2154C37.2302 20.9668 37.4466 20.5553 37.4466 20.1156V20.1138C37.4466 19.6741 37.2302 19.2627 36.8683 19.014C26.3465 11.7858 15.4691 8.59594 10.81 7.47169ZM10.0625 10.0606C10.082 10.0552 10.1214 10.0487 10.1868 10.0644C14.4492 11.093 24.1266 13.9229 33.764 20.1483C31.2271 22.0004 28.7278 24.0977 26.3604 26.4697C23.9933 28.8415 21.9005 31.3452 20.0522 33.8868C13.8398 24.2327 11.0155 14.5372 9.98722 10.2644C9.97147 10.1989 9.97796 10.1594 9.98343 10.1399C9.98953 10.1182 9.99989 10.1018 10.0122 10.0895C10.0245 10.0771 10.0408 10.0668 10.0625 10.0606Z" fill="#2F3134"/>
<path fill-rule="evenodd" clip-rule="evenodd" d="M20.0781 62.6672C20.5169 62.6672 20.9275 62.884 21.1757 63.2466C23.2084 66.2175 25.568 69.1502 28.3018 71.8894C31.0356 74.6286 33.9625 76.9927 36.9276 79.0295C37.2895 79.2781 37.5059 79.6896 37.5059 80.1293V80.1311C37.5059 80.5708 37.2896 80.9822 36.9276 81.2309C26.4058 88.4591 15.5284 91.649 10.8694 92.7732C8.77469 93.2788 6.95431 91.4548 7.4589 89.356C8.58264 84.6864 11.7663 73.7873 18.9805 63.2465C19.2286 62.8839 19.6393 62.6672 20.0781 62.6672ZM10.0465 89.9808C10.0308 90.0462 10.0373 90.0855 10.0428 90.105C10.0489 90.1267 10.0592 90.1431 10.0715 90.1554C10.0838 90.1678 10.1002 90.1781 10.1219 90.1843C10.1414 90.1898 10.1807 90.1963 10.2461 90.1805C14.5086 89.1519 24.186 86.322 33.8234 80.0966C31.2864 78.2445 28.7871 76.1473 26.4197 73.7752C24.0526 71.4035 21.9598 68.8997 20.1115 66.3581C13.8992 76.0122 11.0748 85.708 10.0465 89.9808Z" fill="#2F3134"/>
<path fill-rule="evenodd" clip-rule="evenodd" d="M80.364 63.0005C79.9252 63.0006 79.5146 63.2173 79.2664 63.58C77.2336 66.5509 74.8741 69.4836 72.1403 72.2227C69.4065 74.9619 66.4796 77.3261 63.5145 79.3628C63.1525 79.6115 62.9362 80.0229 62.9362 80.4626V80.4644C62.9362 80.9041 63.1525 81.3156 63.5145 81.5642C74.0363 88.7925 84.9137 91.9823 89.5727 93.1066C91.6674 93.6121 93.4878 91.7881 92.9832 89.6893C91.8594 85.0197 88.6758 74.1207 81.4616 63.5798C81.2134 63.2172 80.8028 63.0005 80.364 63.0005ZM90.3956 90.3142C90.4113 90.3795 90.4048 90.4188 90.3993 90.4383C90.3932 90.4601 90.3829 90.4765 90.3706 90.4888C90.3582 90.5011 90.3419 90.5115 90.3202 90.5176C90.3007 90.5231 90.2614 90.5296 90.196 90.5138C85.9335 89.4853 76.2561 86.6553 66.6187 80.43C69.1557 78.5778 71.655 76.4806 74.0224 74.1085C76.3895 71.7368 78.4823 69.233 80.3306 66.6915C86.5429 76.3455 89.3673 86.0413 90.3956 90.3142Z" fill="#2F3134"/>
<path fill-rule="evenodd" clip-rule="evenodd" d="M49.9792 36.2128C49.8218 36.4829 49.6374 36.9413 49.4595 37.6243C49.2523 38.42 49.0841 39.3982 48.9533 40.483C48.6918 42.6501 48.592 45.1331 48.592 47.2046C48.592 47.7339 48.2728 48.2143 47.7997 48.4372C47.221 48.7097 46.474 48.6955 45.8508 48.7492C44.889 48.832 43.6987 48.9184 42.3977 49.0354C41.1153 49.1507 39.8208 49.288 38.7712 49.4583C38.2586 49.5414 37.7366 49.6285 37.243 49.7952C37.4925 49.9321 37.8873 50.086 38.4597 50.2327C39.1791 50.4171 40.0624 50.562 41.0528 50.6763C43.1323 50.9164 45.2276 50.9939 47.3177 51.081C48.0257 51.1105 48.5865 51.6908 48.5932 52.4008C48.6124 54.4569 48.7148 56.8331 48.9721 58.8955C49.1008 59.9277 49.2651 60.8536 49.4675 61.6088C49.6409 62.2556 49.8215 62.6953 49.9793 62.9614C50.1372 62.695 50.3181 62.2549 50.4917 61.6075C50.6943 60.852 50.8586 59.9256 50.9873 58.8929C51.2446 56.8295 51.3467 54.4521 51.3653 52.3949C51.3717 51.6899 51.9247 51.1117 52.6274 51.0753C54.622 50.972 56.8667 50.8787 58.8334 50.6536C59.8142 50.5414 60.6879 50.4002 61.3994 50.2197C61.9618 50.077 62.3488 49.9275 62.5932 49.7947C62.1074 49.6325 61.5942 49.548 61.0901 49.4676C60.0521 49.302 58.7728 49.1701 57.504 49.0581C56.3089 48.9526 54.9474 48.8513 54.0838 48.7733C53.441 48.7152 52.6504 48.724 52.0714 48.3972C51.6447 48.1564 51.3665 47.6992 51.3665 47.2046C51.3665 45.1324 51.2667 42.6494 51.0052 40.4825C50.8743 39.3979 50.7062 38.4198 50.499 37.6242C50.3211 36.9412 50.1367 36.4829 49.9792 36.2128ZM47.9544 34.4547C48.9717 33.1086 50.9868 33.1086 52.004 34.4547C52.5038 35.1162 52.8349 36.0315 53.0744 36.9508C53.3227 37.9042 53.5087 39.0108 53.6476 40.1624C53.879 42.08 53.9888 44.1985 54.0191 46.0888C54.624 46.1475 55.2299 46.1947 55.8356 46.2433C56.4129 46.2896 57.0417 46.3401 57.7375 46.4015C59.0174 46.5144 60.3738 46.6528 61.5086 46.8339C62.0747 46.9242 62.6129 47.0293 63.0717 47.155C63.4842 47.2679 64.0011 47.4399 64.3936 47.7386C65.7342 48.7588 65.7323 50.7793 64.3936 51.798C63.7538 52.2849 62.8974 52.5907 62.0526 52.805C61.1784 53.0268 60.1736 53.1845 59.1354 53.3033C57.4885 53.4918 55.6624 53.5921 54.0057 53.6759C53.9612 55.4778 53.8504 57.4436 53.6285 59.2235C53.4912 60.3249 53.308 61.3828 53.0622 62.2995C52.8241 63.1873 52.4958 64.0673 52.004 64.7177C50.9868 66.0638 48.9717 66.0638 47.9544 64.7177C47.463 64.0676 47.1349 63.1879 46.897 62.3007C46.6513 61.3844 46.4683 60.3271 46.331 59.2263C46.1095 57.4508 45.9984 55.4903 45.9533 53.6925C44.2684 53.6182 42.4198 53.5187 40.7481 53.3257C39.6977 53.2044 38.6827 53.0426 37.8001 52.8164C36.9466 52.5976 36.0856 52.2871 35.4431 51.798C34.1027 50.778 34.1027 48.7599 35.4431 47.7399C35.8356 47.4411 36.3543 47.2677 36.7693 47.1533C37.2312 47.0258 37.7739 46.9184 38.3458 46.8256C39.4922 46.6397 40.8636 46.4958 42.1598 46.3792C42.9342 46.3096 43.7171 46.2468 44.4108 46.1913C45.0064 46.1435 45.5325 46.1012 45.9397 46.064C45.9707 44.1804 46.0805 42.0721 46.3108 40.1629C46.4498 39.0112 46.6358 37.9045 46.8841 36.951C47.1235 36.0316 47.4547 35.1162 47.9544 34.4547Z" fill="#2F3134"/>
</svg>
