<svg width="100" height="100" viewBox="0 0 100 100" fill="none" xmlns="http://www.w3.org/2000/svg">
<path d="M23.1112 0.169853L3.55566 11.4934C2.889 11.7198 2.889 12.6257 3.55566 12.8522L49.3334 39.5757C49.7779 39.8022 50.4446 39.8022 50.889 39.5757L70.4446 28.2522C71.1112 28.0257 71.1112 27.1198 70.4446 26.8933L24.889 0.169853C24.2223 -0.0566176 23.7779 -0.0566176 23.1112 0.169853Z" fill="#2F3134"/>
<path d="M75.3329 0.168291L55.7773 11.4918C55.1107 11.7183 55.1107 12.6242 55.7773 12.8506L75.5551 24.6271C75.9996 24.8536 76.6662 24.8536 77.1107 24.6271L96.6662 13.3036C97.3329 13.0771 97.3329 12.1712 96.6662 11.9447L76.8885 0.394757C76.444 -0.0581832 75.7774 -0.0581798 75.3329 0.168291Z" fill="#2F3134"/>
<path d="M52.4443 45.6927V68.5662C52.4443 69.2456 53.111 69.6986 53.7777 69.2456L73.5554 57.6956C73.7777 57.4691 73.9999 57.2427 73.9999 57.0162V33.4633C73.9999 32.7839 73.3332 32.3309 72.6666 32.7839L53.3332 44.1074C52.6666 44.5603 52.4443 45.0133 52.4443 45.6927Z" fill="#2F3134"/>
<path d="M79.1115 28.9319L98.6671 17.6084C99.1115 17.3819 100 17.6084 100 18.2878V71.7348C100 72.4142 99.7782 72.8671 99.1115 73.0936L53.556 99.8171C53.1115 100.044 52.2227 99.8171 52.2227 99.1377V76.2642C52.2227 75.5848 52.4449 75.1318 53.1115 74.9054L77.556 60.6377C78.0004 60.4113 78.4449 59.7318 78.4449 59.0524V30.5172C78.4449 29.8378 78.6671 29.3848 79.1115 28.9319Z" fill="#2F3134"/>
<path d="M48 45.4639V69.0168C48 69.4697 47.5556 69.6962 47.1111 69.4697L23.1111 55.4285C22.6667 55.2021 21.7778 55.4286 21.7778 56.108V83.7373C21.7778 84.4167 21.1111 84.8697 20.4444 84.4168L0.888888 73.0932C0.444444 72.8668 0 72.1874 0 71.7344V18.061C0 17.3815 0.666668 16.9286 1.33333 17.3815L47.1111 44.105C47.5556 44.3315 48 45.0109 48 45.4639Z" fill="#2F3134"/>
<path d="M27.3333 63.1292L46.8889 74.6792C47.3333 74.9057 47.7778 75.5851 47.7778 76.038V99.138C47.7778 99.8174 47.1111 100.27 46.4444 99.8174L26.8889 88.2674C26.4444 88.041 26 87.3615 26 86.9086V64.0351C26.2222 63.3557 26.8889 62.9028 27.3333 63.1292Z" fill="#2F3134"/>
</svg>
