<svg width="100" height="100" viewBox="0 0 100 100" fill="none" xmlns="http://www.w3.org/2000/svg">
<path d="M82.3667 75.5605L59.2337 62.2618L81.9832 49.1776C82.235 49.0537 82.4435 48.8566 82.5812 48.6121C82.7181 48.3687 82.7835 48.0915 82.7697 47.8126V33.3309C82.764 33.0551 82.6903 32.785 82.5552 32.5444C82.4167 32.3062 82.2198 32.1072 81.9832 31.966L75.6004 28.326L81.9637 24.6601L82.3147 24.4131C82.5904 24.106 82.7432 23.7079 82.7437 23.2951V8.78095C82.7404 8.5059 82.667 8.23623 82.5306 7.9974C82.3941 7.75857 82.199 7.55847 81.9637 7.41598L69.3605 0.188135C69.1237 0.0645422 68.8606 0 68.5935 0C68.3264 0 68.0633 0.0645422 67.8265 0.188135L17.6216 29.0345C17.3869 29.1707 17.1931 29.3674 17.0605 29.6041C16.9279 29.8408 16.8612 30.1087 16.8676 30.38V44.9072C16.8664 45.1819 16.9406 45.4517 17.0821 45.6872C17.2187 45.9212 17.4135 46.116 17.6476 46.2526L24.0045 49.9186L17.6216 53.669C17.3866 53.8022 17.1931 53.998 17.0626 54.2345C16.9299 54.4704 16.8626 54.7374 16.8676 55.008V69.5416C16.869 69.8136 16.9419 70.0804 17.0787 70.3153C17.2156 70.5503 17.4118 70.7452 17.6476 70.8806L68.2295 99.8375C68.4321 99.9373 68.6537 99.9927 68.8795 100H69.1265C69.3534 99.9801 69.5742 99.9161 69.7765 99.8115L82.3537 92.5837C82.5925 92.451 82.7903 92.2554 82.9257 92.0182C83.0623 91.7833 83.1341 91.5164 83.1337 91.2447V76.711C83.1114 76.4791 83.0334 76.2561 82.9062 76.061C82.7802 75.8613 82.6087 75.6942 82.4057 75.5735L82.3667 75.5605ZM78.3823 76.7955L68.9055 82.2684L46.6045 69.5091L56.0293 64.0363L78.3823 76.7955ZM20.2085 57.8094L29.3668 63.0093V73.955L20.2085 68.6447V57.8094ZM32.5583 49.1321V38.2058L44.3425 31.42L50.8424 27.6695L56.8743 24.1921L57.3357 23.9451L69.3735 16.9643L79.2858 11.2444L79.5783 11.0559V22.0017L32.5583 49.1321ZM68.6715 3.07407L78.1418 8.56646L31.1413 35.5799L21.6645 30.1005L68.6715 3.07407ZM19.968 33.0319L29.5033 38.5048V49.4506L19.968 43.9777V33.0319ZM27.1569 51.667L30.2833 53.448C30.4419 53.5259 30.6141 53.5722 30.7903 53.5845H31.0373C31.2631 53.5772 31.4847 53.5218 31.6873 53.422L72.4349 30.0745L78.0638 33.2789L30.9528 60.2598L21.476 54.8455L27.1569 51.667ZM32.5713 75.7815V63.1068L79.7278 36.0414V46.9871L42.8866 67.9817C42.6501 68.113 42.4561 68.3092 42.3276 68.5472C42.1918 68.7818 42.1243 69.0497 42.1326 69.3207C42.1307 69.5958 42.2001 69.8668 42.3341 70.1071C42.4631 70.3476 42.6538 70.5495 42.8866 70.6921L42.9581 70.7376L67.5015 84.6473V95.5931L32.5713 75.7815ZM80.0918 90.5557L70.602 96.0286V85.1088L80.0918 79.6099V90.5557Z" fill="#2F3134"/>
</svg>
