<svg width="100" height="100" viewBox="0 0 100 100" fill="none" xmlns="http://www.w3.org/2000/svg">
<g clip-path="url(#clip0_3837_16418)">
<mask id="mask0_3837_16418" style="mask-type:alpha" maskUnits="userSpaceOnUse" x="0" y="0" width="100" height="100">
<path fill-rule="evenodd" clip-rule="evenodd" d="M0 0H100V100H0V0Z" fill="white"/>
</mask>
<g mask="url(#mask0_3837_16418)">
<path fill-rule="evenodd" clip-rule="evenodd" d="M50 99.9982C22.5 99.9982 0 77.4982 0 49.7482C0.25 22.2482 22.5 -0.251843 50.25 -0.00184286C77.75 0.248157 100 22.4982 100 50.4982C99.75 77.7482 77.5 99.9982 50 99.9982Z" fill="#2F3134"/>
<path fill-rule="evenodd" clip-rule="evenodd" d="M54.75 44.0015L53.25 52.0015L67.5 54.0015L66.5 57.7515L52.5 55.7515C51.5 59.0015 51 62.5015 49.75 65.5015C48.5 69.0015 47.25 72.5015 45.75 75.7515C43.75 80.0015 40.25 83.0015 35.5 83.7515C32.75 84.2515 29.75 84.0015 27.5 82.2515C26.75 81.7515 26 80.7515 26 80.0015C26 79.0015 26.5 77.7515 27.25 77.2515C27.75 77.0015 29 77.2515 29.75 77.5015C30.5 78.2515 31.25 79.2515 31.75 80.2515C33.25 82.2515 35.25 82.5015 37.25 81.0015C39.5 79.0015 40.75 76.2515 41.5 73.5015C43 67.5015 44.5 61.7515 45.75 55.7515V54.7515L32.5 52.7515L33 49.0015L46.75 51.0015L48.5 43.2515L34.25 41.0015L34.75 37.0015L49.5 39.0015C50 37.5015 50.25 36.2515 50.75 35.0015C52 30.5015 53.25 26.0015 56.25 22.0015C59.25 18.0015 62.75 15.5015 68 15.7515C70.25 15.7515 72.5 16.5015 74 18.2515C74.25 18.5015 74.75 19.0015 74.75 19.5015C74.75 20.5015 74.75 21.7515 74 22.5015C73 23.2515 71.75 23.0015 70.75 22.0015C70 21.2515 69.5 20.5015 68.75 19.7515C67.25 17.7515 65 17.5015 63.25 19.2515C62 20.5015 60.75 22.2515 60 24.0015C58.25 29.2515 57 34.7515 55.25 40.2515L69 42.2515L68 46.0015L54.75 44.0015Z" fill="white"/>
</g>
</g>
<defs>
<clipPath id="clip0_3837_16418">
<rect width="100" height="100" fill="white"/>
</clipPath>
</defs>
</svg>
