<svg width="48" height="64" viewBox="0 0 48 64" fill="none" xmlns="http://www.w3.org/2000/svg">
<path fill-rule="evenodd" clip-rule="evenodd" d="M44 64C46.2091 64 48 62.2091 48 60V20.8284C48 20.298 47.7893 19.7893 47.4142 19.4142L28.5858 0.585786C28.2107 0.210714 27.702 0 27.1716 0H4C1.79086 0 0 1.79086 0 4V60C0 62.2091 1.79086 64 4 64H44ZM25 4V19C25 21.2091 26.7909 23 29 23H44V58C44 59.1046 43.1046 60 42 60H6C4.89543 60 4 59.1046 4 58V6C4 4.89543 4.89543 4 6 4H25ZM41.3431 19L29 6.65685V18C29 18.5523 29.4477 19 30 19H41.3431Z" fill="#0090FF"/>
</svg>
