<svg width="64" height="45" viewBox="0 0 64 45" fill="none" xmlns="http://www.w3.org/2000/svg">
<path d="M63.0894 5.30225L24.568 43.787C22.9492 45.4043 20.3245 45.4043 18.7057 43.787L0.910589 26.0088C-0.303528 24.7959 -0.30353 22.8293 0.910587 21.6163C2.1247 20.4033 4.09318 20.4033 5.30729 21.6163L21.6369 37.9303L58.6927 0.909724C59.9068 -0.303239 61.8753 -0.303242 63.0894 0.909721C64.3035 2.12268 64.3035 4.08928 63.0894 5.30225Z" fill="#232528"/>
<path d="M63.0894 5.30225L24.568 43.787C22.9492 45.4043 20.3245 45.4043 18.7057 43.787L0.910589 26.0088C-0.303528 24.7959 -0.30353 22.8293 0.910587 21.6163C2.1247 20.4033 4.09318 20.4033 5.30729 21.6163L21.6369 37.9303L58.6927 0.909724C59.9068 -0.303239 61.8753 -0.303242 63.0894 0.909721C64.3035 2.12268 64.3035 4.08928 63.0894 5.30225Z" fill="white" fill-opacity="0.3"/>
</svg>
