<svg width="80" height="80" viewBox="0 0 80 80" fill="none" xmlns="http://www.w3.org/2000/svg">
<path d="M70 24.5094V55.4894C70.0002 55.8465 69.9047 56.1971 69.7236 56.5048C69.5425 56.8126 69.2823 57.0662 68.97 57.2394L40.97 72.7927C40.6732 72.9573 40.3394 73.0437 40 73.0437C39.6606 73.0437 39.3268 72.9573 39.03 72.7927L11.03 57.2394C10.7177 57.0662 10.4575 56.8126 10.2764 56.5048C10.0953 56.1971 9.99983 55.8465 10 55.4894V24.5094C10.0004 24.1529 10.0961 23.8029 10.2772 23.4958C10.4583 23.1887 10.7182 22.9356 11.03 22.7627L39.03 7.20605C39.3268 7.04145 39.6606 6.95508 40 6.95508C40.3394 6.95508 40.6732 7.04145 40.97 7.20605L68.97 22.7627C69.2818 22.9356 69.5417 23.1887 69.7228 23.4958C69.9039 23.8029 69.9996 24.1529 70 24.5094V24.5094Z" stroke="#66A0DB" stroke-width="6" stroke-linecap="round" stroke-linejoin="round"/>
<path d="M11.7598 24.3131L39.0264 39.4598C39.3236 39.625 39.6581 39.7117 39.9981 39.7117C40.3381 39.7117 40.6726 39.625 40.9698 39.4598L68.3331 24.2598M39.9998 69.9998V39.9998" stroke="#66A0DB" stroke-width="6" stroke-linecap="round" stroke-linejoin="round"/>
</svg>
