<svg width="47" height="40" viewBox="0 0 47 40" fill="none" xmlns="http://www.w3.org/2000/svg">
<path d="M35.009 12.2255C34.1804 11.7507 33.1152 11.7507 32.1682 12.2255L25.5399 16.1424L21.042 18.635L14.532 22.5519C13.7035 23.0267 12.6382 23.0267 11.6913 22.5519L6.60166 19.4659C5.77311 18.9911 5.1813 18.0415 5.1813 16.9733V11.0386C5.1813 10.089 5.65475 9.13947 6.60166 8.54599L11.6913 5.57864C12.5199 5.10386 13.5851 5.10386 14.532 5.57864L19.6217 8.66469C20.4502 9.13947 21.042 10.089 21.042 11.1573V15.0742L25.5399 12.4629V8.4273C25.5399 7.47774 25.0664 6.52819 24.1195 5.93472L14.6504 0.356083C13.8219 -0.118694 12.7566 -0.118694 11.8097 0.356083L2.10384 6.05341C1.15693 6.52819 0.683472 7.47774 0.683472 8.4273V19.5846C0.683472 20.5341 1.15693 21.4837 2.10384 22.0772L11.6913 27.6558C12.5199 28.1306 13.5851 28.1306 14.532 27.6558L21.042 23.8576L25.5399 21.2463L32.0499 17.4481C32.8784 16.9733 33.9437 16.9733 34.8906 17.4481L39.9802 20.4154C40.8088 20.8902 41.4006 21.8398 41.4006 22.908V28.8427C41.4006 29.7923 40.9272 30.7418 39.9802 31.3353L35.009 34.3027C34.1804 34.7774 33.1152 34.7774 32.1682 34.3027L27.0786 31.3353C26.25 30.8605 25.6582 29.911 25.6582 28.8427V25.0445L21.1604 27.6558V31.5727C21.1604 32.5223 21.6339 33.4718 22.5808 34.0653L32.1682 39.6439C32.9968 40.1187 34.0621 40.1187 35.009 39.6439L44.5964 34.0653C45.425 33.5905 46.0168 32.6409 46.0168 31.5727V20.2967C46.0168 19.3472 45.5433 18.3976 44.5964 17.8042L35.009 12.2255Z" fill="white"/>
</svg>
