<svg width="41" height="40" viewBox="0 0 41 40" fill="none" xmlns="http://www.w3.org/2000/svg">
<path fill-rule="evenodd" clip-rule="evenodd" d="M20.6997 39.9999C9.69998 39.9999 0.700195 31.0001 0.700195 19.9003C0.799048 9.02651 9.49741 0.107103 20.4195 0.000957318C20.5459 -0.00027164 20.6727 -0.000319183 20.7997 0.000825337C20.8044 0.000867749 20.809 0.000911741 20.8137 0.000957318C31.807 0.108372 40.6992 9.00536 40.6992 20.2003C40.5992 31.1001 31.6995 39.9999 20.6997 39.9999Z" fill="white"/>
<path fill-rule="evenodd" clip-rule="evenodd" d="M22.5997 17.6006L21.9997 20.8005L27.6996 21.6005L27.2996 23.1005L21.6997 22.3005C21.2997 23.6005 21.0997 25.0004 20.5997 26.2004C20.0997 27.6004 19.5998 29.0003 18.9998 30.3003C18.1998 32.0003 16.7998 33.2002 14.8999 33.5002C13.7999 33.7002 12.5999 33.6002 11.7 32.9002C11.4 32.7002 11.1 32.3002 11.1 32.0003C11.1 31.6003 11.3 31.1003 11.6 30.9003C11.7999 30.8003 12.2999 30.9003 12.5999 31.0003C12.8999 31.3003 13.1999 31.7003 13.3999 32.1003C13.9999 32.9002 14.7999 33.0002 15.5999 32.4002C16.4998 31.6003 16.9998 30.5003 17.2998 29.4003C17.8998 27.0004 18.4998 24.7004 18.9998 22.3005V21.9005L13.6999 21.1005L13.8999 19.6006L19.3998 20.4005L20.0997 17.3006L14.3999 16.4006L14.5999 14.8007L20.4997 15.6006C20.6997 15.0007 20.7997 14.5007 20.9997 14.0007C21.4997 12.2007 21.9997 10.4008 23.1997 8.80081C24.3996 7.20085 25.7996 6.20087 27.8996 6.30087C28.7995 6.30087 29.6995 6.60086 30.2995 7.30085C30.3995 7.40084 30.5995 7.60084 30.5995 7.80084C30.5995 8.20083 30.5995 8.70081 30.2995 9.00081C29.8995 9.3008 29.3995 9.2008 28.9995 8.80081C28.6995 8.50082 28.4995 8.20082 28.1996 7.90083C27.5996 7.10085 26.6996 7.00085 25.9996 7.70084C25.4996 8.20082 24.9996 8.90081 24.6996 9.60079C23.9997 11.7007 23.4997 13.9007 22.7997 16.1006L28.2996 16.9006L27.8996 18.4006L22.5997 17.6006Z" fill="#0090FF"/>
<path fill-rule="evenodd" clip-rule="evenodd" d="M20.8137 0.000957318H20.4195C9.49741 0.107103 0.799048 9.02651 0.700195 19.9003C0.700195 31.0001 9.69998 39.9999 20.6997 39.9999C31.6995 39.9999 40.5992 31.1001 40.6992 20.2003C40.6992 9.00536 31.807 0.108372 20.8137 0.000957318Z" fill="#0090FF"/>
</svg>
