<svg width="101" height="40" viewBox="0 0 101 40" fill="none" xmlns="http://www.w3.org/2000/svg">
<path d="M42.798 9.14236H46.4426V30.7139H42.798V9.14236ZM50.0872 9.14236H57.5198C59.1373 9.14236 60.4887 9.32726 61.5329 9.67651C62.5772 10.0258 63.4166 10.5188 64.0104 11.1352C64.5996 11.7177 65.0358 12.4377 65.2799 13.2307C65.5267 14.036 65.651 14.874 65.6485 15.7166C65.6524 16.6131 65.5283 17.5056 65.2799 18.3668C65.0378 19.1968 64.6027 19.9573 64.0104 20.5856C63.3126 21.2726 62.4641 21.7863 61.5329 22.0853C60.4887 22.4551 59.1783 22.64 57.5812 22.64H53.6704V30.7139H50.0872V9.14236ZM57.4993 19.62C58.2658 19.6427 59.0315 19.5527 59.772 19.3529C60.2903 19.2154 60.7678 18.9547 61.1644 18.5928C61.5014 18.2641 61.7483 17.8536 61.881 17.4012C62.0161 16.8918 62.0849 16.367 62.0858 15.8398C62.0978 15.3052 62.0288 14.7717 61.881 14.2579C61.7449 13.8198 61.4896 13.4284 61.1439 13.128C60.7317 12.7908 60.2487 12.552 59.7311 12.4295C59.0013 12.2488 58.2508 12.1659 57.4993 12.1829H53.7114V19.62H57.4993ZM82.0492 9.14236V12.2856H71.9753V18.3873H81.4554V21.5511H71.9753V30.7139H68.3307V9.14236H82.0492ZM87.4137 24.1192C87.5775 25.5368 88.0894 26.564 88.9289 27.2008C89.7683 27.8377 91.0583 28.1664 92.7373 28.1664C93.4363 28.1866 94.1341 28.0965 94.8053 27.8994C95.2958 27.7447 95.7538 27.5009 96.1566 27.1803C96.4856 26.8942 96.7329 26.5255 96.8733 26.112C97.0157 25.6886 97.085 25.2439 97.078 24.7972C97.0821 24.4562 97.0338 24.1166 96.9347 23.7905C96.8217 23.4492 96.6406 23.1346 96.4023 22.866C96.104 22.5554 95.7497 22.3044 95.3581 22.1264C94.8206 21.8939 94.2568 21.7283 93.6791 21.6333L90.9354 21.1197C89.9541 20.9453 88.9886 20.6911 88.0484 20.3596C87.2734 20.0931 86.5522 19.6896 85.919 19.168C85.3474 18.6809 84.9044 18.06 84.629 17.3601C84.3219 16.5257 84.176 15.6402 84.1991 14.751C84.1665 13.8503 84.3616 12.9561 84.7661 12.1515C85.1706 11.3468 85.7715 10.658 86.5128 10.149C87.2917 9.6039 88.1674 9.21338 89.0927 8.99855C90.1522 8.74469 91.2385 8.62052 92.3278 8.62875C93.802 8.62875 95.051 8.79311 96.0543 9.14236C96.9466 9.42118 97.7748 9.8751 98.4908 10.4777C99.0884 11.0097 99.5694 11.6603 99.9036 12.3884C100.224 13.1082 100.444 13.8685 100.559 14.6482L97.119 15.1824C96.8323 13.9703 96.3614 13.0869 95.6652 12.4911C94.9691 11.8953 93.8839 11.6077 92.3687 11.6077C91.6456 11.596 90.9238 11.6718 90.2188 11.8337C89.7181 11.9538 89.2452 12.17 88.8265 12.4705C88.4971 12.7149 88.2362 13.0404 88.0689 13.4156C87.9217 13.7669 87.8452 14.1439 87.8437 14.525C87.8437 15.47 88.0894 16.1685 88.6012 16.6411C89.1131 17.1136 90.014 17.4628 91.304 17.7299L94.2729 18.3051C96.5457 18.7366 98.2042 19.4556 99.2689 20.4623C100.334 21.469 100.866 22.9482 100.866 24.8588C100.873 25.7257 100.706 26.5852 100.375 27.3857C100.042 28.1717 99.5217 28.8632 98.8594 29.3991C98.1083 30.0114 97.2461 30.4719 96.3204 30.755C95.1727 31.1042 93.9774 31.2706 92.7782 31.2481C90.0345 31.2481 87.8641 30.6728 86.308 29.5018C84.7519 28.3308 83.8715 26.5434 83.7281 24.1192H87.4137Z" fill="white"/>
<path d="M0.0661621 29.892L17.2654 39.856L34.4646 29.892V9.96401L17.2654 0L0.0661621 9.96401V29.892Z" fill="#469EA2"/>
<path d="M15.5046 2.38316L3.01463 9.61477C3.03511 9.84029 3.03511 10.0672 3.01463 10.2927L15.4841 17.5243C15.9968 17.144 16.6176 16.9387 17.2552 16.9387C17.8928 16.9387 18.5136 17.144 19.0263 17.5243L31.4958 10.2927C31.4753 10.0672 31.4753 9.84029 31.4958 9.61477L19.0468 2.38316C18.5341 2.7635 17.9133 2.96876 17.2757 2.96876C16.6381 2.96876 16.0173 2.7635 15.5046 2.38316ZM32.7038 12.2855L20.2139 19.5993C20.2816 20.2337 20.1477 20.8732 19.8315 21.4267C19.5152 21.9801 19.0328 22.4191 18.453 22.681L18.4735 37.062C18.6754 37.1514 18.8675 37.2615 19.0468 37.3907L31.5162 30.1591C31.4485 29.5248 31.5824 28.8852 31.8986 28.3318C32.2149 27.7783 32.6973 27.3393 33.2771 27.0775V12.6142C33.0775 12.5203 32.8858 12.4104 32.7038 12.2855ZM1.82707 12.3677C1.64782 12.4969 1.45569 12.6071 1.25376 12.6964V27.1596C1.84062 27.4122 2.32974 27.8494 2.64736 28.4053C2.96498 28.9611 3.09388 29.6055 3.01463 30.2413L15.4841 37.4729C15.6633 37.3437 15.8555 37.2336 16.0574 37.1442V22.681C15.4705 22.4284 14.9814 21.9912 14.6638 21.4354C14.3462 20.8795 14.2173 20.2351 14.2965 19.5993L1.82707 12.3677Z" fill="#6ACAD1"/>
<path d="M17.2654 2.1573L32.6423 11.0736V28.8855L17.2654 37.8018L1.88847 28.8855V11.053L17.2654 2.1573ZM17.2654 0.0412341L0.066171 10.0052V29.9333L17.2654 39.8973L34.4647 29.9333V10.0052L17.2654 0.0412341Z" fill="#469EA2"/>
<path d="M17.3883 23.318H17.1426C16.7201 23.3191 16.3016 23.2364 15.9111 23.0747C15.5206 22.913 15.1658 22.6754 14.8671 22.3757C14.5683 22.076 14.3316 21.72 14.1704 21.3281C14.0093 20.9363 13.9269 20.5164 13.9279 20.0925V19.846C13.9269 19.4221 14.0093 19.0022 14.1704 18.6104C14.3316 18.2186 14.5683 17.8626 14.8671 17.5628C15.1658 17.2631 15.5206 17.0256 15.9111 16.8638C16.3016 16.7021 16.7201 16.6194 17.1426 16.6205H17.3883C17.8107 16.6194 18.2292 16.7021 18.6197 16.8638C19.0102 17.0256 19.365 17.2631 19.6638 17.5628C19.9625 17.8626 20.1992 18.2186 20.3604 18.6104C20.5215 19.0022 20.604 19.4221 20.6029 19.846V20.0925C20.604 20.5164 20.5215 20.9363 20.3604 21.3281C20.1992 21.72 19.9625 22.076 19.6638 22.3757C19.365 22.6754 19.0102 22.913 18.6197 23.0747C18.2292 23.2364 17.8107 23.3191 17.3883 23.318ZM17.3883 36.5691H17.1426C16.5714 36.5674 16.0103 36.7188 15.5171 37.0078C15.0239 37.2968 14.6166 37.7127 14.3374 38.2126L17.2654 39.8973L20.1934 38.2126C19.9142 37.7127 19.507 37.2968 19.0138 37.0078C18.5206 36.7188 17.9594 36.5674 17.3883 36.5691ZM34.4851 26.6051H34.3623C33.9398 26.604 33.5213 26.6867 33.1308 26.8484C32.7403 27.0101 32.3855 27.2477 32.0868 27.5474C31.7881 27.8471 31.5513 28.2031 31.3902 28.5949C31.229 28.9868 31.1466 29.4067 31.1477 29.8305V30.0771C31.1447 30.6246 31.286 31.1633 31.5572 31.6384L34.4851 29.9333V26.6051ZM31.5572 8.32061C31.2884 8.79677 31.1473 9.33475 31.1477 9.88198V10.1285C31.1466 10.5524 31.229 10.9723 31.3902 11.3641C31.5513 11.7559 31.7881 12.1119 32.0868 12.4117C32.3855 12.7114 32.7403 12.9489 33.1308 13.1107C33.5213 13.2724 33.9398 13.3551 34.3623 13.354H34.4851V10.0052L31.5572 8.32061ZM17.2654 0.0412341L14.3374 1.72587C14.6153 2.22847 15.0217 2.64764 15.5148 2.94015C16.0078 3.23266 16.5698 3.38793 17.1426 3.38996H17.3883C17.9594 3.39169 18.5206 3.24023 19.0138 2.95127C19.507 2.6623 19.9142 2.24633 20.1934 1.74642L17.2654 0.0412341ZM2.99414 8.30006L0.066171 10.0052V13.354H0.189023C0.611476 13.3551 1.02998 13.2724 1.42048 13.1107C1.81099 12.9489 2.16579 12.7114 2.46451 12.4117C2.76323 12.1119 2.99998 11.7559 3.16115 11.3641C3.32231 10.9723 3.40472 10.5524 3.40364 10.1285V9.88198C3.3967 9.3292 3.25618 8.78636 2.99414 8.30006ZM0.189023 26.6051H0.066171V29.9333L2.99414 31.6384C3.26292 31.1623 3.40402 30.6243 3.40364 30.0771V29.8305C3.40472 29.4067 3.32231 28.9868 3.16115 28.5949C2.99998 28.2031 2.76323 27.8471 2.46451 27.5474C2.16579 27.2477 1.81099 27.0101 1.42048 26.8484C1.02998 26.6867 0.611476 26.604 0.189023 26.6051Z" fill="#469EA2"/>
<path d="M17.2654 40V20.0514L0.0661669 10.0874V30.036L17.2654 40Z" fill="#083B54" fill-opacity="0.15"/>
<path d="M34.4851 29.8509V9.92293L17.2859 19.8869V39.8355L34.4851 29.8509Z" fill="#083B54" fill-opacity="0.05"/>
</svg>
