<svg width="67" height="40" viewBox="0 0 67 40" fill="none" xmlns="http://www.w3.org/2000/svg">
<path d="M42.2442 11.9153V27.4427H40.5142V11.9153H42.2442ZM47.4109 11.9153C49.8507 11.9153 50.8927 13.3571 50.8927 15.7083V17.5715C50.8927 20.0337 49.7397 21.3203 47.278 21.3203H45.748V27.4422H44.018V11.9148L47.4109 11.9153ZM47.278 19.7675C48.5644 19.7675 49.1856 19.1685 49.1856 17.6825V15.6193C49.1856 14.1999 48.6753 13.4899 47.4114 13.4899H45.748V19.7675H47.278ZM52.3124 27.4422V11.9148H54.0423V25.8675H58.4778V27.4422H52.3124ZM63.423 11.9153C65.8405 11.9153 66.9497 13.379 66.9497 15.775V23.6049C66.9497 25.978 65.8405 27.4422 63.423 27.4422H59.786V11.9148L63.423 11.9153ZM63.4011 25.8675C64.6432 25.8675 65.2416 25.0914 65.2416 23.6715V15.6859C65.2416 14.2665 64.6432 13.4899 63.3788 13.4899H61.516V25.867L63.4011 25.8675Z" fill="white"/>
<path d="M23.451 17.7366H24.1385V18.0839L25.6849 17.1069V15.464C25.5769 15.5001 25.4613 15.5197 25.3411 15.5197C25.221 15.5197 25.1054 15.5001 24.9974 15.464V16.7283L18.4441 20.8688V17.6702L21.6424 15.6495V12.6714C21.5344 12.7076 21.4189 12.7271 21.2987 12.7271C21.1788 12.7271 21.0633 12.7076 20.9555 12.6715V15.2704L18.4441 16.8571V8.79525C18.3361 8.83142 18.2205 8.85101 18.1004 8.85101C17.9802 8.85101 17.8647 8.83143 17.7567 8.79527V14.936L15.1552 13.2923V11.5077C15.0472 11.5439 14.9317 11.5635 14.8115 11.5635C14.6914 11.5635 14.5758 11.5439 14.4678 11.5077V13.6709L17.7567 15.749V23.138L14.9905 21.6212L14.3031 21.2442L10.1627 18.9739V16.4211C10.0547 16.4573 9.93909 16.4769 9.81891 16.4769C9.69879 16.4769 9.58324 16.4573 9.47528 16.4211V19.3684L10.7287 20.0576L11.3445 20.3961L17.7567 23.9215V28.7106L18.0518 28.8716L18.4441 28.6237V21.6817L23.451 18.5182V17.7366Z" fill="white"/>
<path d="M24.1385 17.7366H23.451V18.5182L24.1385 18.0839V17.7366Z" fill="white"/>
<path d="M24.1385 18.0839L23.451 18.5182V25.4599L24.1385 25.0255V18.0839Z" fill="white"/>
<path d="M25.6849 15.1651L24.9974 15.1646V15.464C25.1054 15.5001 25.221 15.5197 25.3411 15.5197C25.4613 15.5197 25.5769 15.5001 25.6849 15.464V15.1651Z" fill="white"/>
<path d="M24.9974 15.1646L25.6849 15.1651V15.464C26.1138 15.3203 26.423 14.9151 26.423 14.4376C26.423 13.84 25.9386 13.3555 25.3411 13.3555C24.7436 13.3555 24.2592 13.84 24.2592 14.4376C24.2592 14.9151 24.5684 15.3203 24.9974 15.464V15.1646Z" fill="white"/>
<path d="M24.1385 25.757H23.451V25.4599L18.4441 28.6237V29.4368L29.9909 22.1417V20.4988C29.883 20.5349 29.7674 20.5545 29.6473 20.5545C29.5269 20.5545 29.4112 20.5349 29.303 20.4986V21.7621L24.1385 25.0255V25.757Z" fill="white"/>
<path d="M29.303 20.1999H29.9909V20.4988C30.42 20.3551 30.7292 19.9499 30.7292 19.4724C30.7292 18.8748 30.2448 18.3903 29.6473 18.3903C29.0498 18.3903 28.5654 18.8748 28.5654 19.4724C28.5654 19.9497 28.8743 20.3547 29.303 20.4986V20.1999Z" fill="white"/>
<path d="M29.9909 20.1999H29.303V20.4986C29.4112 20.5349 29.5269 20.5545 29.6473 20.5545C29.7674 20.5545 29.883 20.5349 29.9909 20.4988V20.1999Z" fill="white"/>
<path d="M23.451 25.757H24.1385V25.0255L23.451 25.4599V25.757Z" fill="white"/>
<path d="M18.0518 28.8716L17.7567 28.7106V29.4918L17.9138 29.5779L18.1676 29.1766L17.9969 28.9063L18.0518 28.8716Z" fill="white"/>
<path d="M18.0518 28.8716L17.9969 28.9063L18.1676 29.1766L18.2814 28.9968L18.0518 28.8716Z" fill="white"/>
<path d="M18.4441 28.6237L18.0518 28.8716L18.2814 28.9968L18.1676 29.1766L18.364 29.4874L18.4441 29.4368V28.6237Z" fill="white"/>
<path d="M18.4441 29.4368L18.364 29.4874L18.1676 29.1766L17.9138 29.5779L17.7567 29.4918V36.5485C17.8542 36.4808 17.9727 36.4411 18.1004 36.4411C18.2281 36.4411 18.3466 36.4808 18.4441 36.5485V29.4368Z" fill="white"/>
<path d="M11.3445 25.5574H10.7287V24.8777L6.97422 22.8301V21.5665C6.86624 21.6026 6.75067 21.6222 6.63053 21.6222C6.51037 21.6222 6.39479 21.6026 6.2868 21.5665V23.2092L17.7567 29.4918V28.7106L11.3445 25.2136V25.5574Z" fill="white"/>
<path d="M10.7287 25.5574H11.3445V25.2136L10.7287 24.8777V25.5574Z" fill="white"/>
<path d="M11.3445 20.3961L10.7287 20.0576V24.8777L11.3445 25.2136V20.3961Z" fill="white"/>
<path d="M14.3031 21.2442L14.9905 21.6212V18.4116C14.8825 18.4477 14.767 18.4673 14.6469 18.4673C14.5267 18.4673 14.4111 18.4477 14.3031 18.4115V21.2442Z" fill="white"/>
<path d="M14.9905 17.6441H14.3031V18.4115C14.4111 18.4477 14.5267 18.4673 14.6469 18.4673C14.767 18.4673 14.8825 18.4477 14.9905 18.4116V17.6441Z" fill="white"/>
<path d="M14.6469 16.3031C14.0494 16.3031 13.565 16.7876 13.565 17.3852C13.565 17.8626 13.8741 18.2678 14.3031 18.4115V17.6441H14.9905V18.4116C15.4195 18.268 15.7287 17.8627 15.7287 17.3852C15.7287 16.7876 15.2444 16.3031 14.6469 16.3031Z" fill="white"/>
<path d="M10.1627 15.7002H9.47528V16.4211C9.58324 16.4573 9.69879 16.4769 9.81891 16.4769C9.93909 16.4769 10.0547 16.4573 10.1627 16.4211V15.7002Z" fill="white"/>
<path d="M9.47528 15.7002H10.1627V16.4211C10.5917 16.2774 10.9008 15.8722 10.9008 15.3948C10.9008 14.7971 10.4164 14.3127 9.81891 14.3127C9.22141 14.3127 8.73704 14.7971 8.73704 15.3948C8.73704 15.8722 9.04623 16.2775 9.47528 16.4211V15.7002Z" fill="white"/>
<path d="M6.2868 21.2669H6.97422V21.5665C7.40324 21.4228 7.7124 21.0176 7.7124 20.5401C7.7124 19.9425 7.22803 19.458 6.63053 19.458C6.03303 19.458 5.54866 19.9425 5.54866 20.5401C5.54866 21.0176 5.8578 21.4228 6.2868 21.5665V21.2669Z" fill="white"/>
<path d="M6.97422 21.2669H6.2868V21.5665C6.39479 21.6026 6.51037 21.6222 6.63053 21.6222C6.75067 21.6222 6.86624 21.6026 6.97422 21.5665V21.2669Z" fill="white"/>
<path d="M2.99399 28.3595L2.99398 27.7571C2.66075 27.7571 2.39062 28.0273 2.39062 28.3606C2.39062 28.6939 2.66075 28.9641 2.99398 28.9641C3.2163 28.9641 3.41053 28.8438 3.5152 28.6648L2.99399 28.3595Z" fill="white"/>
<path d="M3.07954 28.3102L3.55318 28.5876C3.58165 28.5175 3.59734 28.4409 3.59734 28.3606C3.59734 28.0563 3.37225 27.8047 3.07954 27.7631V28.3102Z" fill="white"/>
<path d="M2.99398 27.7571L2.99399 28.3595L3.5152 28.6648C3.52961 28.6401 3.54232 28.6143 3.55318 28.5876L3.07954 28.3102V27.7631C3.05159 27.7591 3.02302 27.7571 2.99398 27.7571Z" fill="white"/>
<path d="M2.99399 12.5033L2.99398 27.7571C3.02302 27.7571 3.05159 27.7591 3.07954 27.7631V12.4973C3.0516 12.5013 3.02303 12.5033 2.99399 12.5033Z" fill="white"/>
<path d="M3.55318 28.5876C3.54232 28.6143 3.52961 28.6401 3.5152 28.6648L17.5228 36.8694C17.5313 36.8413 17.5418 36.8141 17.5542 36.7878L3.55318 28.5876Z" fill="white"/>
<path d="M18.4441 36.9064L18.1004 37.1077L17.7567 36.9064V37.0064L18.0148 37.1576H18.1851L18.4441 37.0059V36.9064Z" fill="white"/>
<path d="M18.4441 36.5485C18.3466 36.4808 18.2281 36.4411 18.1004 36.4411C17.9727 36.4411 17.8542 36.4808 17.7567 36.5485V36.9064L18.1004 37.1077L18.4441 36.9064V36.5485Z" fill="white"/>
<path d="M18.4441 36.5485V36.9064L18.6466 36.7878C18.6012 36.6913 18.5309 36.6088 18.4441 36.5485Z" fill="white"/>
<path d="M18.1004 37.2077L18.0148 37.1576H17.7567V37.0064L17.5228 36.8694C17.5061 36.9249 17.497 36.9837 17.497 37.0446C17.497 37.3778 17.7672 37.648 18.1004 37.648C18.4336 37.648 18.7038 37.3778 18.7038 37.0446C18.7038 36.9835 18.6947 36.9246 18.6778 36.869L18.4441 37.0059V37.1576H18.1851L18.1004 37.2077Z" fill="white"/>
<path d="M18.4441 37.0059L18.1851 37.1576H18.4441V37.0059Z" fill="white"/>
<path d="M18.4441 36.9064V37.0059L18.6778 36.869C18.6693 36.8411 18.6589 36.8139 18.6466 36.7878L18.4441 36.9064Z" fill="white"/>
<path d="M18.1004 37.2077L18.1851 37.1576H18.0148L18.1004 37.2077Z" fill="white"/>
<path d="M18.0148 37.1576L17.7567 37.0064V37.1576H18.0148Z" fill="white"/>
<path d="M17.5542 36.7878C17.5418 36.8141 17.5313 36.8413 17.5228 36.8694L17.7567 37.0064V36.9064L17.5542 36.7878Z" fill="white"/>
<path d="M17.7567 36.5485C17.6699 36.6088 17.5996 36.6913 17.5542 36.7878L17.7567 36.9064V36.5485Z" fill="white"/>
<path d="M18.6466 36.7878C18.6589 36.8139 18.6693 36.8411 18.6778 36.869L32.7035 28.6546C32.6878 28.6309 32.6737 28.606 32.6614 28.58L18.6466 36.7878Z" fill="white"/>
<path d="M33.2068 27.7182L33.2068 28.36L33.1854 28.3724L32.7035 28.6546C32.8115 28.8177 32.9966 28.9252 33.2068 28.9252C33.54 28.9252 33.8101 28.655 33.8101 28.3217C33.8101 27.9884 33.54 27.7182 33.2068 27.7182Z" fill="white"/>
<path d="M32.6614 28.58L33.1212 28.3107V27.7242C32.8285 27.7658 32.6034 28.0174 32.6034 28.3217C32.6034 28.4141 32.6242 28.5017 32.6614 28.58Z" fill="white"/>
<path d="M33.2068 28.36L33.2068 27.7182C33.1777 27.7182 33.1492 27.7202 33.1212 27.7242V28.3107L32.6614 28.58C32.6737 28.606 32.6878 28.6309 32.7035 28.6546L33.1854 28.3724L33.2068 28.36Z" fill="white"/>
<path d="M33.2068 27.7182L33.2068 12.4644C33.1777 12.4644 33.1492 12.4623 33.1212 12.4584V27.7242C33.1492 27.7202 33.1777 27.7182 33.2068 27.7182Z" fill="white"/>
<path d="M33.1212 12.4584V11.4251L32.9374 11.3207C32.7394 11.4197 32.6034 11.6244 32.6034 11.8609C32.6034 12.1651 32.8285 12.4168 33.1212 12.4584Z" fill="white"/>
<path d="M33.2068 11.3754L33.2068 12.4644C33.54 12.4644 33.8101 12.1942 33.8101 11.8609C33.8101 11.5276 33.54 11.2574 33.2068 11.2574C33.149 11.2574 33.0931 11.2655 33.0401 11.2807L33.2068 11.3754Z" fill="white"/>
<path d="M33.2068 12.4644L33.2068 11.3754L33.0401 11.2807C33.0044 11.291 32.9701 11.3044 32.9374 11.3207L33.1212 11.4251V12.4584C33.1492 12.4623 33.1777 12.4644 33.2068 12.4644Z" fill="white"/>
<path d="M32.9374 11.3207C32.9701 11.3044 33.0044 11.291 33.0401 11.2807L18.68 3.12189C18.6719 3.15029 18.6617 3.17783 18.6497 3.20434L32.9374 11.3207Z" fill="white"/>
<path d="M18.1004 2.7928L18.1218 2.80474L18.68 3.12189C18.6951 3.06903 18.7032 3.0132 18.7032 2.95548C18.7032 2.62218 18.4331 2.352 18.0999 2.352C17.7666 2.352 17.4965 2.62218 17.4965 2.95548C17.4965 3.01771 17.5059 3.07775 17.5234 3.13423L18.1004 2.7928Z" fill="white"/>
<path d="M18.1218 2.80474L18.1004 2.7928L17.5234 3.13423C17.532 3.16208 17.5426 3.18907 17.555 3.21503L18.1004 2.8923L18.6497 3.20434C18.6617 3.17783 18.6719 3.15029 18.68 3.12189L18.1218 2.80474Z" fill="white"/>
<path d="M18.6497 3.20434L18.1004 2.8923L17.555 3.21503C17.652 3.41842 17.8595 3.55896 18.0999 3.55896C18.3444 3.55896 18.5549 3.41348 18.6497 3.20434Z" fill="white"/>
<path d="M17.555 3.21503C17.5426 3.18907 17.532 3.16208 17.5234 3.13423L3.42471 11.4772C3.44497 11.4979 3.46376 11.52 3.4809 11.5434L17.555 3.21503Z" fill="white"/>
<path d="M15.1552 9.66689H14.4678V11.5077C14.5758 11.5439 14.6914 11.5635 14.8115 11.5635C14.9317 11.5635 15.0472 11.5439 15.1552 11.5077V9.66689Z" fill="white"/>
<path d="M14.4678 9.66689H15.1552V11.5077C15.5842 11.364 15.8934 10.9588 15.8934 10.4814C15.8934 9.88375 15.409 9.39928 14.8115 9.39928C14.214 9.39928 13.7296 9.88375 13.7296 10.4814C13.7296 10.9588 14.0388 11.3641 14.4678 11.5077V9.66689Z" fill="white"/>
<path d="M18.4441 7.71182H17.7567V8.79527C17.8647 8.83143 17.9802 8.85101 18.1004 8.85101C18.2205 8.85101 18.3361 8.83142 18.4441 8.79525V7.71182Z" fill="white"/>
<path d="M17.7567 7.71182H18.4441V8.79525C18.8731 8.65157 19.1822 8.24636 19.1822 7.76892C19.1822 7.1713 18.6979 6.68683 18.1004 6.68683C17.5029 6.68683 17.0185 7.1713 17.0185 7.76892C17.0185 8.24638 17.3277 8.65161 17.7567 8.79527V7.71182Z" fill="white"/>
<path d="M20.9555 11.645H21.6424V12.6714C22.0714 12.5278 22.3806 12.1225 22.3806 11.645C22.3806 11.0474 21.8963 10.563 21.2987 10.563C20.7013 10.563 20.2169 11.0474 20.2169 11.645C20.2169 12.1227 20.5262 12.528 20.9555 12.6715V11.645Z" fill="white"/>
<path d="M21.6424 11.645H20.9555V12.6715C21.0633 12.7076 21.1788 12.7271 21.2987 12.7271C21.4189 12.7271 21.5344 12.7076 21.6424 12.6714V11.645Z" fill="white"/>
<path d="M2.99399 12.5033L2.99399 11.7321L3.42471 11.4772C3.31522 11.3656 3.16269 11.2963 2.99399 11.2963C2.66076 11.2963 2.39063 11.5665 2.39063 11.8998C2.39063 12.2331 2.66076 12.5033 2.99399 12.5033Z" fill="white"/>
<path d="M2.99399 11.7321L2.99399 12.5033C3.02303 12.5033 3.0516 12.5013 3.07954 12.4973V11.7809L3.4809 11.5434C3.46376 11.52 3.44497 11.4979 3.42471 11.4772L2.99399 11.7321Z" fill="white"/>
<path fill-rule="evenodd" clip-rule="evenodd" d="M35.651 29.1301V10.8704C35.651 10.2485 35.3192 9.67388 34.7805 9.36293L18.9703 0.233079C18.7058 0.0803844 18.4058 0 18.1003 0C17.7949 0 17.4949 0.0803844 17.2304 0.233079L1.42015 9.36243C1.15551 9.51514 0.935731 9.73486 0.782926 9.99948C0.630122 10.2641 0.549677 10.5643 0.549683 10.8699V29.1301C0.549683 29.752 0.881456 30.3266 1.42015 30.6376L17.2304 39.7669C17.4949 39.9196 17.7949 40 18.1003 40C18.4058 40 18.7058 39.9196 18.9703 39.7669L34.7805 30.6376C35.0452 30.4849 35.265 30.2651 35.4178 30.0005C35.5706 29.7359 35.651 29.4357 35.651 29.1301ZM18.4441 21.6817L23.451 18.5182V25.4599L18.4441 28.6237V21.6817ZM18.4441 29.4368L29.9909 22.1417V20.4988C30.42 20.3551 30.7292 19.9499 30.7292 19.4724C30.7292 18.8748 30.2448 18.3903 29.6473 18.3903C29.0498 18.3903 28.5654 18.8748 28.5654 19.4724C28.5654 19.9497 28.8743 20.3547 29.303 20.4986V21.7621L24.1385 25.0255V18.0839L25.6849 17.1069V15.464C26.1138 15.3203 26.423 14.9151 26.423 14.4376C26.423 13.84 25.9386 13.3555 25.3411 13.3555C24.7436 13.3555 24.2592 13.84 24.2592 14.4376C24.2592 14.9151 24.5684 15.3203 24.9974 15.464V16.7283L18.4441 20.8688V17.6702L21.6424 15.6495V12.6714C22.0714 12.5278 22.3806 12.1225 22.3806 11.645C22.3806 11.0474 21.8963 10.563 21.2987 10.563C20.7013 10.563 20.2169 11.0474 20.2169 11.645C20.2169 12.1227 20.5262 12.528 20.9555 12.6715V15.2704L18.4441 16.8571V8.79525C18.8731 8.65157 19.1822 8.24636 19.1822 7.76892C19.1822 7.1713 18.6979 6.68683 18.1004 6.68683C17.5029 6.68683 17.0185 7.1713 17.0185 7.76892C17.0185 8.24638 17.3277 8.65161 17.7567 8.79527V14.936L15.1552 13.2923V11.5077C15.5842 11.364 15.8934 10.9588 15.8934 10.4814C15.8934 9.88375 15.409 9.39928 14.8115 9.39928C14.214 9.39928 13.7296 9.88375 13.7296 10.4814C13.7296 10.9588 14.0388 11.3641 14.4678 11.5077V13.6709L17.7567 15.749V23.138L14.9905 21.6212V18.4116C15.4195 18.268 15.7287 17.8627 15.7287 17.3852C15.7287 16.7876 15.2444 16.3031 14.6469 16.3031C14.0494 16.3031 13.565 16.7876 13.565 17.3852C13.565 17.8626 13.8741 18.2678 14.3031 18.4115V21.2442L10.1627 18.9739V16.4211C10.5917 16.2774 10.9008 15.8722 10.9008 15.3948C10.9008 14.7971 10.4164 14.3127 9.81891 14.3127C9.22141 14.3127 8.73704 14.7971 8.73704 15.3948C8.73704 15.8722 9.04623 16.2775 9.47528 16.4211V19.3684L10.7287 20.0576V24.8777L6.97422 22.8301V21.5665C7.40324 21.4228 7.7124 21.0176 7.7124 20.5401C7.7124 19.9425 7.22803 19.458 6.63053 19.458C6.03303 19.458 5.54866 19.9425 5.54866 20.5401C5.54866 21.0176 5.8578 21.4228 6.2868 21.5665V23.2092L17.7567 29.4918V36.5485C17.6699 36.6088 17.5996 36.6913 17.5542 36.7878L3.55318 28.5876C3.58165 28.5175 3.59734 28.4409 3.59734 28.3606C3.59734 28.0563 3.37225 27.8047 3.07954 27.7631V12.4973C3.37225 12.4557 3.59735 12.2041 3.59735 11.8998C3.59735 11.7665 3.55411 11.6432 3.4809 11.5434L17.555 3.21503C17.652 3.41842 17.8595 3.55896 18.0999 3.55896C18.3444 3.55896 18.5549 3.41348 18.6497 3.20434L32.9374 11.3207C32.7394 11.4197 32.6034 11.6244 32.6034 11.8609C32.6034 12.1651 32.8285 12.4168 33.1212 12.4584V27.7242C32.8285 27.7658 32.6034 28.0174 32.6034 28.3217C32.6034 28.4141 32.6242 28.5017 32.6614 28.58L18.6466 36.7878C18.6012 36.6913 18.5309 36.6088 18.4441 36.5485V29.4368ZM2.99399 11.2963C3.16269 11.2963 3.31522 11.3656 3.42471 11.4772L17.5234 3.13423C17.5059 3.07775 17.4965 3.01771 17.4965 2.95548C17.4965 2.62218 17.7666 2.352 18.0999 2.352C18.4331 2.352 18.7032 2.62218 18.7032 2.95548C18.7032 3.0132 18.6951 3.06903 18.68 3.12189L33.0401 11.2807C33.0931 11.2655 33.149 11.2574 33.2068 11.2574C33.54 11.2574 33.8101 11.5276 33.8101 11.8609C33.8101 12.1942 33.54 12.4644 33.2068 12.4644L33.2068 27.7182C33.54 27.7182 33.8101 27.9884 33.8101 28.3217C33.8101 28.655 33.54 28.9252 33.2068 28.9252C32.9966 28.9252 32.8115 28.8177 32.7035 28.6546L18.6778 36.869C18.6947 36.9246 18.7038 36.9835 18.7038 37.0446C18.7038 37.3778 18.4336 37.648 18.1004 37.648C17.7672 37.648 17.497 37.3778 17.497 37.0446C17.497 36.9837 17.5061 36.9249 17.5228 36.8694L3.5152 28.6648C3.41053 28.8438 3.2163 28.9641 2.99398 28.9641C2.66075 28.9641 2.39062 28.6939 2.39062 28.3606C2.39062 28.0273 2.66075 27.7571 2.99398 27.7571L2.99399 12.5033C2.66076 12.5033 2.39063 12.2331 2.39063 11.8998C2.39063 11.5665 2.66076 11.2963 2.99399 11.2963ZM11.3445 25.2136L17.7567 28.7106V23.9215L11.3445 20.3961V25.2136Z" fill="#1D74F2"/>
<path d="M3.07954 11.7809V12.4973C3.37225 12.4557 3.59735 12.2041 3.59735 11.8998C3.59735 11.7665 3.55411 11.6432 3.4809 11.5434L3.07954 11.7809Z" fill="white"/>
</svg>
