<svg width="60" height="40" viewBox="0 0 60 40" fill="none" xmlns="http://www.w3.org/2000/svg">
<path fill-rule="evenodd" clip-rule="evenodd" d="M5.86017 30.2261C4.90853 30.2261 4.37624 31.0504 4.37624 32.2465C4.37624 33.6364 5.05375 34.4282 6.08598 34.4282C6.92476 34.4282 7.50533 33.6849 7.50533 32.5696C7.50533 30.9373 6.95699 30.2261 5.86017 30.2261ZM6.15061 35.9637C5.37624 35.9637 4.74731 35.5273 4.4086 34.9293V38H3.8763C3.26337 38 2.66663 37.5476 2.66663 36.8041V32.6021C2.66663 30.2909 3.69886 28.7069 6.13439 28.7069C7.97304 28.7069 9.27953 30.3879 9.27953 32.1333C9.27953 34.3474 8.16667 35.9637 6.15061 35.9637Z" fill="white"/>
<path fill-rule="evenodd" clip-rule="evenodd" d="M13.4087 30.2316C12.5685 30.2316 11.9869 30.9354 11.9547 31.7731L11.9384 32.0077H12.714C14.3459 32.0077 14.7174 31.8234 14.7174 31.3207C14.7174 30.5834 14.2166 30.2316 13.4087 30.2316ZM13.0855 33.2643H11.9547C12.0839 34.1691 12.8756 34.7387 13.8934 34.7387C14.6204 34.7387 15.4606 34.5881 16.0099 34.0519H16.0746V34.6047C16.0746 35.5263 15.4767 36.2299 13.5704 36.2299C11.8415 36.2299 10.1613 34.8225 10.1613 32.6108C10.1613 30.215 11.583 28.7069 13.5542 28.7069C14.9921 28.7069 16.3331 29.7792 16.3331 31.4882C16.3493 32.8454 15.3798 33.2643 13.0855 33.2643Z" fill="white"/>
<path fill-rule="evenodd" clip-rule="evenodd" d="M20.9034 30.2316C20.0632 30.2316 19.4817 30.9354 19.4494 31.7731L19.4332 32.0077H20.2087C21.8407 32.0077 22.2122 31.8234 22.2122 31.3207C22.2122 30.5834 21.6952 30.2316 20.9034 30.2316ZM20.5802 33.2643H19.4494C19.5786 34.1691 20.3703 34.7387 21.3882 34.7387C22.1152 34.7387 22.9555 34.5881 23.5048 34.0519H23.5696V34.6047C23.5696 35.5263 22.9713 36.2299 21.0651 36.2299C19.3362 36.2299 17.6559 34.8225 17.6559 32.6108C17.6559 30.215 19.0777 28.7069 21.0489 28.7069C22.4868 28.7069 23.8279 29.7792 23.8279 31.4882C23.8279 32.8454 22.8748 33.2643 20.5802 33.2643Z" fill="white"/>
<path fill-rule="evenodd" clip-rule="evenodd" d="M28.5976 30.4689C28.3414 30.371 28.0531 30.2568 27.6056 30.2568C26.8377 30.2568 26.4215 30.681 26.4215 31.7578V35.7874H25.9577C25.1897 35.7874 24.7096 35.3958 24.7096 34.6616V31.4478C24.7096 30.0448 25.4296 28.7069 27.2534 28.7069C28.3093 28.7069 28.6774 29.3107 28.6774 29.8489V30.4689H28.5976Z" fill="white"/>
<path fill-rule="evenodd" clip-rule="evenodd" d="M34.0568 32.9576H33.4448C32.1408 32.9576 31.7709 33.278 31.7709 33.8684C31.7709 34.4251 32.2056 34.7624 32.9621 34.7624C33.7027 34.7624 34.0568 34.3913 34.0568 33.6492V32.9576ZM33.123 36.2299H32.769C31.1268 36.2299 30 35.2684 30 33.9358C30 32.6538 30.9015 31.6588 33.429 31.6588H34.0246V31.5576C34.0246 30.5287 33.5577 30.2249 32.5433 30.2249C31.304 30.2249 30.6119 30.7141 30.354 31.0515H30.2896V30.4779C30.2896 29.6682 30.9818 28.7069 32.8012 28.7069C34.3468 28.7069 35.7311 29.4659 35.7311 31.9624V33.6322C35.747 35.1672 34.6687 36.2299 33.123 36.2299Z" fill="white"/>
<path fill-rule="evenodd" clip-rule="evenodd" d="M42.3127 35.7713C41.5311 35.7713 41.0426 35.2896 41.0426 34.6474V31.9179C41.0426 30.762 40.5215 30.2482 39.6257 30.2482C38.8762 30.2482 38.3551 30.8101 38.3551 31.7895V35.7874H37.8341C37.1013 35.7874 36.6129 35.3057 36.6129 34.6635V31.661C36.6129 30.2 37.5898 28.7069 39.7721 28.7069C41.4169 28.7069 42.7849 29.7986 42.7849 31.7574V35.7713H42.3127Z" fill="white"/>
<path fill-rule="evenodd" clip-rule="evenodd" d="M49.7082 35.754C48.9733 35.754 48.5324 35.3358 48.5324 34.5498V31.6228C48.5324 30.452 47.9121 29.9837 47.1446 29.9837C46.6058 29.9837 45.8872 30.4019 45.8872 31.673V35.754H45.2996C44.4831 35.754 44.1075 35.2856 44.1075 34.5498V25.1667H44.6462C45.479 25.1667 45.8872 25.6519 45.8872 26.3209V29.3817C46.1487 28.9635 46.7527 28.4283 47.4056 28.4283C49.2184 28.4283 50.2795 29.5321 50.2795 31.5726V35.7874H49.7082V35.754Z" fill="white"/>
<path fill-rule="evenodd" clip-rule="evenodd" d="M55.0474 32.9576C53.7434 32.9576 53.373 33.278 53.373 33.8684C53.373 34.4251 53.8077 34.7624 54.5643 34.7624C55.3049 34.7624 55.6752 34.3913 55.6752 33.6492V32.9576H55.0474ZM54.7252 36.2299H54.3712C52.729 36.2299 51.6021 35.2684 51.6021 33.9358C51.6021 32.6538 52.5037 31.6588 55.0311 31.6588H55.6267V31.5576C55.6267 30.5287 55.1599 30.2249 54.1459 30.2249C52.9062 30.2249 52.214 30.7141 51.9561 31.0515H51.8918V30.4779C51.8918 29.6682 52.5839 28.7069 54.4033 28.7069C55.949 28.7069 57.3333 29.4659 57.3333 31.9624V33.6322C57.3333 35.1672 56.2545 36.2299 54.7252 36.2299Z" fill="white"/>
<path fill-rule="evenodd" clip-rule="evenodd" d="M27.7963 19.5528C27.926 19.1668 28.0296 18.7809 28.0556 18.3707C28.6 18.3949 29.2741 18.3949 30 18.3949C30 18.8049 30 19.2151 29.9481 19.601C29.5852 22.2304 25.7482 23.8707 25.7482 23.8707C26.2667 23.2918 26.5519 22.5681 26.5778 21.8444C27.0444 21.0966 27.4593 20.3488 27.7963 19.5528Z" fill="#576FED"/>
<path fill-rule="evenodd" clip-rule="evenodd" d="M19.8116 25.093C19.8116 25.093 21.1292 23.2748 21.5196 21.9971C22.52 21.2354 24.594 18.5573 24.594 18.5573C24.594 18.5573 22.4956 18.3607 21.91 16.6899C21.5196 15.6334 21.5196 13.7169 21.5196 13.7169C20.7632 14.4786 19.9824 15.1665 19.1284 15.7808C18.006 16.5179 16.0296 17.1568 16.0296 17.1568C16.0296 17.1568 16.8104 15.0191 17.396 14.0609C17.9816 13.1026 18.7624 11.997 18.7624 11.997L17.7376 6.10006C17.7376 6.10006 19.6408 6.51775 20.4704 7.47598C21.1048 8.23767 21.666 9.04849 22.1784 9.88388C22.1784 9.88388 22.032 7.13198 23.5449 4.92068C24.4232 3.61842 25.9849 2.95502 27.522 3.22529C27.9368 3.37272 28.376 3.49557 28.8153 3.56928C29.2545 3.643 29.8401 3.22529 29.2788 2.1442C30.3037 2.41447 31.2553 3.54471 31.2553 3.54471C31.2553 3.54471 31.9385 3.17616 31.1821 1.45623C32.9389 1.60364 33.8417 4.47841 33.8417 4.47841C33.8417 3.42186 33.8905 2.3899 34.0125 1.33337C34.9641 2.19334 35.5253 3.42186 35.5497 4.69951C35.5497 4.69951 37.3309 4.72408 38.1117 6.27203C38.8925 7.81997 37.5993 13.3483 37.5993 13.3483L38.3801 13.9872L39.6733 11.8249L40.9909 13.6186L41.8284 10.921C41.8284 10.921 42.6501 11.7758 43.4065 12.6358C43.8945 13.2501 44.2605 13.938 44.4313 14.6997C44.4313 14.6997 43.6017 16.7144 38.9413 17.7956C34.2809 18.8767 26.2532 18.4836 26.2532 18.4836C26.2532 18.4836 26.7656 20.7441 24.5452 22.9799C23.3496 24.3313 21.6172 25.0684 19.8116 25.093Z" fill="#7699FF"/>
<path fill-rule="evenodd" clip-rule="evenodd" d="M41.1619 13.8876C39.5339 14.1379 37.8566 14.1607 36.204 13.9786L37.4126 12.1123L38.4486 13.5917L39.6733 11.8249L40.9646 13.5462L41.8284 10.921L43.4065 12.6358C43.5792 12.7951 43.7518 13.4551 41.1619 13.8876Z" fill="#F76F60"/>
<path d="M19.6741 13.7391C20.8217 13.7391 21.7519 12.8031 21.7519 11.6485C21.7519 10.494 20.8217 9.55799 19.6741 9.55799C18.5265 9.55799 17.5962 10.494 17.5962 11.6485C17.5962 12.8031 18.5265 13.7391 19.6741 13.7391Z" fill="#DFE6FF"/>
<path d="M19.5612 12.9799C20.3793 12.9799 21.0426 12.3126 21.0426 11.4894C21.0426 10.6663 20.3793 9.99897 19.5612 9.99897C18.743 9.99897 18.0797 10.6663 18.0797 11.4894C18.0797 12.3126 18.743 12.9799 19.5612 12.9799Z" fill="white"/>
<path fill-rule="evenodd" clip-rule="evenodd" d="M30.3037 7.37074C32.4842 7.37074 34.2519 9.1492 34.2519 11.343C34.2519 13.5367 32.4842 15.3152 30.3037 15.3152C28.1232 15.3152 26.3556 13.5367 26.3556 11.343C26.3556 9.1492 28.1232 7.37074 30.3037 7.37074Z" fill="#1D1D1B"/>
<path fill-rule="evenodd" clip-rule="evenodd" d="M32.0696 13.4819C32.5776 13.0078 32.9079 12.3679 33.0094 11.6806C33.238 10.377 32.2728 9.14455 30.8503 8.93128C30.6979 8.90756 30.5455 8.90756 30.3931 8.90756C28.7167 8.95499 27.2942 10.1163 27.0656 11.6806C27.0402 11.8228 27.0402 11.9413 27.0402 12.0835C26.964 11.7517 26.9386 11.3962 26.9894 11.0644C27.2434 9.33418 28.8183 8.03062 30.6979 7.9832C32.2728 7.93584 33.5937 9.1209 33.6445 10.5903C33.6445 10.7799 33.6445 10.9222 33.6191 11.0881C33.4667 12.0598 32.9332 12.913 32.0696 13.4819Z" fill="#60605F"/>
<path fill-rule="evenodd" clip-rule="evenodd" d="M31.6846 8.14209C32.4488 8.35023 33.3185 9.04409 32.9495 9.66858C32.686 10.1311 31.8691 9.36791 31.1049 9.18287C30.3406 8.99783 29.2075 8.99783 29.4183 8.51211C29.7609 7.81826 30.9204 7.93394 31.6846 8.14209Z" fill="white"/>
</svg>
