<svg width="95" height="40" viewBox="0 0 95 40" fill="none" xmlns="http://www.w3.org/2000/svg">
<g clip-path="url(#clip0_2328_5107)">
<path d="M29.516 16.3028H32.0088C33.1646 16.3028 33.6964 15.929 34.3596 15.3684L39.1951 11.0093C39.3024 10.8985 39.3612 10.7509 39.3612 10.5963C39.3612 10.2676 39.0948 10.0011 38.766 10.0011H29.1215C27.7984 10.0011 26.7256 11.0739 26.7256 12.3969H33.8866L29.5171 16.3028H29.516Z" fill="url(#paint0_linear_2328_5107)"/>
<path d="M12.0935 17.7783L8.2511 24.9591H8.83364C10.1637 24.9591 11.3887 24.2335 12.0266 23.065L13.081 21.1374L16.733 27.8326C17.2695 28.8164 18.3007 29.429 19.4219 29.429H20.3033L14.0511 17.7783C13.8573 17.4184 13.4824 17.1935 13.0729 17.1935C12.6634 17.1935 12.2873 17.4184 12.0947 17.7795L12.0935 17.7783Z" fill="white"/>
<path d="M3.41899 17.4772H0.627441L6.34667 27.8164C6.8969 28.8106 7.94431 29.4289 9.08171 29.4289H9.93879L3.41899 17.4772Z" fill="white"/>
<path d="M22.5677 17.4772H25.3593L22.3359 23.0488C21.6992 24.2207 20.4718 24.951 19.1383 24.951H18.5627L22.5677 17.4772Z" fill="white"/>
<path d="M46.0919 19.8731H53.5529V17.4772H48.4878C47.1647 17.4772 46.0919 18.55 46.0919 19.8731Z" fill="white"/>
<path d="M42.8918 17.4772V29.429H45.4481V20.0323C45.4481 18.6204 44.3038 17.4761 42.8918 17.4761V17.4772Z" fill="white"/>
<path d="M58.1992 29.5501H55.6429V12.3371C55.6429 11.0463 56.6892 10 57.98 10H58.1992V29.5501Z" fill="white"/>
<path d="M32.5387 17.3803H29.5279L29.7921 17.9478C30.2893 19.016 31.3609 19.6989 32.5387 19.6989C37.98 19.6989 37.9477 22.3463 37.9477 23.6555C37.9477 26.2729 36.1492 27.6064 32.5387 27.6064C28.9282 27.6064 27.8104 26.2545 27.3559 25.2013C27.1332 24.6879 26.6256 24.358 26.0662 24.358H24.5389C24.7569 26.7078 26.2115 29.9307 32.5387 29.9307C39.7875 29.9307 40.5707 25.9442 40.5707 23.6543C40.5707 21.2124 39.7875 17.3792 32.5387 17.3792V17.3803Z" fill="white"/>
<path d="M76.41 10C75.1193 10 74.073 11.0463 74.073 12.3371V25.1782C73.5608 26.2153 72.1293 27.6203 68.799 27.6203C65.1885 27.6203 63.3854 26.0479 63.3854 23.6555C63.3854 22.0083 63.8089 19.6655 68.799 19.6655C69.7161 19.6655 70.2467 19.752 70.6954 19.8097C71.6667 19.9354 73.0913 19.4475 73.2783 18.4866C73.2783 18.4866 71.3691 17.3792 68.799 17.3792C61.5502 17.3792 60.767 21.2135 60.767 23.6544C60.767 26.0953 61.4072 29.9308 68.799 29.9308C72.0958 29.9308 73.1052 29.3828 74.073 28.6342V29.549H76.6293V10H76.41Z" fill="white"/>
<path d="M86.9442 29.9319C84.8299 29.9319 78.9999 29.9319 78.9999 25.4549H80.3691C80.819 25.4549 81.2873 25.6788 81.4765 26.1171C81.841 26.9603 83.2483 27.5867 86.9442 27.5867C90.8571 27.5867 92.0567 27.1946 92.0567 26.1264C92.0567 25.5669 91.27 24.9024 86.5532 24.6152C82.7673 24.3844 79.1913 24.2069 79.1913 21.1396C79.1913 17.3075 84.3489 17.3802 86.9939 17.3802C90.3726 17.3802 94.4814 17.8359 94.4814 21.3865H92.9196C92.5504 21.3865 92.1305 21.2538 91.9632 20.9043C91.6299 20.2052 90.4533 19.6827 86.9927 19.6827C82.8019 19.6827 82.0232 20.2202 82.0232 21.0069C82.0232 21.7936 83.0914 22.0601 87.0262 22.375C88.8418 22.5204 94.8598 22.57 94.8598 26.1264C94.8598 30.0115 89.023 29.9319 86.9419 29.9319H86.9442Z" fill="white"/>
</g>
<defs>
<linearGradient id="paint0_linear_2328_5107" x1="39.3708" y1="10.0011" x2="29.8156" y2="17.3064" gradientUnits="userSpaceOnUse">
<stop stop-color="#38FDEE"/>
<stop offset="0.390625" stop-color="#00C2FF"/>
<stop offset="1" stop-color="#D663FF"/>
</linearGradient>
<clipPath id="clip0_2328_5107">
<rect width="94.359" height="20" fill="white" transform="translate(0.627441 10)"/>
</clipPath>
</defs>
</svg>
