<svg width="372" height="200" viewBox="0 0 372 200" fill="none" xmlns="http://www.w3.org/2000/svg">
<path d="M108.342 94.0048C103.558 89.2235 96.9773 86.1879 89.9159 85.4914C89.8475 85.4849 89.7822 85.4787 89.72 85.4727L89.7053 85.4713C88.6173 85.3676 88.4617 85.3528 88.3402 85.4102C88.32 85.4198 88.3005 85.4315 88.278 85.4449C88.274 85.4474 88.2691 85.4503 88.2648 85.4528L88.2579 85.457C88.1205 85.5343 88.1033 85.6891 88.1033 86.6781C88.1033 87.3058 88.1291 87.8906 88.1549 87.9852C88.1892 88.1142 88.3696 88.226 88.7992 88.3636C91.1787 89.1805 92.5016 91.6915 91.7457 93.9532C91.3505 95.1485 90.0705 96.3696 88.8421 96.7307L88.2321 96.9113L88.2579 99.0698C88.2665 100.257 88.2923 101.271 88.3095 101.323C88.3353 101.383 88.9194 101.435 89.9675 101.478C99.5973 101.839 109.262 103.627 115.017 106.121C115.713 106.422 116.297 106.646 116.314 106.611C116.383 106.491 115.464 104.238 114.82 102.948C113.188 99.6804 110.997 96.6533 108.342 94.0048Z" fill="white"/>
<path d="M86.7374 87.9766C86.7646 87.9239 86.8233 85.6891 86.7374 85.543C86.6257 85.371 86.0502 85.3624 84.753 85.5C79.7276 86.0245 75.0114 87.71 70.7935 90.479C66.4982 93.2996 62.581 97.8573 60.0554 102.948C59.4541 104.169 58.5521 106.353 58.5521 106.603C58.5521 106.637 59.119 106.422 59.8149 106.121C65.5705 103.627 75.2348 101.839 84.8647 101.478C85.9128 101.435 86.4969 101.383 86.557 101.314C86.6 101.263 86.6429 100.317 86.6429 99.0784L86.6515 96.9371L85.9814 96.7222C84.7015 96.3008 83.6191 95.2775 83.1896 94.0735C82.9662 93.463 82.8475 92.6098 83.0349 91.7001C83.2168 90.8175 83.6277 90.1351 84.0658 89.6362C84.5211 89.1203 85.2255 88.6646 86.0244 88.3721C86.1267 88.3351 86.2136 88.3096 86.2886 88.2876C86.5097 88.2227 86.6282 88.1879 86.7374 87.9766Z" fill="white"/>
<path d="M90.4371 92.3741C90.4371 93.977 89.0424 95.2764 87.4411 95.2764C85.8399 95.2764 84.3808 93.977 84.3808 92.3741C84.3808 90.7712 85.8399 89.3428 87.4411 89.3428C89.0424 89.3428 90.4371 90.7712 90.4371 92.3741Z" fill="white"/>
<path d="M69.5651 56.0041C68.9122 55.084 67.7181 53.8801 67.2198 53.6479C66.4639 53.2867 66.0601 53.4415 65.6564 54.2584C65.3643 54.869 65.1238 55.7633 64.9348 56.9844C64.7286 58.3259 64.7372 62.5998 64.9434 64.9389C65.476 70.8381 66.7216 77.5799 68.5772 84.5024C69.0411 86.2395 69.8657 89.0687 69.9344 89.1289C69.9516 89.1461 70.9567 88.5957 72.168 87.8992C73.3707 87.2112 74.685 86.4889 75.0716 86.3083C75.9821 85.8955 77.6573 85.2936 78.482 85.0958C78.8342 85.0098 79.2809 84.8894 79.4698 84.812C79.6589 84.7432 79.8823 84.683 79.9681 84.6744C80.1743 84.6744 80.1571 84.5369 79.8135 83.0233C77.2536 71.9301 73.1129 60.9917 69.5651 56.0041Z" fill="white"/>
<path d="M109.983 57.0704C109.708 55.2732 109.287 54.095 108.781 53.6651C108.257 53.2265 107.552 53.4931 106.53 54.5336C104.958 56.1245 103.128 59.2805 101.264 63.6059C98.996 68.8946 96.5821 76.4706 95.1045 82.9545C94.9413 83.6855 94.7867 84.3734 94.7609 84.4766C94.7266 84.6228 94.7523 84.6744 94.864 84.6744C94.9499 84.683 95.1733 84.7432 95.3622 84.812C95.5512 84.8894 95.998 85.0098 96.3502 85.0958C97.1749 85.2936 98.85 85.8955 99.7606 86.3083C100.147 86.4889 101.453 87.2026 102.656 87.8906C103.85 88.5785 104.863 89.1461 104.906 89.1461C104.992 89.1461 105.757 86.6265 106.392 84.2444C108.205 77.4424 109.451 70.6833 109.975 64.8529C110.181 62.5224 110.189 58.4119 109.983 57.0704Z" fill="white"/>
<path fill-rule="evenodd" clip-rule="evenodd" d="M107.157 105.227C102.57 104.135 96.6852 103.352 91.11 103.086C88.2236 102.939 87.124 102.931 85.3114 103C78.6194 103.258 72.1594 104.109 66.8676 105.416L65.3986 105.777L65.0636 106.5C64.3592 108.03 63.7149 110.223 63.4142 112.149C62.7786 116.191 63.0534 120.757 64.1445 124.103C64.5224 125.255 65.5275 127.371 65.7594 127.49C65.9828 127.611 68.0961 128.067 69.5908 128.316C71.2745 128.591 73.8689 128.918 75.6901 129.082C79.4097 129.409 80.2001 129.434 87.4161 129.434C94.6321 129.434 95.4224 129.409 99.1421 129.082C103.042 128.738 108.523 127.843 109.124 127.456C109.391 127.276 110.387 125.212 110.774 124.017C111.487 121.832 111.822 119.441 111.822 116.621C111.822 114.256 111.641 112.554 111.16 110.473C110.885 109.269 110.25 107.42 109.811 106.517C109.772 106.437 109.74 106.366 109.711 106.303C109.637 106.143 109.586 106.031 109.508 105.943C109.321 105.731 108.984 105.652 107.84 105.387C107.638 105.34 107.412 105.287 107.157 105.227ZM103.87 115.85C103.87 118.522 101.707 120.688 99.0383 120.688C96.3696 120.688 94.2061 118.522 94.2061 115.85C94.2061 113.179 96.3696 111.013 99.0383 111.013C101.707 111.013 103.87 113.179 103.87 115.85ZM75.844 120.688C78.5127 120.688 80.6761 118.522 80.6761 115.85C80.6761 113.179 78.5127 111.013 75.844 111.013C73.1753 111.013 71.0119 113.179 71.0119 115.85C71.0119 118.522 73.1753 120.688 75.844 120.688Z" fill="white"/>
<path d="M75.3035 130.595C70.3296 130.139 66.2577 129.374 62.8473 128.248C61.825 127.912 60.8543 127.525 60.1241 127.155C59.497 126.837 58.9816 126.588 58.9816 126.613C58.9816 126.751 59.8492 128.72 60.3561 129.735C64.4623 137.93 72.5545 144.036 81.5745 145.73C83.9971 146.186 86.3508 146.401 86.5656 146.186C86.6257 146.126 86.6687 143.477 86.703 138.575L86.7546 131.051L83.37 130.999C79.7791 130.939 78.3961 130.87 75.3035 130.595Z" fill="white"/>
<path d="M113.376 131.79C114.184 130.509 115.138 128.574 115.765 126.975C115.859 126.742 115.902 126.562 115.868 126.562C115.833 126.571 115.301 126.837 114.691 127.155C111.615 128.738 106.057 130.002 99.5287 130.595C96.4447 130.87 95.0616 130.939 91.5223 130.999L88.1892 131.051L88.1978 136.305C88.2064 139.194 88.2321 142.617 88.2665 143.916L88.3181 146.272L89.0912 146.255C90.8265 146.22 93.8675 145.696 96.0065 145.059C103.274 142.901 109.33 138.266 113.376 131.79Z" fill="white"/>
<path d="M116.624 122.907C116.22 122.245 114.914 121.153 113.943 120.654C113.626 120.491 113.325 120.362 113.273 120.362C113.162 120.362 113.136 120.431 113.016 121.265C112.792 122.761 112.148 124.962 111.547 126.287C111.409 126.588 111.315 126.855 111.332 126.871C111.349 126.889 111.744 126.768 112.208 126.588C114.682 125.668 116.168 124.653 116.624 123.578C116.72 123.357 116.762 123.259 116.751 123.168C116.742 123.096 116.7 123.029 116.624 122.907Z" fill="white"/>
<path d="M116.976 108.899C116.847 108.563 114.983 107.661 112.638 106.809C111.65 106.448 111.469 106.396 111.469 106.465C111.469 106.482 111.59 106.775 111.736 107.127C112.079 107.97 112.612 109.802 112.81 110.842L112.973 111.694L113.265 111.642C113.969 111.53 115.412 110.679 116.46 109.767C117.019 109.286 117.079 109.174 116.976 108.899Z" fill="white"/>
<path d="M62.1171 110.688C62.3662 109.475 62.7872 108.048 63.148 107.136C63.4744 106.328 63.4658 106.319 62.6755 106.62C59.6517 107.755 58.0023 108.546 57.9078 108.899C57.8305 109.226 57.9164 109.372 58.4146 109.802C59.5056 110.748 61.0089 111.608 61.6189 111.625L61.9195 111.633L62.1171 110.688Z" fill="white"/>
<path d="M61.8594 121.093C61.825 120.852 61.7821 120.594 61.7563 120.508C61.7391 120.431 61.6532 120.362 61.5759 120.362C61.3526 120.37 60.2788 120.964 59.7032 121.411C59.0675 121.901 58.2256 122.795 58.1655 123.053C58.0882 123.337 58.406 123.991 58.8098 124.438C59.2307 124.894 60.2959 125.599 61.1636 125.994C62.0054 126.373 63.4572 126.915 63.5088 126.863C63.5345 126.846 63.3971 126.442 63.2081 125.977C62.5982 124.481 62.0312 122.426 61.8594 121.093Z" fill="white"/>
<path d="M142.005 102.45C143.781 102.45 145.373 102.934 146.783 103.901C148.193 104.868 149.236 106.136 149.913 107.703L146.866 109.037C146.456 108.07 145.812 107.286 144.935 106.686C144.069 106.086 143.093 105.785 142.005 105.785C140.551 105.785 139.308 106.302 138.276 107.336C137.254 108.359 136.744 109.599 136.744 111.055V116.274L142.121 116.258V119.593L136.744 119.609V126.38H133.414V110.972C133.447 109.393 133.847 107.964 134.613 106.686C135.379 105.396 136.405 104.368 137.693 103.601C138.991 102.834 140.429 102.45 142.005 102.45Z" fill="white"/>
<path d="M153.486 126.446V109.287H156.815V126.446H153.486ZM153.486 105.702V102.534H156.815V105.702H153.486Z" fill="white"/>
<path d="M163.701 117.808C163.701 119.265 164.212 120.51 165.233 121.544C166.265 122.567 167.508 123.078 168.962 123.078V126.413C167.375 126.413 165.932 126.029 164.634 125.262C163.335 124.484 162.297 123.445 161.52 122.144C160.755 120.832 160.372 119.387 160.372 117.808H163.701ZM163.701 102.467V117.808H160.372V102.467H163.701Z" fill="white"/>
<path d="M180.277 109.204C181.853 109.204 183.29 109.593 184.589 110.371C185.898 111.138 186.931 112.167 187.685 113.456C188.451 114.746 188.845 116.191 188.867 117.792V119.393H188.601V119.409H180.144V116.074H185.255C184.877 115.029 184.239 114.179 183.34 113.523C182.452 112.867 181.431 112.539 180.277 112.539C178.834 112.539 177.596 113.056 176.564 114.09C175.532 115.113 175.016 116.352 175.016 117.808C175.016 118.82 175.282 119.721 175.815 120.51C176.359 121.299 177.03 121.922 177.829 122.378C178.64 122.822 179.472 123.056 180.327 123.078L180.243 126.413C178.09 126.335 176.159 125.535 174.45 124.012C172.607 122.244 171.686 120.176 171.686 117.808C171.686 116.23 172.075 114.79 172.851 113.49C173.628 112.178 174.666 111.138 175.965 110.371C177.263 109.593 178.701 109.204 180.277 109.204Z" fill="white"/>
<path d="M227.013 117.808V109.287H230.343V117.808C230.343 119.387 229.954 120.832 229.177 122.144C228.4 123.445 227.363 124.484 226.064 125.262C224.765 126.029 223.328 126.413 221.752 126.413C220.165 126.413 218.722 126.029 217.423 125.262C216.125 124.484 215.087 123.445 214.31 122.144C213.544 120.832 213.161 119.387 213.161 117.808V109.287H216.491V117.808C216.491 119.265 217.002 120.51 218.023 121.544C219.055 122.567 220.298 123.078 221.752 123.078C223.195 123.078 224.432 122.567 225.465 121.544C226.497 120.51 227.013 119.265 227.013 117.808Z" fill="white"/>
<path d="M242.49 109.287C244.077 109.287 245.52 109.676 246.818 110.455C248.117 111.233 249.149 112.272 249.915 113.573C250.692 114.874 251.08 116.313 251.08 117.892V126.413H247.75V117.892C247.75 116.447 247.234 115.207 246.202 114.173C245.181 113.139 243.943 112.622 242.49 112.622C241.047 112.622 239.809 113.139 238.777 114.173C237.745 115.207 237.229 116.447 237.229 117.892V126.413H233.899V117.892C233.899 116.313 234.287 114.874 235.064 113.573C235.841 112.272 236.879 111.233 238.177 110.455C239.476 109.676 240.913 109.287 242.49 109.287Z" fill="white"/>
<path d="M263.227 109.287C264.814 109.287 266.257 109.676 267.556 110.455C268.854 111.233 269.887 112.272 270.652 113.573C271.429 114.874 271.818 116.313 271.818 117.892V126.413H268.488V117.892C268.488 116.447 267.972 115.207 266.94 114.173C265.919 113.139 264.681 112.622 263.227 112.622C261.784 112.622 260.547 113.139 259.514 114.173C258.482 115.207 257.966 116.447 257.966 117.892V126.413H254.636V117.892C254.636 116.313 255.025 114.874 255.802 113.573C256.579 112.272 257.617 111.233 258.915 110.455C260.214 109.676 261.651 109.287 263.227 109.287Z" fill="white"/>
<path d="M275.374 126.446V109.287H278.704V126.446H275.374ZM275.374 105.702V102.534H278.704V105.702H275.374Z" fill="white"/>
<path d="M290.851 109.204C292.427 109.204 293.864 109.593 295.163 110.371C296.472 111.138 297.504 112.167 298.259 113.456C299.025 114.746 299.419 116.191 299.441 117.792V119.393H299.175V119.409H290.717V116.074H295.828C295.451 115.029 294.813 114.179 293.914 113.523C293.026 112.867 292.005 112.539 290.851 112.539C289.408 112.539 288.17 113.056 287.138 114.09C286.106 115.113 285.59 116.352 285.59 117.808C285.59 118.82 285.856 119.721 286.389 120.51C286.933 121.299 287.604 121.922 288.403 122.378C289.213 122.822 290.046 123.056 290.9 123.078L290.817 126.413C288.664 126.335 286.733 125.535 285.024 124.012C283.181 122.244 282.26 120.176 282.26 117.808C282.26 116.23 282.648 114.79 283.425 113.49C284.202 112.178 285.24 111.138 286.539 110.371C287.837 109.593 289.274 109.204 290.851 109.204Z" fill="white"/>
<path d="M313.819 116.574C315.273 117.753 316 119.137 316 120.727C316 121.772 315.706 122.722 315.118 123.578C314.54 124.434 313.758 125.118 312.77 125.629C311.782 126.141 310.689 126.396 309.49 126.396C308.303 126.396 307.215 126.141 306.227 125.629C305.239 125.118 304.451 124.434 303.863 123.578C303.286 122.722 302.997 121.772 302.997 120.727H306.261C306.261 121.438 306.577 122.05 307.21 122.561C307.842 123.061 308.602 123.311 309.49 123.311C310.389 123.311 311.155 123.061 311.788 122.561C312.421 122.05 312.737 121.438 312.737 120.727C312.737 120.238 312.57 119.804 312.237 119.426C311.904 119.037 311.488 118.731 310.989 118.509C310.5 118.287 309.99 118.17 309.457 118.159C308.303 118.07 307.271 117.686 306.36 117.008C305.228 116.085 304.662 114.99 304.662 113.723C304.662 112.5 305.156 111.455 306.144 110.588C307.132 109.71 308.319 109.271 309.707 109.271C311.105 109.271 312.298 109.71 313.286 110.588C314.274 111.455 314.768 112.5 314.768 113.723H311.488C311.488 113.356 311.311 113.039 310.955 112.772C310.611 112.506 310.195 112.372 309.707 112.372C309.23 112.372 308.813 112.506 308.458 112.772C308.103 113.039 307.925 113.356 307.925 113.723C307.925 113.99 308.025 114.223 308.225 114.423C308.425 114.623 308.664 114.779 308.941 114.89C309.218 115.001 309.485 115.063 309.74 115.074C311.261 115.174 312.62 115.674 313.819 116.574Z" fill="white"/>
<path d="M206.943 111.566C208.785 113.336 209.707 115.413 209.707 117.795C209.707 119.376 209.321 120.818 208.548 122.121C207.787 123.423 206.76 124.464 205.469 125.244C204.178 126.023 202.743 126.413 201.165 126.413C199.609 126.413 198.186 126.028 196.894 125.26C195.603 124.481 194.577 123.451 193.815 122.171C193.054 120.89 192.657 119.454 192.624 117.862V102.431H195.934C197.159 102.476 198.263 102.799 199.245 103.4C200.238 103.99 201.027 104.786 201.612 105.788C202.208 106.779 202.506 107.87 202.506 109.061C202.506 109.15 202.506 109.234 202.506 109.312C204.15 109.635 205.629 110.386 206.943 111.566ZM199.195 109.061C199.195 108.182 198.881 107.43 198.252 106.807C197.634 106.183 196.861 105.838 195.934 105.771V112.368C196.861 112.301 197.634 111.956 198.252 111.332C198.881 110.709 199.195 109.952 199.195 109.061ZM201.165 123.073C202.611 123.073 203.841 122.555 204.857 121.519C205.883 120.484 206.396 119.243 206.396 117.795C206.396 116.827 206.153 115.964 205.668 115.207C205.193 114.45 204.586 113.843 203.847 113.387C203.108 112.919 202.33 112.635 201.513 112.535C200.917 113.481 200.133 114.238 199.162 114.806C198.202 115.363 197.126 115.663 195.934 115.708V117.795C195.934 119.243 196.447 120.484 197.474 121.519C198.5 122.555 199.731 123.073 201.165 123.073Z" fill="white"/>
</svg>
