<svg width="372" height="200" viewBox="0 0 372 200" fill="none" xmlns="http://www.w3.org/2000/svg">
<path fill-rule="evenodd" clip-rule="evenodd" d="M215.143 84C215.143 79.5817 211.665 76 207.375 76L170.903 76L156.857 90.4L156.884 100L156.884 116C156.884 120.418 160.362 124 164.652 124H207.375C211.665 124 215.143 120.418 215.143 116V84ZM164.652 94H174.414V84.0355L180.188 84L207.375 84V116H164.652L164.652 94Z" fill="#0090FF"/>
<path d="M192.229 100C192.229 97.6436 194.093 95.7333 196.391 95.7333H208.354C210.653 95.7333 212.516 97.6436 212.516 100C212.516 102.356 210.653 104.267 208.354 104.267H196.391C194.093 104.267 192.229 102.356 192.229 100Z" fill="#0090FF"/>
</svg>
