<svg width="33" height="32" viewBox="0 0 33 32" fill="none" xmlns="http://www.w3.org/2000/svg">
<path fill-rule="evenodd" clip-rule="evenodd" d="M0.599609 32L31.3491 6.39452C31.7258 6.06612 32.031 5.66385 32.2457 5.21264C32.4605 4.76141 32.5803 4.2709 32.5976 3.77149C32.6149 3.27207 32.5295 2.77442 32.3465 2.30939C32.1635 1.84436 31.8871 1.42189 31.5341 1.06816C31.1803 0.714446 30.7574 0.437268 30.2919 0.253891C29.8264 0.0705112 29.3281 -0.0151518 28.8282 0.00219377C28.3282 0.0195393 27.837 0.139526 27.3853 0.35472C26.9337 0.569915 26.531 0.875706 26.2026 1.25308L0.599609 32ZM15.4321 4.72507L2.48619 14.4337L12.1956 1.48886C12.3942 1.22419 12.6473 1.00525 12.9378 0.846804C13.2283 0.688357 13.5495 0.594108 13.8796 0.57044C14.2096 0.546773 14.5409 0.594232 14.8511 0.709609C15.1611 0.824987 15.4429 1.0056 15.6772 1.23923C15.9119 1.47325 16.0936 1.755 16.2097 2.06538C16.326 2.37575 16.3742 2.70751 16.3508 3.03813C16.3276 3.36873 16.2336 3.69047 16.075 3.98155C15.9166 4.27262 15.6972 4.52618 15.4321 4.72507ZM31.1074 20.4035L18.1615 30.1121L27.8709 17.1672C28.0696 16.9025 28.3226 16.6835 28.6132 16.5251C28.9037 16.3667 29.2248 16.2724 29.5549 16.2488C29.8848 16.225 30.2161 16.2725 30.5262 16.388C30.8363 16.5034 31.1182 16.6839 31.3526 16.9176C31.5873 17.1516 31.7689 17.4334 31.8851 17.7438C32.0014 18.0541 32.0494 18.3859 32.0262 18.7165C32.003 19.0471 31.9088 19.3688 31.7502 19.6599C31.5918 19.951 31.3726 20.2045 31.1074 20.4035Z" fill="#232528"/>
</svg>
