<svg width="72" height="16" viewBox="0 0 72 16" fill="none" xmlns="http://www.w3.org/2000/svg">
<path fill-rule="evenodd" clip-rule="evenodd" d="M45.3009 8.06806L51.4929 15.7979C51.5427 15.8589 51.6056 15.9077 51.677 15.9406C51.7482 15.9735 51.826 15.9897 51.9046 15.9879H55.3716C55.4579 15.997 55.5447 15.9809 55.6219 15.9414C55.6991 15.9019 55.7632 15.8407 55.8066 15.7654C55.8497 15.69 55.8703 15.6037 55.8657 15.5169C55.861 15.43 55.8313 15.3464 55.7802 15.2762L50.0147 8.06806C49.8735 7.89258 49.8001 7.67189 49.8078 7.44646C49.8155 7.22099 49.904 7.0059 50.0568 6.84058L55.6722 0.739332C55.7313 0.671153 55.7684 0.586579 55.7786 0.496789C55.7887 0.407001 55.7714 0.316229 55.7291 0.236476C55.6868 0.156722 55.6214 0.0917429 55.5414 0.050133C55.4614 0.00852297 55.3707 -0.00775758 55.2814 0.00344146H51.8834C51.8106 0.00235066 51.738 0.0165348 51.6707 0.0450938C51.6037 0.0736527 51.5429 0.115961 51.4929 0.169319L45.343 6.83757C45.1904 7.00367 45.1022 7.2192 45.0945 7.44499C45.0868 7.67076 45.1599 7.89183 45.3009 8.06806ZM19.8833 0.00345285H17.6901C17.3001 0.00345285 16.984 0.32077 16.984 0.712199V15.2792C16.984 15.6706 17.3001 15.9879 17.6901 15.9879H19.8833C20.2732 15.9879 20.5893 15.6706 20.5893 15.2792V0.712199C20.5893 0.32077 20.2732 0.00345285 19.8833 0.00345285ZM71.9651 8.57479V7.17239C71.9651 6.7693 71.6394 6.44251 71.2379 6.44251H62.1767C61.7752 6.44251 61.4495 6.7693 61.4495 7.17239V8.57479C61.4495 8.97788 61.7752 9.30464 62.1767 9.30464H71.2379C71.6394 9.30464 71.9651 8.97788 71.9651 8.57479ZM71.9651 13.8527V15.2551C71.9651 15.6582 71.6394 15.9849 71.2379 15.9849H62.1767C61.7752 15.9849 61.4495 15.6582 61.4495 15.2551V13.8527C61.4495 13.4496 61.7752 13.1228 62.1767 13.1228H71.2379C71.6394 13.1228 71.9651 13.4496 71.9651 13.8527ZM71.9621 2.13572V0.733305C71.9621 0.330215 71.6364 0.00345285 71.2349 0.00345285H62.1736C61.7721 0.00345285 61.4465 0.330215 61.4465 0.733305V2.13572C61.4465 2.53881 61.7721 2.86557 62.1736 2.86557H71.2349C71.6364 2.86557 71.9621 2.53881 71.9621 2.13572ZM34.2715 0.00345503C36.4949 0.00345503 39.4662 1.5627 39.5173 7.09393V7.12108V15.3847C39.5173 15.5447 39.4541 15.6982 39.3411 15.8113C39.2285 15.9244 39.0757 15.9879 38.9163 15.9879H36.5128C36.3534 15.9879 36.2006 15.9244 36.0879 15.8113C35.9753 15.6982 35.9121 15.5447 35.9121 15.3847V7.84491C35.9121 3.62259 33.8449 3.62259 32.9076 3.62259H30.8045C30.6451 3.62259 30.4923 3.68612 30.3796 3.79926C30.2669 3.91236 30.2034 4.06579 30.2034 4.22577V15.3847C30.2034 15.5447 30.1402 15.6982 30.0276 15.8113C29.9149 15.9244 29.7621 15.9879 29.6027 15.9879H27.1991C27.0397 15.9879 26.8869 15.9244 26.7742 15.8113C26.6615 15.6982 26.5982 15.5447 26.5982 15.3847V2.08144C26.5978 1.80844 26.6511 1.53805 26.755 1.28576C26.8589 1.03347 27.0113 0.804232 27.2036 0.611194C27.3959 0.418157 27.6244 0.265111 27.8755 0.160824C28.127 0.056536 28.3963 0.00305795 28.6684 0.00345503H34.2715ZM3.34602 0.251673C3.1877 0.0927401 2.97297 0.00345285 2.74905 0.00345285H0.844244C0.620335 0.00345285 0.405599 0.0927401 0.247273 0.251673C0.0889464 0.410607 0 0.626166 0 0.850932V9.02414C0 13.0655 1.95288 16 6.94624 16H10.3022C10.5261 16 10.7408 15.9107 10.8992 15.7518C11.0575 15.5929 11.1464 15.3773 11.1464 15.1525V13.0142C11.1464 12.7895 11.0575 12.5739 10.8992 12.415C10.7408 12.256 10.5261 12.1667 10.3022 12.1667H7.14152C4.19419 12.1667 3.59329 10.9423 3.59329 8.99396V0.850932C3.59329 0.626166 3.50434 0.410607 3.34602 0.251673Z" fill="#333333"/>
</svg>
