<svg width="33" height="32" viewBox="0 0 33 32" fill="none" xmlns="http://www.w3.org/2000/svg">
<g clip-path="url(#clip0_3586_9576)">
<path fill-rule="evenodd" clip-rule="evenodd" d="M2.24855 3.52059L1.04245 3.45672L1.03699 4.67479L1.03638 4.92869C1.03602 5.12648 1.03554 5.46793 1.03506 6.0432C1.0341 7.19368 1.03314 9.28004 1.03314 13.0239V13.5048L2.4622 14.9461C1.89636 15.3051 1.32784 15.66 0.756721 16.0108L0.204668 16.3499L0.200195 24.3793L6.79181 31.0315L7.22454 31.06C15.3127 31.5928 23.6308 31.0016 31.4244 28.2899L32.2002 28.02V18.3714L30.5141 16.671C30.8014 16.385 31.088 16.0965 31.3726 15.8063L31.7051 15.4671V14.9899C31.7051 14.6607 31.7061 12.9361 31.7071 11.2931L31.7093 7.60896L24.92 0.761719L24.2442 0.990032C17.2274 3.36072 9.70153 3.91525 2.24855 3.52059ZM24.6099 2.09093L30.5578 8.08957C30.5578 8.08957 30.5539 14.3304 30.5539 14.9899C30.2712 15.2783 29.9861 15.5652 29.7001 15.85C29.4261 16.1227 29.1513 16.3934 28.8767 16.6615L31.049 18.8523V27.1923C23.4428 29.8389 15.2879 30.4277 7.29959 29.9014L1.35167 23.8989L1.35551 17.0024C2.00594 16.6029 2.65309 16.1981 3.29686 15.7879C3.62908 15.5762 3.9604 15.363 4.29079 15.1483L2.18435 13.0239C2.18435 9.05006 2.18543 6.94404 2.18645 5.84256C2.18735 4.86861 2.18819 4.68004 2.18819 4.68004C2.57154 4.70031 2.95525 4.71814 3.33923 4.73338C10.5107 5.01802 17.7782 4.39908 24.6099 2.09093Z" fill="white"/>
<path fill-rule="evenodd" clip-rule="evenodd" d="M2.18808 4.67892C9.73108 5.07835 17.4123 4.52158 24.6098 2.08984L30.5577 8.08848C30.5577 8.08848 30.5539 14.3293 30.5539 14.9889C30.0003 15.5534 29.4378 16.1123 28.8766 16.6604L31.0489 18.8513V27.1913C23.4427 29.8378 15.2877 30.4266 7.29946 29.9003L1.35156 23.8978L1.35541 17.0014C2.3415 16.3957 3.32005 15.7778 4.29069 15.1473L2.18424 13.0228C2.18424 5.53538 2.18808 4.67892 2.18808 4.67892Z" fill="#0D0D0D"/>
<path d="M28.2511 11.125V14.4687C24.5404 18.0369 20.8297 21.1485 17.1228 23.9233C20.9985 23.6641 24.8704 23.041 28.7499 21.9109C28.7499 23.1455 28.7499 24.3762 28.7499 25.6107C23.4006 27.1742 18.0552 27.7664 12.7098 27.7664C11.6737 27.7664 10.6376 27.7432 9.60156 27.7006V24.3568C13.3123 21.9767 17.023 19.3489 20.7299 16.3419C18.0629 16.6863 15.3959 16.8334 12.729 16.8334C11.9615 16.8334 11.1979 16.8217 10.4304 16.7985C10.4304 15.564 10.4304 14.3332 10.4304 13.0987C11.1902 13.1219 11.9462 13.1335 12.706 13.1335C17.8864 13.1335 23.0668 12.5801 28.2473 11.1211L28.2511 11.125Z" fill="white"/>
</g>
<defs>
<clipPath id="clip0_3586_9576">
<rect width="32" height="32" fill="white" transform="translate(0.200195)"/>
</clipPath>
</defs>
</svg>
