<svg width="20" height="20" viewBox="0 0 20 20" fill="none" xmlns="http://www.w3.org/2000/svg">
<path d="M10.2083 16.875C11.9764 16.875 13.6721 16.1726 14.9224 14.9224C16.1726 13.6721 16.875 11.9764 16.875 10.2083C16.875 8.44022 16.1726 6.74453 14.9224 5.49429C13.6721 4.24405 11.9764 3.54167 10.2083 3.54167C8.44022 3.54167 6.74453 4.24405 5.49429 5.49429C4.24405 6.74453 3.54167 8.44022 3.54167 10.2083C3.54167 11.9764 4.24405 13.6721 5.49429 14.9224C6.74453 16.1726 8.44022 16.875 10.2083 16.875V16.875ZM10.2083 18.5417C5.60583 18.5417 1.875 14.8108 1.875 10.2083C1.875 5.60583 5.60583 1.875 10.2083 1.875C14.8108 1.875 18.5417 5.60583 18.5417 10.2083C18.5417 14.8108 14.8108 18.5417 10.2083 18.5417Z" fill="white" fill-opacity="0.75" style="mix-blend-mode:screen"/>
<path d="M5.625 13.2901H5.87887C6.16095 13.2901 6.19746 13.2799 6.24392 13.1883C6.27046 13.1357 6.27378 13.1 6.26549 12.9083C6.26051 12.7861 6.23396 12.5315 6.20575 12.3397C6.09458 11.5727 6.07301 11.4148 6.04646 11.1654C6.0083 10.8209 6.0083 10.3202 6.0448 10.1539C6.09956 9.89938 6.20077 9.78568 6.37168 9.78568C6.73009 9.78737 7.06527 10.3084 7.48673 11.5252C7.7406 12.26 7.78706 12.3856 7.8385 12.484C7.91482 12.6282 7.93805 12.6198 7.94469 12.445C7.94967 12.277 7.92976 12.1174 7.79867 11.2876C7.56305 9.80265 7.48175 9.01351 7.5083 8.49591C7.53982 7.86461 7.68086 7.58289 7.9646 7.58289C8.36615 7.58289 8.81416 8.25663 9.35343 9.66688C9.40487 9.79755 9.55586 10.2099 9.69027 10.5833C9.95741 11.3266 10.0636 11.593 10.1416 11.7152C10.2345 11.8646 10.281 11.7984 10.2644 11.5438C10.2428 11.2197 10.2163 11.0415 9.88274 9.03048C9.59403 7.2893 9.51438 6.39326 9.59237 5.74668C9.63883 5.36654 9.77157 5.1001 9.95575 5.01864C10.0285 5.00351 10.2106 4.98334 10.3573 5.02373C10.6759 5.15101 10.9712 5.59394 11.2882 6.41702C11.4923 6.9482 11.917 8.24305 12.3601 9.68385C12.5061 10.159 12.6521 10.6291 12.6853 10.7275C12.7633 10.9566 12.8595 11.1722 12.8827 11.1637C12.896 11.1586 12.8977 11.0534 12.8927 10.8192C12.8877 10.6342 12.8844 10.2184 12.8844 9.89598C12.8861 9.36141 12.8894 9.29183 12.9242 9.08988C13.0122 8.57907 13.1814 8.23287 13.4552 8.00037C13.7804 7.72545 14.1903 7.65417 14.62 7.80012L14.6964 7.82727L14.8473 8.43312C14.932 8.76574 15 9.04406 15 9.04915C15 9.05594 14.9535 9.04067 14.8971 9.01521C14.8059 8.97788 14.7694 8.97109 14.6184 8.97109C14.4607 8.97109 14.4358 8.97618 14.3579 9.01691C14.1289 9.14079 14.0243 9.31898 13.9513 9.70931C13.9215 9.87222 13.9181 9.99441 13.9049 11.1433C13.8949 12.1089 13.885 12.4534 13.865 12.6367C13.807 13.1611 13.7223 13.436 13.568 13.6074C13.4751 13.711 13.3938 13.7483 13.2561 13.7483C13.1665 13.7483 13.1283 13.7381 13.0404 13.694C12.6388 13.4887 12.2157 12.6927 11.7561 11.2791C11.5835 10.7479 11.4325 10.2269 11.1421 9.15776C10.8169 7.96304 10.719 7.65078 10.6477 7.59138C10.6244 7.57102 10.6195 7.57611 10.6095 7.63041C10.5863 7.76278 10.6278 8.13614 10.8186 9.44626C11.1438 11.6779 11.2168 12.4178 11.1687 12.9405C11.1123 13.5345 10.9629 13.7636 10.641 13.7449C10.4867 13.7364 10.3639 13.6736 10.2212 13.5294C10.0819 13.3885 9.99557 13.268 9.84624 13.0067C9.61726 12.6062 9.4281 12.1446 9.01659 10.9838C8.54535 9.6567 8.38606 9.28165 8.31305 9.32747C8.28153 9.34783 8.29978 9.55148 8.41261 10.3627C8.52544 11.1807 8.55199 11.3928 8.58684 11.7746C8.68805 12.91 8.58684 13.5667 8.28816 13.7144C8.1886 13.7636 8.01106 13.7568 7.89989 13.6974C7.79203 13.6414 7.66095 13.5073 7.56305 13.3529C7.39049 13.0746 7.25608 12.7352 6.91095 11.6949C6.69358 11.0381 6.60232 10.7903 6.55586 10.7275C6.526 10.6885 6.52268 10.6885 6.51106 10.7157C6.49613 10.7581 6.526 11.0093 6.61394 11.5761C6.76991 12.5773 6.81803 13.1374 6.76991 13.397C6.74336 13.5413 6.67699 13.6499 6.58407 13.7008C6.51604 13.7381 6.49447 13.7398 6.06803 13.7449L5.625 13.75V13.2901Z" fill="white" fill-opacity="0.75" style="mix-blend-mode:screen"/>
</svg>
