<svg width="20" height="20" viewBox="0 0 20 20" fill="none" xmlns="http://www.w3.org/2000/svg">
<path d="M9.99996 16.6666C11.7681 16.6666 13.4638 15.9642 14.714 14.714C15.9642 13.4638 16.6666 11.7681 16.6666 9.99996C16.6666 8.23185 15.9642 6.53616 14.714 5.28591C13.4638 4.03567 11.7681 3.33329 9.99996 3.33329C8.23185 3.33329 6.53616 4.03567 5.28591 5.28591C4.03567 6.53616 3.33329 8.23185 3.33329 9.99996C3.33329 11.7681 4.03567 13.4638 5.28591 14.714C6.53616 15.9642 8.23185 16.6666 9.99996 16.6666V16.6666ZM9.99996 18.3333C5.39746 18.3333 1.66663 14.6025 1.66663 9.99996C1.66663 5.39746 5.39746 1.66663 9.99996 1.66663C14.6025 1.66663 18.3333 5.39746 18.3333 9.99996C18.3333 14.6025 14.6025 18.3333 9.99996 18.3333Z" fill="white" fill-opacity="0.75" style="mix-blend-mode:screen"/>
<path fill-rule="evenodd" clip-rule="evenodd" d="M9.06237 8.89466H10.4164V9.56914C10.6115 9.18123 11.1117 8.83268 11.8631 8.83268C13.3036 8.83268 13.6455 9.60487 13.6455 11.0216V13.6455H12.1872V11.3443C12.1872 10.5375 11.9922 10.0825 11.4956 10.0825C10.8069 10.0825 10.5207 10.5728 10.5207 11.3439V13.6455H9.06237V8.89466V8.89466ZM6.56169 13.5836H8.02003V8.83268H6.56169V13.5836V13.5836ZM8.22893 7.28357C8.22899 7.4058 8.20475 7.52683 8.15762 7.63962C8.11049 7.7524 8.04141 7.85469 7.9544 7.94055C7.77809 8.11578 7.53944 8.21386 7.29086 8.21326C7.04272 8.21309 6.80462 8.11526 6.62805 7.94091C6.54135 7.85477 6.47251 7.75236 6.42547 7.63956C6.37842 7.52676 6.35409 7.40579 6.35388 7.28357C6.35388 7.03675 6.45232 6.8005 6.62841 6.62623C6.80483 6.45165 7.04303 6.35377 7.29123 6.35388C7.53987 6.35388 7.77831 6.45195 7.9544 6.62623C8.13013 6.8005 8.22893 7.03675 8.22893 7.28357Z" fill="white" fill-opacity="0.75" style="mix-blend-mode:screen"/>
</svg>
