<svg width="21" height="20" viewBox="0 0 21 20" fill="none" xmlns="http://www.w3.org/2000/svg">
<path d="M10.3332 16.6666C12.1013 16.6666 13.797 15.9642 15.0473 14.714C16.2975 13.4638 16.9999 11.7681 16.9999 9.99996C16.9999 8.23185 16.2975 6.53616 15.0473 5.28591C13.797 4.03567 12.1013 3.33329 10.3332 3.33329C8.5651 3.33329 6.86941 4.03567 5.61917 5.28591C4.36892 6.53616 3.66654 8.23185 3.66654 9.99996C3.66654 11.7681 4.36892 13.4638 5.61917 14.714C6.86941 15.9642 8.5651 16.6666 10.3332 16.6666ZM10.3332 18.3333C5.73071 18.3333 1.99988 14.6025 1.99988 9.99996C1.99988 5.39746 5.73071 1.66663 10.3332 1.66663C14.9357 1.66663 18.6665 5.39746 18.6665 9.99996C18.6665 14.6025 14.9357 18.3333 10.3332 18.3333Z" fill="white" fill-opacity="0.75" style="mix-blend-mode:screen"/>
<path d="M11.0373 10C11.0373 11.7577 9.62049 13.1826 7.87277 13.1826C6.12506 13.1826 4.70825 11.7577 4.70825 10C4.70825 8.2423 6.12506 6.81738 7.87277 6.81738C9.62049 6.81738 11.0373 8.2423 11.0373 10Z" fill="white" fill-opacity="0.75" style="mix-blend-mode:screen"/>
<path d="M14.552 10C14.552 11.6549 13.8454 12.9965 12.9737 12.9965C12.102 12.9965 11.3953 11.6549 11.3953 10C11.3953 8.34514 12.102 7.00358 12.9737 7.00358C13.8454 7.00358 14.552 8.34514 14.552 10Z" fill="white" fill-opacity="0.75" style="mix-blend-mode:screen"/>
<path d="M15.9583 9.99998C15.9583 11.475 15.7094 12.6707 15.4023 12.6707C15.0953 12.6707 14.8464 11.475 14.8464 9.99998C14.8464 8.52499 15.0953 7.32928 15.4023 7.32928C15.7094 7.32928 15.9583 8.52499 15.9583 9.99998Z" fill="white" fill-opacity="0.75" style="mix-blend-mode:screen"/>
</svg>
