<svg width="60" height="60" viewBox="0 0 60 60" fill="none" xmlns="http://www.w3.org/2000/svg">
<path d="M53.3333 0H6.66667C2.99 0 0 2.99 0 6.66667V53.3333C0 57.01 2.99 60 6.66667 60H53.3333C57.01 60 60 57.01 60 53.3333V6.66667C60 2.99 57.01 0 53.3333 0ZM6 56C4.89543 56 4 55.1046 4 54V6C4 4.89543 4.89543 4 6 4H54C55.1046 4 56 4.89543 56 6V54C56 55.1046 55.1046 56 54 56H6Z" fill="#0090FF"/>
<path d="M23.3333 36.6654L20 33.332L10 46.6654H50L33.3333 23.332L23.3333 36.6654Z" fill="#0090FF"/>
</svg>
