<svg width="32" height="24" viewBox="0 0 32 24" fill="none" xmlns="http://www.w3.org/2000/svg">
<path d="M27.09 1.9906C25.05 1.0706 22.8633 0.3906 20.5766 0.00393356C20.5563 2.41091e-05 20.5352 0.0025435 20.5163 0.0111433C20.4975 0.0197432 20.4817 0.033998 20.4713 0.0519336C20.1913 0.543934 19.8793 1.18527 19.6606 1.69193C17.2354 1.32958 14.7698 1.32958 12.3446 1.69193C12.1011 1.13041 11.8264 0.582899 11.522 0.0519336C11.5117 0.0337772 11.496 0.0191999 11.4772 0.0101471C11.4584 0.00109422 11.4373 -0.00200375 11.4166 0.00126676C9.13131 0.387933 6.94464 1.06793 4.90331 1.98927C4.88575 1.99663 4.87086 2.0092 4.86064 2.02527C0.711308 8.12527 -0.426026 14.0746 0.132641 19.9493C0.134195 19.9637 0.138662 19.9776 0.145767 19.9902C0.152873 20.0028 0.16247 20.0138 0.173974 20.0226C2.59583 21.7858 5.29709 23.129 8.16464 23.9959C8.18463 24.0021 8.20601 24.0021 8.22599 23.9959C8.24597 23.9897 8.26362 23.9776 8.27664 23.9613C8.8937 23.136 9.4405 22.2605 9.91131 21.3439C9.91784 21.3314 9.92161 21.3176 9.92235 21.3035C9.92309 21.2894 9.9208 21.2753 9.91561 21.2621C9.91043 21.249 9.90248 21.2371 9.89231 21.2273C9.88213 21.2175 9.86997 21.21 9.85664 21.2053C8.99531 20.8809 8.16075 20.4895 7.36064 20.0346C7.34626 20.0264 7.33415 20.0147 7.32538 20.0007C7.31662 19.9867 7.31148 19.9707 7.31042 19.9541C7.30936 19.9376 7.31242 19.9211 7.31933 19.906C7.32623 19.891 7.33676 19.8779 7.34997 19.8679C7.51797 19.7439 7.68597 19.6146 7.84597 19.4853C7.86038 19.4736 7.87772 19.4662 7.89609 19.4639C7.91445 19.4615 7.9331 19.4643 7.94997 19.4719C13.186 21.8239 18.8566 21.8239 24.0313 19.4719C24.0482 19.4639 24.0671 19.4607 24.0857 19.4628C24.1043 19.4649 24.122 19.4723 24.1366 19.4839C24.2966 19.6146 24.4633 19.7439 24.6326 19.8679C24.646 19.8777 24.6567 19.8906 24.6638 19.9055C24.6709 19.9205 24.6742 19.9369 24.6735 19.9534C24.6727 19.9699 24.6678 19.986 24.6593 20.0002C24.6508 20.0143 24.6389 20.0262 24.6246 20.0346C23.8273 20.4933 22.998 20.8813 22.1273 21.2039C22.1139 21.2088 22.1018 21.2164 22.0916 21.2264C22.0814 21.2363 22.0735 21.2483 22.0683 21.2616C22.0631 21.2748 22.0608 21.289 22.0616 21.3032C22.0623 21.3174 22.0661 21.3313 22.0726 21.3439C22.5526 22.2599 23.102 23.1319 23.706 23.9599C23.7185 23.9769 23.736 23.9896 23.7561 23.9963C23.7761 24.003 23.7977 24.0033 23.818 23.9973C26.6904 23.1328 29.3961 21.789 31.8206 20.0226C31.8325 20.0143 31.8424 20.0036 31.8498 19.9912C31.8571 19.9788 31.8617 19.9649 31.8633 19.9506C32.53 13.1586 30.746 7.25727 27.1313 2.02793C27.1224 2.01094 27.1078 1.99769 27.09 1.9906ZM10.694 16.3719C9.11798 16.3719 7.81797 14.9466 7.81797 13.1986C7.81797 11.4493 9.09264 10.0253 10.694 10.0253C12.3073 10.0253 13.5953 11.4613 13.57 13.1986C13.57 14.9479 12.2953 16.3719 10.694 16.3719ZM21.3273 16.3719C19.75 16.3719 18.4513 14.9466 18.4513 13.1986C18.4513 11.4493 19.7246 10.0253 21.3273 10.0253C22.9406 10.0253 24.2286 11.4613 24.2033 13.1986C24.2033 14.9479 22.942 16.3719 21.3273 16.3719Z" fill="#898E94"/>
</svg>
