<svg width="28" height="28" viewBox="0 0 28 28" fill="none" xmlns="http://www.w3.org/2000/svg">
<path fill-rule="evenodd" clip-rule="evenodd" d="M10.5723 9.95997H15.5243V12.4266C16.2377 11.008 18.067 9.7333 20.815 9.7333C26.083 9.7333 27.3337 12.5573 27.3337 17.7386V27.3346H22.0003V18.9186C22.0003 15.968 21.287 14.304 19.471 14.304C16.9523 14.304 15.9057 16.0973 15.9057 18.9173V27.3346H10.5723V9.95997ZM1.42699 27.108H6.76033V9.7333H1.42699V27.108ZM7.52433 4.06797C7.52452 4.515 7.43587 4.95762 7.26351 5.37008C7.09115 5.78255 6.83853 6.15665 6.52033 6.47064C5.87553 7.11147 5.00274 7.47017 4.09366 7.46797C3.18618 7.46736 2.31541 7.10957 1.66966 6.47197C1.35261 6.15692 1.10084 5.7824 0.928784 5.36988C0.756727 4.95735 0.667764 4.51493 0.666992 4.06797C0.666992 3.1653 1.02699 2.3013 1.67099 1.66397C2.31617 1.02551 3.18731 0.66757 4.09499 0.667969C5.00433 0.667969 5.87633 1.02664 6.52033 1.66397C7.16299 2.3013 7.52433 3.1653 7.52433 4.06797Z" fill="#898E94"/>
</svg>
