<svg width="32" height="26" viewBox="0 0 32 26" fill="none" xmlns="http://www.w3.org/2000/svg">
<path d="M32 3.22965C30.8224 3.74165 29.5584 4.09365 28.2304 4.24725C29.5872 3.44725 30.624 2.18005 31.1168 0.672851C29.8239 1.42634 28.4132 1.95644 26.944 2.24085C26.326 1.59309 25.5825 1.07799 24.7589 0.726989C23.9353 0.375983 23.0489 0.19642 22.1536 0.199252C18.528 0.199252 15.5904 3.09525 15.5904 6.66325C15.5904 7.16885 15.648 7.66165 15.76 8.13525C13.1594 8.01176 10.6132 7.34755 8.28368 6.185C5.95417 5.02245 3.89256 3.38709 2.2304 1.38325C1.6466 2.36597 1.33923 3.4882 1.3408 4.63125C1.3408 6.87125 2.5024 8.85525 4.2624 10.0105C3.22062 9.97778 2.20115 9.70044 1.2864 9.20085V9.28085C1.29629 10.7831 1.82656 12.2355 2.78693 13.3908C3.74731 14.546 5.07841 15.3327 6.5536 15.6169C5.58514 15.8729 4.57181 15.9101 3.5872 15.7257C4.01641 17.018 4.83736 18.1447 5.93607 18.9492C7.03479 19.7538 8.35675 20.1963 9.7184 20.2153C7.38228 22.0154 4.51405 22.988 1.5648 22.9801C1.0368 22.9801 0.5152 22.948 0 22.8904C3.00951 24.7954 6.49908 25.8043 10.0608 25.7993C22.1376 25.7993 28.7392 15.9497 28.7392 7.40565L28.7168 6.56725C30.0041 5.66255 31.1166 4.53169 32 3.22965Z" fill="#898E94"/>
<path d="M32 3.22965C30.8224 3.74165 29.5584 4.09365 28.2304 4.24725C29.5872 3.44725 30.624 2.18005 31.1168 0.672851C29.8239 1.42634 28.4132 1.95644 26.944 2.24085C26.326 1.59309 25.5825 1.07799 24.7589 0.726989C23.9353 0.375983 23.0489 0.19642 22.1536 0.199252C18.528 0.199252 15.5904 3.09525 15.5904 6.66325C15.5904 7.16885 15.648 7.66165 15.76 8.13525C13.1594 8.01176 10.6132 7.34755 8.28368 6.185C5.95417 5.02245 3.89256 3.38709 2.2304 1.38325C1.6466 2.36597 1.33923 3.4882 1.3408 4.63125C1.3408 6.87125 2.5024 8.85525 4.2624 10.0105C3.22062 9.97778 2.20115 9.70044 1.2864 9.20085V9.28085C1.29629 10.7831 1.82656 12.2355 2.78693 13.3908C3.74731 14.546 5.07841 15.3327 6.5536 15.6169C5.58514 15.8729 4.57181 15.9101 3.5872 15.7257C4.01641 17.018 4.83736 18.1447 5.93607 18.9492C7.03479 19.7538 8.35675 20.1963 9.7184 20.2153C7.38228 22.0154 4.51405 22.988 1.5648 22.9801C1.0368 22.9801 0.5152 22.948 0 22.8904C3.00951 24.7954 6.49908 25.8043 10.0608 25.7993C22.1376 25.7993 28.7392 15.9497 28.7392 7.40565L28.7168 6.56725C30.0041 5.66255 31.1166 4.53169 32 3.22965Z" fill="#898E94"/>
</svg>
