<?xml version="1.0" encoding="UTF-8" standalone="no"?>
<!DOCTYPE svg PUBLIC "-//W3C//DTD SVG 1.1//EN" "http://www.w3.org/Graphics/SVG/1.1/DTD/svg11.dtd">
<svg width="100%" height="100%" viewBox="0 0 32 32" version="1.1" xmlns="http://www.w3.org/2000/svg" xmlns:xlink="http://www.w3.org/1999/xlink" xml:space="preserve" xmlns:serif="http://www.serif.com/" style="fill-rule:evenodd;clip-rule:evenodd;stroke-linejoin:round;stroke-miterlimit:2;">
    <path d="M16.333,27C19.162,27 21.875,25.876 23.876,23.876C25.876,21.875 27,19.162 27,16.333C27,13.504 25.876,10.791 23.876,8.791C21.875,6.79 19.162,5.667 16.333,5.667C13.504,5.667 10.791,6.79 8.791,8.791C6.79,10.791 5.667,13.504 5.667,16.333C5.667,19.162 6.79,21.875 8.791,23.876C10.791,25.876 13.504,27 16.333,27ZM16.333,29.667C8.969,29.667 3,23.697 3,16.333C3,8.969 8.969,3 16.333,3C23.697,3 29.667,8.969 29.667,16.333C29.667,23.697 23.697,29.667 16.333,29.667Z" style="fill:white;fill-rule:nonzero;"/>
    <path d="M9,21.264L9.406,21.264C9.858,21.264 9.916,21.248 9.99,21.101C10.033,21.017 10.038,20.96 10.025,20.653C10.017,20.458 9.974,20.05 9.929,19.744C9.751,18.516 9.717,18.264 9.674,17.865C9.613,17.313 9.613,16.512 9.672,16.246C9.759,15.839 9.921,15.657 10.195,15.657C10.768,15.66 11.304,16.493 11.979,18.44C12.385,19.616 12.459,19.817 12.542,19.974C12.664,20.205 12.701,20.192 12.711,19.912C12.72,19.643 12.688,19.388 12.478,18.06C12.101,15.684 11.971,14.422 12.013,13.594C12.064,12.583 12.289,12.133 12.743,12.133C13.386,12.133 14.103,13.211 14.966,15.467C15.048,15.676 15.289,16.336 15.504,16.933C15.932,18.123 16.102,18.549 16.227,18.744C16.375,18.983 16.45,18.877 16.423,18.47C16.389,17.952 16.346,17.666 15.812,14.449C15.35,11.663 15.223,10.229 15.348,9.195C15.422,8.586 15.634,8.16 15.929,8.03C16.046,8.006 16.337,7.973 16.572,8.038C17.081,8.242 17.554,8.95 18.061,10.267C18.388,11.117 19.067,13.189 19.776,15.494C20.01,16.254 20.243,17.007 20.297,17.164C20.421,17.531 20.575,17.876 20.612,17.862C20.634,17.854 20.636,17.685 20.628,17.311C20.62,17.015 20.615,16.349 20.615,15.834C20.618,14.978 20.623,14.867 20.679,14.544C20.82,13.727 21.09,13.173 21.528,12.801C22.049,12.361 22.704,12.247 23.392,12.48L23.514,12.524L23.756,13.493C23.891,14.025 24,14.471 24,14.479C24,14.49 23.926,14.465 23.835,14.424C23.689,14.365 23.631,14.354 23.389,14.354C23.137,14.354 23.097,14.362 22.973,14.427C22.606,14.625 22.439,14.91 22.322,15.535C22.274,15.796 22.269,15.991 22.248,17.829C22.232,19.374 22.216,19.926 22.184,20.219C22.091,21.058 21.956,21.498 21.709,21.772C21.56,21.938 21.43,21.997 21.21,21.997C21.066,21.997 21.005,21.981 20.865,21.91C20.222,21.582 19.545,20.308 18.81,18.047C18.534,17.197 18.292,16.363 17.827,14.652C17.307,12.741 17.15,12.241 17.036,12.146C16.999,12.114 16.991,12.122 16.975,12.209C16.938,12.421 17.004,13.018 17.31,15.114C17.83,18.685 17.947,19.869 17.87,20.705C17.78,21.655 17.541,22.022 17.026,21.992C16.779,21.978 16.582,21.878 16.354,21.647C16.131,21.422 15.993,21.229 15.754,20.811C15.388,20.17 15.085,19.431 14.427,17.574C13.673,15.451 13.418,14.851 13.301,14.924C13.25,14.957 13.28,15.282 13.46,16.58C13.641,17.889 13.683,18.229 13.739,18.839C13.901,20.656 13.739,21.707 13.261,21.943C13.102,22.022 12.818,22.011 12.64,21.916C12.467,21.826 12.258,21.612 12.101,21.365C11.825,20.919 11.61,20.376 11.057,18.712C10.71,17.661 10.564,17.265 10.489,17.164C10.442,17.102 10.436,17.102 10.418,17.145C10.394,17.213 10.442,17.615 10.582,18.522C10.832,20.124 10.909,21.02 10.832,21.435C10.789,21.666 10.683,21.84 10.535,21.921C10.426,21.981 10.391,21.984 9.709,21.992L9,22L9,21.264Z" style="fill:white;fill-rule:nonzero;"/>
</svg>
