<svg width="32" height="32" viewBox="0 0 32 32" fill="none" xmlns="http://www.w3.org/2000/svg">
<path d="M16.3333 27C19.1623 27 21.8754 25.8762 23.8758 23.8758C25.8762 21.8754 27 19.1623 27 16.3333C27 13.5044 25.8762 10.7912 23.8758 8.79086C21.8754 6.79047 19.1623 5.66667 16.3333 5.66667C13.5044 5.66667 10.7912 6.79047 8.79086 8.79086C6.79047 10.7912 5.66667 13.5044 5.66667 16.3333C5.66667 19.1623 6.79047 21.8754 8.79086 23.8758C10.7912 25.8762 13.5044 27 16.3333 27ZM16.3333 29.6667C8.96933 29.6667 3 23.6973 3 16.3333C3 8.96933 8.96933 3 16.3333 3C23.6973 3 29.6667 8.96933 29.6667 16.3333C29.6667 23.6973 23.6973 29.6667 16.3333 29.6667Z" fill="#59596C"/>
<path d="M9 21.2642H9.40619C9.85752 21.2642 9.91593 21.2479 9.99027 21.1012C10.0327 21.0171 10.0381 20.96 10.0248 20.6532C10.0168 20.4577 9.97434 20.0504 9.9292 19.7436C9.75133 18.5163 9.71681 18.2638 9.67434 17.8646C9.61327 17.3134 9.61327 16.5124 9.67168 16.2463C9.75929 15.839 9.92124 15.6571 10.1947 15.6571C10.7681 15.6598 11.3044 16.4934 11.9788 18.4403C12.385 19.616 12.4593 19.8169 12.5416 19.9744C12.6637 20.2052 12.7009 20.1916 12.7115 19.9119C12.7195 19.6431 12.6876 19.3879 12.4779 18.0601C12.1009 15.6842 11.9708 14.4216 12.0133 13.5935C12.0637 12.5834 12.2894 12.1326 12.7434 12.1326C13.3858 12.1326 14.1027 13.2106 14.9655 15.467C15.0478 15.6761 15.2894 16.3359 15.5044 16.9333C15.9319 18.1226 16.1018 18.5489 16.2266 18.7444C16.3752 18.9833 16.4496 18.8774 16.423 18.4701C16.3885 17.9515 16.346 17.6664 15.8124 14.4488C15.3504 11.6629 15.223 10.2292 15.3478 9.19469C15.4221 8.58646 15.6345 8.16016 15.9292 8.02983C16.0456 8.00561 16.337 7.97335 16.5717 8.03797C17.0814 8.24162 17.554 8.95031 18.0611 10.2672C18.3876 11.1171 19.0673 13.1889 19.7761 15.4942C20.0097 16.2544 20.2434 17.0066 20.2965 17.1641C20.4212 17.5306 20.5752 17.8755 20.6124 17.8619C20.6336 17.8538 20.6363 17.6854 20.6283 17.3107C20.6204 17.0147 20.615 16.3495 20.615 15.8336C20.6177 14.9783 20.623 14.8669 20.6788 14.5438C20.8195 13.7265 21.0903 13.1726 21.5283 12.8006C22.0487 12.3607 22.7044 12.2467 23.392 12.4802L23.5142 12.5236L23.7558 13.493C23.8912 14.0252 24 14.4705 24 14.4786C24 14.4895 23.9257 14.4651 23.8354 14.4243C23.6894 14.3646 23.631 14.3537 23.3894 14.3537C23.1372 14.3537 23.0973 14.3619 22.9726 14.4271C22.6062 14.6253 22.4389 14.9104 22.3221 15.5349C22.2743 15.7956 22.269 15.9911 22.2478 17.8293C22.2319 19.3743 22.2159 19.9255 22.1841 20.2188C22.0912 21.0578 21.9558 21.4977 21.7088 21.7719C21.5602 21.9375 21.4301 21.9973 21.2097 21.9973C21.0664 21.9973 21.0053 21.981 20.8646 21.9104C20.2221 21.5818 19.5451 20.3084 18.8097 18.0465C18.5336 17.1966 18.292 16.3631 17.8274 14.6524C17.3071 12.7409 17.1504 12.2412 17.0363 12.1462C16.9991 12.1136 16.9911 12.1218 16.9752 12.2087C16.9381 12.4205 17.0044 13.0178 17.3097 15.114C17.8301 18.6846 17.9469 19.8685 17.8699 20.7048C17.7796 21.6552 17.5407 22.0217 17.0257 21.9919C16.7788 21.9783 16.5823 21.8778 16.354 21.647C16.131 21.4216 15.9929 21.2289 15.754 20.8107C15.3876 20.1699 15.085 19.4313 14.4265 17.5741C13.6726 15.4507 13.4177 14.8506 13.3009 14.924C13.2504 14.9565 13.2796 15.2824 13.4602 16.5803C13.6407 17.889 13.6832 18.2285 13.7389 18.8394C13.9009 20.6559 13.7389 21.7067 13.2611 21.943C13.1018 22.0217 12.8177 22.0109 12.6398 21.9158C12.4673 21.8262 12.2575 21.6117 12.1009 21.3646C11.8248 20.9193 11.6097 20.3763 11.0575 18.7118C10.7097 17.661 10.5637 17.2645 10.4894 17.1641C10.4416 17.1016 10.4363 17.1016 10.4177 17.1451C10.3938 17.2129 10.4416 17.6148 10.5823 18.5217C10.8319 20.1237 10.9089 21.0198 10.8319 21.4352C10.7894 21.666 10.6832 21.8398 10.5345 21.9213C10.4257 21.981 10.3912 21.9837 9.70885 21.9919L9 22V21.2642Z" fill="#59596C"/>
</svg>
