<svg width="32" height="32" viewBox="0 0 32 32" fill="none" xmlns="http://www.w3.org/2000/svg">
<path d="M16.0003 26.667C18.8293 26.667 21.5424 25.5432 23.5428 23.5428C25.5432 21.5424 26.667 18.8293 26.667 16.0003C26.667 13.1713 25.5432 10.4582 23.5428 8.45785C21.5424 6.45747 18.8293 5.33366 16.0003 5.33366C13.1713 5.33366 10.4582 6.45747 8.45785 8.45785C6.45747 10.4582 5.33366 13.1713 5.33366 16.0003C5.33366 18.8293 6.45747 21.5424 8.45785 23.5428C10.4582 25.5432 13.1713 26.667 16.0003 26.667ZM16.0003 29.3337C8.63633 29.3337 2.66699 23.3643 2.66699 16.0003C2.66699 8.63633 8.63633 2.66699 16.0003 2.66699C23.3643 2.66699 29.3337 8.63633 29.3337 16.0003C29.3337 23.3643 23.3643 29.3337 16.0003 29.3337Z" fill="#59596C"/>
<g clip-path="url(#clip0_1080_894)">
<path d="M20.8519 11.6199C19.9594 11.2174 19.0027 10.9199 18.0023 10.7507C17.9934 10.749 17.9841 10.7501 17.9759 10.7539C17.9676 10.7577 17.9608 10.7639 17.9562 10.7717C17.8337 10.987 17.6972 11.2676 17.6015 11.4892C16.5405 11.3307 15.4618 11.3307 14.4008 11.4892C14.2942 11.2436 14.1741 11.004 14.0409 10.7717C14.0363 10.7638 14.0295 10.7574 14.0213 10.7535C14.0131 10.7495 14.0038 10.7481 13.9948 10.7496C12.9949 10.9187 12.0383 11.2162 11.1452 11.6193C11.1375 11.6226 11.131 11.628 11.1265 11.6351C9.3112 14.3038 8.81361 16.9067 9.05803 19.4768C9.05871 19.4831 9.06066 19.4892 9.06377 19.4947C9.06688 19.5002 9.07108 19.5051 9.07611 19.5089C10.1357 20.2803 11.3175 20.868 12.572 21.2472C12.5808 21.2499 12.5901 21.2499 12.5989 21.2472C12.6076 21.2445 12.6153 21.2392 12.621 21.2321C12.891 20.871 13.1302 20.488 13.3362 20.087C13.3391 20.0815 13.3407 20.0755 13.341 20.0693C13.3414 20.0631 13.3403 20.057 13.3381 20.0512C13.3358 20.0455 13.3323 20.0403 13.3279 20.036C13.3234 20.0317 13.3181 20.0284 13.3123 20.0263C12.9354 19.8844 12.5703 19.7132 12.2203 19.5142C12.214 19.5106 12.2087 19.5055 12.2049 19.4993C12.201 19.4932 12.1988 19.4862 12.1983 19.479C12.1978 19.4717 12.1992 19.4645 12.2022 19.4579C12.2052 19.4513 12.2098 19.4456 12.2156 19.4412C12.2891 19.387 12.3626 19.3304 12.4326 19.2738C12.4389 19.2687 12.4465 19.2655 12.4545 19.2645C12.4626 19.2634 12.4707 19.2647 12.4781 19.268C14.7689 20.297 17.2498 20.297 19.5137 19.268C19.5211 19.2645 19.5293 19.2631 19.5375 19.264C19.5456 19.2649 19.5534 19.2681 19.5598 19.2732C19.6298 19.3304 19.7027 19.387 19.7768 19.4412C19.7826 19.4455 19.7873 19.4512 19.7904 19.4577C19.7935 19.4642 19.795 19.4714 19.7946 19.4786C19.7943 19.4859 19.7922 19.4929 19.7884 19.4991C19.7847 19.5053 19.7795 19.5105 19.7733 19.5142C19.4244 19.7148 19.0616 19.8846 18.6807 20.0257C18.6748 20.0279 18.6695 20.0312 18.6651 20.0356C18.6606 20.0399 18.6571 20.0452 18.6549 20.051C18.6526 20.0568 18.6516 20.063 18.6519 20.0692C18.6523 20.0754 18.6539 20.0815 18.6568 20.087C18.8668 20.4877 19.1071 20.8692 19.3714 21.2315C19.3769 21.2389 19.3845 21.2445 19.3933 21.2474C19.4021 21.2503 19.4115 21.2505 19.4204 21.2478C20.6771 20.8696 21.8608 20.2817 22.9215 19.5089C22.9267 19.5053 22.931 19.5006 22.9343 19.4952C22.9375 19.4897 22.9395 19.4837 22.9402 19.4774C23.2319 16.5059 22.4514 13.9241 20.8699 11.6362C20.8661 11.6288 20.8597 11.623 20.8519 11.6199ZM13.6786 17.9117C12.9891 17.9117 12.4204 17.2882 12.4204 16.5234C12.4204 15.7581 12.978 15.1351 13.6786 15.1351C14.3844 15.1351 14.9479 15.7633 14.9369 16.5234C14.9369 17.2887 14.3792 17.9117 13.6786 17.9117ZM18.3307 17.9117C17.6406 17.9117 17.0724 17.2882 17.0724 16.5234C17.0724 15.7581 17.6295 15.1351 18.3307 15.1351C19.0365 15.1351 19.6 15.7633 19.5889 16.5234C19.5889 17.2887 19.0371 17.9117 18.3307 17.9117Z" fill="#59596C"/>
</g>
<defs>
<clipPath id="clip0_1080_894">
<rect width="14" height="14" fill="white" transform="translate(9 9)"/>
</clipPath>
</defs>
</svg>
