<svg width="32" height="32" viewBox="0 0 32 32" fill="none" xmlns="http://www.w3.org/2000/svg">
<path d="M16.0003 26.667C18.8293 26.667 21.5424 25.5432 23.5428 23.5428C25.5432 21.5424 26.667 18.8293 26.667 16.0003C26.667 13.1713 25.5432 10.4582 23.5428 8.45785C21.5424 6.45747 18.8293 5.33366 16.0003 5.33366C13.1713 5.33366 10.4582 6.45747 8.45785 8.45785C6.45747 10.4582 5.33366 13.1713 5.33366 16.0003C5.33366 18.8293 6.45747 21.5424 8.45785 23.5428C10.4582 25.5432 13.1713 26.667 16.0003 26.667ZM16.0003 29.3337C8.63633 29.3337 2.66699 23.3643 2.66699 16.0003C2.66699 8.63633 8.63633 2.66699 16.0003 2.66699C23.3643 2.66699 29.3337 8.63633 29.3337 16.0003C29.3337 23.3643 23.3643 29.3337 16.0003 29.3337Z" fill="#59596C"/>
<g clip-path="url(#clip0_1080_885)">
<path fill-rule="evenodd" clip-rule="evenodd" d="M15.9997 9.58301C14.2567 9.58301 14.0385 9.59001 13.3543 9.62151C12.6718 9.65301 12.2045 9.76151 11.7962 9.91959C11.3683 10.0808 10.9807 10.3335 10.6604 10.6598C10.3338 10.9803 10.081 11.3681 9.91959 11.7962C9.76151 12.2045 9.65242 12.6712 9.62151 13.3548C9.59059 14.0385 9.58301 14.2567 9.58301 15.9997C9.58301 17.7421 9.59001 17.9603 9.62151 18.6457C9.65301 19.3282 9.76151 19.7948 9.91959 20.2032C10.0808 20.6313 10.3334 21.0191 10.6598 21.3395C10.9806 21.6657 11.3685 21.9182 11.7968 22.0792C12.2051 22.2378 12.6718 22.3469 13.3543 22.3778C14.0385 22.4088 14.2567 22.4163 15.9997 22.4163C17.7427 22.4163 17.9608 22.4093 18.6457 22.3778C19.3282 22.3463 19.7948 22.2378 20.2032 22.0792C20.6308 21.9182 21.0187 21.6662 21.3395 21.3395C21.6658 21.0188 21.9182 20.6308 22.0792 20.2026C22.2378 19.7943 22.3469 19.3276 22.3778 18.6451C22.4088 17.9608 22.4163 17.7427 22.4163 15.9997C22.4163 14.2573 22.4093 14.0391 22.3778 13.3537C22.3463 12.6712 22.2378 12.2045 22.0792 11.7962C21.9182 11.368 21.6662 10.9807 21.3395 10.6604C21.0187 10.3338 20.6308 10.0812 20.2032 9.91959C19.7948 9.76151 19.3282 9.65242 18.6445 9.62151C17.9608 9.59059 17.7427 9.58301 15.9997 9.58301ZM15.9997 10.7392C17.7129 10.7392 17.9159 10.7456 18.5926 10.7765C19.2185 10.8051 19.558 10.9095 19.7843 10.9976C20.063 11.1004 20.3151 11.2642 20.5223 11.4771C20.7468 11.7017 20.8851 11.9158 21.0018 12.215C21.0898 12.4413 21.1943 12.7808 21.2228 13.4068C21.2538 14.0834 21.2602 14.2864 21.2602 15.9997C21.2602 17.7129 21.2538 17.9159 21.2228 18.5926C21.1943 19.2185 21.0898 19.558 21.0018 19.7843C20.8991 20.0626 20.7352 20.3152 20.5223 20.5223C20.2977 20.7468 20.0836 20.8851 19.7843 21.0018C19.558 21.0898 19.2185 21.1943 18.5926 21.2228C17.9159 21.2538 17.7135 21.2602 15.9997 21.2602C14.2858 21.2602 14.0834 21.2538 13.4068 21.2228C12.7808 21.1943 12.4413 21.0898 12.215 21.0018C11.9368 20.8991 11.6842 20.7352 11.4771 20.5223C11.2642 20.3152 11.1003 20.0626 10.9976 19.7843C10.9095 19.558 10.8051 19.2185 10.7765 18.5926C10.7456 17.9159 10.7392 17.7129 10.7392 15.9997C10.7392 14.2864 10.7456 14.0834 10.7765 13.4068C10.8051 12.7808 10.9095 12.4413 10.9976 12.215C11.1004 11.9363 11.2642 11.6842 11.4771 11.4771C11.7017 11.2525 11.9158 11.1143 12.215 10.9976C12.4413 10.9095 12.7808 10.8051 13.4068 10.7765C14.0834 10.7456 14.2864 10.7392 15.9997 10.7392ZM16.622 18.0505C16.1475 18.194 15.6378 18.1683 15.1801 17.9778C14.8877 17.8565 14.6259 17.672 14.4134 17.4374C14.201 17.2029 14.0431 16.9241 13.9513 16.6212C13.8595 16.3183 13.836 15.9989 13.8825 15.6858C13.929 15.3728 14.0443 15.0739 14.2201 14.8108C14.3959 14.5476 14.6279 14.3267 14.8994 14.164C15.1708 14.0013 15.475 13.9008 15.79 13.8697C16.1049 13.8386 16.4229 13.8778 16.7209 13.9843C17.0189 14.0909 17.2896 14.2622 17.5134 14.4859C17.8646 14.8359 18.0834 15.297 18.1324 15.7903C18.1814 16.2837 18.0576 16.7788 17.7821 17.191C17.5067 17.6032 17.0966 17.907 16.622 18.0505ZM14.7375 12.9526C14.3374 13.1183 13.9738 13.3612 13.6675 13.6675C13.049 14.286 12.7015 15.1249 12.7015 15.9997C12.7015 16.8744 13.049 17.7133 13.6675 18.3318C14.286 18.9504 15.1249 19.2979 15.9997 19.2979C16.8744 19.2979 17.7133 18.9504 18.3318 18.3318C18.6381 18.0256 18.881 17.662 19.0468 17.2618C19.2125 16.8617 19.2979 16.4328 19.2979 15.9997C19.2979 15.5666 19.2125 15.1377 19.0468 14.7375C18.881 14.3374 18.6381 13.9738 18.3318 13.6675C18.0256 13.3612 17.662 13.1183 17.2618 12.9526C16.8617 12.7868 16.4328 12.7015 15.9997 12.7015C15.5666 12.7015 15.1377 12.7868 14.7375 12.9526Z" fill="#59596C"/>
<path fill-rule="evenodd" clip-rule="evenodd" d="M18.5926 10.7765C17.9159 10.7456 17.7129 10.7392 15.9997 10.7392C14.2864 10.7392 14.0834 10.7456 13.4068 10.7765C12.7808 10.8051 12.4413 10.9095 12.215 10.9976C11.9158 11.1143 11.7017 11.2525 11.4771 11.4771C11.2642 11.6842 11.1004 11.9363 10.9976 12.215C10.9095 12.4413 10.8051 12.7808 10.7765 13.4068C10.7456 14.0834 10.7392 14.2864 10.7392 15.9997C10.7392 17.7129 10.7456 17.9159 10.7765 18.5926C10.8051 19.2185 10.9095 19.558 10.9976 19.7843C11.1003 20.0626 11.2642 20.3152 11.4771 20.5223C11.6842 20.7352 11.9368 20.8991 12.215 21.0018C12.4413 21.0898 12.7808 21.1943 13.4068 21.2228C14.0834 21.2538 14.2858 21.2602 15.9997 21.2602C17.7135 21.2602 17.9159 21.2538 18.5926 21.2228C19.2185 21.1943 19.558 21.0898 19.7843 21.0018C20.0836 20.8851 20.2977 20.7468 20.5223 20.5223C20.7352 20.3152 20.8991 20.0626 21.0018 19.7843C21.0898 19.558 21.1943 19.2185 21.2228 18.5926C21.2538 17.9159 21.2602 17.7129 21.2602 15.9997C21.2602 14.2864 21.2538 14.0834 21.2228 13.4068C21.1943 12.7808 21.0898 12.4413 21.0018 12.215C20.8851 11.9158 20.7468 11.7017 20.5223 11.4771C20.3151 11.2642 20.063 11.1004 19.7843 10.9976C19.558 10.9095 19.2185 10.8051 18.5926 10.7765ZM14.7375 12.9526C14.3374 13.1183 13.9738 13.3612 13.6675 13.6675C13.049 14.286 12.7015 15.1249 12.7015 15.9997C12.7015 16.8744 13.049 17.7133 13.6675 18.3318C14.286 18.9504 15.1249 19.2979 15.9997 19.2979C16.8744 19.2979 17.7133 18.9504 18.3318 18.3318C18.6381 18.0256 18.881 17.662 19.0468 17.2618C19.2125 16.8617 19.2979 16.4328 19.2979 15.9997C19.2979 15.5666 19.2125 15.1377 19.0468 14.7375C18.881 14.3374 18.6381 13.9738 18.3318 13.6675C18.0256 13.3612 17.662 13.1183 17.2618 12.9526C16.8617 12.7868 16.4328 12.7015 15.9997 12.7015C15.5666 12.7015 15.1377 12.7868 14.7375 12.9526ZM20.208 12.9395C20.166 13.035 20.1052 13.1211 20.0293 13.1927C19.8817 13.3319 19.6857 13.4081 19.4828 13.4052C19.2799 13.4022 19.0862 13.3203 18.9427 13.1768C18.7992 13.0334 18.7173 12.8396 18.7143 12.6367C18.7114 12.4338 18.7876 12.2378 18.9268 12.0902C18.9984 12.0143 19.0845 11.9535 19.18 11.9115C19.2755 11.8695 19.3785 11.847 19.4828 11.8455C19.5871 11.844 19.6907 11.8634 19.7874 11.9026C19.8841 11.9419 19.9719 12.0001 20.0457 12.0739C20.1194 12.1476 20.1777 12.2355 20.2169 12.3321C20.2561 12.4288 20.2755 12.5324 20.274 12.6367C20.2725 12.741 20.25 12.844 20.208 12.9395Z" fill="#59596C"/>
</g>
<defs>
<clipPath id="clip0_1080_885">
<rect width="14" height="14" fill="white" transform="translate(9 9)"/>
</clipPath>
</defs>
</svg>
