<svg width="32" height="32" viewBox="0 0 32 32" fill="none" xmlns="http://www.w3.org/2000/svg">
<path d="M16.0003 26.667C18.8293 26.667 21.5424 25.5432 23.5428 23.5428C25.5432 21.5424 26.667 18.8293 26.667 16.0003C26.667 13.1713 25.5432 10.4582 23.5428 8.45785C21.5424 6.45747 18.8293 5.33366 16.0003 5.33366C13.1713 5.33366 10.4582 6.45747 8.45785 8.45785C6.45747 10.4582 5.33366 13.1713 5.33366 16.0003C5.33366 18.8293 6.45747 21.5424 8.45785 23.5428C10.4582 25.5432 13.1713 26.667 16.0003 26.667ZM16.0003 29.3337C8.63633 29.3337 2.66699 23.3643 2.66699 16.0003C2.66699 8.63633 8.63633 2.66699 16.0003 2.66699C23.3643 2.66699 29.3337 8.63633 29.3337 16.0003C29.3337 23.3643 23.3643 29.3337 16.0003 29.3337Z" fill="#59596C"/>
<path fill-rule="evenodd" clip-rule="evenodd" d="M14.5006 14.2322H16.6671V15.3114C16.9792 14.6907 17.7795 14.1331 18.9817 14.1331C21.2865 14.1331 21.8337 15.3686 21.8337 17.6354V21.8337H19.5003V18.1517C19.5003 16.8607 19.1882 16.1327 18.3937 16.1327C17.2918 16.1327 16.8339 16.9173 16.8339 18.1511V21.8337H14.5006V14.2322ZM10.4995 21.7345H12.8328V14.1331H10.4995V21.7345ZM13.1671 11.6545C13.1672 11.8501 13.1284 12.0437 13.053 12.2242C12.9776 12.4046 12.867 12.5683 12.7278 12.7057C12.4457 12.986 12.0639 13.143 11.6662 13.142C11.2691 13.1417 10.8882 12.9852 10.6057 12.7062C10.4669 12.5684 10.3568 12.4046 10.2815 12.2241C10.2063 12.0436 10.1673 11.85 10.167 11.6545C10.167 11.2596 10.3245 10.8816 10.6062 10.6027C10.8885 10.3234 11.2696 10.1668 11.6667 10.167C12.0646 10.167 12.4461 10.3239 12.7278 10.6027C13.009 10.8816 13.1671 11.2596 13.1671 11.6545Z" fill="#59596C"/>
</svg>
