<svg width="32" height="32" viewBox="0 0 32 32" fill="none" xmlns="http://www.w3.org/2000/svg">
<path d="M16 26.6667C18.8289 26.6667 21.542 25.5429 23.5424 23.5426C25.5428 21.5422 26.6666 18.8291 26.6666 16.0001C26.6666 13.1711 25.5428 10.458 23.5424 8.45761C21.542 6.45722 18.8289 5.33341 16 5.33341C13.171 5.33341 10.4579 6.45722 8.45749 8.45761C6.4571 10.458 5.33329 13.1711 5.33329 16.0001C5.33329 18.8291 6.4571 21.5422 8.45749 23.5426C10.4579 25.5429 13.171 26.6667 16 26.6667ZM16 29.3334C8.63596 29.3334 2.66663 23.3641 2.66663 16.0001C2.66663 8.63608 8.63596 2.66675 16 2.66675C23.364 2.66675 29.3333 8.63608 29.3333 16.0001C29.3333 23.3641 23.364 29.3334 16 29.3334Z" fill="#59596C"/>
<path d="M17.1265 15.9999C17.1265 18.8123 14.8596 21.0921 12.0632 21.0921C9.26689 21.0921 7 18.8123 7 15.9999C7 13.1876 9.26689 10.9077 12.0632 10.9077C14.8596 10.9077 17.1265 13.1876 17.1265 15.9999Z" fill="#59596C"/>
<path d="M22.75 16C22.75 18.6478 21.6194 20.7943 20.2246 20.7943C18.8299 20.7943 17.6993 18.6478 17.6993 16C17.6993 13.3521 18.8299 11.2056 20.2246 11.2056C21.6194 11.2056 22.75 13.3521 22.75 16Z" fill="#59596C"/>
<path d="M25 15.9999C25 18.3599 24.6018 20.273 24.1106 20.273C23.6193 20.273 23.2211 18.3599 23.2211 15.9999C23.2211 13.6399 23.6193 11.7267 24.1106 11.7267C24.6018 11.7267 25 13.6399 25 15.9999Z" fill="#59596C"/>
</svg>
