<?xml version="1.0" encoding="UTF-8" standalone="no"?>
<!DOCTYPE svg PUBLIC "-//W3C//DTD SVG 1.1//EN" "http://www.w3.org/Graphics/SVG/1.1/DTD/svg11.dtd">
<svg width="100%" height="100%" viewBox="0 0 32 32" version="1.1" xmlns="http://www.w3.org/2000/svg" xmlns:xlink="http://www.w3.org/1999/xlink" xml:space="preserve" xmlns:serif="http://www.serif.com/" style="fill-rule:evenodd;clip-rule:evenodd;stroke-linejoin:round;stroke-miterlimit:2;">
    <path d="M16,26.667C18.829,26.667 21.542,25.543 23.543,23.543C25.543,21.542 26.667,18.829 26.667,16C26.667,13.171 25.543,10.458 23.543,8.458C21.542,6.457 18.829,5.334 16,5.334C13.171,5.334 10.458,6.457 8.458,8.458C6.457,10.458 5.334,13.171 5.334,16C5.334,18.829 6.457,21.542 8.458,23.543C10.458,25.543 13.171,26.667 16,26.667ZM16,29.334C8.636,29.334 2.667,23.364 2.667,16C2.667,8.636 8.636,2.667 16,2.667C23.364,2.667 29.334,8.636 29.334,16C29.334,23.364 23.364,29.334 16,29.334Z" style="fill:white;fill-rule:nonzero;"/>
    <g>
        <path d="M19.536,11.584C19.68,11.524 19.838,11.503 19.993,11.524C20.148,11.544 20.295,11.607 20.418,11.704C20.54,11.8 20.635,11.928 20.691,12.074C20.748,12.22 20.764,12.378 20.739,12.533L19.416,20.558C19.288,21.332 18.438,21.776 17.729,21.39C17.135,21.067 16.253,20.57 15.459,20.052C15.063,19.792 13.848,18.961 13.997,18.37C14.125,17.864 16.167,15.963 17.334,14.833C17.792,14.389 17.583,14.133 17.042,14.542C15.698,15.556 13.543,17.097 12.83,17.531C12.201,17.914 11.874,17.979 11.482,17.914C10.766,17.795 10.103,17.611 9.562,17.386C8.83,17.083 8.866,16.077 9.561,15.784L19.536,11.584Z" style="fill:white;"/>
    </g>
</svg>
