<svg width="32" height="32" viewBox="0 0 32 32" fill="none" xmlns="http://www.w3.org/2000/svg">
<path d="M16.0003 26.667C18.8293 26.667 21.5424 25.5432 23.5428 23.5428C25.5432 21.5424 26.667 18.8293 26.667 16.0003C26.667 13.1713 25.5432 10.4582 23.5428 8.45785C21.5424 6.45747 18.8293 5.33366 16.0003 5.33366C13.1713 5.33366 10.4582 6.45747 8.45785 8.45785C6.45747 10.4582 5.33366 13.1713 5.33366 16.0003C5.33366 18.8293 6.45747 21.5424 8.45785 23.5428C10.4582 25.5432 13.1713 26.667 16.0003 26.667ZM16.0003 29.3337C8.63633 29.3337 2.66699 23.3643 2.66699 16.0003C2.66699 8.63633 8.63633 2.66699 16.0003 2.66699C23.3643 2.66699 29.3337 8.63633 29.3337 16.0003C29.3337 23.3643 23.3643 29.3337 16.0003 29.3337Z" fill="#59596C"/>
<g clip-path="url(#clip0_1080_873)">
<path fill-rule="evenodd" clip-rule="evenodd" d="M19.5362 11.5841C19.6804 11.5235 19.8382 11.5025 19.9931 11.5235C20.1481 11.5445 20.2946 11.6067 20.4175 11.7035C20.5403 11.8004 20.6349 11.9284 20.6914 12.0742C20.748 12.22 20.7644 12.3783 20.7391 12.5326L19.4161 20.5576C19.2877 21.3316 18.4384 21.7756 17.7285 21.39C17.1346 21.0674 16.2526 20.5704 15.4593 20.0518C15.0626 19.7922 13.8476 18.961 13.9969 18.3695C14.1252 17.8637 16.1669 15.9632 17.3336 14.8333C17.7915 14.3894 17.5826 14.1333 17.0419 14.5416C15.6985 15.5555 13.5431 17.0972 12.8302 17.5312C12.2014 17.9139 11.8736 17.9792 11.4816 17.9139C10.7664 17.7949 10.1031 17.6106 9.5618 17.386C8.8303 17.0826 8.86589 16.077 9.56122 15.7841L19.5362 11.5841Z" fill="#59596C"/>
</g>
<defs>
<clipPath id="clip0_1080_873">
<rect width="14" height="14" fill="white" transform="translate(8 9)"/>
</clipPath>
</defs>
</svg>
