<?xml version="1.0" encoding="UTF-8" standalone="no"?>
<!DOCTYPE svg PUBLIC "-//W3C//DTD SVG 1.1//EN" "http://www.w3.org/Graphics/SVG/1.1/DTD/svg11.dtd">
<svg width="100%" height="100%" viewBox="0 0 32 32" version="1.1" xmlns="http://www.w3.org/2000/svg" xmlns:xlink="http://www.w3.org/1999/xlink" xml:space="preserve" xmlns:serif="http://www.serif.com/" style="fill-rule:evenodd;clip-rule:evenodd;stroke-linejoin:round;stroke-miterlimit:2;">
    <path d="M16,26.667C18.829,26.667 21.542,25.543 23.543,23.543C25.543,21.542 26.667,18.829 26.667,16C26.667,13.171 25.543,10.458 23.543,8.458C21.542,6.457 18.829,5.334 16,5.334C13.171,5.334 10.458,6.457 8.458,8.458C6.457,10.458 5.334,13.171 5.334,16C5.334,18.829 6.457,21.542 8.458,23.543C10.458,25.543 13.171,26.667 16,26.667ZM16,29.334C8.636,29.334 2.667,23.364 2.667,16C2.667,8.636 8.636,2.667 16,2.667C23.364,2.667 29.334,8.636 29.334,16C29.334,23.364 23.364,29.334 16,29.334Z" style="fill:white;fill-rule:nonzero;"/>
    <path d="M22.667,11.93C22.177,12.143 21.65,12.29 21.097,12.354C21.662,12.02 22.094,11.492 22.299,10.864C21.761,11.178 21.173,11.399 20.561,11.518C20.303,11.248 19.993,11.033 19.65,10.887C19.307,10.741 18.938,10.666 18.565,10.667C17.054,10.667 15.83,11.874 15.83,13.36C15.83,13.571 15.854,13.776 15.901,13.974C14.817,13.922 13.756,13.646 12.786,13.161C11.815,12.677 10.956,11.995 10.263,11.16C10.02,11.57 9.892,12.037 9.893,12.514C9.893,13.447 10.377,14.274 11.11,14.755C10.676,14.741 10.251,14.626 9.87,14.418L9.87,14.451C9.874,15.077 10.095,15.682 10.495,16.163C10.895,16.645 11.45,16.973 12.065,17.091C11.661,17.198 11.239,17.213 10.829,17.136C11.008,17.675 11.35,18.144 11.807,18.48C12.265,18.815 12.816,18.999 13.383,19.007C12.41,19.757 11.215,20.162 9.986,20.159C9.766,20.159 9.549,20.146 9.334,20.122C10.588,20.915 12.042,21.336 13.526,21.334C18.558,21.334 21.309,17.23 21.309,13.67L21.299,13.32C21.836,12.943 22.299,12.472 22.667,11.93Z" style="fill:white;fill-rule:nonzero;"/>
</svg>
