<svg width="32" height="32" viewBox="0 0 32 32" fill="none" xmlns="http://www.w3.org/2000/svg">
<path d="M16.0003 26.667C18.8293 26.667 21.5424 25.5432 23.5428 23.5428C25.5432 21.5424 26.667 18.8293 26.667 16.0003C26.667 13.1713 25.5432 10.4582 23.5428 8.45785C21.5424 6.45747 18.8293 5.33366 16.0003 5.33366C13.1713 5.33366 10.4582 6.45747 8.45785 8.45785C6.45747 10.4582 5.33366 13.1713 5.33366 16.0003C5.33366 18.8293 6.45747 21.5424 8.45785 23.5428C10.4582 25.5432 13.1713 26.667 16.0003 26.667ZM16.0003 29.3337C8.63633 29.3337 2.66699 23.3643 2.66699 16.0003C2.66699 8.63633 8.63633 2.66699 16.0003 2.66699C23.3643 2.66699 29.3337 8.63633 29.3337 16.0003C29.3337 23.3643 23.3643 29.3337 16.0003 29.3337Z" fill="#59596C"/>
<path d="M22.6673 11.9297C22.1767 12.143 21.65 12.2897 21.0967 12.3537C21.662 12.0203 22.094 11.4923 22.2993 10.8643C21.7606 11.1783 21.1728 11.3992 20.5607 11.5177C20.3032 11.2478 19.9934 11.0331 19.6502 10.8869C19.307 10.7406 18.9377 10.6658 18.5647 10.667C17.054 10.667 15.83 11.8737 15.83 13.3603C15.83 13.571 15.854 13.7763 15.9007 13.9737C14.8171 13.9222 13.7561 13.6455 12.7855 13.1611C11.8149 12.6767 10.9559 11.9953 10.2633 11.1603C10.0201 11.5698 9.892 12.0374 9.89265 12.5137C9.89265 13.447 10.3767 14.2737 11.11 14.755C10.6759 14.7414 10.2511 14.6258 9.86998 14.4177V14.451C9.8741 15.077 10.0951 15.6821 10.4952 16.1635C10.8954 16.6448 11.45 16.9726 12.0647 17.091C11.6611 17.1977 11.2389 17.2132 10.8287 17.1363C11.0075 17.6748 11.3496 18.1443 11.8073 18.4795C12.2651 18.8147 12.816 18.9991 13.3833 19.007C12.4099 19.7571 11.2148 20.1623 9.98598 20.159C9.76598 20.159 9.54865 20.1457 9.33398 20.1217C10.5879 20.9154 12.0419 21.3358 13.526 21.3337C18.558 21.3337 21.3087 17.2297 21.3087 13.6697L21.2993 13.3203C21.8357 12.9434 22.2992 12.4722 22.6673 11.9297Z" fill="#59596C"/>
</svg>
