<svg width="32" height="32" viewBox="0 0 32 32" fill="none" xmlns="http://www.w3.org/2000/svg">
<path d="M16.0003 26.667C18.8293 26.667 21.5424 25.5432 23.5428 23.5428C25.5432 21.5424 26.667 18.8293 26.667 16.0003C26.667 13.1713 25.5432 10.4582 23.5428 8.45785C21.5424 6.45747 18.8293 5.33366 16.0003 5.33366C13.1713 5.33366 10.4582 6.45747 8.45785 8.45785C6.45747 10.4582 5.33366 13.1713 5.33366 16.0003C5.33366 18.8293 6.45747 21.5424 8.45785 23.5428C10.4582 25.5432 13.1713 26.667 16.0003 26.667ZM16.0003 29.3337C8.63633 29.3337 2.66699 23.3643 2.66699 16.0003C2.66699 8.63633 8.63633 2.66699 16.0003 2.66699C23.3643 2.66699 29.3337 8.63633 29.3337 16.0003C29.3337 23.3643 23.3643 29.3337 16.0003 29.3337Z" fill="#59596C"/>
<path d="M19.898 11.3682H12.1033C10.574 11.3682 9.33398 12.5948 9.33398 14.1068V17.9602C9.33398 19.4735 10.574 20.6988 12.1033 20.6988H19.898C21.4273 20.6988 22.6673 19.4722 22.6673 17.9602V14.1068C22.6673 12.5935 21.4273 11.3682 19.898 11.3682ZM18.026 16.2215L14.3793 17.9415C14.357 17.952 14.3324 17.9568 14.3078 17.9553C14.2831 17.9538 14.2593 17.9461 14.2384 17.933C14.2175 17.9198 14.2003 17.9016 14.1884 17.88C14.1764 17.8584 14.1701 17.8342 14.17 17.8095V14.2628C14.1702 14.2378 14.1768 14.2133 14.1892 14.1916C14.2015 14.1699 14.2192 14.1517 14.2406 14.1387C14.262 14.1258 14.2863 14.1185 14.3113 14.1176C14.3363 14.1167 14.3611 14.1221 14.3833 14.1335L18.0287 15.9602C18.0526 15.9727 18.0727 15.9916 18.0866 16.0148C18.1004 16.038 18.1077 16.0646 18.1074 16.0916C18.1071 16.1187 18.0994 16.1451 18.085 16.168C18.0706 16.191 18.0502 16.2095 18.026 16.2215Z" fill="#59596C"/>
</svg>
