<svg width="372" height="200" viewBox="0 0 372 200" fill="none" xmlns="http://www.w3.org/2000/svg">
<path fill-rule="evenodd" clip-rule="evenodd" d="M205.293 44C210.62 44 214.939 48.3135 214.939 53.6344V87.3548L186 116.258H166.707C161.38 116.258 157.061 111.945 157.061 106.624V53.6344C157.061 48.3135 161.38 44 166.707 44H205.293ZM186 106.624V87.3548L205.293 87.3548V53.6344L166.707 53.6344V106.624H186Z" fill="#2F3134"/>
<path d="M82 155.537V138.127C82 136.703 82.3448 135.433 83.0344 134.318C83.724 133.179 84.6633 132.277 85.8522 131.612C87.0649 130.948 88.4203 130.615 89.9184 130.615H99.5133V136.134H90.9171C90.3227 136.134 89.8233 136.335 89.4191 136.739C89.0148 137.142 88.8127 137.629 88.8127 138.199V141.367H98.3719V146.779H88.8127V155.537H82Z" fill="#2F3134"/>
<path d="M103.989 155.537V137.202H110.195V155.537H103.989ZM107.092 135.208C106.141 135.208 105.32 134.864 104.631 134.176C103.965 133.487 103.632 132.68 103.632 131.755C103.632 130.805 103.965 129.998 104.631 129.334C105.32 128.645 106.141 128.301 107.092 128.301C108.043 128.301 108.852 128.645 109.517 129.334C110.207 129.998 110.552 130.805 110.552 131.755C110.552 132.68 110.207 133.487 109.517 134.176C108.852 134.864 108.043 135.208 107.092 135.208Z" fill="#2F3134"/>
<path d="M115.56 155.537V129.547H121.731V155.537H115.56Z" fill="#2F3134"/>
<path d="M137.083 155.537C135.014 155.537 133.183 155.169 131.59 154.433C130.021 153.698 128.772 152.641 127.845 151.265C126.941 149.888 126.49 148.262 126.49 146.387C126.49 144.299 126.93 142.542 127.809 141.118C128.689 139.694 129.854 138.614 131.305 137.878C132.755 137.142 134.313 136.775 135.977 136.775C137.785 136.775 139.342 137.154 140.65 137.914C141.982 138.65 143.004 139.694 143.718 141.047C144.455 142.4 144.823 143.978 144.823 145.782C144.823 146.162 144.799 146.601 144.752 147.099C144.728 147.574 144.669 147.978 144.574 148.31H132.91C133.053 148.832 133.279 149.271 133.588 149.627C133.921 149.959 134.349 150.209 134.872 150.375C135.419 150.541 136.037 150.624 136.726 150.624H142.79V155.537H137.083ZM132.696 144.714H138.974C138.974 144.358 138.926 144.037 138.831 143.753C138.736 143.444 138.605 143.159 138.439 142.898C138.272 142.637 138.07 142.412 137.832 142.222C137.594 142.032 137.309 141.889 136.976 141.795C136.643 141.7 136.287 141.652 135.906 141.652C135.407 141.652 134.967 141.735 134.586 141.901C134.206 142.067 133.885 142.293 133.623 142.578C133.362 142.839 133.148 143.159 132.981 143.539C132.839 143.895 132.743 144.287 132.696 144.714Z" fill="#2F3134"/>
<path d="M167.87 155.964C166.396 155.964 165.017 155.656 163.733 155.039C162.473 154.422 161.45 153.52 160.665 152.333C159.904 151.146 159.524 149.734 159.524 148.096V137.843C159.524 137.487 159.441 137.178 159.274 136.917C159.132 136.632 158.93 136.419 158.668 136.276C158.406 136.134 158.109 136.062 157.776 136.062C157.443 136.062 157.146 136.134 156.885 136.276C156.623 136.419 156.409 136.632 156.243 136.917C156.076 137.178 155.993 137.487 155.993 137.843V155.537H149.394V138.092C149.394 136.478 149.775 135.077 150.536 133.891C151.296 132.704 152.307 131.79 153.567 131.149C154.851 130.485 156.254 130.152 157.776 130.152C159.298 130.152 160.689 130.485 161.949 131.149C163.21 131.79 164.22 132.704 164.981 133.891C165.742 135.077 166.123 136.478 166.123 138.092V148.345C166.123 148.678 166.206 148.986 166.372 149.271C166.539 149.532 166.753 149.746 167.014 149.912C167.276 150.054 167.561 150.126 167.87 150.126C168.18 150.126 168.465 150.054 168.727 149.912C169.012 149.746 169.238 149.532 169.404 149.271C169.571 148.986 169.654 148.678 169.654 148.345V138.092C169.654 136.478 170.034 135.077 170.795 133.891C171.556 132.704 172.567 131.79 173.827 131.149C175.111 130.485 176.514 130.152 178.036 130.152C179.534 130.152 180.913 130.485 182.174 131.149C183.434 131.79 184.444 132.704 185.205 133.891C185.966 135.077 186.347 136.478 186.347 138.092V155.537H179.784V137.771C179.784 137.439 179.701 137.142 179.534 136.881C179.368 136.62 179.154 136.419 178.892 136.276C178.63 136.134 178.345 136.062 178.036 136.062C177.703 136.062 177.394 136.134 177.109 136.276C176.847 136.419 176.633 136.62 176.467 136.881C176.324 137.142 176.253 137.439 176.253 137.771V148.096C176.253 149.734 175.86 151.146 175.076 152.333C174.291 153.52 173.268 154.422 172.008 155.039C170.748 155.656 169.369 155.964 167.87 155.964Z" fill="#2F3134"/>
<path d="M199.148 156C197.554 156 196.14 155.597 194.903 154.79C193.667 153.983 192.692 152.879 191.978 151.478C191.289 150.054 190.944 148.44 190.944 146.636C190.944 144.738 191.36 143.041 192.192 141.545C193.048 140.05 194.237 138.887 195.759 138.056C197.281 137.202 199.076 136.775 201.145 136.775C203.166 136.775 204.902 137.19 206.353 138.021C207.827 138.851 208.968 139.991 209.777 141.438C210.585 142.886 210.99 144.548 210.99 146.423V155.537H205.033V152.689H204.89C204.557 153.33 204.129 153.899 203.606 154.398C203.083 154.896 202.453 155.288 201.716 155.573C201.002 155.858 200.146 156 199.148 156ZM201.002 150.624C201.763 150.624 202.417 150.446 202.964 150.09C203.511 149.71 203.939 149.2 204.248 148.559C204.557 147.918 204.712 147.194 204.712 146.387C204.712 145.58 204.557 144.88 204.248 144.287C203.939 143.67 203.511 143.183 202.964 142.827C202.417 142.447 201.763 142.257 201.002 142.257C200.265 142.257 199.611 142.447 199.041 142.827C198.494 143.183 198.066 143.67 197.757 144.287C197.447 144.88 197.293 145.58 197.293 146.387C197.293 147.194 197.447 147.918 197.757 148.559C198.066 149.2 198.494 149.71 199.041 150.09C199.611 150.446 200.265 150.624 201.002 150.624Z" fill="#2F3134"/>
<path d="M216.252 155.537V142.72C216.252 141.011 216.739 139.67 217.714 138.697C218.713 137.7 220.092 137.202 221.852 137.202H227.487V142.044H223.742C223.362 142.044 223.053 142.162 222.815 142.4C222.577 142.637 222.458 142.946 222.458 143.325V155.537H216.252Z" fill="#2F3134"/>
<path d="M231.518 155.537V129.547H237.689V144.037H239.686L243.645 137.202H250.601L245.785 144.714C247.117 145.284 248.14 146.126 248.853 147.242C249.566 148.334 249.923 149.698 249.923 151.336V155.537H243.752V151.336C243.752 150.743 243.61 150.22 243.324 149.77C243.063 149.319 242.694 148.963 242.219 148.701C241.767 148.44 241.256 148.31 240.685 148.31H237.689V155.537H231.518Z" fill="#2F3134"/>
<path d="M264.884 155.537C262.815 155.537 260.984 155.169 259.391 154.433C257.822 153.698 256.573 152.641 255.646 151.265C254.742 149.888 254.29 148.262 254.29 146.387C254.29 144.299 254.73 142.542 255.61 141.118C256.49 139.694 257.655 138.614 259.106 137.878C260.556 137.142 262.114 136.775 263.778 136.775C265.585 136.775 267.143 137.154 268.451 137.914C269.783 138.65 270.805 139.694 271.518 141.047C272.256 142.4 272.624 143.978 272.624 145.782C272.624 146.162 272.6 146.601 272.553 147.099C272.529 147.574 272.47 147.978 272.374 148.31H260.711C260.853 148.832 261.079 149.271 261.389 149.627C261.721 149.959 262.149 150.209 262.673 150.375C263.219 150.541 263.838 150.624 264.527 150.624H270.591V155.537H264.884ZM260.497 144.714H266.774C266.774 144.358 266.727 144.037 266.632 143.753C266.537 143.444 266.406 143.159 266.239 142.898C266.073 142.637 265.871 142.412 265.633 142.222C265.395 142.032 265.11 141.889 264.777 141.795C264.444 141.7 264.087 141.652 263.707 141.652C263.208 141.652 262.768 141.735 262.387 141.901C262.007 142.067 261.686 142.293 261.424 142.578C261.163 142.839 260.949 143.159 260.782 143.539C260.639 143.895 260.544 144.287 260.497 144.714Z" fill="#2F3134"/>
<path d="M284.436 155.537C282.7 155.537 281.333 155.051 280.334 154.077C279.359 153.081 278.871 151.728 278.871 150.019V132.823H285.042V149.556C285.042 149.817 285.137 150.042 285.327 150.232C285.518 150.399 285.744 150.482 286.005 150.482H290V155.537H284.436ZM275.982 142.044V137.202H290V142.044H275.982Z" fill="#2F3134"/>
</svg>
