<svg width="372" height="200" viewBox="0 0 372 200" fill="none" xmlns="http://www.w3.org/2000/svg">
<path fill-rule="evenodd" clip-rule="evenodd" d="M88.3232 76C91.8936 76 94.7879 78.8654 94.7879 82.4V104.8L75.3939 124H62.4646C58.8943 124 56 121.135 56 117.6V82.4C56 78.8654 58.8943 76 62.4646 76H88.3232ZM75.3939 117.6V104.8L88.3232 104.8V82.4L62.4646 82.4V117.6H75.3939Z" fill="#2F3134"/>
<path d="M106.909 113.339V95.9913C106.909 94.5722 107.256 93.3069 107.949 92.1954C108.642 91.0602 109.586 90.1614 110.782 89.4992C112.001 88.837 113.363 88.5059 114.869 88.5059H124.514V94.0046H115.873C115.275 94.0046 114.773 94.2057 114.367 94.6077C113.961 95.0098 113.758 95.4946 113.758 96.0622V99.2195H123.367V104.612H113.758V113.339H106.909Z" fill="#2F3134"/>
<path d="M129.013 113.339V95.0689H135.252V113.339H129.013ZM132.133 93.0823C131.177 93.0823 130.352 92.7393 129.659 92.0535C128.989 91.3676 128.655 90.5635 128.655 89.6411C128.655 88.6951 128.989 87.891 129.659 87.2288C130.352 86.5429 131.177 86.2 132.133 86.2C133.089 86.2 133.902 86.5429 134.571 87.2288C135.264 87.891 135.611 88.6951 135.611 89.6411C135.611 90.5635 135.264 91.3676 134.571 92.0535C133.902 92.7393 133.089 93.0823 132.133 93.0823Z" fill="#2F3134"/>
<path d="M140.645 113.339V87.4416H146.848V113.339H140.645Z" fill="#2F3134"/>
<path d="M162.281 113.339C160.202 113.339 158.361 112.972 156.759 112.239C155.182 111.506 153.927 110.453 152.995 109.082C152.086 107.71 151.632 106.09 151.632 104.222C151.632 102.14 152.074 100.39 152.959 98.9712C153.843 97.5522 155.014 96.4761 156.473 95.7429C157.931 95.0098 159.496 94.6432 161.17 94.6432C162.986 94.6432 164.552 95.0216 165.867 95.7784C167.205 96.5116 168.233 97.5522 168.95 98.9003C169.691 100.248 170.062 101.821 170.062 103.619C170.062 103.997 170.038 104.434 169.99 104.931C169.966 105.404 169.906 105.806 169.811 106.137H158.086C158.229 106.658 158.457 107.095 158.767 107.45C159.102 107.781 159.532 108.029 160.058 108.195C160.608 108.36 161.229 108.443 161.923 108.443H168.018V113.339H162.281ZM157.871 102.554H164.182C164.182 102.199 164.134 101.88 164.038 101.596C163.942 101.289 163.811 101.005 163.644 100.745C163.476 100.485 163.273 100.26 163.034 100.071C162.795 99.8817 162.508 99.7398 162.174 99.6452C161.839 99.5506 161.48 99.5033 161.098 99.5033C160.596 99.5033 160.154 99.5861 159.771 99.7517C159.389 99.9172 159.066 100.142 158.803 100.426C158.54 100.686 158.325 101.005 158.158 101.384C158.014 101.738 157.919 102.129 157.871 102.554Z" fill="#2F3134"/>
<path d="M193.23 113.765C191.748 113.765 190.361 113.457 189.071 112.842C187.804 112.227 186.776 111.329 185.987 110.146C185.222 108.963 184.84 107.556 184.84 105.924V95.7075C184.84 95.3527 184.756 95.0452 184.589 94.7851C184.445 94.5013 184.242 94.2884 183.979 94.1465C183.716 94.0046 183.417 93.9337 183.083 93.9337C182.748 93.9337 182.449 94.0046 182.186 94.1465C181.923 94.2884 181.708 94.5013 181.541 94.7851C181.374 95.0452 181.29 95.3527 181.29 95.7075V113.339H174.657V95.9558C174.657 94.3476 175.039 92.9522 175.804 91.7697C176.569 90.5871 177.585 89.6766 178.852 89.038C180.143 88.3758 181.553 88.0447 183.083 88.0447C184.613 88.0447 186.011 88.3758 187.278 89.038C188.545 89.6766 189.561 90.5871 190.326 91.7697C191.091 92.9522 191.473 94.3476 191.473 95.9558V106.173C191.473 106.504 191.557 106.811 191.724 107.095C191.891 107.355 192.106 107.568 192.369 107.734C192.632 107.876 192.919 107.947 193.23 107.947C193.541 107.947 193.828 107.876 194.09 107.734C194.377 107.568 194.604 107.355 194.772 107.095C194.939 106.811 195.023 106.504 195.023 106.173V95.9558C195.023 94.3476 195.405 92.9522 196.17 91.7697C196.935 90.5871 197.951 89.6766 199.218 89.038C200.509 88.3758 201.919 88.0447 203.449 88.0447C204.955 88.0447 206.341 88.3758 207.608 89.038C208.875 89.6766 209.891 90.5871 210.656 91.7697C211.421 92.9522 211.803 94.3476 211.803 95.9558V113.339H205.206V95.6365C205.206 95.3054 205.122 95.0098 204.955 94.7496C204.787 94.4895 204.572 94.2884 204.309 94.1465C204.046 94.0046 203.76 93.9337 203.449 93.9337C203.114 93.9337 202.803 94.0046 202.517 94.1465C202.254 94.2884 202.038 94.4895 201.871 94.7496C201.728 95.0098 201.656 95.3054 201.656 95.6365V105.924C201.656 107.556 201.262 108.963 200.473 110.146C199.684 111.329 198.656 112.227 197.389 112.842C196.122 113.457 194.736 113.765 193.23 113.765Z" fill="#2F3134"/>
<path d="M224.671 113.8C223.07 113.8 221.647 113.398 220.404 112.594C219.161 111.79 218.181 110.69 217.464 109.295C216.771 107.876 216.424 106.267 216.424 104.47C216.424 102.578 216.843 100.887 217.679 99.3969C218.54 97.9069 219.735 96.7481 221.265 95.9203C222.795 95.0689 224.599 94.6432 226.679 94.6432C228.711 94.6432 230.456 95.0571 231.914 95.8848C233.396 96.7126 234.543 97.8478 235.356 99.2905C236.169 100.733 236.575 102.389 236.575 104.257V113.339H230.587V110.501H230.444C230.109 111.139 229.679 111.707 229.153 112.204C228.627 112.7 227.994 113.09 227.253 113.374C226.536 113.658 225.675 113.8 224.671 113.8ZM226.536 108.443C227.301 108.443 227.958 108.266 228.508 107.911C229.057 107.533 229.488 107.024 229.799 106.386C230.109 105.747 230.265 105.026 230.265 104.222C230.265 103.417 230.109 102.72 229.799 102.129C229.488 101.514 229.057 101.029 228.508 100.674C227.958 100.296 227.301 100.106 226.536 100.106C225.795 100.106 225.137 100.296 224.564 100.674C224.014 101.029 223.584 101.514 223.273 102.129C222.962 102.72 222.807 103.417 222.807 104.222C222.807 105.026 222.962 105.747 223.273 106.386C223.584 107.024 224.014 107.533 224.564 107.911C225.137 108.266 225.795 108.443 226.536 108.443Z" fill="#2F3134"/>
<path d="M241.865 113.339V100.568C241.865 98.8648 242.355 97.5285 243.335 96.5589C244.339 95.5656 245.726 95.0689 247.494 95.0689H253.16V99.8936H249.395C249.012 99.8936 248.702 100.012 248.462 100.248C248.223 100.485 248.104 100.792 248.104 101.171V113.339H241.865Z" fill="#2F3134"/>
<path d="M257.211 113.339V87.4416H263.414V101.88H265.422L269.402 95.0689H276.394L271.554 102.554C272.892 103.122 273.92 103.961 274.637 105.073C275.354 106.161 275.713 107.521 275.713 109.153V113.339H269.51V109.153C269.51 108.561 269.366 108.041 269.079 107.592C268.817 107.142 268.446 106.788 267.968 106.528C267.514 106.267 267 106.137 266.426 106.137H263.414V113.339H257.211Z" fill="#2F3134"/>
<path d="M290.752 113.339C288.673 113.339 286.832 112.972 285.23 112.239C283.653 111.506 282.398 110.453 281.466 109.082C280.557 107.71 280.103 106.09 280.103 104.222C280.103 102.14 280.545 100.39 281.43 98.9712C282.314 97.5522 283.486 96.4761 284.944 95.7429C286.402 95.0098 287.967 94.6432 289.641 94.6432C291.457 94.6432 293.023 95.0216 294.338 95.7784C295.676 96.5116 296.704 97.5522 297.421 98.9003C298.162 100.248 298.533 101.821 298.533 103.619C298.533 103.997 298.509 104.434 298.461 104.931C298.437 105.404 298.378 105.806 298.282 106.137H286.557C286.701 106.658 286.928 107.095 287.238 107.45C287.573 107.781 288.003 108.029 288.529 108.195C289.079 108.36 289.701 108.443 290.394 108.443H296.489V113.339H290.752ZM286.342 102.554H292.653C292.653 102.199 292.605 101.88 292.509 101.596C292.414 101.289 292.282 101.005 292.115 100.745C291.947 100.485 291.744 100.26 291.505 100.071C291.266 99.8817 290.979 99.7398 290.645 99.6452C290.31 99.5506 289.952 99.5033 289.569 99.5033C289.067 99.5033 288.625 99.5861 288.242 99.7517C287.86 99.9172 287.537 100.142 287.274 100.426C287.011 100.686 286.796 101.005 286.629 101.384C286.485 101.738 286.39 102.129 286.342 102.554Z" fill="#2F3134"/>
<path d="M310.407 113.339C308.662 113.339 307.287 112.854 306.283 111.884C305.303 110.891 304.813 109.543 304.813 107.84V90.7054H311.016V107.379C311.016 107.639 311.112 107.864 311.303 108.053C311.494 108.219 311.721 108.301 311.984 108.301H316V113.339H310.407ZM301.909 99.8936V95.0689H316V99.8936H301.909Z" fill="#2F3134"/>
</svg>
