<svg width="372" height="200" viewBox="0 0 372 200" fill="none" xmlns="http://www.w3.org/2000/svg">
<path d="M65 115.465V95.3522C65 93.7069 65.4012 92.2399 66.2035 90.9512C67.0058 89.635 68.0986 88.593 69.4819 87.8252C70.8929 87.0574 72.4698 86.6735 74.2128 86.6735H85.376V93.0488H75.3748C74.6831 93.0488 74.1021 93.2819 73.6318 93.7481C73.1615 94.2142 72.9263 94.7763 72.9263 95.4344V99.0951H84.0481V105.347H72.9263V115.465H65Z" fill="white"/>
<path d="M90.5832 115.465V94.2828H97.804V115.465H90.5832ZM94.1936 91.9794C93.087 91.9794 92.1325 91.5818 91.3302 90.7866C90.5555 89.9914 90.1682 89.0591 90.1682 87.9897C90.1682 86.8929 90.5555 85.9606 91.3302 85.1928C92.1325 84.3976 93.087 84 94.1936 84C95.3002 84 96.2409 84.3976 97.0155 85.1928C97.8178 85.9606 98.219 86.8929 98.219 87.9897C98.219 89.0591 97.8178 89.9914 97.0155 90.7866C96.2409 91.5818 95.3002 91.9794 94.1936 91.9794Z" fill="white"/>
<path d="M104.046 115.465V85.4396H111.225V115.465H104.046Z" fill="white"/>
<path d="M129.087 115.465C126.68 115.465 124.55 115.04 122.696 114.19C120.87 113.34 119.418 112.12 118.339 110.53C117.288 108.939 116.762 107.061 116.762 104.895C116.762 102.482 117.274 100.452 118.297 98.8072C119.321 97.162 120.677 95.9143 122.364 95.0643C124.052 94.2142 125.864 93.7892 127.801 93.7892C129.903 93.7892 131.715 94.2279 133.237 95.1054C134.786 95.9554 135.976 97.162 136.806 98.7249C137.664 100.288 138.092 102.111 138.092 104.195C138.092 104.634 138.065 105.141 138.009 105.717C137.982 106.266 137.913 106.732 137.802 107.116H124.232C124.398 107.719 124.661 108.226 125.02 108.638C125.408 109.021 125.906 109.309 126.514 109.501C127.151 109.693 127.87 109.789 128.672 109.789H135.727V115.465H129.087ZM123.983 102.961H131.287C131.287 102.55 131.231 102.18 131.121 101.851C131.01 101.494 130.858 101.165 130.664 100.864C130.47 100.562 130.235 100.302 129.959 100.082C129.682 99.8629 129.35 99.6984 128.963 99.5887C128.575 99.479 128.16 99.4242 127.718 99.4242C127.137 99.4242 126.625 99.5201 126.182 99.7121C125.74 99.904 125.366 100.165 125.062 100.494C124.757 100.795 124.508 101.165 124.315 101.604C124.149 102.015 124.038 102.468 123.983 102.961Z" fill="white"/>
<path d="M164.907 115.959C163.192 115.959 161.587 115.602 160.093 114.889C158.627 114.177 157.437 113.135 156.524 111.763C155.639 110.392 155.196 108.761 155.196 106.869V95.0231C155.196 94.6118 155.099 94.2554 154.906 93.9537C154.74 93.6247 154.505 93.3779 154.2 93.2134C153.896 93.0488 153.55 92.9666 153.163 92.9666C152.775 92.9666 152.43 93.0488 152.125 93.2134C151.821 93.3779 151.572 93.6247 151.378 93.9537C151.185 94.2554 151.088 94.6118 151.088 95.0231V115.465H143.41V95.3111C143.41 93.4464 143.853 91.8286 144.738 90.4576C145.624 89.0865 146.8 88.0308 148.266 87.2905C149.76 86.5227 151.392 86.1388 153.163 86.1388C154.933 86.1388 156.552 86.5227 158.018 87.2905C159.484 88.0308 160.66 89.0865 161.546 90.4576C162.431 91.8286 162.874 93.4464 162.874 95.3111V107.157C162.874 107.541 162.97 107.897 163.164 108.226C163.358 108.528 163.607 108.775 163.911 108.967C164.215 109.131 164.547 109.213 164.907 109.213C165.267 109.213 165.599 109.131 165.903 108.967C166.235 108.775 166.498 108.528 166.691 108.226C166.885 107.897 166.982 107.541 166.982 107.157V95.3111C166.982 93.4464 167.425 91.8286 168.31 90.4576C169.195 89.0865 170.371 88.0308 171.837 87.2905C173.331 86.5227 174.964 86.1388 176.734 86.1388C178.477 86.1388 180.082 86.5227 181.548 87.2905C183.014 88.0308 184.19 89.0865 185.076 90.4576C185.961 91.8286 186.403 93.4464 186.403 95.3111V115.465H178.768V94.9409C178.768 94.557 178.671 94.2142 178.477 93.9126C178.284 93.611 178.035 93.3779 177.73 93.2134C177.426 93.0488 177.094 92.9666 176.734 92.9666C176.347 92.9666 175.987 93.0488 175.655 93.2134C175.351 93.3779 175.102 93.611 174.908 93.9126C174.742 94.2142 174.659 94.557 174.659 94.9409V106.869C174.659 108.761 174.203 110.392 173.29 111.763C172.377 113.135 171.187 114.177 169.721 114.889C168.255 115.602 166.65 115.959 164.907 115.959Z" fill="white"/>
<path d="M201.297 116C199.443 116 197.797 115.534 196.358 114.602C194.92 113.669 193.785 112.394 192.955 110.776C192.153 109.131 191.752 107.266 191.752 105.183C191.752 102.989 192.236 101.028 193.204 99.3008C194.2 97.5733 195.584 96.2296 197.354 95.2699C199.125 94.2828 201.214 93.7892 203.621 93.7892C205.972 93.7892 207.992 94.2691 209.68 95.2288C211.395 96.1885 212.723 97.5047 213.663 99.1774C214.604 100.85 215.074 102.769 215.074 104.936V115.465H208.144V112.175H207.978C207.591 112.915 207.093 113.573 206.484 114.149C205.876 114.725 205.142 115.177 204.285 115.506C203.455 115.835 202.459 116 201.297 116ZM203.455 109.789C204.34 109.789 205.101 109.584 205.737 109.172C206.373 108.734 206.871 108.144 207.231 107.404C207.591 106.663 207.771 105.827 207.771 104.895C207.771 103.962 207.591 103.153 207.231 102.468C206.871 101.755 206.373 101.193 205.737 100.781C205.101 100.343 204.34 100.123 203.455 100.123C202.597 100.123 201.836 100.343 201.172 100.781C200.536 101.193 200.038 101.755 199.678 102.468C199.319 103.153 199.139 103.962 199.139 104.895C199.139 105.827 199.319 106.663 199.678 107.404C200.038 108.144 200.536 108.734 201.172 109.172C201.836 109.584 202.597 109.789 203.455 109.789Z" fill="white"/>
<path d="M221.197 115.465V100.658C221.197 98.6838 221.764 97.1345 222.898 96.0103C224.06 94.8586 225.665 94.2828 227.712 94.2828H234.269V99.8766H229.912C229.469 99.8766 229.109 100.014 228.833 100.288C228.556 100.562 228.418 100.919 228.418 101.357V115.465H221.197Z" fill="white"/>
<path d="M238.958 115.465V85.4396H246.138V102.18H248.462L253.068 94.2828H261.16L255.558 102.961C257.107 103.62 258.297 104.593 259.127 105.882C259.957 107.143 260.372 108.72 260.372 110.612V115.465H253.193V110.612C253.193 109.926 253.027 109.323 252.695 108.802C252.39 108.281 251.961 107.87 251.408 107.568C250.883 107.266 250.288 107.116 249.624 107.116H246.138V115.465H238.958Z" fill="white"/>
<path d="M277.779 115.465C275.372 115.465 273.241 115.04 271.388 114.19C269.562 113.34 268.109 112.12 267.03 110.53C265.979 108.939 265.453 107.061 265.453 104.895C265.453 102.482 265.965 100.452 266.989 98.8072C268.012 97.162 269.368 95.9143 271.056 95.0643C272.743 94.2142 274.555 93.7892 276.492 93.7892C278.595 93.7892 280.407 94.2279 281.928 95.1054C283.478 95.9554 284.667 97.162 285.497 98.7249C286.355 100.288 286.784 102.111 286.784 104.195C286.784 104.634 286.756 105.141 286.701 105.717C286.673 106.266 286.604 106.732 286.493 107.116H272.923C273.089 107.719 273.352 108.226 273.712 108.638C274.099 109.021 274.597 109.309 275.206 109.501C275.842 109.693 276.561 109.789 277.364 109.789H284.418V115.465H277.779ZM272.674 102.961H279.978C279.978 102.55 279.923 102.18 279.812 101.851C279.701 101.494 279.549 101.165 279.355 100.864C279.162 100.562 278.927 100.302 278.65 100.082C278.373 99.8629 278.041 99.6984 277.654 99.5887C277.267 99.479 276.852 99.4242 276.409 99.4242C275.828 99.4242 275.316 99.5201 274.874 99.7121C274.431 99.904 274.057 100.165 273.753 100.494C273.449 100.795 273.2 101.165 273.006 101.604C272.84 102.015 272.729 102.468 272.674 102.961Z" fill="white"/>
<path d="M300.526 115.465C298.507 115.465 296.916 114.903 295.754 113.779C294.619 112.627 294.052 111.064 294.052 109.09V89.2237H301.232V108.555C301.232 108.857 301.342 109.117 301.564 109.337C301.785 109.529 302.048 109.625 302.352 109.625H307V115.465H300.526ZM290.691 99.8766V94.2828H307V99.8766H290.691Z" fill="white"/>
</svg>
