<svg width="372" height="200" viewBox="0 0 372 200" fill="none" xmlns="http://www.w3.org/2000/svg">
<path fill-rule="evenodd" clip-rule="evenodd" d="M266.323 52.1404C265.996 51.9532 265.594 51.9532 265.267 52.1404L222.71 76.4832C222.378 76.6727 222.174 77.0251 222.174 77.4067V89.5781C222.174 89.9597 222.378 90.3121 222.71 90.5016L233.349 96.5873C233.676 96.7746 234.078 96.7746 234.405 96.5873L238.893 94.0206V140.85C238.893 141.232 239.097 141.584 239.428 141.774L250.068 147.86C250.395 148.047 250.797 148.047 251.124 147.86L261.764 141.774C262.095 141.584 262.299 141.232 262.299 140.85V92.1648C262.299 91.7832 262.095 91.4308 261.764 91.2413L252.758 86.0899L276.963 72.2446C277.294 72.0551 277.498 71.7027 277.498 71.321V59.1496C277.498 58.768 277.294 58.4156 276.963 58.2261L266.323 52.1404ZM250.068 85.1557C250.126 85.1223 250.187 85.0949 250.249 85.0735L275.371 70.7039V60.9839L234.941 84.1095V93.8296L239.265 91.356C239.316 91.3132 239.37 91.2747 239.428 91.2413L250.068 85.1557ZM233.877 82.2667L274.292 59.1496L265.795 54.2896L225.381 77.4067L233.877 82.2667ZM232.813 93.8296L224.302 88.961V79.241L232.813 84.1095V93.8296ZM249.532 145.102L241.021 140.233V93.9991L249.532 98.8676V145.102ZM260.171 140.233L251.66 145.102V98.8676L260.171 93.9991V140.233ZM250.615 87.3156L259.093 92.1648L250.596 97.0248L242.118 92.1756L250.615 87.3156Z" fill="#2F3134"/>
<path fill-rule="evenodd" clip-rule="evenodd" d="M138.651 53.433C138.324 53.2458 137.922 53.2458 137.595 53.433L95.0376 77.7758C94.7064 77.9653 94.502 78.3177 94.502 78.6993V90.8707C94.502 91.2523 94.7064 91.6047 95.0376 91.7942L104.062 96.9564L95.0376 102.119C94.7064 102.308 94.502 102.66 94.502 103.042V115.213C94.502 115.595 94.7064 115.948 95.0376 116.137L104.062 121.299L95.0376 126.461C94.7064 126.651 94.502 127.003 94.502 127.385V139.556C94.502 139.938 94.7064 140.29 95.0376 140.48L105.677 146.565C106.004 146.753 106.406 146.753 106.733 146.565L149.291 122.223C149.622 122.033 149.826 121.681 149.826 121.299V109.128C149.826 108.746 149.622 108.394 149.291 108.204L140.266 103.042L149.291 97.8799C149.622 97.6905 149.826 97.3381 149.826 96.9564V84.785C149.826 84.4034 149.622 84.051 149.291 83.8615L140.266 78.6993L149.291 73.5372C149.622 73.3477 149.826 72.9953 149.826 72.6137V60.4423C149.826 60.0606 149.622 59.7082 149.291 59.5187L138.651 53.433ZM137.595 77.7758L107.269 95.1222V85.4022L147.699 62.2765V71.9965L137.603 77.7714L137.595 77.7758ZM106.205 83.5594L146.62 60.4423L138.123 55.5822L97.7087 78.6993L106.205 83.5594ZM105.141 95.1222L96.6298 90.2536V80.5336L105.141 85.4022V95.1222ZM106.205 107.902L97.7087 103.042L138.123 79.925L146.62 84.785L106.205 107.902ZM107.269 109.745L147.699 86.6193V96.3393L137.603 102.114L137.595 102.119L107.269 119.465V109.745ZM96.6298 104.876L105.141 109.745V119.465L96.6298 114.596V104.876ZM106.205 132.245L97.7087 127.385L138.123 104.268L146.62 109.128L106.205 132.245ZM107.269 134.088L147.699 110.962V120.682L107.269 143.808V134.088ZM96.6298 129.219L105.141 134.088V143.808L96.6298 138.939V129.219Z" fill="#2F3134"/>
<path fill-rule="evenodd" clip-rule="evenodd" d="M202.487 53.433C202.16 53.2458 201.758 53.2458 201.431 53.433L158.874 77.7758C158.542 77.9653 158.338 78.3177 158.338 78.6993V90.8707C158.338 91.2523 158.542 91.6047 158.874 91.7942L167.898 96.9564L158.874 102.119C158.542 102.308 158.338 102.66 158.338 103.042V115.213C158.338 115.595 158.542 115.947 158.874 116.137L167.898 121.299L158.874 126.461C158.542 126.651 158.338 127.003 158.338 127.385V139.556C158.338 139.938 158.542 140.29 158.874 140.48L169.513 146.566C169.84 146.753 170.242 146.753 170.569 146.566L181.209 140.48C181.54 140.29 181.744 139.938 181.744 139.556V127.385C181.744 127.003 181.54 126.651 181.209 126.461L172.184 121.299L202.487 103.966C202.819 103.776 203.023 103.424 203.023 103.042V90.8707C203.023 90.4891 202.819 90.1367 202.487 89.9472L193.463 84.785L213.127 73.5372C213.458 73.3477 213.662 72.9953 213.662 72.6137V60.4423C213.662 60.0606 213.458 59.7082 213.127 59.5187L202.487 53.433ZM190.792 83.8615L171.105 95.1222V85.4022L211.535 62.2765V71.9965L190.797 83.8583L190.792 83.8615ZM210.456 60.4423L170.041 83.5594L161.545 78.6993L201.959 55.5822L210.456 60.4423ZM168.977 95.1222L160.466 90.2536V80.5336L168.977 85.4022V95.1222ZM161.545 103.042L170.564 97.8832L170.569 97.88L191.32 86.0107L199.816 90.8707L170.041 107.902L161.545 103.042ZM171.105 109.745L200.895 92.705V102.425L171.105 119.465V109.745ZM160.466 104.876L168.977 109.745V119.465L160.466 114.596V104.876ZM161.545 127.385L170.041 122.525L178.538 127.385L170.041 132.245L161.545 127.385ZM171.105 134.088L179.617 129.219V138.939L171.105 143.808V134.088ZM160.466 129.219L168.977 134.088V143.808L160.466 138.939V129.219Z" fill="#2F3134"/>
</svg>
