<svg width="372" height="200" viewBox="0 0 372 200" fill="none" xmlns="http://www.w3.org/2000/svg">
<path d="M147.858 59.5391L104.269 84.4323V96.879L147.858 71.9857V59.5391Z" fill="#4E32A0"/>
<path d="M93.3706 78.2058L104.268 84.4291L147.858 59.5358L136.96 53.3125L93.3706 78.2058Z" fill="#864AD3"/>
<path d="M104.268 84.4343L93.3706 78.2109V90.6576L104.268 96.8809V84.4343Z" fill="#E14BEC"/>
<path d="M147.858 84.4375L104.269 109.331V121.777L147.858 96.8841V84.4375Z" fill="#4E32A0"/>
<path d="M93.3706 103.104L104.268 109.328L147.858 84.4343L136.96 78.2109L93.3706 103.104Z" fill="#864AD3"/>
<path d="M104.268 109.317L93.3706 103.094V115.54L104.268 121.764V109.317Z" fill="#E14BEC"/>
<path d="M147.858 109.32L104.269 134.214V146.66L147.858 121.767V109.32Z" fill="#4E32A0"/>
<path d="M93.3706 127.987L104.268 134.21L147.858 109.317L136.96 103.094L93.3706 127.987Z" fill="#864AD3"/>
<path d="M104.268 134.231L93.3706 128.008V140.454L104.268 146.678V134.231Z" fill="#E14BEC"/>
<path d="M158.755 140.454L169.652 146.678V134.231L158.755 128.008V140.454Z" fill="#2FEF92"/>
<path d="M169.653 146.678L180.551 140.454V128.008L169.653 134.231V146.678Z" fill="#10379E"/>
<path d="M158.755 128.012L169.652 134.236L180.55 128.012L169.652 121.789L158.755 128.012Z" fill="#489AF0"/>
<path d="M202.345 90.6641L169.653 109.334V121.781L202.345 103.111V90.6641Z" fill="#10379E"/>
<path d="M158.755 103.107L169.652 109.331L202.344 90.6608L191.447 84.4375L158.755 103.107Z" fill="#489AF0"/>
<path d="M169.652 109.317L158.755 103.094V115.54L169.652 121.764V109.317Z" fill="#2FEF92"/>
<path d="M213.243 59.5391L169.653 84.4323V96.879L213.243 71.9857V59.5391Z" fill="#10379E"/>
<path d="M158.755 78.2058L169.652 84.4291L213.242 59.5358L202.344 53.3125L158.755 78.2058Z" fill="#489AF0"/>
<path d="M169.652 84.4343L158.755 78.2109V90.6576L169.652 96.8809V84.4343Z" fill="#2FEF92"/>
<path d="M241.263 141.779L252.16 148.002V98.2155L241.263 91.9922V141.779Z" fill="#00DCFF"/>
<path d="M252.158 148.002L263.056 141.779V91.9922L252.158 98.2155V148.002Z" fill="#4160ED"/>
<path d="M241.263 91.9889L252.16 98.2123L263.057 91.9889L252.16 85.7656L241.263 91.9889Z" fill="#66A0DB"/>
<path d="M278.63 58.2266L235.04 83.1198V95.5665L278.63 70.6732V58.2266Z" fill="#4160ED"/>
<path d="M224.137 76.8933L235.035 83.1166L278.624 58.2233L267.727 52L224.137 76.8933Z" fill="#66A0DB"/>
<path d="M235.035 83.1218L224.137 76.8984V89.3451L235.035 95.5684V83.1218Z" fill="#00DCFF"/>
</svg>
