<svg width="372" height="200" viewBox="0 0 372 200" fill="none" xmlns="http://www.w3.org/2000/svg">
<path fill-rule="evenodd" clip-rule="evenodd" d="M189.662 103.086C195.24 103.352 201.127 104.135 205.717 105.227C208.269 105.829 207.96 105.674 208.372 106.517C208.811 107.42 209.447 109.269 209.722 110.473C210.203 112.554 210.384 114.256 210.384 116.621C210.384 119.441 210.048 121.832 209.335 124.017C208.948 125.212 207.951 127.276 207.685 127.456C207.083 127.843 201.6 128.738 197.698 129.082C193.976 129.409 193.186 129.434 185.966 129.434C178.747 129.434 177.956 129.409 174.234 129.082C172.412 128.918 169.817 128.591 168.132 128.316C166.637 128.067 164.522 127.611 164.299 127.49C164.067 127.371 163.061 125.255 162.683 124.103C161.592 120.757 161.317 116.191 161.953 112.149C162.253 110.223 162.898 108.03 163.603 106.5L163.938 105.777L165.408 105.416C170.702 104.109 177.165 103.258 183.86 103C185.674 102.931 186.774 102.939 189.662 103.086Z" fill="#274799"/>
<path d="M214.329 126.975C213.701 128.574 212.747 130.509 211.939 131.79C207.891 138.266 201.832 142.901 194.561 145.059C192.421 145.696 189.378 146.22 187.642 146.255L186.869 146.272L186.817 143.916C186.783 142.617 186.757 139.194 186.748 136.305L186.74 131.051L190.074 130.999C193.615 130.939 194.999 130.87 198.085 130.595C204.617 130.002 210.177 128.738 213.254 127.155C213.864 126.837 214.397 126.571 214.432 126.562C214.466 126.562 214.423 126.742 214.329 126.975Z" fill="white"/>
<path d="M161.385 128.248C164.797 129.374 168.871 130.139 173.848 130.595C176.942 130.87 178.325 130.939 181.918 130.999L185.304 131.051L185.253 138.575C185.218 143.477 185.349 146.202 185.289 146.262C185.074 146.477 182.545 146.186 180.122 145.73C171.097 144.036 163.001 137.93 158.893 129.735C158.386 128.72 157.518 126.751 157.518 126.613C157.518 126.588 158.033 126.837 158.661 127.155C159.391 127.525 160.363 127.912 161.385 128.248Z" fill="white"/>
<path d="M185.287 85.543C185.373 85.6891 185.314 87.9239 185.287 87.9766C185.141 88.2597 184.978 88.226 184.574 88.3721C183.774 88.6646 183.07 89.1203 182.614 89.6362C182.176 90.1351 181.765 90.8175 181.583 91.7001C181.395 92.6098 181.514 93.463 181.738 94.0735C182.167 95.2775 183.25 96.3008 184.531 96.7222L185.201 96.9371L185.193 99.0784C185.193 100.317 185.15 101.263 185.107 101.314C185.046 101.383 184.462 101.435 183.414 101.478C173.779 101.839 164.11 103.627 158.351 106.121C157.655 106.422 157.088 106.637 157.088 106.603C157.088 106.353 157.99 104.169 158.592 102.948C161.119 97.8573 165.038 93.2996 169.335 90.479C173.555 87.71 178.274 86.0245 183.302 85.5C184.6 85.3624 185.175 85.371 185.287 85.543Z" fill="white"/>
<path d="M188.467 85.4914C195.532 86.1879 202.116 89.2235 206.903 94.0048C209.559 96.6533 211.75 99.6804 213.383 102.948C214.028 104.238 214.947 106.491 214.879 106.611C214.861 106.646 214.277 106.422 213.581 106.121C207.822 103.627 198.153 101.839 188.519 101.478C187.47 101.435 186.886 101.383 186.86 101.323C186.843 101.271 186.817 100.256 186.808 99.0698L186.783 96.9113L187.393 96.7307C188.622 96.3696 189.903 95.1485 190.298 93.9532C191.054 91.6915 189.731 89.1805 187.35 88.3636C186.92 88.226 186.74 88.1142 186.705 87.9852C186.68 87.8906 186.654 87.3058 186.654 86.6781C186.654 85.6891 186.671 85.5343 186.808 85.4569C186.997 85.3452 186.929 85.3452 188.467 85.4914Z" fill="white"/>
<path d="M207.341 53.6651C207.848 54.095 208.269 55.2732 208.544 57.0704C208.751 58.4119 208.742 62.5224 208.536 64.8529C208.011 70.6833 206.765 77.4424 204.952 84.2444C204.316 86.6265 203.551 89.1461 203.465 89.1461C203.422 89.1461 202.408 88.5785 201.213 87.8906C200.01 87.2026 198.703 86.4889 198.317 86.3083C197.406 85.8955 195.73 85.2936 194.905 85.0958C194.552 85.0098 194.105 84.8894 193.916 84.812C193.727 84.7432 193.504 84.683 193.418 84.6744C193.306 84.6744 193.28 84.6228 193.315 84.4766C193.34 84.3734 193.495 83.6855 193.658 82.9545C195.137 76.4706 197.552 68.8945 199.821 63.6059C201.686 59.2805 203.516 56.1245 205.089 54.5336C206.112 53.4931 206.817 53.2265 207.341 53.6651Z" fill="white"/>
<path d="M165.76 53.6479C166.258 53.8801 167.453 55.084 168.106 56.0041C171.656 60.9917 175.799 71.9302 178.36 83.0233C178.704 84.5369 178.721 84.6744 178.515 84.6744C178.429 84.683 178.205 84.7432 178.016 84.812C177.827 84.8894 177.38 85.0098 177.028 85.0958C176.203 85.2936 174.527 85.8955 173.616 86.3083C173.229 86.4889 171.914 87.2112 170.711 87.8992C169.499 88.5957 168.493 89.1461 168.476 89.1289C168.407 89.0687 167.582 86.2395 167.118 84.5024C165.262 77.5799 164.015 70.8381 163.482 64.9389C163.276 62.5998 163.268 58.3259 163.474 56.9844C163.663 55.7633 163.904 54.869 164.196 54.2584C164.6 53.4415 165.004 53.2867 165.76 53.6479Z" fill="white"/>
<path d="M161.686 107.136C161.325 108.048 160.904 109.475 160.655 110.688L160.457 111.633L160.156 111.625C159.546 111.608 158.042 110.748 156.95 109.802C156.452 109.372 156.366 109.226 156.443 108.899C156.538 108.546 158.188 107.755 161.213 106.62C162.004 106.319 162.013 106.328 161.686 107.136Z" fill="#3F87BE"/>
<path d="M160.294 120.508C160.32 120.594 160.363 120.852 160.397 121.093C160.569 122.426 161.136 124.481 161.746 125.977C161.935 126.442 162.073 126.846 162.047 126.863C161.996 126.915 160.543 126.373 159.701 125.994C158.833 125.599 157.767 124.894 157.346 124.438C156.942 123.991 156.624 123.337 156.701 123.053C156.761 122.795 157.604 121.901 158.24 121.411C158.816 120.964 159.89 120.37 160.113 120.362C160.191 120.362 160.277 120.431 160.294 120.508Z" fill="#3F87BE"/>
<path d="M212.506 120.654C213.478 121.153 214.784 122.245 215.188 122.907C215.36 123.182 215.36 123.182 215.188 123.578C214.733 124.653 213.246 125.668 210.77 126.588C210.306 126.768 209.911 126.889 209.894 126.871C209.877 126.855 209.971 126.588 210.109 126.287C210.71 124.962 211.355 122.761 211.578 121.265C211.699 120.431 211.724 120.362 211.836 120.362C211.888 120.362 212.188 120.491 212.506 120.654Z" fill="#3F87BE"/>
<path d="M211.2 106.809C213.546 107.661 215.411 108.563 215.54 108.899C215.644 109.174 215.583 109.286 215.025 109.767C213.976 110.679 212.532 111.53 211.828 111.642L211.535 111.694L211.372 110.842C211.174 109.802 210.641 107.97 210.298 107.127C210.152 106.775 210.031 106.482 210.031 106.465C210.031 106.396 210.212 106.448 211.2 106.809Z" fill="#3F87BE"/>
<path d="M185.899 102.951C175.394 102.951 167.392 104.199 164.283 104.934C163.921 105.019 163.621 105.268 163.466 105.606C159.979 113.264 161.061 122.64 164.205 127.524C163.99 121.387 160.216 107.829 185.899 107.885C211.582 107.941 207.087 123.447 207.746 127.524C212.567 119.413 209.79 108.343 208.14 105.532C207.998 105.29 207.761 105.136 207.488 105.069C204.508 104.331 196.577 102.951 185.899 102.951Z" fill="#46ABEE"/>
<path d="M185.987 129.846C197.197 129.846 205.186 128.464 207.779 127.774C208.123 123.975 207.985 115.551 204.684 112.236C200.558 108.092 189.254 107.401 185.987 107.401H185.902C182.508 107.401 167.957 108.208 165.622 111.755C163.286 115.302 163.579 124.221 164.196 127.774C166.789 128.464 174.778 129.846 185.987 129.846Z" fill="#274799"/>
<path d="M185.967 129.588C197.24 129.588 205.274 128.205 207.882 127.513C211.686 119.872 210.389 111.91 209.265 108.885C209.481 114.936 207.266 120.882 185.967 120.944C164.669 121.005 163.116 112.904 162.453 108.885C159.894 118.912 162.453 125.482 164.052 127.513C166.66 128.205 174.694 129.588 185.967 129.588Z" fill="#4272FA" fill-opacity="0.5"/>
<path d="M202.429 115.85C202.429 118.522 200.264 120.688 197.594 120.688C194.924 120.688 192.76 118.522 192.76 115.85C192.76 113.179 194.924 111.013 197.594 111.013C200.264 111.013 202.429 113.179 202.429 115.85Z" fill="#8FFFB4"/>
<path d="M179.223 115.85C179.223 118.522 177.058 120.688 174.388 120.688C171.718 120.688 169.554 118.522 169.554 115.85C169.554 113.179 171.718 111.013 174.388 111.013C177.058 111.013 179.223 113.179 179.223 115.85Z" fill="#8FFFB4"/>
<path d="M175.406 75.9154L177.482 85.1495C174.703 85.9703 170.278 88.2871 168.414 89.3428C166.821 87.8796 164.642 74.4582 163.752 67.9303C167.414 72.0701 173.047 74.9786 175.406 75.9154Z" fill="url(#paint0_radial_5173_15441)"/>
<path d="M204.942 81.6044C204.167 85.2265 203.081 87.8856 202.635 88.7623L192.437 84.666L193.36 81.2164C195.538 81.9753 201.989 81.7913 204.942 81.6044Z" fill="url(#paint1_radial_5173_15441)"/>
<path fill-rule="evenodd" clip-rule="evenodd" d="M208.838 127.88C211.315 122.09 211.792 112.403 209.028 105.387C191.783 101.156 181.111 100.821 163.103 105.387C160.307 111.955 159.822 121.472 163.294 127.879C175.108 130.774 199.31 130.821 208.838 127.88ZM206.927 107.127C209.434 113.001 209.002 121.112 206.754 125.96C198.109 128.421 176.149 128.383 165.428 125.959C162.278 120.594 162.718 112.626 165.255 107.127C181.595 103.304 191.278 103.584 206.927 107.127Z" fill="#2850C2" fill-opacity="0.75"/>
<path fill-rule="evenodd" clip-rule="evenodd" d="M164.161 52.1602C163.096 52.6503 162.365 54.1896 162.013 56.6749C161.798 58.1453 161.798 63.0728 162.013 65.3258C162.425 69.6255 163.164 74.2004 164.23 79.0419C165.021 82.6192 166.843 89.4471 167.066 89.7051C167.221 89.8599 167.135 89.9974 166.697 90.3242C166.448 90.5048 165.898 90.9434 165.468 91.296C165.047 91.6571 164.608 92.0097 164.505 92.0785C164.136 92.3279 161.617 95.0367 160.913 95.9396C158.669 98.7946 157.157 101.572 155.601 105.666C154.57 108.366 154.484 108.641 154.553 109.002C154.639 109.441 154.776 109.673 155.326 110.283C156.314 111.367 158.635 112.855 159.795 113.147L160.208 113.25L160.139 113.861C160.105 114.196 160.062 115.417 160.053 116.578C160.036 118.264 160.01 118.693 159.916 118.745C159.847 118.78 159.494 118.943 159.116 119.115C157.681 119.751 156.108 121.067 155.438 122.168C155.025 122.856 154.862 123.707 155.017 124.343C155.421 125.943 156.211 128.084 157.079 129.864C160.01 135.91 164.23 140.441 170.118 143.846C172.447 145.188 175.3 146.349 177.956 147.011C181.102 147.811 182.649 148 185.966 148C188.115 148 188.716 147.966 189.92 147.803C194.948 147.123 199.305 145.523 203.465 142.84C204.582 142.118 206.808 140.407 207.711 139.573C211.707 135.892 214.698 131.274 216.434 126.123C217.036 124.343 217.113 123.956 216.993 123.329C216.709 121.832 214.836 119.983 212.627 119.02L211.974 118.737L211.965 116.69C211.956 115.563 211.922 114.325 211.879 113.938L211.81 113.242L212.188 113.138C213.134 112.88 214.99 111.771 216.082 110.808C216.718 110.249 217.32 109.475 217.423 109.097C217.534 108.701 217.5 108.607 216.417 105.751C214.861 101.658 213.349 98.8806 211.106 96.0256C210.384 95.1141 207.805 92.345 207.436 92.0871C207.324 92.0097 206.894 91.6571 206.464 91.296C206.043 90.9434 205.485 90.5048 205.244 90.3242C204.995 90.1436 204.788 89.963 204.788 89.9287C204.788 89.9029 204.84 89.7997 204.9 89.7051C205.055 89.4815 205.339 88.5356 206.026 86.0074C208.158 78.1131 209.395 71.6722 210.005 65.2399C210.212 62.9954 210.22 58.2313 210.005 56.7608C209.653 54.2498 208.88 52.6675 207.771 52.1688C207.281 51.9452 206.404 51.9452 205.803 52.1688C201.841 53.6651 196.056 66.4782 192.369 81.9054C192.068 83.1523 191.802 84.1928 191.776 84.2186C191.75 84.2444 191.432 84.2186 191.071 84.1585C189.748 83.9521 186.129 83.8489 183.731 83.9521C182.502 84.0123 181.222 84.1069 180.887 84.1585C180.551 84.2186 180.251 84.2273 180.208 84.1928C180.173 84.1499 179.958 83.3243 179.735 82.3526C178.386 76.5136 176.297 69.8233 174.277 64.8099C171.355 57.5864 168.424 53.0373 166.13 52.1688C165.537 51.9452 164.651 51.9452 164.161 52.1602ZM168.106 56.0041C167.453 55.084 166.258 53.8801 165.76 53.6479C165.004 53.2867 164.6 53.4415 164.196 54.2584C163.904 54.869 163.663 55.7633 163.474 56.9844C163.268 58.3259 163.276 62.5998 163.482 64.9389C164.015 70.8381 165.262 77.5799 167.118 84.5024C167.582 86.2395 168.407 89.0687 168.476 89.1289C168.493 89.1461 169.499 88.5957 170.711 87.8992C171.914 87.2112 173.229 86.4889 173.616 86.3083C174.527 85.8955 176.203 85.2936 177.028 85.0958C177.38 85.0098 177.827 84.8894 178.016 84.812C178.205 84.7432 178.429 84.683 178.515 84.6744C178.721 84.6744 178.704 84.5369 178.36 83.0233C175.799 71.9302 171.656 60.9917 168.106 56.0041ZM208.544 57.0704C208.269 55.2732 207.848 54.095 207.341 53.6651C206.817 53.2265 206.112 53.4931 205.089 54.5336C203.516 56.1245 201.686 59.2805 199.821 63.6059C197.552 68.8945 195.137 76.4706 193.658 82.9545C193.495 83.6855 193.34 84.3734 193.315 84.4766C193.28 84.6228 193.306 84.6744 193.418 84.6744C193.504 84.683 193.727 84.7432 193.916 84.812C194.105 84.8894 194.552 85.0098 194.905 85.0958C195.73 85.2936 197.406 85.8955 198.317 86.3083C198.703 86.4889 200.01 87.2026 201.213 87.8906C202.408 88.5785 203.422 89.1461 203.465 89.1461C203.551 89.1461 204.316 86.6265 204.952 84.2444C206.765 77.4424 208.011 70.6833 208.536 64.8529C208.742 62.5224 208.751 58.4119 208.544 57.0704ZM185.287 87.9766C185.314 87.9239 185.373 85.6891 185.287 85.543C185.175 85.371 184.6 85.3624 183.302 85.5C178.274 86.0245 173.555 87.71 169.335 90.479C165.038 93.2996 161.119 97.8573 158.592 102.948C157.99 104.169 157.088 106.353 157.088 106.603C157.088 106.637 157.655 106.422 158.351 106.121C164.11 103.627 173.779 101.839 183.414 101.478C184.462 101.435 185.046 101.383 185.107 101.314C185.15 101.263 185.193 100.317 185.193 99.0784L185.201 96.9371L184.531 96.7222C183.25 96.3008 182.167 95.2775 181.738 94.0735C181.514 93.463 181.395 92.6098 181.583 91.7001C181.765 90.8175 182.176 90.1351 182.614 89.6362C183.07 89.1203 183.774 88.6646 184.574 88.3721C184.978 88.226 185.141 88.2597 185.287 87.9766ZM206.903 94.0048C202.116 89.2235 195.532 86.1879 188.467 85.4914C186.929 85.3452 186.997 85.3452 186.808 85.4569C186.671 85.5343 186.654 85.6891 186.654 86.6781C186.654 87.3058 186.68 87.8906 186.705 87.9852C186.74 88.1142 186.92 88.226 187.35 88.3636C189.731 89.1805 191.054 91.6915 190.298 93.9532C189.903 95.1485 188.622 96.3696 187.393 96.7307L186.783 96.9113L186.808 99.0698C186.817 100.256 186.843 101.271 186.86 101.323C186.886 101.383 187.47 101.435 188.519 101.478C198.153 101.839 207.822 103.627 213.581 106.121C214.277 106.422 214.861 106.646 214.879 106.611C214.947 106.491 214.028 104.238 213.383 102.948C211.75 99.6804 209.559 96.6533 206.903 94.0048ZM205.717 105.227C201.127 104.135 195.24 103.352 189.662 103.086C186.774 102.939 185.674 102.931 183.86 103C177.165 103.258 170.702 104.109 165.408 105.416L163.938 105.777L163.603 106.5C162.898 108.03 162.253 110.223 161.953 112.149C161.317 116.191 161.592 120.757 162.683 124.103C163.061 125.255 164.067 127.371 164.299 127.49C164.522 127.611 166.637 128.067 168.132 128.316C169.817 128.591 172.412 128.918 174.234 129.082C177.956 129.409 178.747 129.434 185.966 129.434C193.186 129.434 193.976 129.409 197.698 129.082C201.6 128.738 207.083 127.843 207.685 127.456C207.951 127.276 208.948 125.212 209.335 124.017C210.048 121.832 210.384 119.441 210.384 116.621C210.384 114.256 210.203 112.554 209.722 110.473C209.447 109.269 208.811 107.42 208.372 106.517C207.96 105.674 208.269 105.829 205.717 105.227ZM160.655 110.688C160.904 109.475 161.325 108.048 161.686 107.136C162.013 106.328 162.004 106.319 161.213 106.62C158.188 107.755 156.538 108.546 156.443 108.899C156.366 109.226 156.452 109.372 156.95 109.802C158.042 110.748 159.546 111.608 160.156 111.625L160.457 111.633L160.655 110.688ZM215.54 108.899C215.411 108.563 213.546 107.661 211.2 106.809C210.212 106.448 210.031 106.396 210.031 106.465C210.031 106.482 210.152 106.775 210.298 107.127C210.641 107.97 211.174 109.802 211.372 110.842L211.535 111.694L211.828 111.642C212.532 111.53 213.976 110.679 215.025 109.767C215.583 109.286 215.644 109.174 215.54 108.899ZM160.397 121.093C160.363 120.852 160.32 120.594 160.294 120.508C160.277 120.431 160.191 120.362 160.113 120.362C159.89 120.37 158.816 120.964 158.24 121.411C157.604 121.901 156.761 122.795 156.701 123.053C156.624 123.337 156.942 123.991 157.346 124.438C157.767 124.894 158.833 125.599 159.701 125.994C160.543 126.373 161.996 126.915 162.047 126.863C162.073 126.846 161.935 126.442 161.746 125.977C161.136 124.481 160.569 122.426 160.397 121.093ZM215.188 122.907C214.784 122.245 213.478 121.153 212.506 120.654C212.188 120.491 211.888 120.362 211.836 120.362C211.724 120.362 211.699 120.431 211.578 121.265C211.355 122.761 210.71 124.962 210.109 126.287C209.971 126.588 209.877 126.855 209.894 126.871C209.911 126.889 210.306 126.768 210.77 126.588C213.246 125.668 214.733 124.653 215.188 123.578C215.36 123.182 215.36 123.182 215.188 122.907ZM173.848 130.595C168.871 130.139 164.797 129.374 161.385 128.248C160.363 127.912 159.391 127.525 158.661 127.155C158.033 126.837 157.518 126.588 157.518 126.613C157.518 126.751 158.386 128.72 158.893 129.735C163.001 137.93 171.097 144.036 180.122 145.73C182.273 146.134 184.647 146.248 185.154 146.268C185.209 146.27 185.252 146.228 185.252 146.173C185.246 145.639 185.222 142.944 185.253 138.575L185.304 131.051L181.918 130.999C178.325 130.939 176.942 130.87 173.848 130.595ZM211.939 131.79C212.747 130.509 213.701 128.574 214.329 126.975C214.423 126.742 214.466 126.562 214.432 126.562C214.397 126.571 213.864 126.837 213.254 127.155C210.177 128.738 204.617 130.002 198.085 130.595C194.999 130.87 193.615 130.939 190.074 130.999L186.74 131.051L186.748 136.305C186.757 139.194 186.783 142.617 186.817 143.916L186.866 146.176C186.868 146.229 186.912 146.271 186.965 146.269L187.642 146.255C189.378 146.22 192.421 145.696 194.561 145.059C201.832 142.901 207.891 138.266 211.939 131.79Z" fill="#1A3A96"/>
<path d="M213.767 127.356C213.14 128.956 212.186 130.891 211.378 132.172C207.33 138.648 202.046 141.911 194.775 144.069C192.635 144.706 189.592 145.23 187.856 145.265L187.083 145.282L187.031 142.926C186.997 141.627 186.782 139.226 186.773 136.337L186.765 131.082L190.099 131.031C193.64 130.971 194.438 131.252 197.523 130.976C204.055 130.383 209.616 129.119 212.693 127.537C213.303 127.219 213.836 126.952 213.87 126.944C213.905 126.944 213.862 127.124 213.767 127.356Z" fill="url(#paint2_radial_5173_15441)"/>
<path d="M161.752 128.422C165.164 129.549 168.845 130.171 173.821 130.627C176.915 130.902 178.299 130.971 181.892 131.031L185.278 131.082L185.226 138.607C185.192 143.509 185.019 145.174 184.959 145.234C184.899 145.294 182.708 145.196 180.284 144.74C171.26 143.046 163.368 138.106 159.26 129.91C158.753 128.896 157.884 126.926 157.884 126.789C157.884 126.763 158.4 127.013 159.028 127.331C159.758 127.7 160.729 128.087 161.752 128.422Z" fill="url(#paint3_radial_5173_15441)"/>
<path d="M185.304 85.5376C185.39 85.6837 185.331 87.8282 185.304 87.8809C185.157 88.164 184.994 88.1303 184.59 88.2765C183.791 88.5689 183.086 89.0246 182.631 89.5406C182.192 90.0393 181.781 90.7219 181.599 91.6045C181.412 92.5142 181.531 93.3673 181.754 93.9779C182.184 95.1818 183.426 96.2894 184.706 96.7107L185.377 96.9257L185.368 99.067C185.368 100.305 185.325 101.251 185.282 101.303C185.222 101.372 184.638 101.423 183.589 101.466C173.954 101.827 166.423 102.395 160.665 104.888C159.969 105.189 159.401 105.404 159.401 105.37C159.401 105.12 160.304 102.936 160.905 101.715C163.432 96.6243 167.985 92.4455 172.283 89.6248C176.503 86.8559 179.792 85.8792 183.477 85.4886C184.775 85.351 185.192 85.3656 185.304 85.5376Z" fill="url(#paint4_radial_5173_15441)"/>
<path d="M188.492 85.5229C198.529 86.4766 201.797 90.579 203.814 92.1483C205.832 93.7177 209.745 97.9744 211.378 101.242C212.022 102.532 212.942 104.785 212.873 104.906C212.856 104.94 212.272 104.716 211.575 104.415C205.817 101.922 198.178 101.87 188.544 101.509C187.495 101.466 186.893 101.376 186.867 101.316C186.85 101.264 186.842 100.288 186.833 99.1013L186.799 97.1493L187.409 96.9687C188.638 96.6075 190.013 95.9858 190.665 94.0363C191.458 91.6646 190.533 89.292 187.442 88.3022C187.012 88.1647 186.831 88.0529 186.797 87.9239C186.771 87.8293 186.679 87.3374 186.679 86.7096C186.679 85.7207 186.696 85.5659 186.833 85.4886C187.023 85.3767 186.954 85.3767 188.492 85.5229Z" fill="url(#paint5_radial_5173_15441)"/>
<path d="M188.989 92.3741C188.989 93.977 187.593 95.2764 185.991 95.2764C184.389 95.2764 182.929 93.977 182.929 92.3741C182.929 90.7712 184.389 89.3428 185.991 89.3428C187.593 89.3428 188.989 90.7712 188.989 92.3741Z" fill="#8FFFB4"/>
<path d="M181.825 94.2464C164.047 94.1103 160.981 97.8562 157.919 106.112C164.816 103.242 178.901 101.264 185.218 101.264V97.0533C183.216 96.8491 182.122 95.0969 181.825 94.2464Z" fill="white"/>
<path d="M190.439 94.2444C202.098 95.7887 208.584 97.9529 214.418 106.079C207.521 103.209 193.363 101.262 187.046 101.262V97.0513C189.048 96.8471 190.142 95.095 190.439 94.2444Z" fill="white"/>
<defs>
<radialGradient id="paint0_radial_5173_15441" cx="0" cy="0" r="1" gradientUnits="userSpaceOnUse" gradientTransform="translate(280.677 -131.325) rotate(108.602) scale(296.449 269.057)">
<stop offset="0.750891" stop-color="white"/>
<stop offset="1" stop-color="#63ACCF"/>
</radialGradient>
<radialGradient id="paint1_radial_5173_15441" cx="0" cy="0" r="1" gradientUnits="userSpaceOnUse" gradientTransform="translate(285.911 -213.026) rotate(105.386) scale(376.142 304.087)">
<stop offset="0.658193" stop-color="white"/>
<stop offset="1" stop-color="#63ACCF"/>
</radialGradient>
<radialGradient id="paint2_radial_5173_15441" cx="0" cy="0" r="1" gradientUnits="userSpaceOnUse" gradientTransform="translate(152.784 -6.04398) rotate(90) scale(159.393 90.8444)">
<stop offset="0.750891" stop-color="white"/>
<stop offset="1" stop-color="#63ACCF"/>
</radialGradient>
<radialGradient id="paint3_radial_5173_15441" cx="0" cy="0" r="1" gradientUnits="userSpaceOnUse" gradientTransform="translate(219.148 -4.83735) rotate(90) scale(158.316 89.9286)">
<stop offset="0.750891" stop-color="white"/>
<stop offset="1" stop-color="#63ACCF"/>
</radialGradient>
<radialGradient id="paint4_radial_5173_15441" cx="0" cy="0" r="1" gradientUnits="userSpaceOnUse" gradientTransform="translate(219 198.372) rotate(90) scale(146.31 94.8381)">
<stop offset="0.750891" stop-color="white"/>
<stop offset="1" stop-color="#63ACCF"/>
</radialGradient>
<radialGradient id="paint5_radial_5173_15441" cx="0" cy="0" r="1" gradientUnits="userSpaceOnUse" gradientTransform="translate(152.929 201.892) rotate(90) scale(149.891 94.0318)">
<stop offset="0.750891" stop-color="white"/>
<stop offset="1" stop-color="#63ACCF"/>
</radialGradient>
</defs>
</svg>
