<svg width="372" height="200" viewBox="0 0 372 200" fill="none" xmlns="http://www.w3.org/2000/svg">
<path d="M206.892 94.0048C202.107 89.2235 195.527 86.1879 188.466 85.4914C188.397 85.4849 188.332 85.4787 188.27 85.4727L188.255 85.4713C187.167 85.3676 187.012 85.3528 186.89 85.4102C186.87 85.4198 186.85 85.4315 186.828 85.4449C186.824 85.4474 186.819 85.4503 186.815 85.4528L186.808 85.457C186.67 85.5343 186.653 85.6891 186.653 86.6781C186.653 87.3058 186.679 87.8906 186.705 87.9852C186.739 88.1142 186.919 88.226 187.349 88.3636C189.729 89.1805 191.051 91.6915 190.295 93.9532C189.9 95.1485 188.62 96.3696 187.392 96.7307L186.782 96.9113L186.808 99.0698C186.816 100.257 186.842 101.271 186.859 101.323C186.885 101.383 187.469 101.435 188.517 101.478C198.147 101.839 207.811 103.627 213.567 106.121C214.263 106.422 214.847 106.646 214.864 106.611C214.933 106.491 214.014 104.238 213.369 102.948C211.737 99.6804 209.547 96.6533 206.892 94.0048Z" fill="white"/>
<path d="M185.287 87.9766C185.314 87.9239 185.373 85.6891 185.287 85.543C185.176 85.371 184.6 85.3624 183.303 85.5C178.277 86.0245 173.561 87.71 169.343 90.479C165.048 93.2996 161.131 97.8573 158.605 102.948C158.004 104.169 157.102 106.353 157.102 106.603C157.102 106.637 157.669 106.422 158.365 106.121C164.12 103.627 173.785 101.839 183.415 101.478C184.463 101.435 185.047 101.383 185.107 101.314C185.15 101.263 185.193 100.317 185.193 99.0784L185.201 96.9371L184.531 96.7222C183.251 96.3008 182.169 95.2775 181.739 94.0735C181.516 93.463 181.397 92.6098 181.585 91.7001C181.767 90.8175 182.177 90.1351 182.616 89.6362C183.071 89.1203 183.775 88.6646 184.574 88.3721C184.676 88.3351 184.763 88.3096 184.838 88.2876C185.06 88.2227 185.178 88.1879 185.287 87.9766Z" fill="white"/>
<path d="M188.987 92.3741C188.987 93.977 187.592 95.2764 185.991 95.2764C184.39 95.2764 182.931 93.977 182.931 92.3741C182.931 90.7712 184.39 89.3428 185.991 89.3428C187.592 89.3428 188.987 90.7712 188.987 92.3741Z" fill="white"/>
<path d="M168.115 56.0041C167.462 55.084 166.268 53.8801 165.77 53.6479C165.014 53.2867 164.61 53.4415 164.206 54.2584C163.914 54.869 163.674 55.7633 163.485 56.9844C163.278 58.3259 163.287 62.5998 163.493 64.9389C164.026 70.8381 165.271 77.5799 167.127 84.5024C167.591 86.2395 168.416 89.0687 168.484 89.1289C168.501 89.1461 169.507 88.5957 170.718 87.8992C171.92 87.2112 173.235 86.4889 173.621 86.3083C174.532 85.8955 176.207 85.2936 177.032 85.0958C177.384 85.0098 177.831 84.8894 178.02 84.812C178.209 84.7432 178.432 84.683 178.518 84.6744C178.724 84.6744 178.707 84.5369 178.363 83.0233C175.803 71.9301 171.663 60.9917 168.115 56.0041Z" fill="white"/>
<path d="M208.533 57.0704C208.258 55.2732 207.837 54.095 207.33 53.6651C206.806 53.2265 206.102 53.4931 205.08 54.5336C203.508 56.1245 201.678 59.2805 199.814 63.6059C197.546 68.8946 195.132 76.4706 193.654 82.9545C193.491 83.6855 193.337 84.3734 193.311 84.4766C193.276 84.6228 193.302 84.6744 193.414 84.6744C193.5 84.683 193.723 84.7432 193.912 84.812C194.101 84.8894 194.548 85.0098 194.9 85.0958C195.725 85.2936 197.4 85.8955 198.31 86.3083C198.697 86.4889 200.003 87.2026 201.205 87.8906C202.399 88.5785 203.413 89.1461 203.456 89.1461C203.542 89.1461 204.307 86.6265 204.942 84.2444C206.755 77.4424 208 70.6833 208.524 64.8529C208.731 62.5224 208.739 58.4119 208.533 57.0704Z" fill="white"/>
<path fill-rule="evenodd" clip-rule="evenodd" d="M205.707 105.227C201.119 104.135 195.235 103.352 189.66 103.086C186.773 102.939 185.674 102.931 183.861 103C177.169 103.258 170.709 104.109 165.417 105.416L163.948 105.777L163.613 106.5C162.909 108.03 162.265 110.223 161.964 112.149C161.328 116.191 161.603 120.757 162.694 124.103C163.072 125.255 164.077 127.371 164.309 127.49C164.533 127.611 166.646 128.067 168.141 128.316C169.824 128.591 172.419 128.918 174.24 129.082C177.96 129.409 178.75 129.434 185.966 129.434C193.182 129.434 193.972 129.409 197.692 129.082C201.592 128.738 207.073 127.843 207.674 127.456C207.94 127.276 208.937 125.212 209.323 124.017C210.036 121.832 210.371 119.441 210.371 116.621C210.371 114.256 210.191 112.554 209.71 110.473C209.435 109.269 208.799 107.42 208.361 106.517C208.322 106.437 208.29 106.366 208.26 106.303C208.187 106.143 208.136 106.031 208.058 105.943C207.871 105.731 207.533 105.652 206.39 105.387C206.188 105.34 205.962 105.287 205.707 105.227ZM202.42 115.85C202.42 118.522 200.257 120.688 197.588 120.688C194.919 120.688 192.756 118.522 192.756 115.85C192.756 113.179 194.919 111.013 197.588 111.013C200.257 111.013 202.42 113.179 202.42 115.85ZM174.394 120.688C177.062 120.688 179.226 118.522 179.226 115.85C179.226 113.179 177.062 111.013 174.394 111.013C171.725 111.013 169.562 113.179 169.562 115.85C169.562 118.522 171.725 120.688 174.394 120.688Z" fill="white"/>
<path d="M173.853 130.595C168.879 130.139 164.808 129.374 161.397 128.248C160.375 127.912 159.404 127.525 158.674 127.155C158.047 126.837 157.531 126.588 157.531 126.613C157.531 126.751 158.399 128.72 158.906 129.735C163.012 137.93 171.104 144.036 180.124 145.73C182.547 146.186 184.901 146.401 185.115 146.186C185.176 146.126 185.219 143.477 185.253 138.575L185.304 131.051L181.92 130.999C178.329 130.939 176.946 130.87 173.853 130.595Z" fill="white"/>
<path d="M211.926 131.79C212.734 130.509 213.687 128.574 214.314 126.975C214.409 126.742 214.452 126.562 214.418 126.562C214.383 126.571 213.851 126.837 213.241 127.155C210.165 128.738 204.607 130.002 198.078 130.595C194.994 130.87 193.611 130.939 190.072 130.999L186.739 131.051L186.748 136.305C186.756 139.194 186.782 142.617 186.816 143.916L186.868 146.272L187.641 146.255C189.376 146.22 192.417 145.696 194.556 145.059C201.824 142.901 207.88 138.266 211.926 131.79Z" fill="white"/>
<path d="M215.173 122.907C214.77 122.245 213.464 121.153 212.493 120.654C212.175 120.491 211.875 120.362 211.823 120.362C211.712 120.362 211.686 120.431 211.565 121.265C211.342 122.761 210.698 124.962 210.097 126.287C209.959 126.588 209.865 126.855 209.882 126.871C209.899 126.889 210.294 126.768 210.758 126.588C213.232 125.668 214.718 124.653 215.173 123.578C215.269 123.357 215.312 123.259 215.301 123.168C215.292 123.096 215.249 123.029 215.173 122.907Z" fill="white"/>
<path d="M215.526 108.899C215.397 108.563 213.533 107.661 211.188 106.809C210.2 106.448 210.019 106.396 210.019 106.465C210.019 106.482 210.139 106.775 210.286 107.127C210.629 107.97 211.162 109.802 211.359 110.842L211.523 111.694L211.815 111.642C212.519 111.53 213.962 110.679 215.01 109.767C215.569 109.286 215.629 109.174 215.526 108.899Z" fill="white"/>
<path d="M160.667 110.688C160.916 109.475 161.337 108.048 161.698 107.136C162.024 106.328 162.016 106.319 161.225 106.62C158.201 107.755 156.552 108.546 156.458 108.899C156.38 109.226 156.466 109.372 156.964 109.802C158.055 110.748 159.559 111.608 160.169 111.625L160.469 111.633L160.667 110.688Z" fill="white"/>
<path d="M160.409 121.093C160.375 120.852 160.332 120.594 160.306 120.508C160.289 120.431 160.203 120.362 160.126 120.362C159.902 120.37 158.829 120.964 158.253 121.411C157.617 121.901 156.775 122.795 156.715 123.053C156.638 123.337 156.956 123.991 157.36 124.438C157.781 124.894 158.846 125.599 159.713 125.994C160.555 126.373 162.007 126.915 162.059 126.863C162.084 126.846 161.947 126.442 161.758 125.977C161.148 124.481 160.581 122.426 160.409 121.093Z" fill="white"/>
</svg>
