<svg width="372" height="200" viewBox="0 0 372 200" fill="none" xmlns="http://www.w3.org/2000/svg">
<path fill-rule="evenodd" clip-rule="evenodd" d="M91.1271 103.086C96.7051 103.352 102.592 104.135 107.182 105.227C109.735 105.829 109.425 105.674 109.838 106.517C110.276 107.42 110.912 109.269 111.187 110.473C111.668 112.554 111.849 114.256 111.849 116.621C111.849 119.441 111.514 121.832 110.8 124.017C110.414 125.212 109.417 127.276 109.15 127.456C108.549 127.843 103.065 128.738 99.1632 129.082C95.4417 129.409 94.651 129.434 87.4315 129.434C80.2119 129.434 79.4212 129.409 75.6997 129.082C73.8776 128.918 71.282 128.591 69.5975 128.316C68.102 128.067 65.9877 127.611 65.7642 127.49C65.5322 127.371 64.5266 125.255 64.1485 124.103C63.0569 120.757 62.7819 116.191 63.4179 112.149C63.7187 110.223 64.3633 108.03 65.0681 106.5L65.4032 105.777L66.8729 105.416C72.1673 104.109 78.6305 103.258 85.3257 103C87.1392 102.931 88.2393 102.939 91.1271 103.086Z" fill="#274799"/>
<path d="M115.794 126.975C115.167 128.574 114.213 130.509 113.405 131.79C109.356 138.266 103.297 142.901 96.0261 145.059C93.886 145.696 90.8435 146.22 89.1074 146.255L88.3339 146.272L88.2823 143.916C88.2479 142.617 88.2222 139.194 88.2136 136.305L88.205 131.051L91.5397 130.999C95.0807 130.939 96.4644 130.87 99.55 130.595C106.082 130.002 111.643 128.738 114.72 127.155C115.33 126.837 115.863 126.571 115.897 126.562C115.931 126.562 115.888 126.742 115.794 126.975Z" fill="white"/>
<path d="M62.8506 128.248C66.2628 129.374 70.3366 130.139 75.313 130.595C78.407 130.87 79.7907 130.939 83.3834 130.999L86.7696 131.051L86.7181 138.575C86.6837 143.477 86.8148 146.202 86.7546 146.262C86.5397 146.477 84.0108 146.186 81.5871 145.73C72.5626 144.036 64.4664 137.93 60.3582 129.735C59.8511 128.72 58.9831 126.751 58.9831 126.613C58.9831 126.588 59.4987 126.837 60.1261 127.155C60.8567 127.525 61.8279 127.912 62.8506 128.248Z" fill="white"/>
<path d="M86.7524 85.543C86.8384 85.6891 86.7797 87.9239 86.7524 87.9766C86.6062 88.2597 86.4431 88.226 86.0391 88.3721C85.2398 88.6646 84.5351 89.1203 84.0795 89.6362C83.6412 90.1351 83.2301 90.8175 83.0482 91.7001C82.8607 92.6098 82.9794 93.463 83.2029 94.0735C83.6326 95.2775 84.7156 96.3008 85.9961 96.7222L86.6665 96.9371L86.6579 99.0784C86.6579 100.317 86.6149 101.263 86.5719 101.314C86.5118 101.383 85.9274 101.435 84.8788 101.478C75.2442 101.839 65.5752 103.627 59.8167 106.121C59.1206 106.422 58.5533 106.637 58.5533 106.603C58.5533 106.353 59.4558 104.169 60.0574 102.948C62.5842 97.8573 66.5034 93.2996 70.8007 90.479C75.0207 87.71 79.7392 86.0245 84.7671 85.5C86.0649 85.3624 86.6407 85.371 86.7524 85.543Z" fill="white"/>
<path d="M89.9325 85.4914C96.9973 86.1879 103.581 89.2235 108.368 94.0048C111.024 96.6533 113.215 99.6804 114.848 102.948C115.493 104.238 116.413 106.491 116.344 106.611C116.327 106.646 115.742 106.422 115.046 106.121C109.288 103.627 99.6187 101.839 89.9841 101.478C88.9355 101.435 88.3511 101.383 88.3253 101.323C88.3081 101.271 88.2823 100.256 88.2737 99.0698L88.2479 96.9113L88.8582 96.7307C90.0872 96.3696 91.3678 95.1485 91.7632 93.9532C92.5195 91.6915 91.1959 89.1805 88.8152 88.3636C88.3855 88.226 88.205 88.1142 88.1706 87.9852C88.1448 87.8906 88.119 87.3058 88.119 86.6781C88.119 85.6891 88.1362 85.5343 88.2737 85.4569C88.4628 85.3452 88.394 85.3452 89.9325 85.4914Z" fill="white"/>
<path d="M108.806 53.6651C109.314 54.095 109.735 55.2732 110.01 57.0704C110.216 58.4119 110.207 62.5224 110.001 64.8529C109.477 70.6833 108.231 77.4424 106.417 84.2444C105.781 86.6265 105.016 89.1461 104.93 89.1461C104.887 89.1461 103.873 88.5785 102.678 87.8906C101.475 87.2026 100.169 86.4889 99.782 86.3083C98.8709 85.8955 97.195 85.2936 96.3699 85.0958C96.0175 85.0098 95.5706 84.8894 95.3815 84.812C95.1925 84.7432 94.969 84.683 94.883 84.6744C94.7713 84.6744 94.7456 84.6228 94.7799 84.4766C94.8057 84.3734 94.9604 83.6855 95.1237 82.9545C96.6019 76.4706 99.0171 68.8945 101.286 63.6059C103.151 59.2805 104.982 56.1245 106.555 54.5336C107.577 53.4931 108.282 53.2265 108.806 53.6651Z" fill="white"/>
<path d="M67.2253 53.6479C67.7238 53.8801 68.9185 55.084 69.5717 56.0041C73.1213 60.9917 77.264 71.9302 79.8252 83.0233C80.1689 84.5369 80.1861 84.6744 79.9799 84.6744C79.8939 84.683 79.6705 84.7432 79.4813 84.812C79.2923 84.8894 78.8454 85.0098 78.493 85.0958C77.6679 85.2936 75.9919 85.8955 75.0809 86.3083C74.6941 86.4889 73.3792 87.2112 72.1759 87.8992C70.964 88.5957 69.9584 89.1461 69.9412 89.1289C69.8725 89.0687 69.0474 86.2395 68.5833 84.5024C66.7269 77.5799 65.4806 70.8381 64.9478 64.9389C64.7415 62.5998 64.7329 58.3259 64.9391 56.9844C65.1283 55.7633 65.3689 54.869 65.6611 54.2584C66.0651 53.4415 66.469 53.2867 67.2253 53.6479Z" fill="white"/>
<path d="M63.1515 107.136C62.7905 108.048 62.3694 109.475 62.1201 110.688L61.9224 111.633L61.6216 111.625C61.0114 111.608 59.5073 110.748 58.4158 109.802C57.9173 109.372 57.8314 109.226 57.9087 108.899C58.0033 108.546 59.6534 107.755 62.6788 106.62C63.4694 106.319 63.4781 106.328 63.1515 107.136Z" fill="#3F87BE"/>
<path d="M61.7591 120.508C61.7849 120.594 61.8279 120.852 61.8623 121.093C62.0342 122.426 62.6014 124.481 63.2116 125.977C63.4007 126.442 63.5382 126.846 63.5124 126.863C63.4609 126.915 62.0084 126.373 61.1661 125.994C60.298 125.599 59.2323 124.894 58.8112 124.438C58.4072 123.991 58.0892 123.337 58.1666 123.053C58.2267 122.795 59.069 121.901 59.705 121.411C60.2808 120.964 61.3552 120.37 61.5786 120.362C61.656 120.362 61.7419 120.431 61.7591 120.508Z" fill="#3F87BE"/>
<path d="M113.972 120.654C114.943 121.153 116.249 122.245 116.653 122.907C116.825 123.182 116.825 123.182 116.653 123.578C116.198 124.653 114.711 125.668 112.236 126.588C111.772 126.768 111.376 126.889 111.359 126.871C111.342 126.855 111.436 126.588 111.574 126.287C112.175 124.962 112.82 122.761 113.044 121.265C113.164 120.431 113.19 120.362 113.301 120.362C113.353 120.362 113.654 120.491 113.972 120.654Z" fill="#3F87BE"/>
<path d="M112.665 106.809C115.012 107.661 116.877 108.563 117.006 108.899C117.109 109.174 117.049 109.286 116.49 109.767C115.442 110.679 113.998 111.53 113.293 111.642L113.001 111.694L112.837 110.842C112.64 109.802 112.107 107.97 111.763 107.127C111.617 106.775 111.497 106.482 111.497 106.465C111.497 106.396 111.677 106.448 112.665 106.809Z" fill="#3F87BE"/>
<path d="M87.3642 102.951C76.8594 102.951 68.8574 104.199 65.7487 104.934C65.3867 105.019 65.0859 105.268 64.9317 105.606C61.4444 113.264 62.5266 122.64 65.6701 127.524C65.4549 121.387 61.6811 107.829 87.3642 107.885C113.047 107.941 108.552 123.447 109.212 127.524C114.033 119.413 111.256 108.343 109.606 105.532C109.463 105.29 109.226 105.136 108.953 105.069C105.973 104.331 98.0421 102.951 87.3642 102.951Z" fill="#46ABEE"/>
<path d="M87.4527 129.846C98.6624 129.846 106.651 128.464 109.244 127.774C109.588 123.975 109.451 115.551 106.15 112.236C102.024 108.092 90.7193 107.401 87.4527 107.401H87.3675C83.9735 107.401 69.4227 108.208 67.0872 111.755C64.7517 115.302 65.0448 124.221 65.6609 127.774C68.2541 128.464 76.243 129.846 87.4527 129.846Z" fill="#274799"/>
<path d="M87.4325 129.588C98.7055 129.588 106.739 128.205 109.347 127.513C113.151 119.872 111.854 111.91 110.73 108.885C110.947 114.936 108.731 120.882 87.4325 120.944C66.134 121.005 64.5811 112.904 63.9183 108.885C61.3595 118.912 63.9183 125.482 65.5177 127.513C68.1255 128.205 76.1595 129.588 87.4325 129.588Z" fill="#4272FA" fill-opacity="0.5"/>
<path d="M103.894 115.85C103.894 118.522 101.729 120.688 99.0594 120.688C96.3894 120.688 94.2248 118.522 94.2248 115.85C94.2248 113.179 96.3894 111.013 99.0594 111.013C101.729 111.013 103.894 113.179 103.894 115.85Z" fill="#8FFFB4"/>
<path d="M80.6882 115.85C80.6882 118.522 78.5237 120.688 75.8537 120.688C73.1837 120.688 71.0192 118.522 71.0192 115.85C71.0192 113.179 73.1837 111.013 75.8537 111.013C78.5237 111.013 80.6882 113.179 80.6882 115.85Z" fill="#8FFFB4"/>
<path d="M76.8713 75.9154L78.9478 85.1495C76.1679 85.9703 71.7438 88.2871 69.8792 89.3428C68.2858 87.8796 66.1077 74.4582 65.2178 67.9303C68.8791 72.0701 74.5124 74.9786 76.8713 75.9154Z" fill="url(#paint0_radial_5173_15439)"/>
<path d="M106.408 81.6044C105.633 85.2265 104.547 87.8856 104.101 88.7623L93.9025 84.666L94.8254 81.2164C97.0035 81.9753 103.455 81.7913 106.408 81.6044Z" fill="url(#paint1_radial_5173_15439)"/>
<path fill-rule="evenodd" clip-rule="evenodd" d="M110.303 127.88C112.78 122.09 113.257 112.403 110.494 105.387C93.2479 101.156 82.5764 100.821 64.5683 105.387C61.7724 111.955 61.2872 121.472 64.7589 127.879C76.5736 130.774 100.775 130.821 110.303 127.88ZM108.392 107.127C110.899 113.001 110.467 121.112 108.219 125.96C99.5738 128.421 77.6138 128.383 66.8935 125.959C63.7433 120.594 64.1836 112.626 66.7206 107.127C83.0607 103.304 92.7437 103.584 108.392 107.127Z" fill="#2850C2" fill-opacity="0.75"/>
<path fill-rule="evenodd" clip-rule="evenodd" d="M65.6267 52.1602C64.561 52.6503 63.8304 54.1896 63.4781 56.6749C63.2632 58.1453 63.2632 63.0728 63.4781 65.3258C63.8906 69.6255 64.6297 74.2004 65.6955 79.0419C66.4862 82.6192 68.3083 89.4471 68.5318 89.7051C68.6865 89.8599 68.6005 89.9974 68.1621 90.3242C67.9129 90.5048 67.3628 90.9434 66.9331 91.296C66.512 91.6571 66.0736 92.0097 65.9705 92.0785C65.6009 92.3279 63.0827 95.0367 62.3779 95.9396C60.1347 98.7946 58.6221 101.572 57.0664 105.666C56.0351 108.366 55.9491 108.641 56.0179 109.002C56.1038 109.441 56.2413 109.673 56.7914 110.283C57.7798 111.367 60.1004 112.855 61.2606 113.147L61.6732 113.25L61.6044 113.861C61.57 114.196 61.5271 115.417 61.5185 116.578C61.5013 118.264 61.4755 118.693 61.381 118.745C61.3122 118.78 60.9598 118.943 60.5817 119.115C59.1463 119.751 57.5735 121.067 56.9031 122.168C56.4906 122.856 56.3273 123.707 56.482 124.343C56.8859 125.943 57.6767 128.084 58.5447 129.864C61.4755 135.91 65.6955 140.441 71.5828 143.846C73.912 145.188 76.7654 146.349 79.4212 147.011C82.5668 147.811 84.1139 148 87.4315 148C89.5801 148 90.1817 147.966 91.385 147.803C96.4129 147.123 100.77 145.523 104.93 142.84C106.048 142.118 108.274 140.407 109.176 139.573C113.173 135.892 116.163 131.274 117.9 126.123C118.501 124.343 118.579 123.956 118.458 123.329C118.175 121.832 116.301 119.983 114.092 119.02L113.439 118.737L113.43 116.69C113.422 115.563 113.387 114.325 113.344 113.938L113.276 113.242L113.654 113.138C114.599 112.88 116.456 111.771 117.547 110.808C118.183 110.249 118.785 109.475 118.888 109.097C119 108.701 118.965 108.607 117.882 105.751C116.327 101.658 114.814 98.8806 112.571 96.0256C111.849 95.1141 109.271 92.345 108.901 92.0871C108.789 92.0097 108.36 91.6571 107.93 91.296C107.509 90.9434 106.95 90.5048 106.709 90.3242C106.46 90.1436 106.254 89.963 106.254 89.9287C106.254 89.9029 106.305 89.7997 106.366 89.7051C106.52 89.4815 106.804 88.5356 107.491 86.0074C109.623 78.1131 110.861 71.6722 111.471 65.2399C111.677 62.9954 111.686 58.2313 111.471 56.7608C111.118 54.2498 110.345 52.6675 109.236 52.1688C108.746 51.9452 107.87 51.9452 107.268 52.1688C103.306 53.6651 97.5216 66.4782 93.8345 81.9054C93.5336 83.1523 93.2672 84.1928 93.2414 84.2186C93.2157 84.2444 92.8977 84.2186 92.5367 84.1585C91.2131 83.9521 87.5947 83.8489 85.1968 83.9521C83.9678 84.0123 82.6872 84.1069 82.352 84.1585C82.0168 84.2186 81.716 84.2273 81.673 84.1928C81.6386 84.1499 81.4238 83.3243 81.2003 82.3526C79.851 76.5136 77.7624 69.8233 75.7426 64.8099C72.8205 57.5864 69.8897 53.0373 67.5949 52.1688C67.0019 51.9452 66.1166 51.9452 65.6267 52.1602ZM69.5717 56.0041C68.9185 55.084 67.7238 53.8801 67.2253 53.6479C66.469 53.2867 66.0651 53.4415 65.6611 54.2584C65.3689 54.869 65.1283 55.7633 64.9391 56.9844C64.7329 58.3259 64.7415 62.5998 64.9478 64.9389C65.4806 70.8381 66.7269 77.5799 68.5833 84.5024C69.0474 86.2395 69.8725 89.0687 69.9412 89.1289C69.9584 89.1461 70.964 88.5957 72.1759 87.8992C73.3792 87.2112 74.6941 86.4889 75.0809 86.3083C75.9919 85.8955 77.6679 85.2936 78.493 85.0958C78.8454 85.0098 79.2923 84.8894 79.4813 84.812C79.6705 84.7432 79.8939 84.683 79.9799 84.6744C80.1861 84.6744 80.1689 84.5369 79.8252 83.0233C77.264 71.9302 73.1213 60.9917 69.5717 56.0041ZM110.01 57.0704C109.735 55.2732 109.314 54.095 108.806 53.6651C108.282 53.2265 107.577 53.4931 106.555 54.5336C104.982 56.1245 103.151 59.2805 101.286 63.6059C99.0171 68.8945 96.6019 76.4706 95.1237 82.9545C94.9604 83.6855 94.8057 84.3734 94.7799 84.4766C94.7456 84.6228 94.7713 84.6744 94.883 84.6744C94.969 84.683 95.1925 84.7432 95.3815 84.812C95.5706 84.8894 96.0175 85.0098 96.3699 85.0958C97.195 85.2936 98.8709 85.8955 99.782 86.3083C100.169 86.4889 101.475 87.2026 102.678 87.8906C103.873 88.5785 104.887 89.1461 104.93 89.1461C105.016 89.1461 105.781 86.6265 106.417 84.2444C108.231 77.4424 109.477 70.6833 110.001 64.8529C110.207 62.5224 110.216 58.4119 110.01 57.0704ZM86.7524 87.9766C86.7797 87.9239 86.8384 85.6891 86.7524 85.543C86.6407 85.371 86.0649 85.3624 84.7671 85.5C79.7392 86.0245 75.0207 87.71 70.8007 90.479C66.5034 93.2996 62.5842 97.8573 60.0574 102.948C59.4558 104.169 58.5533 106.353 58.5533 106.603C58.5533 106.637 59.1206 106.422 59.8167 106.121C65.5752 103.627 75.2442 101.839 84.8788 101.478C85.9274 101.435 86.5118 101.383 86.5719 101.314C86.6149 101.263 86.6579 100.317 86.6579 99.0784L86.6665 96.9371L85.9961 96.7222C84.7156 96.3008 83.6326 95.2775 83.2029 94.0735C82.9794 93.463 82.8607 92.6098 83.0482 91.7001C83.2301 90.8175 83.6412 90.1351 84.0795 89.6362C84.5351 89.1203 85.2398 88.6646 86.0391 88.3721C86.4431 88.226 86.6062 88.2597 86.7524 87.9766ZM108.368 94.0048C103.581 89.2235 96.9973 86.1879 89.9325 85.4914C88.394 85.3452 88.4628 85.3452 88.2737 85.4569C88.1362 85.5343 88.119 85.6891 88.119 86.6781C88.119 87.3058 88.1448 87.8906 88.1706 87.9852C88.205 88.1142 88.3855 88.226 88.8152 88.3636C91.1959 89.1805 92.5195 91.6915 91.7632 93.9532C91.3678 95.1485 90.0872 96.3696 88.8582 96.7307L88.2479 96.9113L88.2737 99.0698C88.2823 100.256 88.3081 101.271 88.3253 101.323C88.3511 101.383 88.9355 101.435 89.9841 101.478C99.6187 101.839 109.288 103.627 115.046 106.121C115.742 106.422 116.327 106.646 116.344 106.611C116.413 106.491 115.493 104.238 114.848 102.948C113.215 99.6804 111.024 96.6533 108.368 94.0048ZM107.182 105.227C102.592 104.135 96.7051 103.352 91.1271 103.086C88.2393 102.939 87.1392 102.931 85.3257 103C78.6305 103.258 72.1673 104.109 66.8729 105.416L65.4032 105.777L65.0681 106.5C64.3633 108.03 63.7187 110.223 63.4179 112.149C62.7819 116.191 63.0569 120.757 64.1485 124.103C64.5266 125.255 65.5322 127.371 65.7642 127.49C65.9877 127.611 68.102 128.067 69.5975 128.316C71.282 128.591 73.8776 128.918 75.6997 129.082C79.4212 129.409 80.2119 129.434 87.4315 129.434C94.651 129.434 95.4417 129.409 99.1632 129.082C103.065 128.738 108.549 127.843 109.15 127.456C109.417 127.276 110.414 125.212 110.8 124.017C111.514 121.832 111.849 119.441 111.849 116.621C111.849 114.256 111.668 112.554 111.187 110.473C110.912 109.269 110.276 107.42 109.838 106.517C109.425 105.674 109.735 105.829 107.182 105.227ZM62.1201 110.688C62.3694 109.475 62.7905 108.048 63.1515 107.136C63.4781 106.328 63.4694 106.319 62.6788 106.62C59.6534 107.755 58.0033 108.546 57.9087 108.899C57.8314 109.226 57.9173 109.372 58.4158 109.802C59.5073 110.748 61.0114 111.608 61.6216 111.625L61.9224 111.633L62.1201 110.688ZM117.006 108.899C116.877 108.563 115.012 107.661 112.665 106.809C111.677 106.448 111.497 106.396 111.497 106.465C111.497 106.482 111.617 106.775 111.763 107.127C112.107 107.97 112.64 109.802 112.837 110.842L113.001 111.694L113.293 111.642C113.998 111.53 115.442 110.679 116.49 109.767C117.049 109.286 117.109 109.174 117.006 108.899ZM61.8623 121.093C61.8279 120.852 61.7849 120.594 61.7591 120.508C61.7419 120.431 61.656 120.362 61.5786 120.362C61.3552 120.37 60.2808 120.964 59.705 121.411C59.069 121.901 58.2267 122.795 58.1666 123.053C58.0892 123.337 58.4072 123.991 58.8112 124.438C59.2323 124.894 60.298 125.599 61.1661 125.994C62.0084 126.373 63.4609 126.915 63.5124 126.863C63.5382 126.846 63.4007 126.442 63.2116 125.977C62.6014 124.481 62.0342 122.426 61.8623 121.093ZM116.653 122.907C116.249 122.245 114.943 121.153 113.972 120.654C113.654 120.491 113.353 120.362 113.301 120.362C113.19 120.362 113.164 120.431 113.044 121.265C112.82 122.761 112.175 124.962 111.574 126.287C111.436 126.588 111.342 126.855 111.359 126.871C111.376 126.889 111.772 126.768 112.236 126.588C114.711 125.668 116.198 124.653 116.653 123.578C116.825 123.182 116.825 123.182 116.653 122.907ZM75.313 130.595C70.3366 130.139 66.2628 129.374 62.8506 128.248C61.8279 127.912 60.8567 127.525 60.1261 127.155C59.4987 126.837 58.9831 126.588 58.9831 126.613C58.9831 126.751 59.8511 128.72 60.3582 129.735C64.4664 137.93 72.5626 144.036 81.5871 145.73C83.7381 146.134 86.1124 146.248 86.6194 146.268C86.674 146.27 86.7175 146.228 86.7169 146.173C86.7113 145.639 86.6875 142.944 86.7181 138.575L86.7696 131.051L83.3834 130.999C79.7907 130.939 78.407 130.87 75.313 130.595ZM113.405 131.79C114.213 130.509 115.167 128.574 115.794 126.975C115.888 126.742 115.931 126.562 115.897 126.562C115.863 126.571 115.33 126.837 114.72 127.155C111.643 128.738 106.082 130.002 99.55 130.595C96.4644 130.87 95.0807 130.939 91.5397 130.999L88.205 131.051L88.2136 136.305C88.2222 139.194 88.2479 142.617 88.2823 143.916L88.3318 146.176C88.333 146.229 88.3769 146.271 88.4298 146.269L89.1074 146.255C90.8435 146.22 93.886 145.696 96.0261 145.059C103.297 142.901 109.356 138.266 113.405 131.79Z" fill="#1A3A96"/>
<path d="M115.232 127.356C114.605 128.956 113.651 130.891 112.843 132.172C108.795 138.648 103.511 141.911 96.2403 144.069C94.1002 144.706 91.0577 145.23 89.3216 145.265L88.548 145.282L88.4965 142.926C88.4621 141.627 88.2473 139.226 88.2386 136.337L88.2301 131.082L91.5648 131.031C95.1058 130.971 95.9029 131.252 98.9885 130.976C105.52 130.383 111.081 129.119 114.158 127.537C114.768 127.219 115.301 126.952 115.336 126.944C115.37 126.944 115.327 127.124 115.232 127.356Z" fill="url(#paint2_radial_5173_15439)"/>
<path d="M63.2174 128.422C66.6295 129.549 70.3102 130.171 75.2865 130.627C78.3806 130.902 79.7644 130.971 83.3569 131.031L86.7432 131.082L86.6916 138.607C86.6573 143.509 86.4846 145.174 86.4244 145.234C86.3642 145.294 84.1734 145.196 81.7497 144.74C72.7253 143.046 64.8332 138.106 60.725 129.91C60.2179 128.896 59.3498 126.926 59.3498 126.789C59.3498 126.763 59.8655 127.013 60.4929 127.331C61.2235 127.7 62.1947 128.087 63.2174 128.422Z" fill="url(#paint3_radial_5173_15439)"/>
<path d="M86.7689 85.5376C86.8549 85.6837 86.7962 87.8282 86.7689 87.8809C86.6226 88.164 86.4595 88.1303 86.0556 88.2765C85.2563 88.5689 84.5515 89.0246 84.096 89.5406C83.6577 90.0393 83.2466 90.7219 83.0647 91.6045C82.8772 92.5142 82.9959 93.3673 83.2194 93.9779C83.6491 95.1818 84.891 96.2894 86.1716 96.7107L86.842 96.9257L86.8334 99.067C86.8334 100.305 86.7905 101.251 86.7475 101.303C86.6873 101.372 86.1029 101.423 85.0543 101.466C75.4197 101.827 67.8886 102.395 62.1302 104.888C61.434 105.189 60.8667 105.404 60.8667 105.37C60.8667 105.12 61.7692 102.936 62.3708 101.715C64.8976 96.6243 69.4507 92.4455 73.748 89.6248C77.968 86.8559 81.2576 85.8792 84.9426 85.4886C86.2404 85.351 86.6572 85.3656 86.7689 85.5376Z" fill="url(#paint4_radial_5173_15439)"/>
<path d="M89.9576 85.5229C99.994 86.4766 103.262 90.579 105.28 92.1483C107.297 93.7177 111.21 97.9744 112.843 101.242C113.488 102.532 114.407 104.785 114.339 104.906C114.321 104.94 113.737 104.716 113.041 104.415C107.282 101.922 99.6438 101.87 90.0092 101.509C88.9606 101.466 88.3586 101.376 88.3328 101.316C88.3156 101.264 88.3074 100.288 88.2988 99.1013L88.2644 97.1493L88.8747 96.9687C90.1037 96.6075 91.4779 95.9858 92.1299 94.0363C92.923 91.6646 91.998 89.292 88.9069 88.3022C88.4771 88.1647 88.2966 88.0529 88.2623 87.9239C88.2365 87.8293 88.1441 87.3374 88.1441 86.7096C88.1441 85.7207 88.1613 85.5659 88.2988 85.4886C88.4879 85.3767 88.4191 85.3767 89.9576 85.5229Z" fill="url(#paint5_radial_5173_15439)"/>
<path d="M90.4539 92.3741C90.4539 93.977 89.0586 95.2764 87.4565 95.2764C85.8545 95.2764 84.3947 93.977 84.3947 92.3741C84.3947 90.7712 85.8545 89.3428 87.4565 89.3428C89.0586 89.3428 90.4539 90.7712 90.4539 92.3741Z" fill="#8FFFB4"/>
<path d="M83.2902 94.2464C65.5119 94.1103 62.446 97.8562 59.3842 106.112C66.2814 103.242 80.3659 101.264 86.6829 101.264V97.0533C84.6812 96.8491 83.5871 95.0969 83.2902 94.2464Z" fill="white"/>
<path d="M91.9043 94.2444C103.563 95.7887 110.05 97.9529 115.883 106.079C108.986 103.209 94.8285 101.262 88.5115 101.262V97.0513C90.5132 96.8471 91.6074 95.095 91.9043 94.2444Z" fill="white"/>
<path d="M141.967 102.437C143.743 102.437 145.337 102.92 146.746 103.887C148.156 104.854 149.2 106.121 149.877 107.688L146.83 109.022C146.419 108.055 145.775 107.271 144.898 106.671C144.032 106.071 143.055 105.771 141.967 105.771C140.513 105.771 139.27 106.288 138.237 107.321C137.216 108.344 136.705 109.583 136.705 111.039V116.257L142.084 116.24V119.574L136.705 119.591V126.359H133.375V110.955C133.408 109.377 133.808 107.949 134.574 106.671C135.34 105.382 136.367 104.354 137.654 103.587C138.953 102.82 140.391 102.437 141.967 102.437Z" fill="url(#paint6_linear_5173_15439)"/>
<path d="M153.451 126.426V109.272H156.781V126.426H153.451ZM153.451 105.687V102.52H156.781V105.687H153.451Z" fill="url(#paint7_linear_5173_15439)"/>
<path d="M163.668 117.79C163.668 119.246 164.179 120.491 165.2 121.525C166.233 122.547 167.476 123.058 168.931 123.058V126.393C167.343 126.393 165.9 126.009 164.601 125.242C163.302 124.464 162.264 123.425 161.487 122.125C160.721 120.813 160.338 119.369 160.338 117.79H163.668ZM163.668 102.453V117.79H160.338V102.453H163.668Z" fill="url(#paint8_linear_5173_15439)"/>
<path d="M180.247 109.188C181.824 109.188 183.262 109.577 184.56 110.355C185.87 111.122 186.903 112.15 187.658 113.439C188.424 114.729 188.818 116.173 188.84 117.774V119.374H188.574V119.391H180.114V116.057H185.226C184.849 115.012 184.211 114.162 183.311 113.506C182.423 112.85 181.402 112.522 180.247 112.522C178.804 112.522 177.566 113.039 176.534 114.073C175.502 115.095 174.985 116.335 174.985 117.79C174.985 118.802 175.252 119.702 175.785 120.491C176.329 121.28 177 121.903 177.8 122.358C178.61 122.803 179.443 123.036 180.297 123.058L180.214 126.393C178.06 126.315 176.129 125.515 174.419 123.992C172.576 122.225 171.655 120.158 171.655 117.79C171.655 116.212 172.043 114.773 172.821 113.473C173.598 112.161 174.636 111.122 175.935 110.355C177.233 109.577 178.671 109.188 180.247 109.188Z" fill="url(#paint9_linear_5173_15439)"/>
<path d="M226.994 117.79V109.272H230.324V117.79C230.324 119.369 229.936 120.813 229.158 122.125C228.381 123.425 227.343 124.464 226.045 125.242C224.746 126.009 223.308 126.393 221.732 126.393C220.144 126.393 218.701 126.009 217.402 125.242C216.103 124.464 215.065 123.425 214.288 122.125C213.522 120.813 213.139 119.369 213.139 117.79V109.272H216.469V117.79C216.469 119.246 216.98 120.491 218.001 121.525C219.034 122.547 220.277 123.058 221.732 123.058C223.175 123.058 224.413 122.547 225.445 121.525C226.477 120.491 226.994 119.246 226.994 117.79Z" fill="url(#paint10_linear_5173_15439)"/>
<path d="M242.474 109.272C244.061 109.272 245.504 109.661 246.803 110.439C248.102 111.217 249.135 112.256 249.901 113.556C250.678 114.856 251.066 116.296 251.066 117.874V126.393H247.736V117.874C247.736 116.429 247.22 115.19 246.187 114.156C245.166 113.123 243.928 112.606 242.474 112.606C241.03 112.606 239.793 113.123 238.76 114.156C237.728 115.19 237.212 116.429 237.212 117.874V126.393H233.881V117.874C233.881 116.296 234.27 114.856 235.047 113.556C235.824 112.256 236.862 111.217 238.161 110.439C239.46 109.661 240.897 109.272 242.474 109.272Z" fill="url(#paint11_linear_5173_15439)"/>
<path d="M263.216 109.272C264.803 109.272 266.246 109.661 267.545 110.439C268.844 111.217 269.877 112.256 270.643 113.556C271.42 114.856 271.808 116.296 271.808 117.874V126.393H268.478V117.874C268.478 116.429 267.962 115.19 266.929 114.156C265.908 113.123 264.67 112.606 263.216 112.606C261.772 112.606 260.535 113.123 259.502 114.156C258.47 115.19 257.954 116.429 257.954 117.874V126.393H254.623V117.874C254.623 116.296 255.012 114.856 255.789 113.556C256.566 112.256 257.604 111.217 258.903 110.439C260.202 109.661 261.639 109.272 263.216 109.272Z" fill="url(#paint12_linear_5173_15439)"/>
<path d="M275.365 126.426V109.272H278.696V126.426H275.365ZM275.365 105.687V102.52H278.696V105.687H275.365Z" fill="url(#paint13_linear_5173_15439)"/>
<path d="M290.845 109.188C292.422 109.188 293.859 109.577 295.158 110.355C296.468 111.122 297.5 112.15 298.255 113.439C299.021 114.729 299.415 116.173 299.438 117.774V119.374H299.171V119.391H290.712V116.057H295.824C295.447 115.012 294.808 114.162 293.909 113.506C293.021 112.85 292 112.522 290.845 112.522C289.402 112.522 288.164 113.039 287.132 114.073C286.099 115.095 285.583 116.335 285.583 117.79C285.583 118.802 285.849 119.702 286.382 120.491C286.926 121.28 287.598 121.903 288.397 122.358C289.208 122.803 290.04 123.036 290.895 123.058L290.812 126.393C288.658 126.315 286.726 125.515 285.017 123.992C283.174 122.225 282.253 120.158 282.253 117.79C282.253 116.212 282.641 114.773 283.418 113.473C284.195 112.161 285.233 111.122 286.532 110.355C287.831 109.577 289.269 109.188 290.845 109.188Z" fill="url(#paint14_linear_5173_15439)"/>
<path d="M313.819 116.557C315.273 117.735 316 119.119 316 120.708C316 121.753 315.706 122.703 315.117 123.559C314.54 124.414 313.758 125.098 312.769 125.609C311.781 126.12 310.688 126.376 309.489 126.376C308.301 126.376 307.213 126.12 306.225 125.609C305.237 125.098 304.449 124.414 303.861 123.559C303.283 122.703 302.995 121.753 302.995 120.708H306.258C306.258 121.419 306.575 122.03 307.208 122.542C307.84 123.042 308.601 123.292 309.489 123.292C310.388 123.292 311.154 123.042 311.787 122.542C312.42 122.03 312.736 121.419 312.736 120.708C312.736 120.219 312.57 119.785 312.237 119.408C311.904 119.019 311.487 118.713 310.988 118.491C310.499 118.268 309.989 118.152 309.456 118.141C308.301 118.052 307.269 117.668 306.358 116.99C305.226 116.068 304.66 114.973 304.66 113.706C304.66 112.484 305.154 111.439 306.142 110.572C307.13 109.694 308.318 109.255 309.705 109.255C311.104 109.255 312.298 109.694 313.286 110.572C314.274 111.439 314.768 112.484 314.768 113.706H311.487C311.487 113.339 311.31 113.023 310.954 112.756C310.61 112.489 310.194 112.356 309.705 112.356C309.228 112.356 308.812 112.489 308.457 112.756C308.101 113.023 307.924 113.339 307.924 113.706C307.924 113.973 308.024 114.206 308.223 114.406C308.423 114.606 308.662 114.762 308.939 114.873C309.217 114.984 309.483 115.045 309.739 115.056C311.26 115.156 312.62 115.657 313.819 116.557Z" fill="url(#paint15_linear_5173_15439)"/>
<path d="M206.919 111.55C208.762 113.32 209.684 115.395 209.684 117.777C209.684 119.358 209.298 120.799 208.525 122.101C207.763 123.404 206.737 124.444 205.445 125.223C204.154 126.003 202.719 126.392 201.14 126.392C199.584 126.392 198.16 126.008 196.869 125.24C195.577 124.461 194.551 123.432 193.789 122.152C193.027 120.872 192.63 119.436 192.597 117.844V102.418H195.908C197.134 102.462 198.237 102.785 199.22 103.386C200.213 103.976 201.003 104.772 201.588 105.773C202.184 106.764 202.482 107.855 202.482 109.046C202.482 109.135 202.482 109.218 202.482 109.296C204.126 109.619 205.605 110.37 206.919 111.55ZM199.17 109.046C199.17 108.166 198.856 107.415 198.226 106.792C197.608 106.169 196.836 105.823 195.908 105.757V112.351C196.836 112.285 197.608 111.94 198.226 111.316C198.856 110.693 199.17 109.936 199.17 109.046ZM201.14 123.053C202.586 123.053 203.817 122.536 204.833 121.5C205.859 120.465 206.373 119.224 206.373 117.777C206.373 116.809 206.13 115.946 205.644 115.19C205.169 114.433 204.562 113.826 203.823 113.37C203.083 112.902 202.305 112.618 201.488 112.518C200.892 113.464 200.108 114.221 199.137 114.789C198.177 115.345 197.101 115.646 195.908 115.69V117.777C195.908 119.224 196.422 120.465 197.448 121.5C198.475 122.536 199.706 123.053 201.14 123.053Z" fill="url(#paint16_linear_5173_15439)"/>
<defs>
<radialGradient id="paint0_radial_5173_15439" cx="0" cy="0" r="1" gradientUnits="userSpaceOnUse" gradientTransform="translate(577.161 -131.325) rotate(144.279) scale(481.231 684.778)">
<stop offset="0.750891" stop-color="white"/>
<stop offset="1" stop-color="#63ACCF"/>
</radialGradient>
<radialGradient id="paint1_radial_5173_15439" cx="0" cy="0" r="1" gradientUnits="userSpaceOnUse" gradientTransform="translate(598.784 -213.026) rotate(138.666) scale(549.116 860.587)">
<stop offset="0.658193" stop-color="white"/>
<stop offset="1" stop-color="#63ACCF"/>
</radialGradient>
<radialGradient id="paint2_radial_5173_15439" cx="0" cy="0" r="1" gradientUnits="userSpaceOnUse" gradientTransform="translate(48.7658 -6.04398) rotate(90) scale(159.393 375.325)">
<stop offset="0.750891" stop-color="white"/>
<stop offset="1" stop-color="#63ACCF"/>
</radialGradient>
<radialGradient id="paint3_radial_5173_15439" cx="0" cy="0" r="1" gradientUnits="userSpaceOnUse" gradientTransform="translate(322.952 -4.83735) rotate(90) scale(158.316 371.541)">
<stop offset="0.750891" stop-color="white"/>
<stop offset="1" stop-color="#63ACCF"/>
</radialGradient>
<radialGradient id="paint4_radial_5173_15439" cx="0" cy="0" r="1" gradientUnits="userSpaceOnUse" gradientTransform="translate(322.341 198.372) rotate(90) scale(146.31 391.825)">
<stop offset="0.750891" stop-color="white"/>
<stop offset="1" stop-color="#63ACCF"/>
</radialGradient>
<radialGradient id="paint5_radial_5173_15439" cx="0" cy="0" r="1" gradientUnits="userSpaceOnUse" gradientTransform="translate(49.3647 201.892) rotate(90) scale(149.891 388.494)">
<stop offset="0.750891" stop-color="white"/>
<stop offset="1" stop-color="#63ACCF"/>
</radialGradient>
<linearGradient id="paint6_linear_5173_15439" x1="178.59" y1="180.173" x2="251.504" y2="62.4092" gradientUnits="userSpaceOnUse">
<stop stop-color="#4272FA"/>
<stop offset="0.531251" stop-color="#5E90E5"/>
<stop offset="1" stop-color="#74E99A"/>
</linearGradient>
<linearGradient id="paint7_linear_5173_15439" x1="178.59" y1="180.173" x2="251.504" y2="62.4092" gradientUnits="userSpaceOnUse">
<stop stop-color="#4272FA"/>
<stop offset="0.531251" stop-color="#5E90E5"/>
<stop offset="1" stop-color="#74E99A"/>
</linearGradient>
<linearGradient id="paint8_linear_5173_15439" x1="178.59" y1="180.173" x2="251.504" y2="62.4092" gradientUnits="userSpaceOnUse">
<stop stop-color="#4272FA"/>
<stop offset="0.531251" stop-color="#5E90E5"/>
<stop offset="1" stop-color="#74E99A"/>
</linearGradient>
<linearGradient id="paint9_linear_5173_15439" x1="178.59" y1="180.173" x2="251.504" y2="62.4092" gradientUnits="userSpaceOnUse">
<stop stop-color="#4272FA"/>
<stop offset="0.531251" stop-color="#5E90E5"/>
<stop offset="1" stop-color="#74E99A"/>
</linearGradient>
<linearGradient id="paint10_linear_5173_15439" x1="178.59" y1="180.173" x2="251.504" y2="62.4092" gradientUnits="userSpaceOnUse">
<stop stop-color="#4272FA"/>
<stop offset="0.531251" stop-color="#5E90E5"/>
<stop offset="1" stop-color="#74E99A"/>
</linearGradient>
<linearGradient id="paint11_linear_5173_15439" x1="178.59" y1="180.173" x2="251.504" y2="62.4092" gradientUnits="userSpaceOnUse">
<stop stop-color="#4272FA"/>
<stop offset="0.531251" stop-color="#5E90E5"/>
<stop offset="1" stop-color="#74E99A"/>
</linearGradient>
<linearGradient id="paint12_linear_5173_15439" x1="178.59" y1="180.173" x2="251.504" y2="62.4092" gradientUnits="userSpaceOnUse">
<stop stop-color="#4272FA"/>
<stop offset="0.531251" stop-color="#5E90E5"/>
<stop offset="1" stop-color="#74E99A"/>
</linearGradient>
<linearGradient id="paint13_linear_5173_15439" x1="178.59" y1="180.173" x2="251.504" y2="62.4092" gradientUnits="userSpaceOnUse">
<stop stop-color="#4272FA"/>
<stop offset="0.531251" stop-color="#5E90E5"/>
<stop offset="1" stop-color="#74E99A"/>
</linearGradient>
<linearGradient id="paint14_linear_5173_15439" x1="178.59" y1="180.173" x2="251.504" y2="62.4092" gradientUnits="userSpaceOnUse">
<stop stop-color="#4272FA"/>
<stop offset="0.531251" stop-color="#5E90E5"/>
<stop offset="1" stop-color="#74E99A"/>
</linearGradient>
<linearGradient id="paint15_linear_5173_15439" x1="178.59" y1="180.173" x2="251.504" y2="62.4092" gradientUnits="userSpaceOnUse">
<stop stop-color="#4272FA"/>
<stop offset="0.531251" stop-color="#5E90E5"/>
<stop offset="1" stop-color="#74E99A"/>
</linearGradient>
<linearGradient id="paint16_linear_5173_15439" x1="178.59" y1="180.173" x2="251.504" y2="62.4092" gradientUnits="userSpaceOnUse">
<stop stop-color="#4272FA"/>
<stop offset="0.531251" stop-color="#5E90E5"/>
<stop offset="1" stop-color="#74E99A"/>
</linearGradient>
</defs>
</svg>
