<svg width="372" height="200" viewBox="0 0 372 200" fill="none" xmlns="http://www.w3.org/2000/svg">
<path fill-rule="evenodd" clip-rule="evenodd" d="M116.133 84C116.133 79.5817 112.655 76 108.365 76L71.893 76L57.8472 90.4L57.8746 100L57.8746 116C57.8746 120.418 61.3523 124 65.6424 124H108.365C112.655 124 116.133 120.418 116.133 116V84ZM65.6424 94H75.4041V84.0355L81.1779 84L108.365 84V116H65.6424L65.6424 94Z" fill="#0090FF"/>
<path d="M93.2197 100C93.2197 97.6436 95.0827 95.7333 97.381 95.7333H109.345C111.643 95.7333 113.506 97.6436 113.506 100C113.506 102.356 111.643 104.267 109.345 104.267H97.381C95.0827 104.267 93.2197 102.356 93.2197 100Z" fill="#0090FF"/>
<path d="M135.995 112V94.396C135.995 92.956 136.343 91.672 137.039 90.544C137.735 89.392 138.683 88.48 139.883 87.808C141.107 87.136 142.475 86.8 143.987 86.8H153.671V92.38H144.995C144.395 92.38 143.891 92.584 143.483 92.992C143.075 93.4 142.871 93.892 142.871 94.468V97.672H152.519V103.144H142.871V112H135.995Z" fill="#0090FF"/>
<path d="M156.388 112V93.46H162.652V112H156.388ZM159.52 91.444C158.56 91.444 157.732 91.096 157.036 90.4C156.364 89.704 156.028 88.888 156.028 87.952C156.028 86.992 156.364 86.176 157.036 85.504C157.732 84.808 158.56 84.46 159.52 84.46C160.48 84.46 161.296 84.808 161.968 85.504C162.664 86.176 163.012 86.992 163.012 87.952C163.012 88.888 162.664 89.704 161.968 90.4C161.296 91.096 160.48 91.444 159.52 91.444Z" fill="#0090FF"/>
<path d="M166.267 112V85.72H172.495V112H166.267Z" fill="#0090FF"/>
<path d="M186.19 112C184.102 112 182.254 111.628 180.646 110.884C179.062 110.14 177.802 109.072 176.866 107.68C175.954 106.288 175.498 104.644 175.498 102.748C175.498 100.636 175.942 98.86 176.83 97.42C177.718 95.98 178.894 94.888 180.358 94.144C181.822 93.4 183.394 93.028 185.074 93.028C186.898 93.028 188.47 93.412 189.79 94.18C191.134 94.924 192.166 95.98 192.886 97.348C193.63 98.716 194.002 100.312 194.002 102.136C194.002 102.52 193.978 102.964 193.93 103.468C193.906 103.948 193.846 104.356 193.75 104.692H181.978C182.122 105.22 182.35 105.664 182.662 106.024C182.998 106.36 183.43 106.612 183.958 106.78C184.51 106.948 185.134 107.032 185.83 107.032H191.95V112H186.19ZM181.762 101.056H188.098C188.098 100.696 188.05 100.372 187.954 100.084C187.858 99.772 187.726 99.484 187.558 99.22C187.39 98.956 187.186 98.728 186.946 98.536C186.706 98.344 186.418 98.2 186.082 98.104C185.746 98.008 185.386 97.96 185.002 97.96C184.498 97.96 184.054 98.044 183.67 98.212C183.286 98.38 182.962 98.608 182.698 98.896C182.434 99.16 182.218 99.484 182.05 99.868C181.906 100.228 181.81 100.624 181.762 101.056Z" fill="#0090FF"/>
<path d="M205.275 112.468C203.739 112.468 202.323 112.132 201.027 111.46C199.755 110.788 198.735 109.852 197.967 108.652C197.199 107.452 196.815 106.048 196.815 104.44V86.8H203.475V104.692C203.475 105.052 203.559 105.376 203.727 105.664C203.895 105.928 204.111 106.132 204.375 106.276C204.639 106.42 204.939 106.492 205.275 106.492C205.611 106.492 205.911 106.42 206.175 106.276C206.439 106.132 206.643 105.928 206.787 105.664C206.955 105.376 207.039 105.052 207.039 104.692V94.324C207.039 92.668 207.423 91.24 208.191 90.04C208.983 88.84 210.015 87.928 211.287 87.304C212.583 86.68 213.975 86.368 215.463 86.368C216.975 86.368 218.367 86.68 219.639 87.304C220.911 87.928 221.943 88.84 222.735 90.04C223.527 91.24 223.923 92.668 223.923 94.324V104.764C223.923 105.1 223.995 105.4 224.139 105.664C224.307 105.928 224.523 106.132 224.787 106.276C225.075 106.42 225.387 106.492 225.723 106.492C226.035 106.492 226.323 106.42 226.587 106.276C226.851 106.132 227.067 105.928 227.235 105.664C227.403 105.4 227.487 105.1 227.487 104.764V86.8H234.111V104.44C234.111 106.048 233.727 107.452 232.959 108.652C232.191 109.852 231.171 110.788 229.899 111.46C228.627 112.132 227.235 112.468 225.723 112.468C224.187 112.468 222.771 112.132 221.475 111.46C220.203 110.788 219.183 109.852 218.415 108.652C217.647 107.452 217.263 106.048 217.263 104.44V94.072C217.263 93.712 217.179 93.4 217.011 93.136C216.843 92.848 216.615 92.632 216.327 92.488C216.063 92.344 215.775 92.272 215.463 92.272C215.151 92.272 214.863 92.344 214.599 92.488C214.335 92.632 214.119 92.848 213.951 93.136C213.783 93.4 213.699 93.712 213.699 94.072V104.44C213.699 106.048 213.315 107.452 212.547 108.652C211.779 109.852 210.759 110.788 209.487 111.46C208.215 112.132 206.811 112.468 205.275 112.468Z" fill="#0090FF"/>
<path d="M245.231 112.468C243.623 112.468 242.195 112.06 240.947 111.244C239.699 110.428 238.715 109.312 237.995 107.896C237.299 106.456 236.951 104.824 236.951 103C236.951 101.08 237.371 99.364 238.211 97.852C239.075 96.34 240.275 95.164 241.811 94.324C243.347 93.46 245.159 93.028 247.247 93.028C249.287 93.028 251.039 93.448 252.503 94.288C253.991 95.128 255.143 96.28 255.959 97.744C256.775 99.208 257.183 100.888 257.183 102.784V112H251.171V109.12H251.027C250.691 109.768 250.259 110.344 249.731 110.848C249.203 111.352 248.567 111.748 247.823 112.036C247.103 112.324 246.239 112.468 245.231 112.468ZM247.103 107.032C247.871 107.032 248.531 106.852 249.083 106.492C249.635 106.108 250.067 105.592 250.379 104.944C250.691 104.296 250.847 103.564 250.847 102.748C250.847 101.932 250.691 101.224 250.379 100.624C250.067 100 249.635 99.508 249.083 99.148C248.531 98.764 247.871 98.572 247.103 98.572C246.359 98.572 245.699 98.764 245.123 99.148C244.571 99.508 244.139 100 243.827 100.624C243.515 101.224 243.359 101.932 243.359 102.748C243.359 103.564 243.515 104.296 243.827 104.944C244.139 105.592 244.571 106.108 245.123 106.492C245.699 106.852 246.359 107.032 247.103 107.032Z" fill="#0090FF"/>
<path d="M260.802 112V85.72H267.03V112H260.802Z" fill="#0090FF"/>
<path d="M270.681 112V85.72H276.909V112H270.681Z" fill="#0090FF"/>
<path d="M290.604 112C288.516 112 286.668 111.628 285.06 110.884C283.476 110.14 282.216 109.072 281.28 107.68C280.368 106.288 279.912 104.644 279.912 102.748C279.912 100.636 280.356 98.86 281.244 97.42C282.132 95.98 283.308 94.888 284.772 94.144C286.236 93.4 287.808 93.028 289.488 93.028C291.312 93.028 292.884 93.412 294.204 94.18C295.548 94.924 296.58 95.98 297.3 97.348C298.044 98.716 298.416 100.312 298.416 102.136C298.416 102.52 298.392 102.964 298.344 103.468C298.32 103.948 298.26 104.356 298.164 104.692H286.392C286.536 105.22 286.764 105.664 287.076 106.024C287.412 106.36 287.844 106.612 288.372 106.78C288.924 106.948 289.548 107.032 290.244 107.032H296.364V112H290.604ZM286.176 101.056H292.512C292.512 100.696 292.464 100.372 292.368 100.084C292.272 99.772 292.14 99.484 291.972 99.22C291.804 98.956 291.6 98.728 291.36 98.536C291.12 98.344 290.832 98.2 290.496 98.104C290.16 98.008 289.8 97.96 289.416 97.96C288.912 97.96 288.468 98.044 288.084 98.212C287.7 98.38 287.376 98.608 287.112 98.896C286.848 99.16 286.632 99.484 286.464 99.868C286.32 100.228 286.224 100.624 286.176 101.056Z" fill="#0090FF"/>
<path d="M308.537 112C306.785 112 305.405 111.508 304.397 110.524C303.413 109.516 302.921 108.148 302.921 106.42V89.032H309.149V105.952C309.149 106.216 309.245 106.444 309.437 106.636C309.629 106.804 309.857 106.888 310.121 106.888H314.153V112H308.537ZM300.005 98.356V93.46H314.153V98.356H300.005Z" fill="#0090FF"/>
</svg>
