<svg width="217" height="303" viewBox="0 0 217 303" fill="none" xmlns="http://www.w3.org/2000/svg">
<path d="M216 125.402C216 162.793 168.095 193.104 109 193.104C49.9056 193.104 2.0001 162.793 2.0001 125.402C2.0001 88.0119 49.9056 57.7009 109 57.7009C168.095 57.7009 216 88.0119 216 125.402Z" stroke="#028FFF"/>
<path d="M216 179.849C216 217.24 168.095 247.551 109 247.551C49.9056 247.551 2.0001 217.24 2.0001 179.849C2.0001 142.459 49.9056 112.148 109 112.148C168.095 112.148 216 142.459 216 179.849Z" stroke="#028FFF"/>
<path d="M216 234.296C216 271.687 168.095 301.998 109 301.998C49.9056 301.998 2.0001 271.687 2.0001 234.296C2.0001 196.906 49.9056 166.595 109 166.595C168.095 166.595 216 196.906 216 234.296Z" stroke="#028FFF"/>
<path d="M214.646 68.4986C214.646 105.889 166.741 136.2 107.646 136.2C48.552 136.2 0.646484 105.889 0.646484 68.4986C0.646484 31.1079 48.552 0.796875 107.646 0.796875C166.741 0.796875 214.646 31.1079 214.646 68.4986Z" stroke="#028FFF"/>
</svg>
