<svg width="430" height="56" viewBox="0 0 430 56" fill="none" xmlns="http://www.w3.org/2000/svg">
<path d="M0 55.0643V19.8663C0 16.9871 0.711697 14.4199 2.13509 12.1645C3.55848 9.86118 5.49723 8.0377 7.95135 6.69409C10.4546 5.35047 13.2523 4.67866 16.3445 4.67866H36.1492V15.8355H18.4059C17.1789 15.8355 16.1481 16.2434 15.3137 17.0591C14.4793 17.8749 14.0621 18.8586 14.0621 20.0103V26.4164H33.7933V37.3573H14.0621V55.0643H0Z" fill="#2F3134"/>
<path d="M45.3873 55.0643V17.9949H58.1978V55.0643H45.3873ZM51.7925 13.964C49.8292 13.964 48.1359 13.2682 46.7125 11.8766C45.3382 10.485 44.651 8.85347 44.651 6.982C44.651 5.06255 45.3382 3.43102 46.7125 2.0874C48.1359 0.695799 49.8292 0 51.7925 0C53.7558 0 55.4246 0.695799 56.7989 2.0874C58.2223 3.43102 58.934 5.06255 58.934 6.982C58.934 8.85347 58.2223 10.485 56.7989 11.8766C55.4246 13.2682 53.7558 13.964 51.7925 13.964Z" fill="#2F3134"/>
<path d="M69.2718 55.0643V2.51928H82.0087V55.0643H69.2718Z" fill="#2F3134"/>
<path d="M113.697 55.0643C109.427 55.0643 105.648 54.3205 102.359 52.8329C99.1199 51.3453 96.543 49.2099 94.6288 46.4267C92.7637 43.6435 91.8311 40.3565 91.8311 36.5655C91.8311 32.3428 92.7391 28.7918 94.5552 25.9126C96.3712 23.0334 98.7763 20.85 101.77 19.3625C104.764 17.8749 107.979 17.1311 111.415 17.1311C115.145 17.1311 118.36 17.8989 121.06 19.4344C123.808 20.922 125.919 23.0334 127.391 25.7686C128.913 28.5038 129.674 31.6949 129.674 35.3419C129.674 36.1097 129.625 36.9974 129.526 38.0051C129.477 38.9649 129.355 39.7806 129.158 40.4524H105.083C105.378 41.5081 105.844 42.3959 106.482 43.1157C107.169 43.7875 108.053 44.2913 109.133 44.6272C110.262 44.9631 111.538 45.1311 112.961 45.1311H125.477V55.0643H113.697ZM104.642 33.1825H117.599C117.599 32.4627 117.501 31.8149 117.305 31.2391C117.109 30.6152 116.839 30.0394 116.495 29.5116C116.151 28.9837 115.734 28.5278 115.243 28.144C114.753 27.7601 114.164 27.4721 113.476 27.2802C112.789 27.0883 112.053 26.9923 111.268 26.9923C110.237 26.9923 109.329 27.1602 108.544 27.4961C107.758 27.832 107.096 28.2879 106.556 28.8638C106.016 29.3916 105.574 30.0394 105.231 30.8072C104.936 31.527 104.74 32.3188 104.642 33.1825Z" fill="#2F3134"/>
<path d="M177.245 55.928C174.202 55.928 171.356 55.3042 168.705 54.0565C166.104 52.8089 163.993 50.9854 162.373 48.5861C160.803 46.1868 160.018 43.3316 160.018 40.0206V19.2905C160.018 18.5707 159.846 17.9469 159.502 17.419C159.208 16.8432 158.79 16.4113 158.251 16.1234C157.711 15.8355 157.097 15.6915 156.41 15.6915C155.723 15.6915 155.109 15.8355 154.569 16.1234C154.029 16.4113 153.588 16.8432 153.244 17.419C152.901 17.9469 152.729 18.5707 152.729 19.2905V55.0643H139.108V19.7943C139.108 16.5313 139.894 13.7001 141.464 11.3008C143.035 8.90145 145.121 7.05398 147.722 5.75835C150.373 4.41474 153.269 3.74293 156.41 3.74293C159.551 3.74293 162.423 4.41474 165.024 5.75835C167.625 7.05398 169.711 8.90145 171.282 11.3008C172.853 13.7001 173.638 16.5313 173.638 19.7943V40.5244C173.638 41.1962 173.81 41.82 174.153 42.3959C174.497 42.9237 174.939 43.3556 175.479 43.6915C176.018 43.9794 176.607 44.1234 177.245 44.1234C177.884 44.1234 178.473 43.9794 179.012 43.6915C179.601 43.3556 180.068 42.9237 180.411 42.3959C180.755 41.82 180.927 41.1962 180.927 40.5244V19.7943C180.927 16.5313 181.712 13.7001 183.283 11.3008C184.853 8.90145 186.939 7.05398 189.541 5.75835C192.191 4.41474 195.087 3.74293 198.228 3.74293C201.32 3.74293 204.167 4.41474 206.769 5.75835C209.37 7.05398 211.456 8.90145 213.027 11.3008C214.597 13.7001 215.383 16.5313 215.383 19.7943V55.0643H201.836V19.1465C201.836 18.4747 201.664 17.8749 201.32 17.347C200.977 16.8192 200.535 16.4113 199.995 16.1234C199.455 15.8355 198.866 15.6915 198.228 15.6915C197.541 15.6915 196.903 15.8355 196.314 16.1234C195.774 16.4113 195.332 16.8192 194.989 17.347C194.694 17.8749 194.547 18.4747 194.547 19.1465V40.0206C194.547 43.3316 193.737 46.1868 192.117 48.5861C190.498 50.9854 188.387 52.8089 185.786 54.0565C183.184 55.3042 180.338 55.928 177.245 55.928Z" fill="#2F3134"/>
<path d="M241.805 56C238.516 56 235.596 55.1842 233.044 53.5527C230.491 51.9212 228.479 49.6898 227.006 46.8586C225.583 43.9794 224.871 40.7164 224.871 37.0694C224.871 33.2305 225.73 29.7995 227.448 26.7763C229.215 23.7532 231.669 21.4019 234.811 19.7224C237.952 17.9949 241.657 17.1311 245.928 17.1311C250.1 17.1311 253.683 17.9709 256.677 19.6504C259.72 21.3299 262.076 23.6332 263.745 26.5604C265.413 29.4876 266.248 32.8466 266.248 36.6375V55.0643H253.953V49.3059H253.658C252.971 50.6015 252.088 51.7532 251.008 52.7609C249.928 53.7686 248.627 54.5604 247.106 55.1362C245.633 55.7121 243.866 56 241.805 56ZM245.633 45.1311C247.204 45.1311 248.554 44.7712 249.682 44.0514C250.811 43.2836 251.695 42.2519 252.333 40.9563C252.971 39.6607 253.29 38.1971 253.29 36.5655C253.29 34.934 252.971 33.5184 252.333 32.3188C251.695 31.0711 250.811 30.0874 249.682 29.3676C248.554 28.5998 247.204 28.2159 245.633 28.2159C244.112 28.2159 242.762 28.5998 241.584 29.3676C240.455 30.0874 239.571 31.0711 238.933 32.3188C238.295 33.5184 237.976 34.934 237.976 36.5655C237.976 38.1971 238.295 39.6607 238.933 40.9563C239.571 42.2519 240.455 43.2836 241.584 44.0514C242.762 44.7712 244.112 45.1311 245.633 45.1311Z" fill="#2F3134"/>
<path d="M277.11 55.0643V29.1517C277.11 25.6967 278.116 22.9854 280.128 21.018C282.19 19.0026 285.036 17.9949 288.669 17.9949H300.301V27.7841H292.571C291.785 27.7841 291.147 28.024 290.656 28.5039C290.165 28.9837 289.92 29.6075 289.92 30.3753V55.0643H277.11Z" fill="#2F3134"/>
<path d="M308.621 55.0643V2.51928H321.357V31.8149H325.48L333.653 17.9949H348.009L338.07 33.1825C340.819 34.3342 342.929 36.0377 344.402 38.2931C345.874 40.5004 346.61 43.2596 346.61 46.5707V55.0643H333.873V46.5707C333.873 45.371 333.579 44.3153 332.99 43.4036C332.45 42.4919 331.689 41.7721 330.708 41.2442C329.775 40.7164 328.72 40.4524 327.542 40.4524H321.357V55.0643H308.621Z" fill="#2F3134"/>
<path d="M377.491 55.0643C373.221 55.0643 369.442 54.3205 366.153 52.8329C362.914 51.3453 360.337 49.2099 358.423 46.4267C356.558 43.6435 355.625 40.3565 355.625 36.5655C355.625 32.3428 356.533 28.7918 358.349 25.9126C360.165 23.0334 362.57 20.85 365.564 19.3625C368.558 17.8749 371.773 17.1311 375.209 17.1311C378.939 17.1311 382.154 17.8989 384.854 19.4344C387.602 20.922 389.713 23.0334 391.185 25.7686C392.707 28.5038 393.468 31.6949 393.468 35.3419C393.468 36.1097 393.419 36.9974 393.32 38.0051C393.271 38.9649 393.149 39.7806 392.952 40.4524H368.877C369.172 41.5081 369.638 42.3959 370.276 43.1157C370.963 43.7875 371.847 44.2913 372.927 44.6272C374.056 44.9631 375.332 45.1311 376.755 45.1311H389.271V55.0643H377.491ZM368.436 33.1825H381.393C381.393 32.4627 381.295 31.8149 381.099 31.2391C380.903 30.6152 380.633 30.0394 380.289 29.5116C379.946 28.9837 379.528 28.5278 379.037 28.144C378.547 27.7601 377.958 27.4721 377.271 27.2802C376.583 27.0883 375.847 26.9923 375.062 26.9923C374.031 26.9923 373.123 27.1602 372.338 27.4961C371.552 27.832 370.89 28.2879 370.35 28.8638C369.81 29.3916 369.368 30.0394 369.025 30.8072C368.73 31.527 368.534 32.3188 368.436 33.1825Z" fill="#2F3134"/>
<path d="M417.848 55.0643C414.265 55.0643 411.443 54.0805 409.381 52.1131C407.369 50.0977 406.363 47.3625 406.363 43.9074V9.14139H419.1V42.9717C419.1 43.4996 419.296 43.9554 419.689 44.3393C420.081 44.6752 420.548 44.8432 421.088 44.8432H429.333V55.0643H417.848ZM400.399 27.7841V17.9949H429.333V27.7841H400.399Z" fill="#2F3134"/>
</svg>
