<svg width="406" height="53" viewBox="0 0 406 53" fill="none" xmlns="http://www.w3.org/2000/svg">
<path d="M0.871094 51.6462V2.57823H35.9066V12.3222H12.0156V26.451L34.3046 25.059V34.9422L12.0156 36.3342V51.6462H0.871094Z" fill="#2F3134"/>
<path d="M56.5913 11.5566C55.4305 12.531 53.8052 13.0182 51.7156 13.0182C49.626 13.0182 48.0008 12.5542 46.8399 11.6262C45.7255 10.6518 45.1683 9.25983 45.1683 7.45023C45.1683 5.68703 45.7487 4.31823 46.9096 3.34383C48.0705 2.36943 49.6725 1.88223 51.7156 1.88223C53.8052 1.88223 55.4305 2.36943 56.5913 3.34383C57.7987 4.31823 58.4023 5.68703 58.4023 7.45023C58.4023 9.21343 57.7987 10.5822 56.5913 11.5566ZM37.2975 51.6462V41.9022H47.2578V25.8246L38.6905 26.2422V16.4982L51.9246 15.8022C53.8749 15.7094 55.3608 16.1734 56.3824 17.1942C57.4504 18.215 57.9844 19.6998 57.9844 21.6486V41.9022H67.9448V51.6462H37.2975Z" fill="#2F3134"/>
<path d="M71.4274 51.6462V41.9022H81.1789V9.81663L72.8205 10.2342V0.490228L86.2635 0.00302601C88.2138 -0.0433734 89.6998 0.443827 90.7213 1.46463C91.7894 2.43903 92.3234 3.90063 92.3234 5.84943V41.9022H102.075V51.6462H71.4274Z" fill="#2F3134"/>
<path d="M104.162 33.6198C104.162 28.1446 105.857 23.8062 109.246 20.6046C112.683 17.403 117.164 15.8022 122.689 15.8022C128.215 15.8022 132.696 17.3566 136.132 20.4654C139.569 23.5278 141.287 27.6806 141.287 32.9238V36.4038H114.61C114.61 38.4918 115.376 40.1622 116.908 41.415C118.487 42.6678 120.809 43.2942 123.873 43.2942C125.87 43.2942 127.542 42.9462 128.888 42.2502C130.235 41.5542 131.071 40.5566 131.396 39.2574H142.54C142.355 40.603 141.844 42.0182 141.008 43.503C140.172 44.9414 139.011 46.3334 137.525 47.679C136.086 49.0246 134.159 50.1382 131.744 51.0198C129.376 51.9014 126.752 52.3422 123.873 52.3422C117.465 52.3422 112.566 50.5558 109.177 46.983C105.833 43.4102 104.162 38.9558 104.162 33.6198ZM114.61 30.1398H130.839C130.839 28.655 130.189 27.4022 128.888 26.3814C127.635 25.3606 125.568 24.8502 122.689 24.8502C119.81 24.8502 117.744 25.3606 116.49 26.3814C115.237 27.3558 114.61 28.6086 114.61 30.1398Z" fill="#2F3134"/>
<path d="M147.387 51.6462V2.57823H169.328L176.455 43.5H179.241L186.463 2.57823H208.403V51.6462H197.259V11.6H196.562L188.692 51.6462H167.099L159.228 11.6H158.532V51.6462H147.387Z" fill="#2F3134"/>
<path d="M213.267 42.0414C213.267 38.9326 214.335 36.4966 216.471 34.7334C218.607 32.9238 222.229 31.671 227.337 30.975L238.411 29.4438C238.411 26.3814 236.066 24.8502 231.376 24.8502C229.148 24.8502 227.429 25.291 226.222 26.1726C225.015 27.0542 224.411 28.307 224.411 29.931H213.963C213.963 25.5694 215.588 22.1358 218.839 19.6302C222.136 17.0782 226.315 15.8022 231.376 15.8022C236.624 15.8022 240.965 17.1478 244.402 19.839C247.838 22.5302 249.556 26.5902 249.556 32.019V41.9022H254.641V51.6462H246.909C245.237 51.6462 243.937 51.2054 243.008 50.3238C242.126 49.3958 241.685 48.0966 241.685 46.4262V45.7302L243.426 41.5542H240.64C239.897 44.895 238.411 47.5398 236.182 49.4886C234 51.391 230.633 52.3422 226.083 52.3422C223.529 52.3422 221.346 51.9942 219.535 51.2982C217.724 50.6022 216.401 49.6742 215.565 48.5142C214.729 47.3542 214.126 46.2638 213.754 45.243C213.429 44.1758 213.267 43.1086 213.267 42.0414ZM224.411 39.9534C224.411 41.7166 225.688 42.5982 228.242 42.5982C231.353 42.5982 233.814 41.995 235.625 40.7886C237.483 39.5358 238.411 37.8422 238.411 35.7078L229.426 36.9606C227.569 37.239 226.269 37.587 225.526 38.0046C224.783 38.3758 224.411 39.0254 224.411 39.9534Z" fill="#2F3134"/>
<path d="M258.805 51.6462V21.7878C258.805 19.8854 259.316 18.4238 260.337 17.403C261.405 16.3822 262.891 15.895 264.795 15.9414L287.85 16.4982V26.2422L269.949 25.8246V51.6462H258.805Z" fill="#2F3134"/>
<path d="M320.4 51.6462L311.623 38.0742L303.892 41.6934V51.6462H292.747V0.490228H303.892V30.2094L319.982 22.8318L319.842 16.4982H330.987V24.1542C330.987 27.4022 329.524 29.7222 326.599 31.1142L321.166 33.6198L333.076 51.6462H320.4Z" fill="#2F3134"/>
<path d="M333.799 33.6198C333.799 28.1446 335.494 23.8062 338.884 20.6046C342.32 17.403 346.801 15.8022 352.327 15.8022C357.853 15.8022 362.334 17.3566 365.77 20.4654C369.206 23.5278 370.924 27.6806 370.924 32.9238V36.4038H344.247C344.247 38.4918 345.013 40.1622 346.546 41.415C348.124 42.6678 350.446 43.2942 353.511 43.2942C355.508 43.2942 357.179 42.9462 358.526 42.2502C359.872 41.5542 360.708 40.5566 361.033 39.2574H372.178C371.992 40.603 371.481 42.0182 370.645 43.503C369.81 44.9414 368.649 46.3334 367.163 47.679C365.723 49.0246 363.796 50.1382 361.382 51.0198C359.013 51.9014 356.39 52.3422 353.511 52.3422C347.103 52.3422 342.204 50.5558 338.814 46.983C335.471 43.4102 333.799 38.9558 333.799 33.6198ZM344.247 30.1398H360.476C360.476 28.655 359.826 27.4022 358.526 26.3814C357.272 25.3606 355.206 24.8502 352.327 24.8502C349.448 24.8502 347.381 25.3606 346.128 26.3814C344.874 27.3558 344.247 28.6086 344.247 30.1398Z" fill="#2F3134"/>
<path d="M393.045 42.5982L406 41.9022V51.6462L387.821 52.3422C385.917 52.3886 384.454 51.9014 383.433 50.8806C382.411 49.8598 381.9 48.375 381.9 46.4262V26.2422H373.542V16.4982H381.9V9.88623L393.045 6.40623V16.4982H404.607V26.2422H393.045V42.5982Z" fill="#2F3134"/>
</svg>
