<svg width="575" height="47" viewBox="0 0 575 47" fill="none" xmlns="http://www.w3.org/2000/svg">
<path d="M0.839844 45.9989V0.878906H20.9998L27.5918 43.4389H30.1518L36.7438 0.878906H56.9038V45.9989H46.6638V9.83891L48.5838 3.43891H46.0238L38.7918 45.9989H18.9518L11.7198 3.43891H9.15984L11.0798 9.83891V45.9989H0.839844Z" fill="#2F3134"/>
<path d="M98.2048 45.9989L94.1088 31.5349H75.8048L71.7728 45.9989H61.4048L74.3968 0.878906H95.5168L108.573 45.9989H98.2048ZM78.3008 22.5749H91.6128L86.2368 3.43891H83.6768L78.3008 22.5749Z" fill="#2F3134"/>
<path d="M143.795 9.83891H133.555V37.0389H143.795V45.9989H113.075V37.0389H123.315V9.83891H113.075V0.878906H143.795V9.83891Z" fill="#2F3134"/>
<path d="M149.59 45.9989V0.878906H169.75L183.382 43.4389H185.942L184.022 37.0389V0.878906H194.262V45.9989H174.102L160.47 3.43891H157.91L159.83 9.83891V45.9989H149.59Z" fill="#2F3134"/>
<path d="M200.715 45.9989V0.878906H220.875L234.507 43.4389H237.067L235.147 37.0389V0.878906H245.387V45.9989H225.227L211.595 3.43891H209.035L210.955 9.83891V45.9989H200.715Z" fill="#2F3134"/>
<path d="M251.84 45.9989V0.878906H284.032V9.83891H262.08V18.9269H280.832V27.8869H262.08V37.0389H284.032V45.9989H251.84Z" fill="#2F3134"/>
<path d="M328.226 0.878906V9.83891H313.506V45.9989H303.266V9.83891H288.482V0.878906H328.226Z" fill="#2F3134"/>
<path d="M386.142 45.9989L382.046 31.5349H363.742L359.71 45.9989H349.342L362.334 0.878906H383.454L396.51 45.9989H386.142ZM366.238 22.5749H379.55L374.174 3.43891H371.614L366.238 22.5749Z" fill="#2F3134"/>
<path d="M406.531 46.6389C404.782 46.6816 403.417 46.2336 402.435 45.2949C401.497 44.3562 401.027 43.0122 401.027 41.2629V0.878906H411.267V37.6789L433.219 37.0389V45.9989L406.531 46.6389Z" fill="#2F3134"/>
<path d="M454.532 0.878906C457.689 0.878906 460.356 1.07091 462.532 1.45491C464.751 1.83891 466.82 2.56424 468.74 3.63091C470.703 4.69757 472.175 6.31891 473.156 8.49491C474.137 10.6709 474.628 13.4016 474.628 16.6869C474.628 19.3749 474.287 21.6789 473.604 23.5989C472.921 25.5189 472.004 27.0549 470.852 28.2069C469.742 29.3589 468.292 30.2762 466.5 30.9589C464.708 31.5989 462.895 32.0256 461.06 32.2389C459.225 32.4522 457.049 32.5589 454.532 32.5589H448.58V45.9989H438.34V0.878906H454.532ZM455.172 23.5989C458.543 23.5989 460.911 23.1936 462.276 22.3829C463.684 21.5296 464.388 19.6309 464.388 16.6869C464.388 13.7856 463.684 11.9296 462.276 11.1189C460.911 10.2656 458.543 9.83891 455.172 9.83891H448.58V23.5989H455.172Z" fill="#2F3134"/>
<path d="M512.673 0.878906H522.913V45.9989H512.673V28.5269H490.017V45.9989H479.777V0.878906H490.017V19.5669H512.673V0.878906Z" fill="#2F3134"/>
<path d="M564.205 45.9989L560.109 31.5349H541.805L537.773 45.9989H527.405L540.397 0.878906H561.517L574.573 45.9989H564.205ZM544.301 22.5749H557.613L552.237 3.43891H549.677L544.301 22.5749Z" fill="#2F3134"/>
</svg>
