<svg width="553" height="47" viewBox="0 0 553 47" fill="none" xmlns="http://www.w3.org/2000/svg">
<path d="M32.456 46.768C29.8533 46.768 27.464 46.192 25.288 45.04C23.1547 43.888 21.448 42.288 20.168 40.24C18.9307 38.192 18.312 35.76 18.312 32.944V13.424C18.312 12.7413 18.1413 12.1227 17.8 11.568C17.4587 11.0133 17.0107 10.5653 16.456 10.224C15.9013 9.88266 15.2827 9.712 14.6 9.712C13.9173 9.712 13.2987 9.88266 12.744 10.224C12.1893 10.5653 11.7413 11.0133 11.4 11.568C11.1013 12.1227 10.952 12.7413 10.952 13.424V46H0.456V14.192C0.456 11.504 1.05333 9.136 2.248 7.088C3.48533 5.04 5.17067 3.41867 7.304 2.224C9.48 1.02933 11.912 0.431999 14.6 0.431999C17.3307 0.431999 19.7627 1.02933 21.896 2.224C24.0293 3.41867 25.7147 5.04 26.952 7.088C28.1893 9.136 28.808 11.504 28.808 14.192V33.712C28.808 34.4373 28.9787 35.0773 29.32 35.632C29.6613 36.1867 30.088 36.6347 30.6 36.976C31.1547 37.2747 31.752 37.424 32.392 37.424C33.0747 37.424 33.6933 37.2747 34.248 36.976C34.8453 36.6347 35.3147 36.1867 35.656 35.632C35.9973 35.0773 36.168 34.4373 36.168 33.712V14.192C36.168 11.504 36.7867 9.136 38.024 7.088C39.2613 5.04 40.9467 3.41867 43.08 2.224C45.256 1.02933 47.6667 0.431999 50.312 0.431999C53.0427 0.431999 55.4533 1.02933 57.544 2.224C59.6773 3.41867 61.3627 5.04 62.6 7.088C63.8373 9.136 64.456 11.504 64.456 14.192V46H53.96V13.36C53.96 12.6773 53.7893 12.08 53.448 11.568C53.1493 11.0133 52.7227 10.5653 52.168 10.224C51.6133 9.88266 50.9947 9.712 50.312 9.712C49.672 9.712 49.0533 9.88266 48.456 10.224C47.9013 10.5653 47.4533 11.0133 47.112 11.568C46.7707 12.08 46.6 12.6773 46.6 13.36V32.944C46.6 35.76 45.96 38.192 44.68 40.24C43.4 42.288 41.6933 43.888 39.56 45.04C37.4267 46.192 35.0587 46.768 32.456 46.768ZM67.9375 46L82.4655 6.384C83.1908 4.42133 84.3855 2.94933 86.0495 1.968C87.7135 0.943999 89.5908 0.431999 91.6815 0.431999C93.7722 0.431999 95.6495 0.922666 97.3135 1.904C98.9775 2.84266 100.172 4.31466 100.898 6.32L115.49 46H103.906L101.09 37.36H82.0815L79.1375 46H67.9375ZM84.8335 28.464H98.3375L92.6415 10.608C92.5562 10.352 92.4282 10.1813 92.2575 10.096C92.1295 9.968 91.9588 9.904 91.7455 9.904C91.5322 9.904 91.3402 9.968 91.1695 10.096C91.0415 10.224 90.9562 10.3947 90.9135 10.608L84.8335 28.464ZM118.38 46V37.04H126.124V10.16H118.38V1.2H144.556V10.16H136.812V37.04H144.556V46H118.38ZM182.894 46.768C180.206 46.768 177.795 46.192 175.662 45.04C173.528 43.8453 171.843 42.2027 170.606 40.112C169.368 38.0213 168.75 35.6533 168.75 33.008V13.424C168.75 12.7413 168.579 12.1227 168.238 11.568C167.896 11.0133 167.448 10.5653 166.894 10.224C166.339 9.88266 165.72 9.712 165.038 9.712C164.355 9.712 163.736 9.88266 163.182 10.224C162.627 10.5653 162.179 11.0133 161.838 11.568C161.539 12.1227 161.39 12.7413 161.39 13.424V46H150.894V14.192C150.894 11.504 151.491 9.136 152.686 7.088C153.923 5.04 155.608 3.41867 157.742 2.224C159.918 1.02933 162.35 0.431999 165.038 0.431999C167.768 0.431999 170.2 1.02933 172.334 2.224C174.467 3.41867 176.152 5.04 177.39 7.088C178.627 9.136 179.246 11.504 179.246 14.192V33.776C179.246 34.4587 179.416 35.0987 179.757 35.696C180.099 36.2507 180.526 36.6987 181.038 37.04C181.592 37.3387 182.19 37.488 182.83 37.488C183.512 37.488 184.131 37.3387 184.686 37.04C185.283 36.6987 185.752 36.2507 186.094 35.696C186.435 35.0987 186.606 34.4587 186.606 33.776V1.2H197.038V33.008C197.038 35.6533 196.419 38.0213 195.182 40.112C193.944 42.2027 192.259 43.8453 190.126 45.04C187.992 46.192 185.582 46.768 182.894 46.768ZM236.019 46.768C233.331 46.768 230.92 46.192 228.787 45.04C226.653 43.8453 224.968 42.2027 223.731 40.112C222.493 38.0213 221.875 35.6533 221.875 33.008V13.424C221.875 12.7413 221.704 12.1227 221.363 11.568C221.021 11.0133 220.573 10.5653 220.019 10.224C219.464 9.88266 218.845 9.712 218.163 9.712C217.48 9.712 216.861 9.88266 216.307 10.224C215.752 10.5653 215.304 11.0133 214.963 11.568C214.664 12.1227 214.515 12.7413 214.515 13.424V46H204.019V14.192C204.019 11.504 204.616 9.136 205.811 7.088C207.048 5.04 208.733 3.41867 210.867 2.224C213.043 1.02933 215.475 0.431999 218.163 0.431999C220.893 0.431999 223.325 1.02933 225.459 2.224C227.592 3.41867 229.277 5.04 230.515 7.088C231.752 9.136 232.371 11.504 232.371 14.192V33.776C232.371 34.4587 232.541 35.0987 232.882 35.696C233.224 36.2507 233.651 36.6987 234.163 37.04C234.717 37.3387 235.315 37.488 235.955 37.488C236.637 37.488 237.256 37.3387 237.811 37.04C238.408 36.6987 238.877 36.2507 239.219 35.696C239.56 35.0987 239.731 34.4587 239.731 33.776V1.2H250.163V33.008C250.163 35.6533 249.544 38.0213 248.307 40.112C247.069 42.2027 245.384 43.8453 243.251 45.04C241.117 46.192 238.707 46.768 236.019 46.768ZM269.56 46C267.042 46 264.76 45.424 262.712 44.272C260.664 43.0773 259.021 41.4987 257.784 39.536C256.589 37.5307 255.992 35.2693 255.992 32.752C255.992 30.8747 256.397 29.1253 257.208 27.504C258.061 25.84 259.192 24.4107 260.6 23.216C259.234 22.064 258.146 20.6987 257.336 19.12C256.568 17.5413 256.184 15.8773 256.184 14.128C256.184 11.6533 256.781 9.456 257.976 7.536C259.17 5.57333 260.77 4.03733 262.776 2.928C264.781 1.776 267 1.2 269.432 1.2H288.312V10.224L271.096 10.16C270.285 10.16 269.538 10.352 268.856 10.736C268.173 11.12 267.618 11.632 267.192 12.272C266.808 12.912 266.616 13.6587 266.616 14.512C266.616 15.3227 266.808 16.0693 267.192 16.752C267.618 17.392 268.173 17.904 268.856 18.288C269.538 18.6293 270.285 18.8 271.096 18.8H286.136V27.76H271.416C270.52 27.76 269.709 27.9733 268.984 28.4C268.258 28.8267 267.682 29.3813 267.256 30.064C266.829 30.7467 266.616 31.536 266.616 32.432C266.616 33.2853 266.829 34.0747 267.256 34.8C267.682 35.4827 268.258 36.016 268.984 36.4C269.709 36.784 270.52 36.976 271.416 36.976H288.312V46H269.56ZM317.757 46C315.026 46 312.615 45.4027 310.525 44.208C308.477 42.9707 306.855 41.328 305.661 39.28C304.509 37.232 303.933 34.9493 303.933 32.432V10.16H291.773V1.2H326.781V10.16H314.685V33.392C314.685 34.3733 315.026 35.2267 315.709 35.952C316.391 36.6773 317.245 37.04 318.269 37.04H321.789V46H317.757ZM338.938 46L353.466 6.384C354.191 4.42133 355.386 2.94933 357.05 1.968C358.714 0.943999 360.591 0.431999 362.682 0.431999C364.772 0.431999 366.65 0.922666 368.314 1.904C369.978 2.84266 371.172 4.31466 371.898 6.32L386.49 46H374.906L372.09 37.36H353.082L350.138 46H338.938ZM355.833 28.464H369.338L363.642 10.608C363.556 10.352 363.428 10.1813 363.258 10.096C363.13 9.968 362.959 9.904 362.746 9.904C362.532 9.904 362.34 9.968 362.17 10.096C362.042 10.224 361.956 10.3947 361.914 10.608L355.833 28.464ZM402.779 46C400.005 46 397.573 45.3813 395.483 44.144C393.392 42.9067 391.771 41.264 390.619 39.216C389.467 37.168 388.891 34.9067 388.891 32.432V1.2H399.643V33.2C399.643 34.224 400.005 35.12 400.731 35.888C401.456 36.656 402.352 37.04 403.419 37.04H415.259V46H402.779ZM420.404 46V1.2H439.668C442.655 1.2 445.385 1.88266 447.86 3.248C450.377 4.61333 452.383 6.512 453.876 8.944C455.369 11.3333 456.116 14.1067 456.116 17.264C456.116 20.4213 455.369 23.2373 453.876 25.712C452.383 28.144 450.399 30.0427 447.924 31.408C445.449 32.7733 442.697 33.456 439.668 33.456H431.156V46H420.404ZM431.156 24.432H438.452C439.732 24.432 440.884 24.1547 441.908 23.6C442.932 23.0453 443.764 22.2347 444.404 21.168C445.044 20.1013 445.364 18.8213 445.364 17.328C445.364 15.8347 445.044 14.5547 444.404 13.488C443.764 12.4213 442.911 11.6107 441.844 11.056C440.82 10.4587 439.689 10.16 438.452 10.16H431.156V24.432ZM461.592 46V1.2H472.344V18.8H489.816V1.2H500.568V46H489.816V27.76H472.344V46H461.592ZM504.5 46L519.028 6.384C519.753 4.42133 520.948 2.94933 522.612 1.968C524.276 0.943999 526.153 0.431999 528.244 0.431999C530.335 0.431999 532.212 0.922666 533.876 1.904C535.54 2.84266 536.735 4.31466 537.46 6.32L552.052 46H540.468L537.652 37.36H518.644L515.7 46H504.5ZM521.396 28.464H534.9L529.204 10.608C529.119 10.352 528.991 10.1813 528.82 10.096C528.692 9.968 528.521 9.904 528.308 9.904C528.095 9.904 527.903 9.968 527.732 10.096C527.604 10.224 527.519 10.3947 527.476 10.608L521.396 28.464Z" fill="#2F3134"/>
</svg>
