<svg width="394" height="394" viewBox="0 0 394 394" fill="none" xmlns="http://www.w3.org/2000/svg">
<path d="M186.794 393.95C186.613 393.901 181.894 393.695 176.583 393.504C174.843 393.441 172.423 392.829 172.055 392.364C171.703 391.914 171.683 391.924 171.864 392.437C172.046 392.961 171.943 392.995 170.713 392.809C169.968 392.702 168.464 392.501 167.366 392.364C165.362 392.115 163.28 391.464 164.373 391.42C164.667 391.41 164.912 391.195 164.912 390.94C164.912 390.333 164.637 390.363 163.549 391.077C162.932 391.483 162.354 391.615 161.707 391.493C160.467 391.263 160.022 390.842 160.614 390.47C160.889 390.294 160.928 390.182 160.708 390.177C160.507 390.177 160.247 390.328 160.129 390.519C159.899 390.891 156.562 390.681 155.901 390.25C155.705 390.123 154.715 389.859 153.701 389.668C150.403 389.041 147.444 388.131 134.499 383.786C115.576 377.429 114.782 377.107 107.354 372.683C104.796 371.161 98.8969 367.741 94.2519 365.084C89.607 362.426 85.8488 360.131 85.9076 359.98C86.0595 359.583 85.2707 359.167 84.6974 359.344C84.3838 359.441 82.8845 358.35 80.5473 356.334C78.5335 354.597 73.5014 350.359 69.366 346.924C57.2096 336.829 56.1121 335.831 54.843 333.658C53.3878 331.172 39.0315 314.212 38.4337 314.276C37.9045 314.329 37.0422 313.018 32.7157 305.609C30.9517 302.585 27.076 296.092 24.1068 291.169C21.1375 286.251 18.6092 281.833 18.4916 281.348C18.2025 280.154 8.95665 256.842 8.16779 255.315C7.66311 254.337 7.48672 253.216 7.30053 249.791C7.12414 246.556 6.76155 244.09 5.8257 239.818C5.13973 236.696 4.10588 231.935 3.5277 229.234C2.94953 226.532 2.42525 224.639 2.36156 225.025C2.29786 225.412 2.10677 225.754 1.94017 225.794C1.75398 225.833 1.54819 224.1 1.4159 221.409C0.313449 199.041 -0.122631 187.811 0.0292625 186.128C0.73483 178.416 3.6208 156.034 4.03728 155.07C4.51746 153.959 7.41812 144.133 10.2747 133.964C11.5731 129.34 12.0876 128.102 16.2279 119.695C18.717 114.631 21.799 108.284 23.0729 105.583C27.6738 95.8255 28.9428 93.7116 37.4096 81.7767C45.2885 70.6687 45.6903 70.1647 49.8502 66.1619C52.2168 63.8865 57.8172 58.4304 62.2907 54.0312C72.105 44.3962 74.109 42.6248 78.1807 39.9824C79.9103 38.8618 84.8836 35.5 89.2395 32.5053C93.5954 29.5105 98.8871 26.1488 100.999 25.0331C103.111 23.9174 105.463 22.6402 106.222 22.1949C106.982 21.7496 109.471 20.6388 111.754 19.7189C114.037 18.7989 119.079 16.641 122.97 14.9136C126.855 13.1862 132.593 10.8815 135.719 9.79513C140.922 7.98458 142.691 7.55396 156.611 4.75006C173.638 1.32469 178.817 0.600474 189.484 0.14539C200.131 -0.309694 210.749 0.287298 225.429 2.16635C228.927 2.61654 241.853 5.26875 247.091 6.60954C253.955 8.37115 266.469 12.3984 269.056 13.6805C269.987 14.1404 272.408 15.1876 274.431 16.0048C277.709 17.3309 300.395 29.5497 305.383 32.6765C310.611 35.9502 316.315 40.3591 322.434 45.8593C326.124 49.1721 330.039 52.6415 331.127 53.5713C332.214 54.4961 335.301 57.3294 337.977 59.8592C342.328 63.9746 343.523 65.3496 349.173 72.7484C352.651 77.3041 356.272 82.0018 357.223 83.1811C361.471 88.4708 365.41 94.8322 369.967 103.738C372.471 108.632 375.46 114.371 376.611 116.495C378.566 120.092 378.993 121.266 382.907 133.832C389.468 154.889 389.953 156.758 390.536 163.266C390.625 164.279 390.443 163.589 390.125 161.73C389.605 158.661 388.939 156.234 388.89 157.213C388.836 158.334 391.433 176.654 391.815 177.838L392.261 179.218L392.095 177.53C392.001 176.6 391.614 173.464 391.227 170.552C390.845 167.641 390.61 165.258 390.703 165.258C390.796 165.258 391.34 168.747 391.903 173.004C392.467 177.266 393.207 182.11 393.54 183.779C394.138 186.764 394.138 187.023 393.628 202.036L393.114 217.264L389.787 233.682C385.426 255.193 385.651 254.302 382.662 261.912C378.605 272.232 376.307 278.314 375.617 280.56C375.2 281.901 373.368 285.356 370.369 290.45C367.831 294.756 364.617 300.207 363.225 302.571C361.834 304.934 360.457 307.332 360.163 307.9C359.55 309.103 342.362 329.841 337.947 334.71C336.301 336.526 334.748 338.013 334.498 338.018C334.243 338.023 332.641 339.232 330.936 340.705C319.499 350.575 317.182 352.635 314.997 354.856C312.463 357.425 310.984 358.267 312.507 356.271C312.958 355.678 313.262 355.199 313.184 355.199C312.605 355.199 290.846 368.925 290.184 369.708C289.724 370.251 289.033 371.019 288.646 371.416C287.798 372.291 284.118 374.17 281.188 375.227C277.455 376.568 258.899 384.04 257.356 384.818C255.249 385.885 252.755 386.502 240.633 388.958C234.719 390.157 228.138 391.542 226.012 392.036C223.885 392.53 220.843 393.093 219.25 393.284C216.923 393.568 187.617 394.17 186.784 393.954L186.794 393.95ZM168.288 391.557C168.077 391.302 167.783 391.097 167.636 391.097C167.489 391.097 167.366 391.302 167.366 391.557C167.366 391.811 167.641 392.017 168.018 392.017C168.562 392.017 168.606 391.943 168.288 391.557ZM225.434 391.102C225.733 390.911 224.762 390.876 222.67 390.994C220.896 391.097 219.387 391.229 219.319 391.292C219.015 391.552 225.022 391.366 225.439 391.102H225.434ZM221.886 390.167C224.924 390.001 227.541 389.727 227.707 389.56C227.908 389.355 227.766 389.257 227.286 389.257C225.742 389.257 211.459 390.524 211.308 390.676C211.219 390.764 212.322 390.754 213.757 390.651C215.193 390.549 218.848 390.333 221.881 390.167H221.886ZM217.447 389.071C223.278 388.626 228.177 388.136 228.339 387.989C228.52 387.823 228.511 387.603 228.31 387.402C228.089 387.182 227.379 387.177 225.997 387.402C224.904 387.578 220.147 388.136 215.428 388.645C210.71 389.154 206.638 389.624 206.383 389.687C205.261 389.961 207.383 389.849 217.442 389.076L217.447 389.071ZM213.336 387.877C220.411 387.104 226.536 386.399 226.943 386.311L227.683 386.149L227.055 385.523C226.477 384.946 226.296 384.926 224.777 385.249C223.871 385.445 217.687 386.419 211.033 387.417C204.379 388.415 198.847 389.325 198.745 389.438C198.637 389.55 198.985 389.565 199.514 389.467C200.043 389.369 206.261 388.65 213.341 387.877H213.336ZM244.587 386.389C256.875 383.708 259.237 383.023 258.551 382.338C258.326 382.112 231.23 388.606 230.828 388.983C230.299 389.477 231.284 389.291 244.587 386.389ZM240.099 388.459C239.996 388.356 239.731 388.347 239.511 388.435C239.266 388.533 239.339 388.606 239.697 388.621C240.02 388.635 240.202 388.562 240.099 388.459ZM207.922 386.771C212.4 386.101 218.108 385.254 220.602 384.897C225.247 384.226 225.684 384.011 224.125 383.13C223.464 382.758 223.052 382.744 221.69 383.047C220.789 383.248 215.149 384.388 209.147 385.577C203.149 386.766 197.961 387.877 197.627 388.043C196.873 388.415 197.123 388.386 207.922 386.771ZM247.639 386.991C253.504 385.773 254.646 385.455 254.288 385.166C254.181 385.078 242.215 387.706 240.794 388.131C240.383 388.254 240.383 388.273 240.794 388.298C241.049 388.312 244.126 387.725 247.639 386.996V386.991ZM244.268 384.642C261.182 380.615 259.536 381.1 259.536 380.189C259.536 379.769 259.365 379.362 259.154 379.284C258.943 379.206 252.549 380.845 244.945 382.92C234.15 385.866 231.098 386.81 231.019 387.211C230.965 387.495 231.01 387.725 231.117 387.725C231.225 387.725 237.144 386.34 244.273 384.642H244.268ZM208.064 384.642C214.997 383.287 220.926 382.073 221.235 381.946C221.695 381.76 221.514 381.584 220.24 380.987L218.677 380.258L215.982 381.065C213.434 381.834 207.167 383.487 198.774 385.611C196.701 386.135 195.011 386.683 195.011 386.835C195.011 386.986 195.109 387.104 195.231 387.104C195.354 387.104 201.126 385.993 208.059 384.637L208.064 384.642ZM205.232 382.631C211.44 380.982 216.521 379.558 216.521 379.46C216.521 379.206 213.223 377.904 212.596 377.909C212.302 377.909 211.44 378.203 210.68 378.55C209.921 378.902 205.565 380.483 201.003 382.073C196.442 383.664 192.527 385.029 192.306 385.112C191.596 385.381 192.292 385.949 193.129 385.782C193.575 385.694 199.019 384.275 205.227 382.631H205.232ZM244.479 382.015C251.662 380.077 257.777 378.423 258.076 378.335C258.801 378.119 258.737 377.63 257.855 376.549L257.12 375.648L254.259 376.612C252.686 377.146 246.488 379.113 240.491 380.992C234.493 382.866 229.53 384.461 229.456 384.53C229.162 384.818 230.5 385.895 230.946 385.724C231.21 385.621 237.301 383.952 244.484 382.015H244.479ZM185.378 385.029C184.893 384.97 184.373 385.039 184.227 385.185C184.07 385.342 184.447 385.386 185.108 385.298C186.167 385.151 186.191 385.132 185.378 385.029ZM181.017 384.491C182.115 384.285 182.845 383.742 182.022 383.742C181.375 383.742 179.542 384.393 179.194 384.75C178.989 384.956 179.057 385 179.4 384.877C179.684 384.774 180.41 384.603 181.017 384.491ZM178.249 383.12C178.92 382.45 176.813 382.861 175.657 383.629C174.986 384.075 174.437 384.481 174.437 384.53C174.437 384.716 177.96 383.414 178.254 383.12H178.249ZM190.508 384.295C190.876 384.094 195.462 382.45 200.704 380.64C205.942 378.834 210.19 377.234 210.146 377.092C210.053 376.808 206.236 375.453 205.531 375.453C205.291 375.453 204.316 375.922 203.36 376.5C202.405 377.077 198.549 378.971 194.79 380.718C191.032 382.465 187.955 383.987 187.955 384.099C187.955 384.305 188.656 384.554 189.435 384.623C189.655 384.642 190.141 384.496 190.508 384.295ZM172.815 383.218C174.481 382.152 174.54 382.068 173.819 381.887C173.398 381.78 172.913 381.745 172.746 381.804C172.398 381.931 170.62 384.354 170.88 384.354C170.973 384.354 171.845 383.84 172.82 383.218H172.815ZM169.821 381.364C169.821 381.144 169.439 380.982 168.905 380.982C168.209 380.982 167.984 381.124 167.984 381.559C167.984 381.878 167.905 382.602 167.807 383.169L167.631 384.207L168.724 382.979C169.321 382.303 169.816 381.579 169.821 381.369V381.364ZM165.338 380.635C165.279 380.527 164.877 380.375 164.456 380.292C163.481 380.106 163.456 380.576 164.363 382.298L165.039 383.59L165.245 382.21C165.357 381.452 165.402 380.742 165.343 380.635H165.338ZM186.392 383.008C186.662 382.773 190.469 380.899 194.859 378.844C199.249 376.788 202.9 375.046 202.973 374.973C203.238 374.709 202.723 374.498 199.93 373.735L197.084 372.957L195.971 374.014C195.359 374.596 192.321 376.759 189.219 378.819C186.118 380.879 183.697 382.675 183.844 382.812C184.084 383.037 184.883 383.302 185.623 383.395C185.78 383.414 186.123 383.238 186.392 383.003V383.008ZM242.255 379.225C249.732 376.896 255.846 374.909 255.851 374.802C255.851 374.694 255.097 374.038 254.166 373.334C252.554 372.12 252.436 372.081 251.633 372.497C251.167 372.737 245.464 374.9 238.957 377.297C232.45 379.695 226.943 381.76 226.712 381.887C226.399 382.054 226.507 382.274 227.139 382.773C227.599 383.135 228.133 383.439 228.324 383.443C228.516 383.448 234.782 381.55 242.259 379.225H242.255ZM161.614 381.667C160.855 379.989 160.619 379.749 159.737 379.749C158.978 379.749 159.007 379.817 160.453 381.285C161.286 382.127 162.001 382.822 162.05 382.822C162.099 382.822 161.898 382.303 161.614 381.672V381.667ZM273.422 377.581C282.57 373.941 286.044 372.419 286.715 371.763C287.215 371.274 287.548 370.799 287.46 370.711C287.323 370.574 279.733 373.657 264.681 379.964C262.804 380.752 261.236 381.604 261.06 381.931C260.888 382.249 260.81 382.514 260.893 382.514C260.977 382.514 266.611 380.297 273.422 377.586V377.581ZM181.718 381.789C181.855 381.564 184.917 379.411 188.524 377.014C192.13 374.611 195.011 372.58 194.928 372.497C194.756 372.326 188.916 370.872 188.347 370.863C188.141 370.858 187.745 371.303 187.47 371.851C187.196 372.399 185.089 374.743 182.786 377.062C180.155 379.71 178.714 381.378 178.9 381.559C179.577 382.201 181.39 382.352 181.718 381.794V381.789ZM157.013 380.356C155.798 379.211 154.901 378.77 155.132 379.431C155.269 379.822 157.611 381.574 157.998 381.579C158.17 381.579 157.724 381.031 157.008 380.361L157.013 380.356ZM238.036 376.299C244.881 373.764 250.594 371.592 250.731 371.464C250.868 371.337 249.81 370.603 248.374 369.825L245.763 368.416L243.818 369.409C242.749 369.957 237.35 372.404 231.823 374.846C226.291 377.288 221.764 379.387 221.759 379.509C221.744 379.906 224.655 381.261 225.13 381.08C225.385 380.982 231.191 378.834 238.036 376.299ZM154.161 380.865C154.161 380.576 151.692 379.088 151.383 379.191C151.187 379.255 151.702 379.68 152.52 380.136C154.098 381.011 154.161 381.041 154.161 380.865ZM177.279 379.827C177.818 379.196 180.047 376.852 182.242 374.616C184.432 372.384 186.167 370.496 186.093 370.422C185.839 370.173 178.768 368.778 178.602 368.944C178.508 369.037 178.435 369.439 178.435 369.83C178.435 370.222 177.328 372.756 175.975 375.453C174.623 378.149 173.516 380.414 173.516 380.493C173.516 380.625 174.584 380.835 175.755 380.933C176.054 380.958 176.74 380.463 177.279 379.827ZM173.819 374.263C175.358 371.161 176.568 368.572 176.504 368.509C176.377 368.382 169.904 367.178 169.302 367.173C169.032 367.173 168.974 367.545 169.101 368.475C169.199 369.194 169.057 371.577 168.787 373.779C168.077 379.578 168.087 379.685 169.297 379.837C169.846 379.906 170.458 379.95 170.659 379.935C170.86 379.92 172.281 377.366 173.819 374.268V374.263ZM275.828 374.449L288.577 369.155L288.67 367.701C288.719 366.904 288.699 366.248 288.626 366.248C288.553 366.248 282.491 368.92 275.166 372.184C265.901 376.314 261.814 378.281 261.746 378.643C261.574 379.509 261.947 380.111 262.54 379.92C262.834 379.822 268.816 377.361 275.828 374.449ZM148.914 379.636C148.845 379.578 148.439 379.362 148.017 379.157C147.292 378.814 147.282 378.819 147.846 379.269C148.336 379.661 149.335 380.003 148.914 379.636ZM165.847 377.679C165.857 376.877 166.112 374.151 166.416 371.621C166.72 369.091 166.92 366.958 166.862 366.889C166.705 366.703 159.561 365.685 159.409 365.827C159.341 365.891 159.468 366.322 159.693 366.786C159.919 367.251 160.737 370.114 161.511 373.148C163.03 379.093 162.981 379.015 165.147 379.108C165.769 379.137 165.838 378.995 165.852 377.679H165.847ZM236.267 371.293C240.447 369.448 243.871 367.863 243.871 367.77C243.871 367.677 242.274 366.938 240.324 366.126C237.031 364.756 236.737 364.687 236.228 365.147C235.929 365.421 231.22 368.103 225.767 371.107C220.313 374.117 215.855 376.7 215.859 376.862C215.864 377.018 216.737 377.498 217.795 377.929L219.725 378.712L224.194 376.681C226.654 375.565 232.083 373.143 236.267 371.293ZM136.008 378.403C135.939 378.34 130.525 375.364 123.984 371.802C112.141 365.348 112.082 365.323 111.078 365.739L110.073 366.155L114.527 368.264C116.977 369.424 122.646 372.198 127.125 374.43C133.945 377.831 136.723 379.074 136.008 378.408V378.403ZM160.306 378.359C160.306 377.85 157.16 365.754 156.984 365.588C156.7 365.318 150.144 364.633 149.928 364.854C149.835 364.946 150.07 365.362 150.457 365.769C150.839 366.18 152.628 369.111 154.426 372.282C157.332 377.41 157.802 378.075 158.62 378.252C159.889 378.521 160.311 378.545 160.311 378.354L160.306 378.359ZM120.681 372.497C112.268 368.352 108.986 366.874 108.471 367.007C108.084 367.104 107.77 367.295 107.77 367.432C107.77 367.569 109.049 368.196 110.612 368.822C112.175 369.448 117.531 371.807 122.519 374.063C127.502 376.319 131.721 378.163 131.887 378.163C132.054 378.163 127.017 375.614 120.686 372.497H120.681ZM138.463 377.796C138.394 377.733 134.254 375.154 129.271 372.066C124.288 368.979 119.481 365.984 118.589 365.416C116.977 364.389 116.139 364.291 114.223 364.907C113.969 364.991 115.512 365.964 117.756 367.139C119.951 368.284 125.268 371.156 129.579 373.52C133.891 375.883 137.62 377.889 137.875 377.973C138.33 378.129 138.712 378.012 138.463 377.792V377.796ZM155.029 377.674C154.906 377.39 150.58 369.737 148.884 366.806C148.228 365.676 147.586 364.682 147.454 364.599C147.321 364.516 145.763 364.354 144.004 364.242L140.795 364.031L142.363 365.68C143.225 366.586 145.969 369.708 148.458 372.619C152.716 377.601 153.049 377.914 154.059 377.914C154.647 377.914 155.088 377.806 155.029 377.679V377.674ZM136.762 373.823C133.911 371.743 129.638 368.631 127.276 366.909L122.974 363.772L120.975 363.978C119.878 364.09 118.932 364.222 118.868 364.276C118.81 364.33 119.569 364.79 120.559 365.299C121.544 365.808 126.434 368.778 131.422 371.9C142.137 378.614 144.499 379.465 136.762 373.823ZM145.504 377.327C145.45 377.175 142.039 374.068 137.933 370.422L130.466 363.797H127.869C126.443 363.797 125.272 363.855 125.272 363.924C125.272 363.992 125.929 364.457 126.733 364.951C127.536 365.446 131.833 368.499 136.282 371.729C143.308 376.832 145.896 378.403 145.499 377.327H145.504ZM149.815 377.072C147.851 374.596 138.644 364.027 138.35 363.914C138.144 363.836 136.748 363.811 135.243 363.86L132.509 363.948L134.038 365.059C134.876 365.671 138.443 368.744 141.956 371.885C147.312 376.676 148.497 377.601 149.291 377.601C150.144 377.601 150.193 377.552 149.815 377.067V377.072ZM275.044 371.176C282.305 367.941 288.298 365.25 288.357 365.191C288.523 365.025 286.191 361.619 285.99 361.727C285.892 361.776 279.968 364.702 272.829 368.23C265.69 371.753 259.85 374.777 259.85 374.944C259.85 375.399 261.393 377.332 261.638 377.185C261.756 377.116 267.787 374.41 275.049 371.176H275.044ZM126.169 376.872C126.1 376.803 121.833 374.87 116.688 372.575C110.416 369.776 107.231 368.504 107.026 368.709C106.58 369.155 106.957 369.39 109.912 370.486C111.347 371.019 115.497 372.693 119.128 374.205C125.106 376.691 126.551 377.239 126.169 376.872ZM215.546 374.895C216.673 374.244 221.435 371.606 226.124 369.032C230.814 366.459 234.65 364.242 234.65 364.11C234.65 363.978 232.764 363.229 230.456 362.441L226.262 361.012L225.463 361.751C225.022 362.157 220.965 365.084 216.447 368.259C211.925 371.435 208.231 374.136 208.231 374.259C208.231 374.489 212.341 376.006 213.091 376.05C213.316 376.064 214.424 375.546 215.551 374.895H215.546ZM119.094 375.32C118.741 374.968 107.668 370.544 107.516 370.696C107.212 371 107.883 371.381 109.917 372.047C111.014 372.404 113.435 373.309 115.292 374.058C118.467 375.33 119.422 375.648 119.094 375.32ZM112.68 374.107C112.68 373.921 109.828 372.986 109.691 373.128C109.627 373.192 110.166 373.461 110.896 373.715C112.332 374.224 112.68 374.298 112.68 374.107ZM271.83 367.491C279.013 363.963 284.887 360.929 284.887 360.748C284.887 360.347 280.796 357.049 280.316 357.058C280.125 357.058 279.723 357.259 279.414 357.494C279.106 357.729 273.54 360.861 267.047 364.462C260.555 368.059 255.278 371.117 255.327 371.254C255.415 371.523 258.375 373.892 258.625 373.896C258.708 373.896 264.656 371.014 271.834 367.491H271.83ZM206.79 372.854C207.329 372.433 211.357 369.556 215.742 366.463C220.127 363.371 223.753 360.714 223.807 360.557C223.861 360.401 221.69 359.632 218.986 358.854L214.066 357.435L213.532 358.145C213.238 358.536 209.99 361.702 206.315 365.186C202.64 368.67 199.631 371.626 199.631 371.753C199.631 371.964 204.492 373.51 205.408 373.588C205.629 373.608 206.251 373.28 206.79 372.854ZM197.48 370.936C197.48 370.809 200.66 367.687 204.546 363.997C208.431 360.308 211.611 357.186 211.611 357.058C211.611 356.931 209.112 356.202 206.06 355.439L200.508 354.054L200.219 354.812C200.063 355.228 197.706 358.678 194.986 362.47C192.267 366.268 190.092 369.424 190.15 369.483C190.346 369.678 196.069 371.112 196.78 371.142C197.162 371.156 197.471 371.063 197.471 370.936H197.48ZM266.533 363.234C273.334 359.461 278.9 356.28 278.9 356.163C278.9 356.045 277.366 355.081 275.495 354.01C272.574 352.346 271.991 352.116 271.423 352.405C269.566 353.349 248.659 367.065 248.673 367.33C248.698 367.736 253.117 370.202 253.705 370.138C253.96 370.109 259.732 367.002 266.533 363.229V363.234ZM104.63 369.16C104.164 368.695 80.8952 354.641 80.7776 354.758C80.3023 355.233 82.7571 356.868 92.7134 362.7C102.185 368.25 105.536 370.065 104.63 369.165V369.16ZM192.826 361.521C195.761 357.401 198.147 353.917 198.132 353.775C198.108 353.535 187.794 351.25 186.652 351.23C186.319 351.225 186.113 351.451 186.113 351.818C186.113 352.145 184.8 355.629 183.198 359.564C181.59 363.498 180.277 366.884 180.277 367.09C180.277 367.295 180.586 367.54 180.968 367.628C182.923 368.078 186.921 368.944 187.191 368.974C187.362 368.993 189.896 365.636 192.831 361.516L192.826 361.521ZM104.639 367.339C104.586 367.09 99.0929 363.356 92.4292 359.04C83.4871 353.246 80.2533 351.299 80.0671 351.592C79.5183 352.459 79.8515 353.031 81.4194 353.922C82.3063 354.426 87.7989 357.753 93.6297 361.316C99.4555 364.878 104.341 367.794 104.483 367.794C104.625 367.794 104.693 367.589 104.639 367.339ZM303.781 360.048L315.3 352.904L315.457 351.142C315.545 350.173 315.506 349.381 315.374 349.381C314.977 349.381 291.674 364.442 291.257 364.966C290.855 365.475 290.728 367.237 291.066 367.574C291.306 367.814 290.135 368.509 303.776 360.048H303.781ZM177.813 366.449C177.813 366.219 179.209 362.617 180.914 358.448C182.619 354.279 183.952 350.805 183.874 350.721C183.79 350.638 181.257 350.164 178.234 349.66C175.216 349.156 172.501 348.666 172.207 348.578C171.781 348.451 171.668 348.598 171.673 349.278C171.673 349.753 171.237 353.565 170.708 357.743C170.179 361.922 169.816 365.421 169.909 365.514C170.12 365.725 175.843 366.801 176.975 366.835C177.499 366.855 177.818 366.703 177.818 366.444L177.813 366.449ZM258.399 358.937C264.769 354.827 269.982 351.367 269.982 351.25C269.982 351.132 268.983 350.609 267.753 350.09C266.528 349.572 264.416 348.666 263.064 348.079L260.604 347.012L250.182 355.028C244.45 359.437 239.716 363.185 239.658 363.361C239.55 363.679 245.88 366.547 246.488 366.459C246.664 366.434 252.02 363.048 258.394 358.937H258.399ZM106.153 365.592C106.423 365.323 106.016 364.888 104.448 363.797C103.317 363.004 98.0983 359.344 92.8604 355.664C87.6225 351.984 83.056 348.916 82.7179 348.847C82.0221 348.71 80.317 350.296 80.9246 350.511C81.1205 350.58 86.5838 354.078 93.0613 358.282C99.5388 362.485 105.056 365.93 105.321 365.935C105.58 365.94 105.957 365.788 106.153 365.592ZM168.253 356.638C168.802 352.106 169.184 348.329 169.096 348.245C169.008 348.162 166.225 347.717 162.912 347.257L156.881 346.425L157.067 347.174C157.17 347.585 157.733 351.519 158.312 355.908C158.895 360.303 159.429 363.958 159.502 364.031C159.742 364.271 166.896 365.24 167.077 365.054C167.17 364.956 167.7 361.169 168.248 356.638H168.253ZM109.608 363.826C109.608 363.611 89.2395 347.746 87.9018 346.919C87.3384 346.572 87.015 346.596 85.6871 347.105C84.8346 347.428 84.1535 347.834 84.1829 348.001C84.2123 348.172 88.4555 351.26 93.615 354.871C108.809 365.499 107.614 364.741 108.677 364.374C109.186 364.198 109.603 363.953 109.603 363.831L109.608 363.826ZM156.734 362.803C156.651 362.255 156.131 358.384 155.573 354.201C155.014 350.017 154.436 346.474 154.284 346.327C154.044 346.097 142.779 344.752 142.559 344.928C142.515 344.962 142.779 345.667 143.147 346.498C143.514 347.325 145.068 351.387 146.606 355.522L149.399 363.038L152.319 363.381C157.116 363.938 156.915 363.968 156.739 362.808L156.734 362.803ZM303.384 355.806C309.94 351.558 315.349 348.04 315.408 347.991C315.536 347.874 313.032 343.553 312.836 343.553C312.62 343.553 288.753 360.136 288.592 360.396C288.327 360.821 290.586 363.86 291.037 363.689C291.267 363.601 296.823 360.053 303.379 355.806H303.384ZM113.758 363.028C114.179 362.94 114.517 362.769 114.508 362.647C114.498 362.524 109.99 358.497 104.492 353.702L94.492 344.977L92.145 345.368C90.8564 345.583 89.6315 345.853 89.4306 345.965C89.215 346.083 93.6346 349.699 100.284 354.832C109.466 361.922 111.646 363.469 112.249 363.341C112.655 363.258 113.337 363.116 113.758 363.028ZM146.709 362.5C141.554 348.505 140.217 344.908 140.124 344.8C139.972 344.615 129.158 343.871 128.996 344.032C128.923 344.106 129.075 344.404 129.329 344.703C129.584 344.996 132.039 349.063 134.773 353.736L139.756 362.226L141.657 362.402C142.706 362.5 144.112 362.627 144.788 362.681C145.464 362.735 146.204 362.803 146.435 362.833C146.665 362.862 146.787 362.71 146.709 362.5ZM120.936 362.094C121 362.035 117.06 357.91 112.185 352.919C104.409 344.962 103.223 343.866 102.547 343.993C102.121 344.076 100.558 344.233 99.0733 344.345C97.5887 344.458 96.4127 344.649 96.4617 344.771C96.5107 344.893 101.102 348.96 106.658 353.804L116.766 362.612L118.795 362.402C119.912 362.284 120.872 362.143 120.936 362.089V362.094ZM247.889 354.577C253.622 350.178 258.306 346.469 258.306 346.332C258.306 346.195 255.7 345.163 252.515 344.027L246.723 341.967L245.219 343.504C244.391 344.35 240.329 348.245 236.189 352.155C232.048 356.07 228.618 359.378 228.569 359.51C228.481 359.74 236.194 362.5 237.061 362.549C237.286 362.563 242.161 358.972 247.889 354.573V354.577ZM137.257 362.108C137.257 361.844 127.095 344.663 126.688 344.238C126.434 343.973 124.733 343.788 121.323 343.651L116.33 343.455L121.955 350.511C125.047 354.391 128.34 358.546 129.271 359.745L130.961 361.922L133.112 362.035C134.293 362.099 135.714 362.177 136.263 362.211C136.811 362.245 137.262 362.201 137.262 362.108H137.257ZM128.075 361.12C127.737 360.655 124.503 356.549 120.892 351.994L114.326 343.709L112.043 343.621C110.784 343.572 108.834 343.646 107.702 343.773L105.649 344.013L123.18 361.962H128.692L128.075 361.12ZM299.9 351.015C306.422 346.489 311.724 342.613 311.684 342.403C311.645 342.192 310.44 340.993 309.004 339.736L306.397 337.451L305.315 338.273C288.959 350.721 283.035 355.326 283.035 355.585C283.035 356.055 287.279 359.5 287.685 359.363C287.876 359.3 293.374 355.541 299.895 351.015H299.9ZM235.267 350.291C240.251 345.559 244.366 341.586 244.41 341.458C244.455 341.331 241.412 340.303 237.654 339.183L230.814 337.142L230.353 337.803C230.098 338.165 226.747 342.364 222.905 347.13C218.99 351.984 216.055 355.879 216.232 355.992C216.565 356.197 225.365 358.815 225.899 358.869C226.071 358.884 230.284 355.028 235.267 350.301V350.291ZM220.955 346.034C224.949 341.072 228.173 336.863 228.114 336.687C228.011 336.384 214.507 332.836 213.38 332.817C213.086 332.817 212.841 332.958 212.841 333.149C212.841 333.34 210.494 337.602 207.628 342.628C204.761 347.653 202.38 351.94 202.326 352.155C202.267 352.419 203.909 352.963 207.461 353.848C210.333 354.568 212.91 355.135 213.184 355.106C213.459 355.077 216.957 350.995 220.95 346.034H220.955ZM293.364 345.647C302.615 338.557 304.952 336.619 304.638 336.33C304.423 336.129 302.463 334.906 300.292 333.609C296.931 331.603 296.27 331.314 295.848 331.647C293.31 333.663 274.426 350.173 274.368 350.428C274.289 350.761 280.566 354.509 281.291 354.563C281.512 354.582 286.945 350.565 293.364 345.642V345.647ZM77.7936 352.723C77.6907 352.488 76.3384 351.235 74.79 349.939C73.2417 348.642 68.7339 344.815 64.77 341.434C60.8061 338.052 57.5134 335.342 57.4497 335.405C57.0087 335.846 59.3361 338.028 67.945 345.211C73.3348 349.709 77.7936 353.339 77.8622 353.271C77.9308 353.202 77.9014 352.958 77.7985 352.723H77.7936ZM204.962 342.388C207.917 337.191 210.382 332.753 210.435 332.518C210.509 332.2 208.681 331.696 203.007 330.478C194.634 328.677 194.1 328.608 194.1 329.298C194.1 329.562 192.586 334.148 190.729 339.486C188.876 344.825 187.416 349.253 187.485 349.322C187.637 349.474 198.333 351.769 199.068 351.808C199.435 351.827 201.141 349.102 204.962 342.388ZM77.9553 349.943C77.9553 349.488 74.1139 345.936 60.2965 333.624L56.3032 330.067L56.0484 331.324C55.8573 332.244 55.9014 332.689 56.2003 332.978C56.4257 333.193 61.3058 337.382 67.0484 342.28C77.235 350.976 77.9455 351.475 77.9602 349.943H77.9553ZM327.687 342.427C333.042 337.759 337.727 333.653 338.099 333.296C338.614 332.807 338.829 332.136 338.991 330.526L339.206 328.403L329.25 337.245C323.772 342.109 318.985 346.376 318.613 346.733C318.137 347.184 317.868 347.903 317.726 349.146C317.613 350.115 317.613 350.912 317.736 350.912C317.858 350.912 322.332 347.095 327.687 342.427ZM273.647 348.686C274.279 348.138 279.248 343.832 284.687 339.119C290.125 334.407 294.471 330.453 294.339 330.331C294.212 330.213 291.546 328.931 288.42 327.488L282.736 324.865L272.878 334.896C267.459 340.416 262.985 345.06 262.946 345.216C262.883 345.461 271.491 349.571 272.241 349.655C272.383 349.669 273.015 349.234 273.647 348.686ZM187.573 340.71C189.097 336.281 190.665 331.73 191.057 330.6C191.454 329.474 191.669 328.442 191.542 328.315C191.253 328.026 175.088 325.193 174.883 325.398C174.799 325.481 174.736 325.956 174.736 326.455C174.736 326.954 174.177 331.446 173.496 336.438C172.815 341.429 172.296 345.794 172.345 346.141C172.423 346.704 172.991 346.87 177.813 347.727C180.772 348.25 183.555 348.7 184.001 348.725C184.79 348.764 184.878 348.563 187.578 340.71H187.573ZM79.5232 347.825C80.0132 347.477 80.415 347.071 80.415 346.929C80.415 346.787 75.6328 342.085 69.7923 336.477L59.1696 326.289L57.9642 327.463C57.3027 328.109 56.7687 328.78 56.7785 328.961C56.7981 329.264 78.1562 348.461 78.4747 348.461C78.558 348.461 79.0332 348.177 79.5232 347.825ZM169.63 345.466C170.066 343.225 172.33 325.085 172.183 324.943C171.962 324.723 155.729 322.531 155.587 322.702C155.401 322.922 156.832 344.179 157.047 344.394C157.199 344.546 167.41 346.146 169.106 346.278C169.302 346.293 169.542 345.926 169.63 345.461V345.466ZM329.583 335.557C334.738 330.942 338.996 326.998 339.05 326.793C339.099 326.587 338.574 325.291 337.883 323.916L336.624 321.41L334.566 323.328C328.897 328.613 317.309 339.476 316.251 340.494C315.104 341.605 315.07 341.693 315.442 342.594C315.658 343.112 316.241 344.179 316.741 344.962L317.647 346.391L318.931 345.167C319.637 344.492 324.434 340.166 329.588 335.557H329.583ZM83.9232 345.285L85.4323 344.605L76.7009 335.435C71.8992 330.389 67.4404 325.667 66.7936 324.933C66.1468 324.204 65.4266 323.607 65.1963 323.607C64.966 323.607 63.7361 324.082 62.4622 324.664L60.1446 325.721L66.6613 331.955C70.2479 335.386 74.9811 339.946 77.1811 342.09C79.6604 344.507 81.4145 345.99 81.7967 345.985C82.1348 345.98 83.0903 345.667 83.9232 345.295V345.285ZM270.668 334.427C276.19 328.902 280.6 324.273 280.463 324.141C280.326 324.004 277.063 322.717 273.202 321.283C267.518 319.169 266.116 318.748 265.818 319.066C264.529 320.446 248.781 339.888 248.781 340.093C248.781 340.323 259.561 344.394 260.31 344.448C260.487 344.463 265.146 339.951 270.668 334.427ZM89.8715 343.66C91.2729 343.381 92.3753 343.039 92.3312 342.892C92.0813 342.143 74.1384 321.136 73.8444 321.244C73.6533 321.317 72.1197 321.684 70.4292 322.061C68.7388 322.438 67.2395 322.859 67.0925 322.996C66.8181 323.255 86.4858 344.135 87.0199 344.155C87.1914 344.155 88.4751 343.934 89.8715 343.66ZM154.152 342.897C154.152 340.201 152.888 322.526 152.677 322.335C152.559 322.222 149.418 321.836 145.7 321.469C141.981 321.102 138.384 320.725 137.703 320.637L136.464 320.471L139.173 331.471C140.663 337.519 142 342.589 142.147 342.731C142.378 342.961 150.923 344.027 153.304 344.125C154.093 344.159 154.147 344.081 154.147 342.897H154.152ZM99.0978 342.344C100.333 342.202 101.415 342.011 101.504 341.923C101.592 341.835 98.162 336.854 93.8845 330.854C86.2506 320.157 86.0791 319.947 85.0404 319.937C83.9379 319.923 76.3482 320.838 76.1669 321.004C76.113 321.058 80.121 325.936 85.0747 331.853L94.0853 342.603H95.4671C96.2265 342.603 97.8582 342.486 99.0929 342.344H99.0978ZM139.296 341.938C139.193 341.556 137.982 336.624 136.596 330.967C135.214 325.315 133.999 320.598 133.901 320.49C133.803 320.383 130.956 320.138 127.575 319.947C118.525 319.433 118.658 319.433 118.731 319.766C118.844 320.304 127.786 341.541 127.992 341.762C128.193 341.977 134.376 342.501 137.669 342.579C139.398 342.623 139.462 342.594 139.291 341.933L139.296 341.938ZM109.525 341.713C111.254 341.713 112.675 341.59 112.675 341.444C112.675 341.067 100.48 319.888 100.004 319.433C99.7103 319.154 98.2502 319.13 93.9678 319.335C90.8613 319.482 88.2546 319.668 88.1762 319.746C88.0243 319.898 103.351 341.385 103.904 341.801C104.081 341.933 104.713 341.972 105.301 341.879C105.894 341.791 107.795 341.718 109.525 341.713ZM124.479 339.178C123.891 337.783 121.789 332.782 119.804 328.055L116.193 319.463L109.329 319.213C105.556 319.076 102.41 319.017 102.341 319.086C102.273 319.154 103.571 321.547 105.227 324.4C106.884 327.253 109.799 332.313 111.705 335.645L115.169 341.703H125.542L124.474 339.173L124.479 339.178ZM323.63 331.892C328.51 327.253 333.238 322.761 334.14 321.909L335.777 320.363L332.812 317.461C331.185 315.861 329.735 314.515 329.588 314.462C329.363 314.383 316.202 327.537 310.425 333.619L308.348 335.806L311.18 338.282C312.89 339.775 314.164 340.67 314.389 340.543C314.59 340.426 318.75 336.531 323.63 331.892ZM255.249 328.643C260.006 322.815 263.848 317.999 263.789 317.941C263.73 317.882 259.948 316.664 255.386 315.235C249.266 313.321 247.002 312.729 246.748 312.984C245.787 313.948 232.484 335.068 232.7 335.278C233.053 335.625 246.116 339.521 246.385 339.364C246.503 339.295 250.491 334.466 255.249 328.643ZM237.242 323.304C241.196 317.148 244.386 312.059 244.327 312C244.028 311.702 225.566 307.087 225.419 307.273C225.145 307.616 214.733 329.837 214.62 330.321C214.546 330.639 216.418 331.236 221.896 332.655C225.948 333.707 229.447 334.549 229.662 334.529C229.878 334.51 233.288 329.455 237.242 323.294V323.304ZM316.565 325.217C321.631 320.03 326.3 315.2 326.942 314.486L328.103 313.189L323.12 309.94C320.377 308.154 318.03 306.803 317.897 306.94C317.765 307.077 313.291 312.157 307.951 318.225C300.253 326.969 298.323 329.333 298.626 329.626C299.214 330.189 306.647 334.627 307.02 334.642C307.201 334.642 311.493 330.404 316.56 325.217H316.565ZM54.0983 329.225C54.2012 328.603 54.1669 327.948 54.0346 327.767C53.1085 326.558 36.9099 306.764 36.4444 306.275C35.876 305.678 35.8662 305.697 35.8662 307.533V309.397L42.8582 317.662C46.6996 322.208 50.6782 326.92 51.6925 328.134C52.7067 329.352 53.623 330.345 53.7259 330.35C53.8288 330.35 54.0003 329.846 54.0983 329.225ZM217.31 318.484C220.255 312.206 222.665 306.936 222.665 306.769C222.665 306.603 222.425 306.392 222.126 306.304C221.009 305.962 202.63 302.096 202.561 302.189C202.272 302.605 195.251 326.406 195.378 326.533C195.633 326.788 210.759 330.018 211.391 329.954C211.807 329.91 213.302 327.013 217.305 318.484H217.31ZM344.586 325.985C352.024 317.05 357.14 310.826 357.757 309.955C358.296 309.196 359.266 305.282 358.987 305.003C358.781 304.797 341.695 325.981 341.519 326.666C341.269 327.63 340.975 330.052 341.103 330.052C341.156 330.052 342.72 328.222 344.581 325.985H344.586ZM306.27 317.569C311.577 311.545 316.026 306.441 316.158 306.226C316.334 305.937 314.654 304.959 309.94 302.6C306.388 300.824 303.286 299.37 303.051 299.37C302.625 299.37 284.956 322.041 284.814 322.77C284.77 322.991 287.141 324.263 290.498 325.819C293.663 327.287 296.338 328.496 296.441 328.506C296.544 328.515 300.969 323.593 306.275 317.569H306.27ZM55.8671 326.132C56.2738 325.662 56.7834 325.065 56.994 324.801C57.3174 324.39 56.4894 323.162 51.5063 316.678C48.2774 312.475 44.235 307.2 42.5201 304.954L39.4039 300.868L37.929 302.458C37.1206 303.334 36.4983 304.244 36.5473 304.484C36.66 305.008 54.5834 326.984 54.9018 326.984C55.0243 326.984 55.4604 326.602 55.8671 326.132ZM193.458 323.074C196.26 314.002 199.911 301.7 199.827 301.616C199.587 301.377 179.175 297.937 178.998 298.108C178.67 298.421 175.329 322.785 175.583 323.025C175.794 323.216 190.709 325.951 192.012 326.034C192.414 326.059 192.752 325.379 193.458 323.074ZM350.192 313.791C354.94 307.968 358.903 303.021 358.997 302.791C359.232 302.233 356.909 296.562 356.507 296.699C356.189 296.806 339.368 318.048 338.785 319.076C338.56 319.477 338.785 320.206 339.736 322.09C340.422 323.456 341.117 324.527 341.274 324.473C341.431 324.42 345.449 319.614 350.197 313.791H350.192ZM61.1932 322.536C62.8248 321.797 63.4863 321.342 63.3295 321.077C62.3985 319.477 46.7143 297.428 46.435 297.32C45.901 297.115 40.4132 299.953 40.5504 300.364C40.7905 301.088 58.1553 323.573 58.4885 323.593C58.6796 323.602 59.8947 323.128 61.1932 322.536ZM174.437 310.111C175.961 299.126 176.108 297.663 175.681 297.501C174.79 297.159 155.406 294.643 155.205 294.849C155.097 294.957 155.127 300.75 155.274 307.718L155.538 320.387L163.525 321.508C167.92 322.125 171.781 322.609 172.109 322.585C172.663 322.545 172.844 321.572 174.437 310.116V310.111ZM291.762 310.263C296.676 303.848 300.704 298.519 300.704 298.421C300.704 298.279 291.669 294.648 284.383 291.854C283.996 291.707 282.139 294.35 275.847 304.009C271.428 310.796 267.92 316.463 268.057 316.595C268.424 316.967 282.06 322.066 282.467 321.988C282.663 321.948 286.842 316.673 291.762 310.263ZM68.9691 320.04C70.8702 319.595 72.4234 319.086 72.4234 318.919C72.4234 318.21 57.2047 294.154 56.7638 294.164C55.9749 294.183 47.9981 296.459 47.9981 296.664C47.9981 297.085 64.8827 320.847 65.1865 320.852C65.3629 320.852 67.0631 320.49 68.9642 320.04H68.9691ZM152.687 310.493C152.643 305.306 152.53 299.527 152.427 297.658L152.246 294.257L142.24 293.283C136.738 292.75 132.171 292.373 132.098 292.446C131.966 292.578 135.915 318.088 136.101 318.273C136.228 318.401 150.002 319.849 151.535 319.893L152.765 319.932L152.687 310.498V310.493ZM80.0279 318.195C82.4337 317.916 84.4034 317.593 84.4034 317.476C84.4034 317.226 71.5121 292.573 71.1936 292.221C70.9584 291.957 59.5076 293.459 59.1451 293.802C59.0275 293.914 60.3504 296.283 62.0849 299.067C63.8194 301.851 67.2787 307.405 69.7727 311.413C73.4426 317.314 74.4324 318.699 74.9762 318.704C75.3437 318.704 77.6172 318.474 80.0279 318.195ZM133.386 317.246C133.298 316.781 132.357 310.982 131.299 304.362C130.241 297.741 129.315 292.265 129.241 292.202C129.055 292.025 110.48 291.027 110.323 291.184C110.147 291.36 117.555 316.644 117.874 316.967C118.109 317.202 127.688 317.946 131.784 318.048L133.543 318.092L133.382 317.251L133.386 317.246ZM340.75 314.329C342.357 312.26 346.38 307.117 349.677 302.898C352.98 298.68 355.684 295.142 355.689 295.04C355.704 294.663 349.177 288.023 348.937 288.169C348.658 288.341 332.376 310.473 331.705 311.594C331.288 312.289 331.386 312.421 334.316 315.2C335.992 316.786 337.462 318.088 337.589 318.088C337.717 318.088 339.138 316.394 340.75 314.329ZM97.2506 316.977C98.1473 316.884 98.8381 316.698 98.7891 316.561C98.7401 316.424 96.3441 310.62 93.4729 303.667L88.2497 291.022L83.7958 291.208C76.4315 291.516 73.3495 291.771 73.3495 292.065C73.3495 292.314 81.6938 308.384 85.2364 314.951L86.6083 317.5L91.1161 317.319C93.5954 317.216 96.3588 317.06 97.2506 316.972V316.977ZM115.13 316.717C115.13 316.243 107.903 291.433 107.707 291.238C107.653 291.184 103.767 291.037 99.0782 290.915C92.4831 290.743 90.5526 290.778 90.5526 291.061C90.5526 291.267 92.9241 297.149 95.8199 304.137L101.082 316.84L104.497 316.928C106.374 316.977 109.534 317.055 111.524 317.104C114.615 317.182 115.135 317.128 115.135 316.722L115.13 316.717ZM273.711 303.231C278.082 296.498 281.619 290.954 281.58 290.91C281.173 290.523 261.888 284.627 261.702 284.832C261.408 285.155 248.448 309.837 248.374 310.219C248.311 310.547 264.377 315.631 265.19 315.543C265.592 315.499 268.248 311.658 273.716 303.231H273.711ZM333.645 306.197C335.585 303.54 339.535 298.132 342.426 294.178C345.316 290.23 347.619 286.892 347.541 286.765C347.262 286.315 337.467 279.645 337.036 279.611C336.776 279.591 333.077 284.788 328.157 292.079L319.725 304.582L324.576 307.777C327.246 309.534 329.583 310.987 329.774 310.997C329.965 311.012 331.705 308.844 333.645 306.187V306.197ZM246.125 309.113C247.125 307.508 259.276 283.981 259.164 283.863C258.772 283.472 237.247 277.977 237.085 278.226C236.62 278.98 226.575 304.606 226.698 304.729C226.81 304.841 244.665 309.632 245.469 309.764C245.591 309.783 245.885 309.49 246.125 309.113ZM33.9357 302.898C33.7691 302.561 30.5745 297.036 26.8359 290.626L20.0399 278.97L19.9468 281.084L19.8538 283.198L26.8604 294.873L33.8622 306.549L34.0484 305.032C34.1513 304.195 34.0974 303.236 33.9308 302.898H33.9357ZM363.882 300.256C373.196 284.353 373.608 283.599 374.029 281.603C374.254 280.521 374.401 279.596 374.352 279.547C374.264 279.459 370.962 285.057 364.499 296.253C362.049 300.496 361.348 301.979 361.054 303.559C360.849 304.645 360.741 305.482 360.809 305.409C360.878 305.34 362.265 303.016 363.882 300.251V300.256ZM229.231 290.851C232.039 283.716 234.337 277.756 234.337 277.6C234.337 277.443 234.096 277.243 233.798 277.154C232.783 276.836 210.847 272.1 210.764 272.183C210.519 272.427 203.345 299.522 203.488 299.664C203.777 299.953 223.724 304.185 223.924 304C224.032 303.902 226.414 297.986 229.226 290.851H229.231ZM326.668 291.052C331.342 284.113 335.046 278.329 334.904 278.202C334.659 277.972 320.357 270.529 320.166 270.529C320.097 270.529 305.447 294.961 304.482 296.679C304.374 296.875 317.397 303.608 317.961 303.652C318.079 303.662 321.993 297.99 326.668 291.052ZM37.7036 298.641C37.7036 298.47 35.7143 294.736 33.2889 290.337C30.8635 285.943 27.713 280.237 26.297 277.663C24.8809 275.089 23.6315 272.985 23.5237 272.985C23.4159 272.985 22.6074 273.944 21.7402 275.119L20.1575 277.252L26.7428 288.541C30.3638 294.751 33.6515 300.374 34.0435 301.034L34.7589 302.238L36.2337 300.594C37.0471 299.688 37.7085 298.813 37.7085 298.641H37.7036ZM370.986 282.743L375.019 275.779L373.75 272.374C372.75 269.687 372.402 269.056 372.113 269.364C371.912 269.584 368.742 275.124 365.067 281.681C359.663 291.331 358.418 293.758 358.556 294.428C358.649 294.883 359.222 296.346 359.825 297.677L360.927 300.099L363.94 294.903C365.597 292.045 368.767 286.569 370.986 282.738V282.743ZM204.335 285.395C206.339 277.879 207.927 271.674 207.863 271.61C207.701 271.449 183.506 267.196 183.389 267.309C183.212 267.47 179.327 294.609 179.415 295.079C179.479 295.431 181.767 295.945 189.17 297.266C194.492 298.216 199.259 299.008 199.769 299.028L200.69 299.062L204.335 285.395ZM42.2261 296.292L45.0631 294.751L38.4729 281.593C34.8471 274.355 31.7406 268.346 31.5691 268.239C31.3094 268.077 24.484 271.63 24.484 271.928C24.484 271.977 25.8805 274.551 27.5856 277.644C29.2907 280.736 32.4903 286.545 34.6903 290.553C36.8903 294.56 38.8502 297.839 39.0413 297.834C39.2324 297.829 40.6631 297.134 42.2261 296.292ZM310.376 282.806C314.649 275.633 318.059 269.682 317.946 269.575C317.657 269.301 299.42 261.882 299.322 261.995C298.994 262.367 285.284 289.3 285.377 289.393C285.441 289.456 287.636 290.342 290.253 291.355C292.869 292.373 296.534 293.821 298.391 294.575C300.248 295.328 301.958 295.925 302.189 295.896C302.419 295.867 306.104 289.98 310.376 282.806ZM176.573 294.839C176.573 294.707 177.475 288.404 178.577 280.834C179.68 273.264 180.503 266.991 180.414 266.903C180.125 266.614 156.161 263.492 155.965 263.722C155.69 264.045 155.043 291.805 155.303 292.045C155.489 292.216 174.226 294.927 176.039 295.045C176.333 295.064 176.578 294.971 176.578 294.839H176.573ZM51.2074 293.043C53.4956 292.432 55.4751 291.835 55.6025 291.722C55.823 291.526 44.1321 264.848 43.6177 264.373C43.3286 264.104 33.0929 267.157 33.0929 267.515C33.0929 268.16 46.3468 294.159 46.6751 294.159C46.8809 294.159 48.9192 293.655 51.2074 293.043ZM364.411 280.125C368.233 273.333 371.359 267.603 371.359 267.392C371.359 266.996 365.165 259.729 364.69 259.573C364.401 259.48 350.985 284.387 350.829 285.312C350.765 285.693 351.818 286.995 354.028 289.256C355.841 291.11 357.355 292.598 357.394 292.554C357.434 292.51 360.589 286.917 364.411 280.125ZM152.339 291.629C152.407 291.477 153.118 263.321 153.059 263.233C152.922 263.037 129.516 260.977 129.344 261.143C129.124 261.364 131.456 289.129 131.73 289.569C131.995 289.995 152.167 292.011 152.344 291.624L152.339 291.629ZM64.5887 290.445C67.2934 290.078 69.6159 289.677 69.7482 289.559C69.9638 289.368 60.0123 262.058 59.5566 261.594C59.4488 261.486 56.2542 261.907 52.452 262.528C47.0818 263.409 45.5482 263.756 45.5776 264.104C45.6217 264.642 57.0283 290.46 57.4742 291.037C57.6751 291.291 58.1406 291.384 58.7335 291.277C59.2528 291.184 61.884 290.812 64.5887 290.44V290.445ZM80.7188 288.918C84.1829 288.727 87.064 288.527 87.1228 288.473C87.2796 288.321 79.2145 260.311 78.9499 260.086C78.7246 259.896 61.9428 260.992 61.6978 261.212C61.5949 261.305 70.1989 284.862 71.6885 288.566C72.0658 289.5 72.1735 289.559 73.2564 289.417C73.8983 289.334 77.2546 289.109 80.7188 288.918ZM128.957 288.938C128.957 288.008 126.517 260.933 126.424 260.84C126.38 260.796 123.166 260.61 119.28 260.424C115.394 260.238 110.382 259.998 108.143 259.891C105.781 259.778 104.076 259.812 104.076 259.974C104.091 260.63 109.495 288.326 109.637 288.468C109.819 288.649 122.71 289.452 126.419 289.515C128.766 289.554 128.952 289.515 128.952 288.938H128.957ZM106.937 288.404C107.011 288.277 105.85 281.823 104.345 274.062C102.846 266.296 101.616 259.91 101.616 259.871C101.611 259.71 81.3361 259.803 81.3361 259.964C81.3361 260.238 89.3767 288.15 89.5286 288.404C89.607 288.532 93.5219 288.634 98.2355 288.634C102.949 288.634 106.864 288.532 106.937 288.404ZM290.258 274.581C294.011 267.27 297.019 261.231 296.946 261.158C296.872 261.085 291.958 259.382 286.019 257.371C278.278 254.748 275.147 253.818 274.956 254.068C274.407 254.797 263.167 281.578 263.275 281.901C263.338 282.087 267.738 283.658 273.055 285.39C280.145 287.7 282.82 288.448 283.079 288.204C283.275 288.018 286.504 281.886 290.258 274.581ZM356.233 271.483C359.991 264.422 363.063 258.457 363.054 258.222C363.044 257.889 353.896 250.906 352.132 249.889C351.813 249.703 350.074 252.913 344.929 263.194C341.201 270.646 338.226 276.827 338.329 276.934C338.77 277.409 348.81 284.284 349.089 284.299C349.261 284.309 352.47 278.544 356.233 271.483ZM266.386 267.642C269.566 260.15 272.231 253.764 272.315 253.456C272.442 252.952 271.119 252.526 260.271 249.57C253.568 247.745 247.982 246.36 247.855 246.502C247.728 246.639 245.479 253.206 242.852 261.099C238.242 274.952 238.1 275.452 238.741 275.613C239.109 275.706 243.969 277.008 249.545 278.5C255.121 279.998 259.894 281.226 260.144 281.24C260.467 281.255 262.348 277.154 266.386 267.637V267.642ZM13.7045 263.717C11.1371 257.087 8.89786 251.528 8.73616 251.357C8.54507 251.161 8.51077 251.91 8.63327 253.456C8.80476 255.619 9.30454 257.067 13.5134 267.715L18.2025 279.572L18.2956 277.668C18.3838 275.858 18.1682 275.202 13.7143 263.712L13.7045 263.717ZM380.899 265.21C382.937 259.832 384.564 255.306 384.505 255.144C384.392 254.806 376.998 274.052 376.744 275.354C376.601 276.078 376.621 276.117 376.881 275.598C377.052 275.261 378.855 270.588 380.894 265.21H380.899ZM343.415 262.2C347.129 254.748 350.103 248.587 350.03 248.514C349.437 247.921 334.287 239.94 334.101 240.121C333.763 240.459 321.587 267.49 321.592 267.896C321.592 268.229 335.512 275.638 336.267 275.711C336.497 275.735 339.5 270.049 343.41 262.195L343.415 262.2ZM240.3 260.488C242.936 252.6 245.087 245.998 245.087 245.827C245.087 245.602 221.362 240.092 218.868 239.74C218.618 239.705 211.606 268.004 211.602 269.061C211.602 269.452 212.141 269.697 213.826 270.069C225.728 272.711 235.14 274.786 235.307 274.806C235.419 274.82 237.663 268.376 240.3 260.488ZM20.7749 272.535C21.6373 271.444 22.3379 270.436 22.3379 270.304C22.3379 270.172 20.1281 264.07 17.4235 256.749C14.7188 249.429 12.509 243.39 12.509 243.331C12.509 242.808 11.7691 243.625 10.3776 245.685L8.71656 248.142L13.4056 260.277C18.5553 273.617 18.9179 274.522 19.0943 274.522C19.1629 274.522 19.9223 273.626 20.7798 272.535H20.7749ZM385.852 247.329C385.867 246.972 385.352 245.113 384.715 243.199C383.848 240.596 383.5 239.872 383.329 240.322C380.462 247.828 373.818 265.812 373.818 266.056C373.818 266.394 375.881 271.987 376.185 272.476C376.386 272.799 385.818 248.264 385.852 247.329ZM26.978 267.534C28.688 266.575 30.1629 265.606 30.2511 265.376C30.3687 265.073 21.3482 237.66 20.9562 237.122C20.8043 236.911 13.4399 241.746 13.4399 242.054C13.4399 242.24 15.3901 247.716 17.7762 254.224C23.5678 270.025 23.2787 269.276 23.5874 269.276C23.7393 269.276 25.2631 268.493 26.978 267.534ZM210.146 262.812C214.703 244.173 215.825 239.338 215.644 239.152C215.365 238.859 188.578 234.181 188.367 234.391C188.092 234.665 183.717 264.197 183.923 264.432C184.124 264.667 207.888 268.958 208.377 268.85C208.549 268.811 209.343 266.1 210.141 262.822L210.146 262.812ZM325.742 253.319C329.054 245.979 331.832 239.696 331.916 239.358C332.053 238.81 330.98 238.281 322.175 234.514C316.731 232.189 312.179 230.393 312.062 230.525C311.665 230.961 300.679 258.917 300.782 259.225C300.924 259.651 319.245 267.138 319.509 266.878C319.627 266.761 322.43 260.659 325.742 253.319ZM38.3259 262.983C40.4377 262.347 42.28 261.726 42.4172 261.603C42.6132 261.427 34.5237 232.943 34.1562 232.497C34.019 232.331 22.6858 236.153 22.5192 236.422C22.4114 236.593 30.5157 261.422 31.7112 264.583C31.819 264.872 32.1473 264.867 33.1713 264.549C33.8965 264.324 36.219 263.619 38.3308 262.983H38.3259ZM377.861 251.068L382.76 237.944L379.752 234.249C378.096 232.219 376.513 230.261 376.224 229.899C375.94 229.537 375.651 229.307 375.582 229.385C375.303 229.723 365.817 256.48 365.895 256.695C366.111 257.273 372.466 264.348 372.696 264.27C372.838 264.221 375.161 258.281 377.856 251.063L377.861 251.068ZM183.247 248.881C184.467 240.62 185.432 233.824 185.388 233.78C185.255 233.647 158.003 230.061 157.89 230.163C157.748 230.291 155.974 259.803 156.072 260.37C156.136 260.732 158.596 261.163 167.675 262.411C174.01 263.282 179.606 263.977 180.111 263.947L181.027 263.903L183.247 248.881ZM51.5357 260.062C58.5277 258.946 58.6012 258.932 58.6012 258.369C58.6012 258.134 57.2831 252.448 55.6711 245.734C54.0591 239.02 52.5206 232.527 52.2462 231.304C51.8395 229.493 51.6386 229.077 51.1633 229.077C50.4675 229.077 36.1308 231.783 35.9642 231.945C35.8515 232.057 44.0978 260.605 44.3771 261.08C44.4555 261.212 44.7495 261.256 45.0337 261.173C45.3179 261.089 48.2431 260.59 51.5357 260.067V260.062ZM153.235 260.297C153.598 254.875 155.029 229.855 154.985 229.806C154.784 229.61 128.599 227.492 128.428 227.658C128.212 227.873 128.869 257.933 129.094 258.158C129.378 258.442 153.216 260.551 153.231 260.297H153.235ZM69.9687 257.923C74.2805 257.586 77.9063 257.312 78.0337 257.312C78.1611 257.312 78.2591 256.999 78.2542 256.617C78.2444 255.545 73.178 227.276 72.9624 227.056C72.7223 226.816 54.2404 228.465 53.9121 228.754C53.7308 228.911 59.7771 255.232 60.6297 257.997C60.8306 258.657 60.4778 258.662 69.9687 257.923ZM304.07 244.114C307.123 236.437 309.656 229.968 309.695 229.743C309.744 229.459 306.123 228.064 298.092 225.265C291.669 223.029 286.338 221.282 286.235 221.38C285.941 221.673 276.073 250.916 276.22 251.063C276.563 251.406 298.117 258.437 298.303 258.271C298.421 258.163 301.013 251.797 304.07 244.119V244.114ZM125.958 242.705C125.743 234.303 125.532 227.394 125.488 227.35C125.375 227.237 100.631 226.273 100.529 226.381C100.333 226.577 103.562 256.558 103.807 256.827C104.022 257.067 125.718 258.246 126.198 258.046C126.282 258.012 126.174 251.107 125.963 242.71L125.958 242.705ZM95.2417 257.004H101.004V256.005C100.994 254.425 98.0248 226.616 97.8435 226.435C97.7504 226.342 92.6889 226.371 86.5936 226.493C76.2649 226.699 75.5054 226.753 75.5054 227.262C75.5054 227.77 80.2288 255.066 80.5963 256.666L80.7629 257.405L85.1237 257.204C87.5245 257.092 92.0764 257.004 95.2466 257.004H95.2417ZM366.219 250.637C373.02 231.768 374.132 228.651 374.205 228.265C374.318 227.668 362.681 218.566 362.422 219.05C361.946 219.936 352.926 246.703 353.014 246.967C353.107 247.246 363.965 255.399 364.313 255.447C364.401 255.462 365.258 253.294 366.219 250.637ZM274.402 248.029C278.258 237.264 283.726 220.44 283.408 220.323C282.34 219.922 257.9 213.125 257.532 213.125C257.282 213.125 256.954 213.678 256.753 214.431C256.562 215.15 254.68 221.928 252.573 229.493C250.462 237.063 248.825 243.341 248.938 243.454C249.139 243.654 272.589 250.192 273.251 250.231C273.446 250.241 273.961 249.252 274.402 248.029ZM352.431 242.431C357.473 227.937 360.893 217.587 360.697 217.421C359.942 216.78 344.567 208.187 344.43 208.324C344.199 208.554 335.095 237.146 335.213 237.264C335.718 237.768 350.99 245.852 351.147 245.7C351.265 245.587 351.843 244.119 352.431 242.431ZM10.015 242.431L11.5094 240.17L8.74106 226.342C7.21723 218.732 5.88449 212.513 5.7767 212.513C5.42881 212.513 2.37136 217.72 2.37136 218.316C2.37136 218.757 6.90855 240.699 7.75621 244.364C7.9767 245.318 8.27558 245.064 10.0101 242.436L10.015 242.431ZM389.605 230.545L392.183 217.783L391.071 214.059C390.203 211.153 389.914 210.492 389.738 211.04C389.615 211.427 388.385 217.338 386.999 224.174L384.485 236.598L385.661 240.043C386.308 241.937 386.881 243.449 386.935 243.395C386.984 243.346 388.189 237.562 389.605 230.54V230.545ZM250.329 227.536C252.657 219.192 254.524 212.327 254.484 212.288C254.23 212.024 226.159 205.838 226.002 206.015C225.782 206.264 219.191 236.784 219.338 236.897C219.549 237.058 245.567 242.832 245.826 242.774C245.978 242.739 248.002 235.884 250.329 227.541V227.536ZM16.6003 236.779C18.5749 235.526 20.1918 234.352 20.1918 234.171C20.1869 233.373 15.0667 205.76 14.8952 205.584C14.6208 205.31 6.98204 210.619 6.98204 211.079C6.98204 211.285 8.22659 217.661 9.74552 225.246C11.2644 232.83 12.509 239.084 12.509 239.148C12.509 239.348 12.9402 239.094 16.5954 236.779H16.6003ZM216.639 235.605C217.011 234.357 222.969 206.269 222.969 205.755C222.969 205.325 222.597 205.119 221.357 204.87C216.81 203.954 193.654 199.961 193.546 200.069C193.472 200.138 192.875 203.764 192.213 208.119C191.552 212.474 190.484 219.471 189.842 223.665C189.058 228.769 188.778 231.333 189.004 231.416C189.66 231.666 214.556 236.07 215.502 236.104C216.188 236.128 216.526 235.977 216.639 235.6V235.605ZM337.908 221.595C340.431 213.682 342.45 207.16 342.391 207.106C342.205 206.92 321.788 197.799 321.719 197.867C321.606 197.98 313.355 226.41 313.242 227.066C313.159 227.565 314.58 228.279 322.822 231.876C328.143 234.2 332.685 236.075 332.91 236.045C333.17 236.011 335.012 230.692 337.908 221.6V221.595ZM386.264 221.424C387.699 214.26 388.875 208.231 388.875 208.036C388.875 207.649 382.535 199.227 382.138 199.081C381.913 198.997 376.552 225.304 376.582 226.322C376.601 226.899 383.422 235.135 383.554 234.739C383.608 234.582 384.823 228.588 386.264 221.419V221.424ZM27.8355 231.68C30.7705 230.687 33.235 229.703 33.3183 229.493C33.3967 229.283 32.5442 223.063 31.4172 215.674C30.2903 208.285 29.2956 201.718 29.1976 201.087C29.0996 200.456 28.8693 199.937 28.6782 199.937C28.4872 199.937 25.6747 200.935 22.4212 202.163C18.4034 203.676 16.5072 204.537 16.5072 204.845C16.5072 205.403 21.3874 232.757 21.5883 233.339C21.6667 233.569 21.9068 233.696 22.1174 233.618C22.3281 233.545 24.9005 232.669 27.8355 231.675V231.68ZM188.298 215.278C189.597 206.753 190.562 199.697 190.454 199.594C190.19 199.345 161.188 195.572 160.997 195.763C160.84 195.92 158.16 224.619 158.15 226.244C158.15 227.022 158.292 227.271 158.836 227.394C160.247 227.722 184.442 230.873 185.177 230.824L185.941 230.775L188.298 215.283V215.278ZM43.5246 227.712C47.4787 226.958 50.8105 226.234 50.933 226.102C51.0555 225.97 50.4137 219.647 49.5121 212.053C48.6105 204.458 47.8609 197.833 47.8511 197.324C47.8168 195.499 47.9589 195.499 39.2177 197.348C34.754 198.298 31.0056 199.159 30.8978 199.271C30.7607 199.409 34.7638 226.885 35.2243 229.004C35.2684 229.224 36.9638 228.96 43.5148 227.707L43.5246 227.712ZM156.675 211.211C157.449 202.56 158.042 195.44 157.983 195.381C157.841 195.234 129.437 192.925 129.3 193.047C129.133 193.199 128.202 224.448 128.359 224.595C128.501 224.732 151.971 226.836 154.014 226.899L155.264 226.939L156.675 211.211ZM315.163 211.901C317.5 203.886 319.382 197.211 319.343 197.069C319.269 196.81 295.946 188.305 295.255 188.286C295.05 188.281 294.746 188.795 294.579 189.426C291.429 201.4 287.176 217.925 287.176 218.204C287.176 218.409 291.174 219.956 296.319 221.737C301.346 223.479 306.495 225.285 307.765 225.754C309.034 226.224 310.259 226.577 310.489 226.542C310.763 226.498 312.38 221.438 315.163 211.901ZM64.4025 224.932C68.8662 224.521 72.5704 224.13 72.6341 224.061C72.7468 223.949 71.1642 201.278 70.6399 195.484C70.4684 193.59 70.3116 193.037 69.9589 193.057C65.6618 193.331 49.8796 195.259 49.7767 195.528C49.6199 195.939 52.9909 225.343 53.2408 225.75C53.3339 225.901 54.0591 225.95 54.8479 225.852C55.6368 225.759 59.9339 225.343 64.3927 224.932H64.4025ZM377.924 211.226C379.385 203.852 380.58 197.671 380.58 197.495C380.58 197.025 369.124 187.625 368.879 187.894C368.683 188.115 363.352 215.072 363.367 215.787C363.377 216.276 374.818 225.153 375.068 224.869C375.181 224.742 376.464 218.605 377.924 211.231V211.226ZM125.684 219.804C126.135 208.911 126.541 193.13 126.37 192.964C126.105 192.7 99.9553 191.966 99.7103 192.215C99.5535 192.377 100.171 223.298 100.337 223.445C100.499 223.587 106.678 223.89 112.817 224.056C116.874 224.169 120.25 224.311 120.319 224.37C120.387 224.433 121.578 224.482 122.965 224.482H125.483L125.674 219.804H125.684ZM93.4337 223.616L97.7063 223.41L97.6426 218.806C97.5446 211.402 97.0301 192.196 96.9272 192.093C96.7753 191.941 73.0114 192.798 72.8448 192.959C72.7615 193.042 72.9722 196.82 73.3152 201.351C73.6582 205.887 74.1531 212.704 74.4225 216.501C74.692 220.298 74.9566 223.543 75.0105 223.714C75.1134 224.042 85.7067 223.983 93.4337 223.611V223.616ZM285.279 215.053C289.596 198.763 292.394 187.542 292.193 187.351C291.884 187.063 265.063 179.267 264.916 179.424C264.73 179.625 257.909 210.086 258.027 210.193C258.282 210.423 284.27 217.656 284.456 217.553C284.564 217.49 284.936 216.369 285.284 215.058L285.279 215.053ZM364.401 200.813C365.861 193.277 367.057 186.916 367.057 186.671C367.057 186.265 351.524 176.615 350.873 176.615C350.618 176.615 345.209 204.043 345.243 205.148C345.258 205.652 361.25 215.004 361.564 214.69C361.667 214.588 362.946 208.344 364.406 200.808L364.401 200.813ZM3.84619 211.75L5.45331 209.141L4.84574 195.597C4.51256 188.149 4.19407 182.008 4.14017 181.954C4.08628 181.9 3.30721 183.128 2.41055 184.684C0.499641 188.002 0.592737 186.622 1.3179 201.63C1.56289 206.695 1.76378 211.627 1.76868 212.601C1.76868 213.57 1.88138 214.363 2.00877 214.363C2.13617 214.363 2.96913 213.188 3.85109 211.754L3.84619 211.75ZM392.991 199.017L393.369 188.433L392.379 184.905C391.835 182.967 391.379 181.582 391.36 181.836C391.345 182.091 391.124 187.743 390.87 194.398L390.409 206.499L391.409 209.738L392.408 212.978L392.506 211.29C392.56 210.36 392.776 204.84 392.981 199.017H392.991ZM258.786 194.109C260.687 185.756 262.153 178.822 262.04 178.7C261.79 178.431 232.734 171.683 232.563 171.854C232.293 172.123 226.58 202.721 226.761 202.902C227.021 203.162 254.347 209.43 254.896 209.357C255.2 209.313 256.322 204.918 258.781 194.109H258.786ZM10.8284 205.207C12.6854 203.945 14.3121 202.819 14.4444 202.707C14.6453 202.535 13.8662 173.87 13.6555 173.664C13.6163 173.625 11.7348 174.981 9.47603 176.674L5.37002 179.757L5.55621 183.324C5.6591 185.286 5.88939 191.036 6.07069 196.101C6.44797 206.695 6.56556 208.016 7.08004 207.717C7.28093 207.6 8.96645 206.475 10.8235 205.207H10.8284ZM345.978 189.964C347.453 182.198 348.643 175.71 348.638 175.544C348.624 175.235 328.76 165.879 328.128 165.879C327.942 165.879 327.712 166.261 327.618 166.721C326.898 170.224 322.523 194.226 322.523 194.662C322.523 195.097 324.835 196.257 332.739 199.829C338.359 202.369 343.033 204.365 343.131 204.263C343.229 204.16 344.513 197.725 345.983 189.964H345.978ZM389.694 194.168C389.899 188.648 390.076 182.678 390.091 180.902L390.11 177.667L387.018 173.381C385.323 171.022 383.829 169.06 383.701 169.016C383.383 168.903 382.334 195.533 382.638 196.057C383.25 197.118 389.047 204.463 389.174 204.336C389.253 204.263 389.488 199.683 389.694 194.163V194.168ZM223.895 202.085C223.895 201.914 224.527 198.498 225.296 194.491C228.481 177.936 229.716 171.281 229.623 171.188C229.569 171.135 226.012 170.459 221.72 169.691C217.427 168.923 210.592 167.69 206.54 166.961C202.488 166.227 199.073 165.723 198.955 165.83C198.74 166.036 194.095 195.357 194.095 196.512C194.095 196.986 194.349 197.192 195.094 197.334C202.4 198.684 222.954 202.34 223.361 202.359C223.655 202.379 223.9 202.252 223.9 202.085H223.895ZM23.9941 198.831C25.9981 198.082 27.9041 197.324 28.2275 197.153C28.7909 196.854 28.8105 196.536 28.6586 190.948C28.5705 187.708 28.4186 181.127 28.3255 176.322C28.2324 171.516 28.105 167.538 28.0462 167.479C27.909 167.342 15.831 172.285 15.4832 172.622C15.2333 172.867 15.7232 194.995 16.0809 199.541L16.2573 201.752L18.3054 200.974C19.4324 200.549 21.995 199.58 23.999 198.831H23.9941ZM38.7865 194.721C42.8435 193.859 46.4693 193.081 46.8515 192.988L47.5424 192.817V177.628C47.5424 162.752 47.5277 162.439 46.9495 162.596C46.6212 162.679 42.672 163.623 38.174 164.695L29.9963 166.638L30.1923 181.22C30.3001 189.24 30.4422 195.973 30.5059 196.179C30.5696 196.384 30.7999 196.497 31.0203 196.424C31.2359 196.35 34.7344 195.587 38.7914 194.726L38.7865 194.721ZM193.561 181.073C194.874 172.637 195.893 165.595 195.829 165.424C195.716 165.13 165.313 161.074 165.068 161.323C164.912 161.48 161.149 192.607 161.276 192.734C161.482 192.939 189.072 196.507 190.101 196.463L191.174 196.414L193.561 181.078V181.073ZM381.658 179.096C382.05 169.26 382.065 166.926 381.746 166.628C379.992 164.974 370.898 157.291 370.702 157.291C370.565 157.291 370.447 157.922 370.447 158.691C370.447 159.459 370.163 165.639 369.81 172.422L369.178 184.753L370.634 185.981C371.432 186.656 374.034 188.809 376.415 190.762L380.742 194.314L380.962 192.754C381.085 191.897 381.398 185.746 381.663 179.096H381.658ZM322.885 179.664C324.36 171.829 325.536 165.233 325.502 165.008C325.433 164.553 301.292 155.412 300.983 155.725C300.88 155.828 299.876 161.088 298.749 167.416C297.622 173.743 296.441 180.349 296.123 182.086L295.549 185.252L296.515 185.697C298.367 186.549 319.602 194.085 319.901 193.996C320.068 193.947 321.41 187.498 322.885 179.664ZM60.8208 191.3L70.2577 190.292L70.4096 189.054C70.6595 187.018 71.2916 159.733 71.0956 159.537C70.9976 159.439 66.1468 159.958 60.321 160.697L49.7277 162.038L49.6297 166.031C49.5758 168.228 49.4925 175.118 49.4435 181.337L49.3553 192.651L50.3696 192.479C50.9281 192.387 55.6319 191.858 60.8257 191.3H60.8208ZM158.454 192.342C158.454 192.215 159.292 185.159 160.321 176.664C161.349 168.169 162.114 161.142 162.021 161.054C161.771 160.805 132.524 158.578 132.289 158.789C132.093 158.97 129.28 189.857 129.442 190.067C129.486 190.121 135.302 190.635 142.373 191.202C149.443 191.77 155.71 192.289 156.303 192.357C158.272 192.577 158.454 192.577 158.454 192.347V192.342ZM85.2755 189.68C91.5767 189.45 96.8243 189.181 96.9272 189.074C97.1134 188.888 98.9312 158.182 98.7646 158.015C98.5931 157.844 73.8885 159.107 73.6974 159.293C73.521 159.469 72.8203 180.476 72.7615 187.278C72.7419 189.788 72.8007 190.116 73.276 190.106C73.57 190.101 78.9695 189.906 85.2755 189.68ZM126.659 189.734C126.938 188.951 129.437 158.769 129.227 158.642C128.962 158.475 101.572 157.839 101.42 157.991C101.278 158.133 99.5241 189 99.6515 189.157C99.7005 189.22 105.453 189.441 112.43 189.651C119.407 189.857 125.434 190.047 125.821 190.077C126.208 190.101 126.586 189.95 126.659 189.739V189.734ZM295.799 169.696C297.269 161.607 298.381 154.889 298.279 154.771C298.009 154.468 270.938 146.408 270.761 146.58C270.438 146.903 265.484 176.175 265.71 176.434C265.979 176.742 292.389 184.552 292.845 184.464C293.001 184.43 294.329 177.785 295.799 169.696ZM368.242 169.701C368.62 162.185 368.86 155.921 368.777 155.784C368.532 155.388 353.367 145.934 352.975 145.934C352.774 145.934 352.622 146.433 352.622 147.084C352.622 147.715 352.274 153.548 351.858 160.046C351.441 166.545 351.098 172.299 351.093 172.837C351.093 173.792 351.299 173.943 359.001 178.577C363.352 181.195 367.057 183.344 367.233 183.353C367.444 183.358 367.797 178.612 368.242 169.701ZM2.80743 180.598L4.24307 178.137L5.7473 165.336C6.57536 158.299 7.22213 152.505 7.18293 152.466C7.14374 152.427 6.40877 153.739 5.55131 155.378C4.45376 157.472 3.93438 158.857 3.80209 160.046C3.69919 160.976 3.06222 166.393 2.38115 172.089C1.09251 182.884 1.07781 183.06 1.25911 183.06C1.3228 183.06 2.01857 181.954 2.80254 180.598H2.80743ZM10.1277 173.42C13.1411 171.179 13.7535 170.582 13.8956 169.764C14.1896 168.057 17.1393 143.076 17.0511 143.007C16.9335 142.905 8.99585 149.286 8.91745 149.545C8.79496 149.956 5.7571 175.465 5.7571 176.082C5.7571 176.522 5.86489 176.61 6.13928 176.395C6.34997 176.233 8.14329 174.893 10.1228 173.42H10.1277ZM263.211 173.625C263.402 172.485 264.568 165.825 265.803 158.823C267.033 151.82 267.934 145.968 267.807 145.821C267.562 145.542 238.266 138.545 238.085 138.721C237.835 138.97 233.053 168.678 233.234 168.859C233.479 169.104 261.246 175.632 262.202 175.671C262.785 175.695 262.907 175.451 263.216 173.625H263.211ZM388.572 163.687C387.881 158.397 387.165 152.892 386.979 151.458L386.646 148.85L383.691 144.612C381.722 141.784 380.707 140.561 380.649 140.942C380.57 141.442 383.182 164.049 383.456 165.272C383.613 165.977 389.615 173.948 389.733 173.606C389.787 173.444 389.267 168.981 388.572 163.687ZM350.01 158.422C350.476 150.861 350.799 144.617 350.726 144.544C350.652 144.471 346.125 142.254 340.662 139.621C334.218 136.514 330.656 134.948 330.519 135.168C330.24 135.614 328.192 162.747 328.412 162.972C328.887 163.447 348.805 172.563 348.967 172.377C349.07 172.26 349.535 165.982 350.005 158.422H350.01ZM28.4235 163.873C29.1486 158.588 31.7847 136.235 31.6965 136.142C31.525 135.966 19.5108 141.295 19.0796 141.735C18.766 142.053 15.5811 166.931 15.586 168.986V169.799L21.9656 167.137C26.9731 165.047 28.3598 164.347 28.4235 163.873ZM230.348 168.032C230.348 167.866 231.46 161.084 232.818 152.956C234.175 144.828 235.238 138.134 235.184 138.08C234.915 137.811 204.379 132.472 204.203 132.668C203.914 132.981 199.244 162.532 199.45 162.738C199.617 162.904 228.78 168.252 229.814 168.306C230.108 168.321 230.353 168.199 230.353 168.032H230.348ZM39.1883 161.774C43.6373 160.707 47.3856 159.704 47.5228 159.557C47.7384 159.317 50.7664 136.553 51.1633 132.174C51.3005 130.671 51.2613 130.544 50.7321 130.706C50.4137 130.803 46.5183 131.836 42.0742 133.001C37.6301 134.165 33.9406 135.173 33.8671 135.247C33.7201 135.393 30.3344 162.087 30.3344 163.095C30.3344 163.447 30.5059 163.731 30.7166 163.726C30.9272 163.726 34.7393 162.845 39.1834 161.774H39.1883ZM381.81 163.193C381.81 162.899 381.129 157.076 380.296 150.259C379.301 142.122 378.645 137.737 378.38 137.493C373.897 133.353 368.149 128.43 368.071 128.67C368.012 128.841 368.527 134.42 369.208 141.065C369.889 147.71 370.447 153.381 370.447 153.665C370.447 154.125 381.016 163.667 381.585 163.716C381.712 163.726 381.815 163.496 381.81 163.198V163.193ZM196.834 160.124C198.553 149.574 201.16 132.922 201.16 132.487C201.16 131.992 199.617 131.743 185.633 130.001C177.092 128.934 170.061 128.117 170.007 128.176C169.811 128.406 165.402 158.192 165.544 158.334C165.735 158.524 196.035 162.429 196.295 162.302C196.407 162.243 196.647 161.27 196.834 160.129V160.124ZM326.144 160.178C326.197 159.346 326.683 153.102 327.231 146.296C327.898 137.962 328.118 133.857 327.903 133.715C327.731 133.602 322.336 131.488 315.913 129.017L304.237 124.52L304.001 125.641C303.737 126.908 301.258 152.731 301.385 152.853C301.669 153.122 325.492 161.852 325.742 161.778C325.913 161.73 326.09 161.01 326.144 160.178ZM71.4288 156.543C71.6297 156.347 75.3731 127.344 75.2163 127.173C75.0154 126.947 53.9464 129.947 53.6426 130.246C53.5348 130.353 52.6626 136.656 51.7072 144.25C50.7517 151.845 49.9041 158.245 49.8306 158.471C49.7522 158.696 49.7571 158.984 49.8306 159.112C49.9482 159.302 71.1838 156.782 71.4288 156.547V156.543ZM162.545 157.976C162.849 157.448 167.156 128.132 166.96 127.936C166.72 127.696 139.139 125.641 137.718 125.758L136.797 125.837L134.621 140.717C133.426 148.904 132.5 155.667 132.568 155.745C132.666 155.867 139.506 156.43 161.893 158.167C162.178 158.192 162.472 158.104 162.545 157.976ZM87.5539 155.794C93.7571 155.5 98.9067 155.187 98.99 155.104C99.2595 154.835 103.219 125.646 103.013 125.44C102.758 125.186 78.1905 126.595 77.8867 126.879C77.7593 126.996 76.8283 133.368 75.819 141.04C74.8096 148.713 73.9277 155.3 73.864 155.676C73.7219 156.518 72.6047 156.508 87.5588 155.794H87.5539ZM130.045 154.14C130.167 153.254 131.133 146.521 132.201 139.181C133.269 131.841 134.048 125.744 133.93 125.636C133.543 125.269 105.874 125.132 105.747 125.499C105.487 126.243 101.626 154.938 101.763 155.079C101.896 155.212 114.958 155.544 126.091 155.701L129.824 155.755L130.04 154.145L130.045 154.14ZM368.737 151.992C368.659 151.444 368.046 145.547 367.375 138.892C366.704 132.237 366.047 126.703 365.92 126.595C365.41 126.169 351.588 117.332 351.186 117.18C350.838 117.048 350.789 117.307 350.922 118.511C351.015 119.333 351.451 125.117 351.902 131.361C352.397 138.28 352.847 142.861 353.063 143.091C353.445 143.502 368.326 152.921 368.669 152.965C368.781 152.98 368.816 152.545 368.737 151.997V151.992ZM299.17 148.821C299.998 140.722 301.601 123.708 301.542 123.654C301.483 123.6 295.961 121.893 280.835 117.263C277.763 116.324 275.054 115.556 274.814 115.556C274.48 115.556 274.226 116.813 273.731 121.002C271.766 137.527 271.124 143.497 271.305 143.673C271.516 143.883 298.656 152.041 298.783 151.933C298.822 151.899 298.999 150.499 299.165 148.821H299.17ZM7.73171 148.111C8.09919 147.274 11.7103 135.021 13.9299 127.06C14.023 126.722 13.6849 127.148 13.1803 128.009C12.4502 129.247 7.9816 143.536 6.18828 150.382C5.96779 151.223 7.09474 149.569 7.73661 148.116L7.73171 148.111ZM14.1063 142.67C17.497 139.983 17.7175 139.744 18.1584 138.197C21.1865 127.677 24.8319 114.548 24.7437 114.464C24.6653 114.386 18.1388 119.691 17.1932 120.601C17.1442 120.645 15.5175 126.12 13.5771 132.771C11.6368 139.416 9.96601 145.112 9.86801 145.43C9.62792 146.193 9.78471 146.09 14.1014 142.67H14.1063ZM381.8 132.673L378.326 121.535L375.871 117.934C374.519 115.952 373.377 114.371 373.324 114.42C373.235 114.508 375.421 121.986 378.405 131.831C379.801 136.445 379.933 136.719 382.447 140.316C383.873 142.357 385.093 143.981 385.156 143.923C385.22 143.864 383.706 138.804 381.8 132.678V132.673ZM268.596 141.559C269.174 137.546 271.761 114.773 271.653 114.67C271.477 114.494 242.578 107.535 242.475 107.648C242.406 107.716 238.839 132.986 238.565 135.344C238.501 135.902 239.707 136.24 252.931 139.386C260.874 141.275 267.606 142.831 267.89 142.846C268.272 142.861 268.459 142.523 268.596 141.564V141.559ZM349.873 129.008C349.349 122.03 348.859 116.153 348.79 115.942C348.658 115.561 329.75 105.979 329.544 106.185C329.436 106.292 329.931 120.214 330.323 128.269C330.421 130.285 330.607 132.037 330.735 132.164C331.078 132.506 350.608 141.911 350.726 141.794C350.78 141.74 350.397 135.985 349.873 129.008ZM26.0373 135.961C29.3299 134.493 32.1228 133.201 32.2404 133.089C32.505 132.839 39.639 106.943 39.4872 106.792C39.4284 106.733 38.1348 107.271 36.6208 107.995C35.1068 108.72 32.309 110.046 30.4079 110.946L26.9486 112.58L26.3558 114.601C24.0774 122.387 19.5794 138.305 19.5794 138.574C19.5794 138.755 19.6823 138.843 19.8097 138.765C19.937 138.687 22.7348 137.424 26.0324 135.956L26.0373 135.961ZM237.708 121.227C238.781 113.544 239.574 107.178 239.471 107.071C239.241 106.841 209.367 101.428 209.206 101.59C208.98 101.815 204.57 129.492 204.732 129.653C204.948 129.869 233.597 135.11 234.817 135.154L235.753 135.193L237.708 121.227ZM374.397 122.602L370.908 110.892L366.067 106.454C363.406 104.012 361.226 102.177 361.226 102.378C361.226 102.652 366.381 121.849 367.258 124.848C367.414 125.386 377.562 134.63 377.773 134.424C377.831 134.366 376.307 129.047 374.392 122.607L374.397 122.602ZM43.2404 130.143C47.5522 129.032 51.2711 128.014 51.5063 127.882C51.9914 127.613 51.8983 127.936 55.97 112.512C57.5918 106.366 58.8805 101.238 58.8364 101.115C58.7482 100.895 42.1575 105.485 41.8145 105.828C41.7116 105.93 40.0555 111.714 38.125 118.682C36.1994 125.651 34.5384 131.611 34.4404 131.924C34.3032 132.364 34.3914 132.452 34.8324 132.33C35.146 132.242 38.9237 131.258 43.2355 130.148L43.2404 130.143ZM327.751 117.939C327.471 110.897 327.177 105.084 327.104 105.02C326.776 104.741 304.913 96.2268 304.521 96.2268C304.129 96.2268 304.085 98.1352 304.085 108.945C304.085 118.59 304.173 121.721 304.457 121.907C305.285 122.455 327.908 131.097 328.079 130.926C328.182 130.828 328.03 124.98 327.751 117.939ZM201.778 129.135C201.778 129.008 202.811 122.695 204.061 115.105C205.315 107.516 206.266 101.233 206.178 101.145C206.001 100.964 175.858 97.1517 175.716 97.2936C175.544 97.4599 170.443 125.186 170.561 125.303C170.649 125.391 199.705 129.193 201.386 129.335C201.596 129.355 201.773 129.262 201.778 129.14V129.135ZM79.2929 110.706C81.1303 103.229 82.5856 97.0685 82.5219 97.0146C82.3455 96.8532 61.541 100.239 61.3107 100.469C61.0609 100.719 54.2992 126.243 54.2992 126.933C54.2992 127.354 55.7348 127.207 65.1228 125.861L75.9464 124.305L79.2929 110.711V110.706ZM167.773 124.378C168.155 122.817 172.913 97.0636 172.83 97C172.658 96.8678 143.328 94.9692 143.21 95.0867C143.024 95.2726 137.301 122.759 137.419 122.881C137.527 122.994 163.956 124.956 166.333 125.029C167.415 125.063 167.631 124.966 167.773 124.378ZM92.9927 123.209C98.8136 122.871 103.62 122.553 103.674 122.494C103.958 122.211 109.995 95.2873 109.814 95.1062C109.623 94.9154 85.2951 96.4617 85.0698 96.6819C84.9816 96.77 78.2591 123.762 78.2591 124.036C78.2591 124.095 79.19 124.075 80.3317 123.982C81.4733 123.894 87.1669 123.542 92.9878 123.204L92.9927 123.209ZM365.44 123.439C365.356 123.219 363.945 118.159 362.314 112.199C360.677 106.239 359.217 101.032 359.065 100.636C358.884 100.166 356.409 98.331 352.014 95.4145C348.291 92.9434 345.194 90.9762 345.14 91.0398C344.969 91.2405 350.388 114.048 350.672 114.332C351.132 114.792 365.058 123.801 365.337 123.821C365.479 123.83 365.528 123.659 365.445 123.439H365.44ZM134.587 122.69C134.861 122.23 140.403 95.2824 140.251 95.1307C140.168 95.0475 133.906 94.9447 126.336 94.9105L112.577 94.8469L109.578 107.888C107.932 115.061 106.487 121.305 106.369 121.765L106.153 122.607L116.247 122.69C121.798 122.734 128.163 122.808 130.393 122.847C132.622 122.886 134.508 122.817 134.582 122.69H134.587ZM301.62 119.93C301.62 119.299 301.713 113.505 301.826 107.061L302.027 95.3411L301.287 95.0181C300.415 94.6365 277.185 87.3796 276.46 87.2573C276.024 87.1887 275.887 88.6225 275.289 99.9017C274.916 106.899 274.671 112.683 274.745 112.757C274.867 112.879 300.875 120.973 301.39 121.051C301.517 121.07 301.62 120.566 301.62 119.935V119.93ZM23.0778 113.334L26.1108 110.785L31.2898 99.7696C34.1415 93.7116 36.4346 88.7204 36.3905 88.6763C36.3464 88.6323 34.8618 89.841 33.0929 91.3628L29.8738 94.1275L26.831 100.318C20.5544 113.099 18.9914 116.485 19.5157 116.187C19.8048 116.021 21.4021 114.738 23.0729 113.339L23.0778 113.334ZM345.674 101.409C344.209 95.0964 342.862 89.7675 342.671 89.5669C342.269 89.1265 325.286 80.4603 325.144 80.6218C325.09 80.6805 325.854 85.2167 326.844 90.7022C327.834 96.1877 328.75 101.296 328.883 102.055L329.123 103.435L338.648 108.235C343.886 110.878 348.207 113.001 348.251 112.957C348.3 112.918 347.134 107.716 345.674 101.409ZM371.021 106.733C366.949 98.8105 365.376 95.9332 364.602 94.9986C363.637 93.829 371.525 109.512 372.785 111.264C373.387 112.106 373.941 112.796 374.009 112.796C374.078 112.796 372.731 110.07 371.021 106.738V106.733ZM272.251 107.805C272.364 105.568 272.677 99.8968 272.942 95.1992C273.216 90.4086 273.314 86.5477 273.162 86.4107C272.849 86.122 245.738 79.5159 245.572 79.6872C245.317 79.9465 242.749 104.673 242.945 104.908C243.185 105.182 270.369 111.817 271.393 111.846C272.011 111.866 272.05 111.675 272.246 107.8L272.251 107.805ZM34.6413 106.63L40.6337 103.836L43.0787 98.4141C44.4261 95.4341 46.8025 90.1688 48.3655 86.7141C49.9286 83.2643 51.1584 80.387 51.0996 80.3282C51.0408 80.2695 48.3802 81.5271 45.1856 83.1272L39.3745 86.029L37.4194 90.1248C30.1923 105.255 28.2618 109.41 28.448 109.414C28.5607 109.414 31.3535 108.162 34.6462 106.625L34.6413 106.63ZM363.789 96.5204L358.619 86.3911L354.69 82.6771C352.529 80.6365 350.716 79.0168 350.662 79.0755C350.608 79.1391 352.681 83.6068 355.273 89.0091L359.981 98.8301L364.215 102.725C366.547 104.868 368.566 106.63 368.703 106.635C368.84 106.645 366.626 102.094 363.789 96.5204ZM241.152 94.2009C241.769 88.647 242.372 82.9266 242.49 81.4928L242.7 78.8847L228.383 76.301C220.509 74.8819 213.978 73.8054 213.87 73.913C213.655 74.1283 209.764 97.2006 209.764 98.2771C209.764 98.8154 209.999 99.0013 210.916 99.1775C218.192 100.577 239.486 104.418 239.716 104.364C239.888 104.33 240.53 99.7549 241.147 94.2009H241.152ZM52.2854 100.391L59.9437 98.2184L60.7669 96.2219C61.2226 95.1258 63.4862 89.7578 65.7989 84.2968C68.1116 78.8358 69.9589 74.3338 69.9099 74.2947C69.7531 74.1773 53.868 79.0462 53.623 79.2859C53.378 79.5257 43.358 101.507 43.0591 102.446C42.8484 103.112 42.1575 103.268 52.2805 100.391H52.2854ZM326.825 102.128C326.825 101.311 322.773 79.4817 322.591 79.3251C322.16 78.9532 301.958 70.9427 301.816 71.0846C301.586 71.3146 304.075 93.2614 304.359 93.5452C304.673 93.8584 325.903 102.314 326.442 102.344C326.653 102.353 326.825 102.255 326.825 102.128ZM208.936 85.8284C210.083 79.0119 210.969 73.3894 210.911 73.3258C210.685 73.1007 182.129 69.7243 181.948 69.9004C181.635 70.2136 176.22 94.426 176.421 94.6218C176.691 94.8909 204.164 98.3163 205.624 98.2624L206.854 98.2184L208.941 85.8284H208.936ZM73.7758 95.9332C78.9891 95.1111 83.3597 94.3233 83.4871 94.1814C83.8742 93.7459 92.7575 70.3898 92.5958 70.2332C92.3949 70.0326 72.6537 73.4824 72.3891 73.7613C72.1589 74.0011 62.6288 96.3491 62.374 97.2446C62.2368 97.7291 62.3544 97.778 63.256 97.6165C63.8292 97.5138 68.5624 96.7553 73.7807 95.9332H73.7758ZM352.705 86.5526L347.85 76.4478L341.887 72.3814C338.609 70.15 335.87 68.3688 335.806 68.4324C335.742 68.4961 337.604 72.9784 339.941 78.3953L344.194 88.2457L350.794 92.6497C354.425 95.072 357.434 96.9608 357.478 96.8532C357.522 96.7406 355.376 92.1066 352.705 86.5477V86.5526ZM173.618 93.692C174.986 88.1821 179.028 69.7194 178.9 69.5873C178.695 69.3818 151.055 67.6201 150.869 67.8012C150.692 67.9773 143.74 92.3659 143.838 92.4589C143.945 92.5666 169.576 94.2988 171.712 94.3429C173.271 94.3771 173.462 94.3086 173.618 93.692ZM98.3972 93.3006C104.821 92.8699 110.26 92.4149 110.495 92.2925C110.725 92.1702 112.758 86.6505 115.007 80.0297L119.094 67.9969L117.349 68.0214C116.389 68.0361 111.058 68.4129 105.497 68.863C97.4613 69.5139 95.3397 69.7781 95.1241 70.1451C94.8497 70.6198 85.9517 93.7067 85.9517 93.9465C85.9517 94.1373 85.6969 94.152 98.3972 93.3006ZM144.538 80.4212C146.43 73.8396 147.983 68.2807 147.993 68.0703C148.012 67.7718 145.18 67.6886 134.802 67.6886C127.536 67.6886 121.593 67.7327 121.593 67.7914C121.593 67.8501 119.731 73.3698 117.452 80.0591L113.317 92.224L120.603 92.317C124.611 92.3659 130.863 92.4051 134.494 92.4002L141.099 92.3904L144.533 80.4261L144.538 80.4212ZM301.635 92.3023C301.635 91.7836 299.479 71.7746 299.327 70.884L299.165 69.9347L287.724 66.3087C281.433 64.3122 276.097 62.6142 275.872 62.5359C275.529 62.4136 275.49 64.0186 275.651 72.0193C275.759 77.3188 275.916 82.3541 276.004 83.2153L276.166 84.7812L288.361 88.6372C300.39 92.4393 301.635 92.7819 301.635 92.3072V92.3023ZM41.0159 81.0378C47.1161 72.3276 49.0417 69.5726 50.007 68.1486L51.0506 66.6121L48.6938 68.7211C46.974 70.2626 45.3179 72.2737 42.5593 76.1738C40.4818 79.1098 38.1544 82.3737 37.39 83.4208C36.6257 84.468 35.4448 86.0877 34.7785 87.0126L33.5584 88.7008L36.1014 86.5526C37.9437 84.9965 39.2961 83.4747 41.0061 81.028L41.0159 81.0378ZM337.57 76.712L333.258 66.617L325.512 62.5946C321.249 60.3828 317.721 58.6114 317.662 58.6555C317.549 58.7533 324.296 77.8473 324.527 78.0773C324.777 78.3268 341.72 86.9636 341.808 86.8853C341.852 86.8462 339.946 82.266 337.575 76.7169L337.57 76.712ZM273.202 72.9833C273.084 66.9497 272.898 61.9194 272.795 61.8019C272.555 61.5377 247.507 55.3671 247.345 55.5335C247.13 55.7488 245.699 76.9812 245.885 77.172C246.071 77.3628 272.197 83.8563 273.01 83.9249C273.349 83.9542 273.383 82.0409 273.206 72.9931L273.202 72.9833ZM48.8408 79.3202L52.7459 77.3579L59.3557 67.5565C62.9914 62.1689 65.9116 57.7013 65.843 57.6328C65.7744 57.5642 63.3932 58.7289 60.5562 60.2214L55.3967 62.9372L48.5762 72.6016C44.823 77.9158 41.7459 82.3688 41.7312 82.496C41.7019 82.7847 43.941 81.7865 48.8408 79.3251V79.3202ZM353.484 79.2713C353.068 78.7232 350.53 75.3712 347.84 71.8284C344.915 67.9676 341.936 64.4101 340.417 62.9665C339.02 61.6404 337.883 60.6569 337.883 60.7841C337.883 60.9113 340.309 64.2633 343.273 68.2367C347.09 73.3454 349.422 76.1591 351.26 77.8669C352.686 79.193 353.94 80.2744 354.048 80.2744C354.156 80.2744 353.901 79.8242 353.484 79.2762V79.2713ZM321.91 76.6288C321.91 76.4086 315.947 59.4139 315.31 57.8236C315.188 57.5153 311.581 55.8809 305.991 53.6006C300.973 51.5552 296.779 49.8816 296.667 49.8865C296.373 49.8914 301.042 68.0703 301.454 68.5254C301.748 68.8484 321.063 76.8197 321.685 76.8735C321.812 76.8833 321.915 76.7756 321.915 76.6288H321.91ZM243.083 75.2832C243.45 72.5135 244.543 55.0637 244.361 54.8827C244.038 54.5597 218.231 49.9208 218.006 50.1459C217.756 50.3857 214.1 71.1531 214.272 71.3489C214.39 71.4908 241.495 76.5114 242.392 76.5603C242.779 76.5799 242.955 76.2521 243.083 75.2832ZM63.6381 73.9864C67.8422 72.7337 71.3161 71.667 71.3553 71.6131C71.9384 70.933 83.8056 51.6286 83.7027 51.5307C83.5116 51.3399 68.9838 55.9543 68.7682 56.2773C60.664 68.2856 55.5339 75.9731 55.5339 76.1052C55.5339 76.394 55.7593 76.3352 63.6332 73.9864H63.6381ZM339.241 64.5031L333.185 56.3458L328.442 53.0966C325.83 51.3105 323.659 49.8914 323.606 49.9453C323.557 49.9991 325.369 52.7394 327.638 56.0277C334.86 66.5093 333.851 65.4034 339.785 69.3573C342.695 71.2951 345.125 72.8316 345.189 72.7729C345.253 72.7092 342.577 68.9903 339.246 64.5031H339.241ZM84.0555 69.4111C89.3473 68.5058 93.8012 67.6446 93.9433 67.4978C94.345 67.0917 105.325 47.3567 105.213 47.2441C105.115 47.1463 94.2274 49.0987 89.0484 50.141L86.4662 50.6597L80.2239 60.6324C76.7891 66.1179 73.9767 70.7079 73.9767 70.8351C73.9718 71.1531 73.3887 71.2363 84.0555 69.4111ZM213.214 60.9358C214.179 55.4552 214.943 50.6254 214.904 50.2046L214.835 49.4412L201.631 47.8411C194.369 46.9603 188.396 46.2752 188.362 46.3095C188.166 46.5052 182.482 67.2336 182.595 67.3461C182.663 67.4146 188.083 68.1339 194.634 68.9413C201.185 69.7488 207.442 70.5366 208.539 70.6981C209.637 70.8547 210.744 70.9672 210.999 70.9427C211.357 70.9085 211.847 68.6918 213.214 60.9309V60.9358ZM296.422 58.3178C295.103 53.1602 293.972 48.8981 293.913 48.8345C293.604 48.5409 273.329 42.1648 273.177 42.3116C273.015 42.4731 275.161 60.0501 275.372 60.2752C275.514 60.4269 298.038 67.6348 298.46 67.6642C298.685 67.6789 297.931 64.2143 296.422 58.3129V58.3178ZM108.647 66.48C114.792 65.9857 119.907 65.4964 120.015 65.3888C120.123 65.2811 122.367 60.6813 124.998 55.1665C129.672 45.37 129.766 45.14 129.021 45.0372C128.281 44.9393 109.819 46.4269 108.496 46.6912C107.996 46.789 106.492 49.2308 102.229 56.8743C99.1468 62.4038 96.5646 67.028 96.496 67.1553C96.3147 67.4733 96.1825 67.4831 108.647 66.48ZM182.688 56.5562C184.28 50.8554 185.53 46.1431 185.461 46.0893C185.398 46.0355 180.023 45.688 173.516 45.3259C167.009 44.9638 161.202 44.6311 160.614 44.5968L159.541 44.5283L155.582 54.8974C153.407 60.603 151.677 65.3154 151.741 65.3741C151.947 65.5747 175.162 67.0085 177.499 66.9693L179.792 66.9253L182.688 56.5562ZM148.708 65.1441C149.183 64.7673 156.621 45.5902 156.621 44.7387C156.621 44.3277 155.827 44.2934 150.119 44.4696C146.542 44.5821 141.104 44.6702 138.031 44.6702H132.446L127.634 54.7701C124.988 60.3241 122.823 65.0217 122.823 65.2077C122.823 65.7117 148.066 65.6432 148.708 65.1392V65.1441ZM326.006 55.788C321.268 48.8981 320.342 47.7188 319.147 47.0582C318.387 46.6373 315.418 45.0764 312.557 43.5888L307.348 40.8827L308.054 42.0914C308.441 42.752 310.508 46.2361 312.65 49.8376L316.54 56.3752L323.909 60.1724C327.961 62.2619 331.323 63.9207 331.381 63.862C331.44 63.8033 329.025 60.1724 326.011 55.788H326.006ZM272.579 58.2542C272.481 57.623 271.952 53.6153 271.398 49.3483C270.85 45.0812 270.271 41.4797 270.115 41.3378C269.826 41.0736 248.815 35.7789 248.066 35.7789C247.723 35.7789 247.615 37.3987 247.483 44.4451C247.394 49.2113 247.365 53.1651 247.419 53.2238C247.595 53.4196 271.34 59.3454 272.06 59.3748C272.692 59.3993 272.741 59.3014 272.574 58.2493L272.579 58.2542ZM75.7014 46.8673C79.778 42.708 83.0756 39.263 83.0217 39.2043C82.9727 39.1505 81.0862 40.0753 78.8323 41.2644L74.7361 43.4273L59.0667 59.1693L68.2831 54.4276L75.6965 46.8673H75.7014ZM313.83 54.8827C313.762 54.7555 311.67 51.2518 309.181 47.0924L304.658 39.5322L296.995 36.3808C292.781 34.6486 289.283 33.2833 289.229 33.3518C289.033 33.5867 295.687 47.5524 296.123 47.8215C296.652 48.1445 313.355 55.0393 313.703 55.0784C313.84 55.0931 313.894 55.005 313.826 54.8778L313.83 54.8827ZM79.3762 50.8799L85.8586 48.8247L93.0074 40.9121C96.937 36.5619 100.102 32.9555 100.043 32.9065C99.9798 32.8527 97.0938 33.7335 93.6297 34.859L87.3335 36.9044L82.4092 41.9446C71.8306 52.7736 71.3161 53.3315 72.1246 53.1309C72.5459 53.0232 75.8092 52.0103 79.3762 50.8799ZM244.851 44.9883C244.886 40.7702 244.92 36.8066 244.93 36.1802L244.945 35.04L234.65 33.1267C228.991 32.0747 223.665 31.1253 222.822 31.0177L221.284 30.822L219.774 39.2875C218.946 43.946 218.324 47.8069 218.393 47.8705C218.559 48.0222 243.21 52.5828 244.097 52.6268L244.788 52.6562L244.847 44.9834L244.851 44.9883ZM327.437 50.9924C327.437 50.6548 315.638 40.2955 313.889 39.1015C311.165 37.2372 310.9 37.0953 311.577 37.8684C313.497 40.0509 321.9 47.4448 324.365 49.1085C327.476 51.2126 327.437 51.1882 327.437 50.9876V50.9924ZM96.7018 46.8282C100.504 46.148 104.345 45.4434 105.237 45.2672L106.859 44.9442L113.292 36.9289C116.83 32.52 119.677 28.8646 119.618 28.8059C119.559 28.7472 115.894 29.3931 111.47 30.2494C107.05 31.1009 103.39 31.8006 103.336 31.8006C103.263 31.8006 97.2947 38.3871 89.3522 47.2343C88.3575 48.3451 88.3379 48.3941 89.0435 48.2375C89.4551 48.1445 92.8996 47.5133 96.7018 46.8282ZM215.6 47.2099C215.6 47.0826 216.281 43.256 217.119 38.7052C217.957 34.1543 218.603 30.3962 218.564 30.362C218.437 30.2348 194.957 27.4602 194.869 27.5581C194.683 27.7832 189.175 43.6377 189.175 43.9607C189.175 44.1711 190.351 44.4549 192.169 44.6751C193.815 44.8757 199.382 45.5657 204.536 46.2116C214.747 47.4839 215.595 47.5622 215.595 47.2148L215.6 47.2099ZM289.763 39.3266L286.416 32.1089L277.66 29.2512C272.78 27.6608 268.875 26.5354 268.841 26.7164C268.806 26.8926 269.634 29.995 270.688 33.6063L272.599 40.1732L282.736 43.4518C288.312 45.2525 292.928 46.6863 292.992 46.6325C293.055 46.5786 291.605 43.2903 289.768 39.3217L289.763 39.3266ZM121.74 43.5839C126.811 43.1484 131 42.7471 131.054 42.6933C131.108 42.6395 133.553 39.0281 136.488 34.6681C141.334 27.47 141.76 26.7262 141.118 26.643C140.731 26.5941 136.664 26.9024 132.083 27.333C127.502 27.7636 123.504 28.1159 123.195 28.1159C122.837 28.1159 120.309 31.0128 116.12 36.2145C112.533 40.6674 109.598 44.406 109.598 44.5283C109.598 44.6506 110.255 44.6604 111.058 44.5626C111.862 44.4598 116.664 44.0243 121.735 43.5888L121.74 43.5839ZM310.954 38.7786C305.182 33.4203 304.746 33.0827 300.826 30.9883C298.573 29.7846 296.48 28.708 296.181 28.5955C295.883 28.4829 297.989 30.7534 300.861 33.6356L306.084 38.8764L311.307 41.6167C314.178 43.1239 316.633 44.3619 316.761 44.3668C316.883 44.3668 314.271 41.8565 310.954 38.7737V38.7786ZM186.544 43.075C187.308 41.2057 191.944 27.8517 191.944 27.5238C191.944 27.3428 191.704 27.196 191.405 27.1911C191.111 27.1911 185.971 26.9122 179.988 26.5745C174.006 26.2369 169.081 25.9971 169.047 26.0411C168.596 26.643 160.595 42.3263 160.693 42.4193C160.796 42.522 180.263 43.7943 185.275 44.0292C185.976 44.0634 186.211 43.8824 186.544 43.0701V43.075ZM161.942 34.4284C164.245 29.9803 166.132 26.2515 166.132 26.1537C166.132 25.909 157.591 25.9237 150.369 26.1733L144.592 26.3739L139.227 34.3599C136.277 38.7492 133.989 42.4241 134.141 42.5171C134.298 42.615 139.668 42.6541 146.082 42.6101L157.743 42.5269L161.933 34.4333L161.942 34.4284ZM267.998 32.564C266.949 28.9282 265.965 25.8307 265.808 25.6741C265.47 25.3414 247.164 20.7269 246.963 20.9276C246.836 21.0548 247.512 33.7042 247.654 33.8461C247.826 34.0173 269.541 39.3609 269.708 39.2728C269.816 39.2141 269.042 36.1949 267.993 32.5591L267.998 32.564ZM85.398 36.371C86.0938 36.0187 88.4751 34.4577 90.6849 32.9065C92.8947 31.3553 95.7758 29.3539 97.084 28.4536C98.3922 27.5532 99.4653 26.7605 99.4653 26.6968C99.4653 26.4179 96.3539 28.2383 93.9335 29.9363C90.1508 32.5885 85.4176 35.8621 84.4671 36.4787C83.3303 37.2176 83.8595 37.154 85.398 36.371ZM296.936 31.5706L291.487 26.1243L285.951 23.8587C282.903 22.6109 280.365 21.6469 280.301 21.7105C280.242 21.7741 281.938 23.9517 284.074 26.5403L287.955 31.2477L294.712 34.1005C298.43 35.6664 301.674 36.968 301.924 36.9827C302.174 37.0023 299.93 34.5654 296.931 31.5706H296.936ZM97.7749 32.0159L102.689 30.4647L110.191 24.8423C114.317 21.7496 117.565 19.2198 117.408 19.2198C117.251 19.2198 115.032 19.9195 112.469 20.771L107.81 22.3222L99.872 27.8664C95.5063 30.9149 91.7972 33.5476 91.6257 33.7139C91.2631 34.0712 91.1798 34.0956 97.77 32.0159H97.7749ZM244.489 26.462C244.283 23.0709 244.072 20.2523 244.023 20.2033C243.783 19.9538 224.326 16.5284 224.165 16.7095C223.915 16.9835 221.671 28.7618 221.837 28.9282C222.185 29.2756 244.651 33.205 244.753 32.9359C244.817 32.7695 244.7 29.858 244.489 26.4669V26.462ZM284.358 29.4225C284.103 29.1288 282.359 27.01 280.487 24.7199C278.616 22.4298 276.901 20.4089 276.68 20.2278C276.46 20.0516 273.265 18.9359 269.585 17.7566L262.897 15.6085L264.161 17.9083C264.857 19.1757 266.004 21.1918 266.704 22.3956L267.983 24.5829L275.97 27.24C280.365 28.7031 284.152 29.9118 284.388 29.9265C284.745 29.946 284.736 29.858 284.353 29.4127L284.358 29.4225ZM114.625 28.0719L121.647 26.7507L128.384 21.1086C132.088 18.0062 135.072 15.4127 135.008 15.3491C134.945 15.2855 131.975 15.7993 128.413 16.4942L121.936 17.7566L114.464 23.2813C110.353 26.3201 106.781 29.0163 106.531 29.2708C106.119 29.6818 106.153 29.7161 106.839 29.5644C107.261 29.4714 110.764 28.801 114.63 28.0768L114.625 28.0719ZM218.986 28.3508C218.986 28.3068 219.529 25.5812 220.181 22.2928C220.833 19.0045 221.308 16.2495 221.235 16.1663C221.132 16.0538 202.904 13.7832 201.591 13.7147C201.297 13.7 196.133 24.211 195.878 25.3414C195.8 25.7035 197.716 26.0264 206.07 27.0687C215.291 28.2187 218.951 28.5857 218.986 28.3508ZM135.778 25.312L143.367 24.6269L149.139 18.8577C154.446 13.5483 154.838 13.0884 153.99 13.0933C153.485 13.0933 149.845 13.4358 145.9 13.8371C141.069 14.3313 138.566 14.713 138.218 15.0066C137.938 15.2463 134.842 17.8203 131.333 20.7318C127.825 23.6434 124.959 26.0998 124.959 26.1879C124.959 26.276 125.684 26.276 126.571 26.1733C127.458 26.0754 131.598 25.6839 135.773 25.3022L135.778 25.312ZM195.716 19.4204C197.211 16.2397 198.392 13.5973 198.338 13.5483C198.284 13.4994 193.904 13.2254 188.602 12.9416C179.317 12.4424 178.954 12.4473 178.577 12.9856C178.361 13.2939 176.441 15.8825 174.314 18.7402C172.183 21.5979 170.522 24.0153 170.615 24.1082C170.865 24.3578 186.941 25.2827 190.243 25.2386L193.002 25.1995L195.721 19.4155L195.716 19.4204ZM161.839 24.2355L167.533 24.0348L171.516 18.6619C173.707 15.7063 175.622 13.0786 175.774 12.829C176.019 12.4229 175 12.3935 167.023 12.5697L157.993 12.7703L152.153 18.5983L146.312 24.4312H151.227C153.931 24.4312 158.704 24.3382 161.835 24.2306L161.839 24.2355ZM265.058 23.7021C265.058 23.6385 263.936 21.6224 262.564 19.2344C260.937 16.3963 259.83 14.7913 259.379 14.6249C258.184 14.1698 245.023 10.9059 244.896 11.0331C244.744 11.1848 246.478 18.8772 246.718 19.117C246.86 19.2589 264.054 23.707 264.828 23.8049C264.955 23.8195 265.058 23.7755 265.058 23.7119V23.7021ZM279.958 19.3959C276.43 17.3847 272.741 15.6378 272.741 15.9706C272.741 16.592 282.354 21.6028 283.648 21.6567C283.819 21.6616 282.158 20.6437 279.958 19.3959ZM243.749 18.0698C243.666 17.7713 243.293 16.0831 242.921 14.3117C242.549 12.5403 242.137 10.8863 242.005 10.6368C241.833 10.3236 239.369 9.74619 233.974 8.75284C229.692 7.965 226.164 7.34354 226.129 7.36801C225.904 7.55885 224.488 14.7032 224.645 14.8647C224.811 15.0408 242.294 18.4711 243.494 18.5689C243.739 18.5885 243.837 18.3879 243.749 18.0649V18.0698ZM272.408 17.2624C272.339 17.1988 270.678 16.1663 268.718 14.9625C265.95 13.2645 264.313 12.5109 261.354 11.5665C259.267 10.8961 257.508 10.397 257.454 10.4508C257.4 10.5047 258.291 11.2925 259.443 12.1978C261.271 13.6413 262.157 14.0621 266.602 15.5889C271.085 17.1303 272.829 17.6343 272.413 17.2575L272.408 17.2624ZM124.258 15.2904C125.983 14.5172 127.35 13.8322 127.291 13.7783C127.174 13.6609 120.01 16.6899 119.75 16.9688C119.412 17.3309 121.181 16.6752 124.258 15.2953V15.2904ZM132.666 14.3068C137.341 13.3966 137.488 13.3428 143.764 10.2551C147.263 8.53263 150.095 7.09398 150.051 7.05483C150.006 7.01569 148.252 7.32397 146.145 7.7448C142.897 8.39073 141.402 8.90942 136.321 11.1555C128.614 14.5613 127.183 15.2268 127.59 15.2317C127.771 15.2317 130.055 14.8206 132.661 14.3117L132.666 14.3068ZM221.739 14.4536C221.739 14.3606 222.097 12.6969 222.533 10.7493C222.969 8.80177 223.258 7.13802 223.17 7.04994C222.935 6.81506 207.888 5.04855 207.471 5.21003C207.094 5.35683 202.38 11.7378 202.38 12.1097C202.38 12.2271 206.491 12.8241 211.523 13.4358C221.93 14.6983 221.739 14.6787 221.739 14.4585V14.4536ZM128.501 13.1422C128.408 13.0492 128.158 13.1422 127.953 13.3526C127.654 13.656 127.688 13.6903 128.124 13.5239C128.428 13.4113 128.599 13.2352 128.501 13.1422ZM130.182 12.6235C130.603 12.3837 130.814 12.188 130.643 12.188C130.471 12.188 129.991 12.3837 129.57 12.6235C129.148 12.8633 128.937 13.059 129.109 13.059C129.28 13.059 129.761 12.8633 130.182 12.6235ZM151.158 11.865L156.925 11.2876L162.129 8.13138C164.99 6.39912 167.278 4.92132 167.21 4.85771C167.141 4.7892 164.632 4.98004 161.634 5.27854L156.18 5.8217L149.325 9.16877C145.557 11.0087 142.471 12.5697 142.471 12.6333C142.471 12.6969 143.127 12.6822 143.931 12.599C144.734 12.5109 147.983 12.1831 151.158 11.8699V11.865ZM255.347 10.9108C254.014 9.88321 252.716 8.93389 252.466 8.80666C251.628 8.38094 242.612 6.25721 242.431 6.43827C242.333 6.53614 242.735 7.27014 243.328 8.07266L244.406 9.52599L250.511 11.1163C253.867 11.9922 256.875 12.7214 257.189 12.7409C257.522 12.7605 256.738 11.9825 255.347 10.9059V10.9108ZM201.88 8.45434C203.208 6.58996 204.242 5.01919 204.183 4.96047C204.036 4.81367 193.213 4.18732 190.851 4.18732H188.945L184.908 7.4512C182.688 9.24707 180.934 10.7836 181.012 10.8619C181.198 11.0478 193.08 11.7623 196.706 11.8063L199.47 11.8406L201.88 8.44945V8.45434ZM172.933 10.9402H177.426L181.38 7.68608C183.555 5.8951 185.393 4.37816 185.461 4.30965C185.53 4.24114 182.551 4.18732 178.837 4.18732H172.085L166.573 7.44141C163.54 9.23239 160.923 10.8374 160.757 11.0087C160.546 11.224 161.712 11.2631 164.441 11.131C166.636 11.0234 170.458 10.9402 172.928 10.9402H172.933ZM240.589 7.86714C239.124 5.39109 239.246 5.44981 233.107 4.31944C229.986 3.74691 227.408 3.27226 227.384 3.27226C227.31 3.26247 226.384 6.02723 226.453 6.06148C226.61 6.15445 240.104 8.72348 240.584 8.75284C241.118 8.78709 241.118 8.75284 240.594 7.86224L240.589 7.86714ZM224.091 4.2705C224.547 2.70462 225.091 2.90036 218.055 2.07827L212.988 1.48617L210.989 2.68505C209.892 3.34566 209.059 3.9035 209.142 3.92308C209.759 4.08945 222.636 5.64554 223.106 5.61618C223.537 5.58682 223.817 5.20025 224.086 4.2705H224.091ZM207.153 2.63122C208.079 2.10763 208.902 1.57426 208.985 1.44703C209.063 1.3198 206.819 1.11917 203.992 1.00662L198.852 0.801102L195.628 1.85318C192.492 2.87589 192.443 2.90525 193.786 2.97376C194.545 3.01291 196.687 3.14014 198.549 3.25758C205.173 3.67841 205.305 3.66862 207.157 2.62633L207.153 2.63122ZM171.815 2.82207C172.658 2.60676 173.075 2.4257 172.737 2.42081C172.398 2.42081 171.433 2.59208 170.586 2.80739C169.743 3.02269 169.326 3.20375 169.664 3.20864C170.002 3.20864 170.973 3.03737 171.815 2.82207ZM190.709 1.71616L193.32 0.830462L189.175 0.97237C185.937 1.08492 184.222 1.3198 181.341 2.03913L177.656 2.95908L182.879 2.77803C187.544 2.61654 188.382 2.4991 190.714 1.71127L190.709 1.71616ZM174.344 2.17125C174.241 2.06849 173.976 2.0587 173.756 2.14678C173.511 2.24465 173.584 2.31805 173.942 2.33273C174.265 2.34741 174.447 2.27401 174.344 2.17125Z" fill="url(#paint0_linear_5173_15466)" fill-opacity="0.25"/>
<path fill-rule="evenodd" clip-rule="evenodd" d="M239.667 117C251.449 117 261 126.551 261 138.333V213L197 277H154.333C142.551 277 133 267.449 133 255.667V138.333C133 126.551 142.551 117 154.333 117H239.667ZM197 255.667L197 213L239.667 213V138.333L154.333 138.333V255.667H197Z" fill="#0090FF"/>
<defs>
<linearGradient id="paint0_linear_5173_15466" x1="197" y1="0" x2="197" y2="394" gradientUnits="userSpaceOnUse">
<stop stop-color="#04E762"/>
<stop offset="1" stop-color="#0090FF"/>
</linearGradient>
</defs>
</svg>
