<svg width="20" height="20" viewBox="0 0 20 20" fill="none" xmlns="http://www.w3.org/2000/svg">
<g clip-path="url(#clip0_778_1253)">
<path d="M10.0002 1.11133C8.24217 1.11133 6.52359 1.63265 5.06182 2.60938C3.60005 3.5861 2.46074 4.97435 1.78796 6.59859C1.11518 8.22282 0.93915 10.0101 1.28213 11.7344C1.62511 13.4586 2.47169 15.0425 3.71483 16.2856C4.95796 17.5287 6.54181 18.3753 8.26609 18.7183C9.99036 19.0613 11.7776 18.8853 13.4019 18.2125C15.0261 17.5397 16.4143 16.4004 17.3911 14.9386C18.3678 13.4768 18.8891 11.7583 18.8891 10.0002C18.8891 7.64274 17.9526 5.38181 16.2856 3.71482C14.6186 2.04783 12.3577 1.11133 10.0002 1.11133ZM10.0002 17.778C8.46192 17.778 6.95817 17.3218 5.67912 16.4672C4.40007 15.6126 3.40317 14.3978 2.81449 12.9766C2.22581 11.5554 2.07178 9.99159 2.37189 8.48285C2.672 6.97411 3.41276 5.58824 4.5005 4.5005C5.58824 3.41276 6.97411 2.67199 8.48285 2.37189C9.99159 2.07178 11.5554 2.22581 12.9766 2.81449C14.3979 3.40317 15.6126 4.40007 16.4672 5.67912C17.3218 6.95816 17.778 8.46192 17.778 10.0002C17.778 12.063 16.9586 14.0413 15.4999 15.4999C14.0413 16.9586 12.063 17.778 10.0002 17.778Z" fill="#59596C"/>
<path d="M15.5553 6.7221C15.4512 6.61863 15.3104 6.56055 15.1636 6.56055C15.0169 6.56055 14.8761 6.61863 14.772 6.7221L8.6053 12.861L5.27197 9.52765C5.1703 9.41788 5.0292 9.353 4.87969 9.34727C4.73018 9.34154 4.58452 9.39543 4.47475 9.4971C4.36498 9.59876 4.30009 9.73987 4.29436 9.88938C4.28863 10.0389 4.34253 10.1846 4.44419 10.2943L8.6053 14.4443L15.5553 7.51099C15.6074 7.45934 15.6487 7.3979 15.6769 7.3302C15.7051 7.2625 15.7196 7.18988 15.7196 7.11654C15.7196 7.0432 15.7051 6.97059 15.6769 6.90289C15.6487 6.83519 15.6074 6.77374 15.5553 6.7221Z" fill="#59596C"/>
</g>
<defs>
<clipPath id="clip0_778_1253">
<rect width="20" height="20" fill="white"/>
</clipPath>
</defs>
</svg>
