<svg width="48" height="48" viewBox="0 0 48 48" fill="none" xmlns="http://www.w3.org/2000/svg">
<path d="M23.2907 27.2856C23.6817 27.6793 24.3187 27.6793 24.7097 27.2855L30.321 21.6353C30.7 21.2537 30.7038 20.6348 30.3365 20.2419C29.9412 19.8192 29.2648 19.8127 28.8695 20.2355L24.99 24.385V10.99C24.99 10.4432 24.5467 10 24 10C23.4533 10 23.01 10.4432 23.01 10.99V24.385L19.1305 20.2355C18.7352 19.8127 17.9035 19.9852 17.5083 20.4079C17.1409 20.8008 17.3 21.2537 17.679 21.6353L23.2907 27.2856Z" fill="url(#paint0_linear_2435_7670)"/>
<path d="M14 35C14 34.4477 14.4477 34 15 34H33C33.5523 34 34 34.4477 34 35C34 35.5523 33.5523 36 33 36H15C14.4477 36 14 35.5523 14 35Z" fill="url(#paint1_linear_2435_7670)"/>
<path fill-rule="evenodd" clip-rule="evenodd" d="M48 24C48 37.2548 37.2548 48 24 48C10.7452 48 0 37.2548 0 24C0 10.7452 10.7452 0 24 0C37.2548 0 48 10.7452 48 24ZM44 24C44 35.0457 35.0457 44 24 44C12.9543 44 4 35.0457 4 24C4 12.9543 12.9543 4 24 4C35.0457 4 44 12.9543 44 24Z" fill="url(#paint2_linear_2435_7670)"/>
<defs>
<linearGradient id="paint0_linear_2435_7670" x1="0" y1="24" x2="48" y2="24" gradientUnits="userSpaceOnUse">
<stop stop-color="#38BCC9"/>
<stop offset="1" stop-color="#088DFA"/>
</linearGradient>
<linearGradient id="paint1_linear_2435_7670" x1="0" y1="24" x2="48" y2="24" gradientUnits="userSpaceOnUse">
<stop stop-color="#38BCC9"/>
<stop offset="1" stop-color="#088DFA"/>
</linearGradient>
<linearGradient id="paint2_linear_2435_7670" x1="0" y1="24" x2="48" y2="24" gradientUnits="userSpaceOnUse">
<stop stop-color="#38BCC9"/>
<stop offset="1" stop-color="#088DFA"/>
</linearGradient>
</defs>
</svg>
