<svg width="21" height="20" viewBox="0 0 21 20" fill="none" xmlns="http://www.w3.org/2000/svg">
<path d="M10.6666 16.6666C12.4347 16.6666 14.1304 15.9642 15.3806 14.714C16.6309 13.4638 17.3333 11.7681 17.3333 9.99996C17.3333 8.23185 16.6309 6.53616 15.3806 5.28591C14.1304 4.03567 12.4347 3.33329 10.6666 3.33329C8.89848 3.33329 7.20278 4.03567 5.95254 5.28591C4.7023 6.53616 3.99992 8.23185 3.99992 9.99996C3.99992 11.7681 4.7023 13.4638 5.95254 14.714C7.20278 15.9642 8.89848 16.6666 10.6666 16.6666ZM10.6666 18.3333C6.06409 18.3333 2.33325 14.6025 2.33325 9.99996C2.33325 5.39746 6.06409 1.66663 10.6666 1.66663C15.2691 1.66663 18.9999 5.39746 18.9999 9.99996C18.9999 14.6025 15.2691 18.3333 10.6666 18.3333Z" fill="white" fill-opacity="0.75" style="mix-blend-mode:screen"/>
<g clip-path="url(#clip0_2207_4851)">
<path fill-rule="evenodd" clip-rule="evenodd" d="M12.8768 7.23985C12.9669 7.20193 13.0655 7.18885 13.1623 7.20197C13.2592 7.2151 13.3508 7.25395 13.4275 7.31447C13.5043 7.375 13.5634 7.45499 13.5988 7.54613C13.6341 7.63726 13.6444 7.73621 13.6285 7.83266L12.8017 12.8482C12.7214 13.332 12.1906 13.6095 11.7469 13.3685C11.3758 13.1669 10.8245 12.8563 10.3287 12.5321C10.0808 12.3699 9.32135 11.8504 9.41468 11.4807C9.49489 11.1646 10.7709 9.97677 11.5001 9.27058C11.7863 8.99313 11.6558 8.83308 11.3178 9.08828C10.4782 9.72193 9.13103 10.6855 8.68551 10.9568C8.29249 11.1959 8.0876 11.2368 7.8426 11.1959C7.39562 11.1216 6.98109 11.0064 6.64275 10.866C6.18556 10.6764 6.2078 10.0479 6.64239 9.86485L12.8768 7.23985Z" fill="white" fill-opacity="0.75" style="mix-blend-mode:screen"/>
</g>
<defs>
<clipPath id="clip0_2207_4851">
<rect width="8.75" height="8.75" fill="white" transform="translate(5.66638 5.62476)"/>
</clipPath>
</defs>
</svg>
