<svg width="20" height="20" viewBox="0 0 20 20" fill="none" xmlns="http://www.w3.org/2000/svg">
<path d="M10 16.6666C11.7681 16.6666 13.4638 15.9642 14.7141 14.714C15.9643 13.4638 16.6667 11.7681 16.6667 9.99996C16.6667 8.23185 15.9643 6.53616 14.7141 5.28591C13.4638 4.03567 11.7681 3.33329 10 3.33329C8.23191 3.33329 6.53622 4.03567 5.28598 5.28591C4.03573 6.53616 3.33335 8.23185 3.33335 9.99996C3.33335 11.7681 4.03573 13.4638 5.28598 14.714C6.53622 15.9642 8.23191 16.6666 10 16.6666ZM10 18.3333C5.39752 18.3333 1.66669 14.6025 1.66669 9.99996C1.66669 5.39746 5.39752 1.66663 10 1.66663C14.6025 1.66663 18.3334 5.39746 18.3334 9.99996C18.3334 14.6025 14.6025 18.3333 10 18.3333Z" fill="white" fill-opacity="0.75" style="mix-blend-mode:screen"/>
<path d="M14.1667 7.4558C13.86 7.58913 13.5309 7.6808 13.185 7.7208C13.5384 7.51247 13.8084 7.18247 13.9367 6.78997C13.6 6.98619 13.2326 7.12424 12.85 7.1983C12.6891 7.02961 12.4955 6.89547 12.281 6.80407C12.0665 6.71266 11.8357 6.6659 11.6025 6.66663C10.6584 6.66663 9.89337 7.4208 9.89337 8.34997C9.89337 8.48163 9.90837 8.60997 9.93754 8.7333C9.26031 8.70114 8.59722 8.52817 7.99058 8.22542C7.38394 7.92268 6.84706 7.4968 6.41421 6.97497C6.26218 7.23089 6.18213 7.52313 6.18254 7.8208C6.18254 8.40413 6.48504 8.9208 6.94337 9.22163C6.67208 9.21313 6.40659 9.1409 6.16837 9.0108V9.03163C6.17095 9.42285 6.30904 9.80108 6.55914 10.1019C6.80924 10.4028 7.15588 10.6076 7.54004 10.6816C7.28784 10.7483 7.02395 10.758 6.76754 10.71C6.87931 11.0465 7.0931 11.3399 7.37923 11.5494C7.66535 11.759 8.00961 11.8742 8.36421 11.8791C7.75584 12.3479 7.00891 12.6012 6.24087 12.5991C6.10337 12.5991 5.96754 12.5908 5.83337 12.5758C6.6171 13.0719 7.52584 13.3346 8.45337 13.3333C11.5984 13.3333 13.3175 10.7683 13.3175 8.5433L13.3117 8.32497C13.647 8.08937 13.9366 7.79487 14.1667 7.4558Z" fill="white" fill-opacity="0.75" style="mix-blend-mode:screen"/>
</svg>
