<svg width="21" height="20" viewBox="0 0 21 20" fill="none" xmlns="http://www.w3.org/2000/svg">
<path d="M10.8751 16.875C12.6432 16.875 14.3389 16.1726 15.5891 14.9224C16.8394 13.6721 17.5417 11.9764 17.5417 10.2083C17.5417 8.44022 16.8394 6.74453 15.5891 5.49429C14.3389 4.24405 12.6432 3.54167 10.8751 3.54167C9.10697 3.54167 7.41128 4.24405 6.16104 5.49429C4.91079 6.74453 4.20841 8.44022 4.20841 10.2083C4.20841 11.9764 4.91079 13.6721 6.16104 14.9224C7.41128 16.1726 9.10697 16.875 10.8751 16.875ZM10.8751 18.5417C6.27258 18.5417 2.54175 14.8108 2.54175 10.2083C2.54175 5.60583 6.27258 1.875 10.8751 1.875C15.4776 1.875 19.2084 5.60583 19.2084 10.2083C19.2084 14.8108 15.4776 18.5417 10.8751 18.5417Z" fill="white" fill-opacity="0.75" style="mix-blend-mode:screen"/>
<path d="M13.3109 7.31333H8.43925C7.48341 7.31333 6.70841 8.08 6.70841 9.025V11.4333C6.70841 12.3792 7.48341 13.145 8.43925 13.145H13.3109C14.2667 13.145 15.0417 12.3783 15.0417 11.4333V9.025C15.0417 8.07917 14.2667 7.31333 13.3109 7.31333ZM12.1409 10.3467L9.86175 11.4217C9.8478 11.4283 9.83242 11.4312 9.81703 11.4303C9.80164 11.4294 9.78673 11.4246 9.77369 11.4163C9.76064 11.4081 9.74988 11.3967 9.74241 11.3832C9.73493 11.3697 9.73098 11.3546 9.73091 11.3392V9.1225C9.73105 9.10688 9.73518 9.09155 9.74291 9.07798C9.75063 9.0644 9.7617 9.05302 9.77506 9.04493C9.78841 9.03683 9.80362 9.03228 9.81923 9.03171C9.83484 9.03114 9.85033 9.03456 9.86425 9.04167L12.1426 10.1833C12.1576 10.1912 12.1701 10.203 12.1788 10.2175C12.1875 10.232 12.192 10.2486 12.1918 10.2655C12.1916 10.2824 12.1868 10.2989 12.1778 10.3133C12.1688 10.3276 12.1561 10.3391 12.1409 10.3467Z" fill="white" fill-opacity="0.75" style="mix-blend-mode:screen"/>
</svg>
